<?xml version="1.0" standalone="no"?><!-- Generator: Gravit.io --><svg xmlns="http://www.w3.org/2000/svg" xmlns:xlink="http://www.w3.org/1999/xlink" style="isolation:isolate" viewBox="203.5 260 456.024 244.845" width="456.024" height="244.845"><g><path d=" M 306.641 424.399 L 315.103 404.435 L 317.099 404.435 L 325.934 424.399 L 323.041 424.399 L 320.415 418.517 L 312.001 418.517 L 309.534 424.399 L 306.641 424.399 L 306.641 424.399 Z  M 313.107 415.987 L 319.254 415.987 L 316.076 408.798 L 313.107 415.987 L 313.107 415.987 Z  M 327.91 411.327 L 330.493 411.327 L 330.493 414.325 L 330.634 414.098 L 330.634 414.098 Q 332.497 411.071 334.36 411.071 L 334.36 411.071 L 334.36 411.071 Q 335.813 411.071 337.394 412.549 L 337.394 412.549 L 336.039 414.822 L 336.039 414.822 Q 334.698 413.543 333.555 413.543 L 333.555 413.543 L 333.555 413.543 Q 332.313 413.543 331.403 414.737 L 331.403 414.737 L 331.403 414.737 Q 330.493 415.931 330.493 417.565 L 330.493 417.565 L 330.493 424.399 L 327.91 424.399 L 327.91 411.327 L 327.91 411.327 Z  M 347.344 416.542 L 347.344 416.542 L 347.344 422.097 L 347.344 422.097 Q 347.344 422.765 347.796 422.765 L 347.796 422.765 L 347.796 422.765 Q 348.261 422.765 349.249 422.069 L 349.249 422.069 L 349.249 423.646 L 349.249 423.646 Q 348.374 424.214 347.845 424.421 L 347.845 424.421 L 347.845 424.421 Q 347.316 424.627 346.737 424.627 L 346.737 424.627 L 346.737 424.627 Q 345.086 424.627 344.789 423.319 L 344.789 423.319 L 344.789 423.319 Q 343.152 424.598 341.303 424.598 L 341.303 424.598 L 341.303 424.598 Q 339.949 424.598 339.045 423.696 L 339.045 423.696 L 339.045 423.696 Q 338.142 422.794 338.142 421.43 L 338.142 421.43 L 338.142 421.43 Q 338.142 420.193 339.024 419.22 L 339.024 419.22 L 339.024 419.22 Q 339.906 418.247 341.529 417.678 L 341.529 417.678 L 344.818 416.542 L 344.818 415.845 L 344.818 415.845 Q 344.818 413.487 342.475 413.487 L 342.475 413.487 L 342.475 413.487 Q 340.372 413.487 338.382 415.675 L 338.382 415.675 L 338.382 412.847 L 338.382 412.847 Q 339.878 411.071 342.687 411.071 L 342.687 411.071 L 342.687 411.071 Q 344.789 411.071 346.06 412.179 L 346.06 412.179 L 346.06 412.179 Q 346.483 412.535 346.822 413.124 L 346.822 413.124 L 346.822 413.124 Q 347.16 413.714 347.252 414.304 L 347.252 414.304 L 347.252 414.304 Q 347.344 414.893 347.344 416.542 Z  M 344.818 421.813 L 344.818 421.813 L 344.818 417.934 L 343.096 418.602 L 343.096 418.602 Q 341.783 419.128 341.24 419.66 L 341.24 419.66 L 341.24 419.66 Q 340.697 420.193 340.697 420.989 L 340.697 420.989 L 340.697 420.989 Q 340.697 421.799 341.212 422.31 L 341.212 422.31 L 341.212 422.31 Q 341.727 422.822 342.545 422.822 L 342.545 422.822 L 342.545 422.822 Q 343.773 422.822 344.818 421.813 Z  M 353.977 431.063 L 351.352 431.063 L 351.352 411.327 L 355.849 411.327 L 355.849 411.327 Q 359.303 411.327 361.227 413.06 L 361.227 413.06 L 361.227 413.06 Q 363.151 414.794 363.151 417.906 L 363.151 417.906 L 363.151 417.906 Q 363.151 420.847 361.34 422.737 L 361.34 422.737 L 361.34 422.737 Q 359.529 424.627 356.725 424.627 L 356.725 424.627 L 356.725 424.627 Q 355.485 424.627 353.977 424.072 L 353.977 424.072 L 353.977 431.063 L 353.977 431.063 Z  M 355.794 413.742 L 355.794 413.742 L 353.977 413.742 L 353.977 421.785 L 353.977 421.785 Q 355.16 422.396 356.456 422.396 L 356.456 422.396 L 356.456 422.396 Q 358.259 422.396 359.406 421.131 L 359.406 421.131 L 359.406 421.131 Q 360.554 419.867 360.554 417.877 L 360.554 417.877 L 360.554 417.877 Q 360.554 416.598 360.012 415.618 L 360.012 415.618 L 360.012 415.618 Q 359.47 414.638 358.533 414.19 L 358.533 414.19 L 358.533 414.19 Q 357.597 413.742 355.794 413.742 Z  M 367.3 405.828 L 367.3 405.828 L 367.3 405.828 Q 367.935 405.828 368.387 406.268 L 368.387 406.268 L 368.387 406.268 Q 368.839 406.709 368.839 407.348 L 368.839 407.348 L 368.839 407.348 Q 368.839 407.973 368.387 408.428 L 368.387 408.428 L 368.387 408.428 Q 367.935 408.883 367.3 408.883 L 367.3 408.883 L 367.3 408.883 Q 366.708 408.883 366.256 408.421 L 366.256 408.421 L 366.256 408.421 Q 365.804 407.959 365.804 407.348 L 365.804 407.348 L 365.804 407.348 Q 365.804 406.752 366.256 406.29 L 366.256 406.29 L 366.256 406.29 Q 366.708 405.828 367.3 405.828 Z  M 366.03 424.399 L 366.03 411.327 L 368.599 411.327 L 368.599 424.399 L 366.03 424.399 L 366.03 424.399 Z  M 372.48 411.327 L 375.063 411.327 L 375.063 414.325 L 375.204 414.098 L 375.204 414.098 Q 377.067 411.071 378.93 411.071 L 378.93 411.071 L 378.93 411.071 Q 380.383 411.071 381.964 412.549 L 381.964 412.549 L 380.609 414.822 L 380.609 414.822 Q 379.269 413.543 378.125 413.543 L 378.125 413.543 L 378.125 413.543 Q 376.883 413.543 375.973 414.737 L 375.973 414.737 L 375.973 414.737 Q 375.063 415.931 375.063 417.565 L 375.063 417.565 L 375.063 424.399 L 372.48 424.399 L 372.48 411.327 L 372.48 411.327 Z  M 391.914 416.542 L 391.914 416.542 L 391.914 422.097 L 391.914 422.097 Q 391.914 422.765 392.366 422.765 L 392.366 422.765 L 392.366 422.765 Q 392.832 422.765 393.819 422.069 L 393.819 422.069 L 393.819 423.646 L 393.819 423.646 Q 392.944 424.214 392.415 424.421 L 392.415 424.421 L 392.415 424.421 Q 391.886 424.627 391.307 424.627 L 391.307 424.627 L 391.307 424.627 Q 389.656 424.627 389.36 423.319 L 389.36 423.319 L 389.36 423.319 Q 387.722 424.598 385.874 424.598 L 385.874 424.598 L 385.874 424.598 Q 384.519 424.598 383.615 423.696 L 383.615 423.696 L 383.615 423.696 Q 382.712 422.794 382.712 421.43 L 382.712 421.43 L 382.712 421.43 Q 382.712 420.193 383.594 419.22 L 383.594 419.22 L 383.594 419.22 Q 384.476 418.247 386.099 417.678 L 386.099 417.678 L 389.388 416.542 L 389.388 415.845 L 389.388 415.845 Q 389.388 413.487 387.045 413.487 L 387.045 413.487 L 387.045 413.487 Q 384.942 413.487 382.952 415.675 L 382.952 415.675 L 382.952 412.847 L 382.952 412.847 Q 384.448 411.071 387.257 411.071 L 387.257 411.071 L 387.257 411.071 Q 389.36 411.071 390.63 412.179 L 390.63 412.179 L 390.63 412.179 Q 391.053 412.535 391.392 413.124 L 391.392 413.124 L 391.392 413.124 Q 391.731 413.714 391.822 414.304 L 391.822 414.304 L 391.822 414.304 Q 391.914 414.893 391.914 416.542 Z  M 389.388 421.813 L 389.388 421.813 L 389.388 417.934 L 387.666 418.602 L 387.666 418.602 Q 386.353 419.128 385.81 419.66 L 385.81 419.66 L 385.81 419.66 Q 385.267 420.193 385.267 420.989 L 385.267 420.989 L 385.267 420.989 Q 385.267 421.799 385.782 422.31 L 385.782 422.31 L 385.782 422.31 Q 386.297 422.822 387.116 422.822 L 387.116 422.822 L 387.116 422.822 Q 388.343 422.822 389.388 421.813 Z  M 405.83 421.344 L 405.83 421.344 L 405.83 423.902 L 405.83 423.902 Q 403.896 424.627 402.048 424.627 L 402.048 424.627 L 402.048 424.627 Q 398.999 424.627 397.186 422.808 L 397.186 422.808 L 397.186 422.808 Q 395.372 420.989 395.372 417.934 L 395.372 417.934 L 395.372 417.934 Q 395.372 414.851 397.136 412.961 L 397.136 412.961 L 397.136 412.961 Q 398.9 411.071 401.779 411.071 L 401.779 411.071 L 401.779 411.071 Q 402.781 411.071 403.579 411.263 L 403.579 411.263 L 403.579 411.263 Q 404.376 411.455 405.548 411.98 L 405.548 411.98 L 405.548 414.737 L 405.548 414.737 Q 403.6 413.487 401.935 413.487 L 401.935 413.487 L 401.935 413.487 Q 400.199 413.487 399.084 414.716 L 399.084 414.716 L 399.084 414.716 Q 397.969 415.945 397.969 417.849 L 397.969 417.849 L 397.969 417.849 Q 397.969 419.852 399.175 421.032 L 399.175 421.032 L 399.175 421.032 Q 400.382 422.211 402.429 422.211 L 402.429 422.211 L 402.429 422.211 Q 403.911 422.211 405.83 421.344 Z  M 416.909 416.542 L 416.909 416.542 L 416.909 422.097 L 416.909 422.097 Q 416.909 422.765 417.361 422.765 L 417.361 422.765 L 417.361 422.765 Q 417.826 422.765 418.814 422.069 L 418.814 422.069 L 418.814 423.646 L 418.814 423.646 Q 417.939 424.214 417.41 424.421 L 417.41 424.421 L 417.41 424.421 Q 416.881 424.627 416.302 424.627 L 416.302 424.627 L 416.302 424.627 Q 414.651 424.627 414.354 423.319 L 414.354 423.319 L 414.354 423.319 Q 412.717 424.598 410.868 424.598 L 410.868 424.598 L 410.868 424.598 Q 409.514 424.598 408.61 423.696 L 408.61 423.696 L 408.61 423.696 Q 407.707 422.794 407.707 421.43 L 407.707 421.43 L 407.707 421.43 Q 407.707 420.193 408.589 419.22 L 408.589 419.22 L 408.589 419.22 Q 409.471 418.247 411.094 417.678 L 411.094 417.678 L 414.383 416.542 L 414.383 415.845 L 414.383 415.845 Q 414.383 413.487 412.04 413.487 L 412.04 413.487 L 412.04 413.487 Q 409.937 413.487 407.947 415.675 L 407.947 415.675 L 407.947 412.847 L 407.947 412.847 Q 409.443 411.071 412.252 411.071 L 412.252 411.071 L 412.252 411.071 Q 414.354 411.071 415.625 412.179 L 415.625 412.179 L 415.625 412.179 Q 416.048 412.535 416.387 413.124 L 416.387 413.124 L 416.387 413.124 Q 416.726 413.714 416.817 414.304 L 416.817 414.304 L 416.817 414.304 Q 416.909 414.893 416.909 416.542 Z  M 414.383 421.813 L 414.383 421.813 L 414.383 417.934 L 412.661 418.602 L 412.661 418.602 Q 411.348 419.128 410.805 419.66 L 410.805 419.66 L 410.805 419.66 Q 410.262 420.193 410.262 420.989 L 410.262 420.989 L 410.262 420.989 Q 410.262 421.799 410.777 422.31 L 410.777 422.31 L 410.777 422.31 Q 411.292 422.822 412.11 422.822 L 412.11 422.822 L 412.11 422.822 Q 413.338 422.822 414.383 421.813 Z  M 222.666 419.795 L 222.666 419.795 L 222.666 422.921 L 222.666 422.921 Q 219.561 424.627 215.496 424.627 L 215.496 424.627 L 215.496 424.627 Q 212.194 424.627 209.893 423.291 L 209.893 423.291 L 209.893 423.291 Q 207.593 421.955 206.252 419.611 L 206.252 419.611 L 206.252 419.611 Q 204.911 417.266 204.911 414.538 L 204.911 414.538 L 204.911 414.538 Q 204.911 410.204 207.981 407.249 L 207.981 407.249 L 207.981 407.249 Q 211.051 404.293 215.553 404.293 L 215.553 404.293 L 215.553 404.293 Q 218.658 404.293 222.454 405.927 L 222.454 405.927 L 222.454 408.982 L 222.454 408.982 Q 218.997 406.993 215.694 406.993 L 215.694 406.993 L 215.694 406.993 Q 212.307 406.993 210.07 409.146 L 210.07 409.146 L 210.07 409.146 Q 207.833 411.298 207.833 414.538 L 207.833 414.538 L 207.833 414.538 Q 207.833 417.806 210.035 419.909 L 210.035 419.909 L 210.035 419.909 Q 212.236 422.012 215.666 422.012 L 215.666 422.012 L 215.666 422.012 Q 219.251 422.012 222.666 419.795 Z  M 233.943 416.542 L 233.943 416.542 L 233.943 422.097 L 233.943 422.097 Q 233.943 422.765 234.394 422.765 L 234.394 422.765 L 234.394 422.765 Q 234.86 422.765 235.848 422.069 L 235.848 422.069 L 235.848 423.646 L 235.848 423.646 Q 234.973 424.214 234.444 424.421 L 234.444 424.421 L 234.444 424.421 Q 233.914 424.627 233.336 424.627 L 233.336 424.627 L 233.336 424.627 Q 231.684 424.627 231.388 423.319 L 231.388 423.319 L 231.388 423.319 Q 229.751 424.598 227.902 424.598 L 227.902 424.598 L 227.902 424.598 Q 226.547 424.598 225.644 423.696 L 225.644 423.696 L 225.644 423.696 Q 224.741 422.794 224.741 421.43 L 224.741 421.43 L 224.741 421.43 Q 224.741 420.193 225.623 419.22 L 225.623 419.22 L 225.623 419.22 Q 226.505 418.247 228.128 417.678 L 228.128 417.678 L 231.416 416.542 L 231.416 415.845 L 231.416 415.845 Q 231.416 413.487 229.074 413.487 L 229.074 413.487 L 229.074 413.487 Q 226.971 413.487 224.981 415.675 L 224.981 415.675 L 224.981 412.847 L 224.981 412.847 Q 226.477 411.071 229.285 411.071 L 229.285 411.071 L 229.285 411.071 Q 231.388 411.071 232.658 412.179 L 232.658 412.179 L 232.658 412.179 Q 233.082 412.535 233.42 413.124 L 233.42 413.124 L 233.42 413.124 Q 233.759 413.714 233.851 414.304 L 233.851 414.304 L 233.851 414.304 Q 233.943 414.893 233.943 416.542 Z  M 231.416 421.813 L 231.416 421.813 L 231.416 417.934 L 229.695 418.602 L 229.695 418.602 Q 228.382 419.128 227.839 419.66 L 227.839 419.66 L 227.839 419.66 Q 227.295 420.193 227.295 420.989 L 227.295 420.989 L 227.295 420.989 Q 227.295 421.799 227.81 422.31 L 227.81 422.31 L 227.81 422.31 Q 228.326 422.822 229.144 422.822 L 229.144 422.822 L 229.144 422.822 Q 230.372 422.822 231.416 421.813 Z  M 248.762 414.908 L 248.762 414.908 L 248.762 424.399 L 246.179 424.399 L 246.179 417.124 L 246.179 417.124 Q 246.179 414.95 245.6 414.091 L 245.6 414.091 L 245.6 414.091 Q 245.022 413.231 243.582 413.231 L 243.582 413.231 L 243.582 413.231 Q 242.778 413.231 242.107 413.6 L 242.107 413.6 L 242.107 413.6 Q 241.437 413.97 240.576 414.908 L 240.576 414.908 L 240.576 424.399 L 238.007 424.399 L 238.007 411.327 L 240.576 411.327 L 240.576 413.046 L 240.576 413.046 Q 242.538 411.071 244.415 411.071 L 244.415 411.071 L 244.415 411.071 Q 246.885 411.071 248.24 413.43 L 248.24 413.43 L 248.24 413.43 Q 250.3 411.043 252.544 411.043 L 252.544 411.043 L 252.544 411.043 Q 254.435 411.043 255.656 412.435 L 255.656 412.435 L 255.656 412.435 Q 256.877 413.828 256.877 416.684 L 256.877 416.684 L 256.877 424.399 L 254.308 424.399 L 254.308 416.655 L 254.308 416.655 Q 254.308 415.021 253.645 414.154 L 253.645 414.154 L 253.645 414.154 Q 252.982 413.288 251.74 413.288 L 251.74 413.288 L 251.74 413.288 Q 250.145 413.288 248.762 414.908 Z  M 262.861 431.063 L 260.236 431.063 L 260.236 411.327 L 264.733 411.327 L 264.733 411.327 Q 268.186 411.327 270.111 413.06 L 270.111 413.06 L 270.111 413.06 Q 272.035 414.794 272.035 417.906 L 272.035 417.906 L 272.035 417.906 Q 272.035 420.847 270.224 422.737 L 270.224 422.737 L 270.224 422.737 Q 268.413 424.627 265.609 424.627 L 265.609 424.627 L 265.609 424.627 Q 264.369 424.627 262.861 424.072 L 262.861 424.072 L 262.861 431.063 L 262.861 431.063 Z  M 264.678 413.742 L 264.678 413.742 L 262.861 413.742 L 262.861 421.785 L 262.861 421.785 Q 264.044 422.396 265.34 422.396 L 265.34 422.396 L 265.34 422.396 Q 267.142 422.396 268.29 421.131 L 268.29 421.131 L 268.29 421.131 Q 269.438 419.867 269.438 417.877 L 269.438 417.877 L 269.438 417.877 Q 269.438 416.598 268.896 415.618 L 268.896 415.618 L 268.896 415.618 Q 268.353 414.638 267.417 414.19 L 267.417 414.19 L 267.417 414.19 Q 266.48 413.742 264.678 413.742 Z  M 285.697 424.399 L 283.128 424.399 L 283.128 422.723 L 283.128 422.723 Q 282.309 423.624 281.258 424.125 L 281.258 424.125 L 281.258 424.125 Q 280.206 424.627 279.162 424.627 L 279.162 424.627 L 279.162 424.627 Q 277.934 424.627 276.897 424.008 L 276.897 424.008 L 276.897 424.008 Q 275.859 423.39 275.33 422.332 L 275.33 422.332 L 275.33 422.332 Q 274.801 421.273 274.801 418.815 L 274.801 418.815 L 274.801 411.327 L 277.37 411.327 L 277.37 418.777 L 277.37 418.777 Q 277.37 420.835 277.955 421.651 L 277.955 421.651 L 277.955 421.651 Q 278.541 422.467 280.009 422.467 L 280.009 422.467 L 280.009 422.467 Q 281.844 422.467 283.128 420.662 L 283.128 420.662 L 283.128 411.327 L 285.697 411.327 L 285.697 424.399 L 285.697 424.399 Z  M 288.674 423.461 L 288.674 423.461 L 288.674 420.676 L 288.674 420.676 Q 289.761 421.444 290.897 421.92 L 290.897 421.92 L 290.897 421.92 Q 292.033 422.396 292.81 422.396 L 292.81 422.396 L 292.81 422.396 Q 293.614 422.396 294.193 421.998 L 294.193 421.998 L 294.193 421.998 Q 294.771 421.6 294.771 421.046 L 294.771 421.046 L 294.771 421.046 Q 294.771 420.477 294.397 420.101 L 294.397 420.101 L 294.397 420.101 Q 294.023 419.724 292.781 419.014 L 292.781 419.014 L 292.781 419.014 Q 290.298 417.621 289.528 416.634 L 289.528 416.634 L 289.528 416.634 Q 288.759 415.646 288.759 414.481 L 288.759 414.481 L 288.759 414.481 Q 288.759 412.975 289.924 412.023 L 289.924 412.023 L 289.924 412.023 Q 291.088 411.071 292.923 411.071 L 292.923 411.071 L 292.923 411.071 Q 294.828 411.071 296.832 412.151 L 296.832 412.151 L 296.832 414.709 L 296.832 414.709 Q 294.546 413.316 293.092 413.316 L 293.092 413.316 L 293.092 413.316 Q 292.344 413.316 291.885 413.636 L 291.885 413.636 L 291.885 413.636 Q 291.427 413.956 291.427 414.481 L 291.427 414.481 L 291.427 414.481 Q 291.427 414.936 291.843 415.348 L 291.843 415.348 L 291.843 415.348 Q 292.259 415.76 293.304 416.342 L 293.304 416.342 L 294.221 416.867 L 294.221 416.867 Q 297.467 418.715 297.467 420.96 L 297.467 420.96 L 297.467 420.96 Q 297.467 422.566 296.218 423.596 L 296.218 423.596 L 296.218 423.596 Q 294.969 424.627 293.007 424.627 L 293.007 424.627 L 293.007 424.627 Q 291.85 424.627 290.947 424.378 L 290.947 424.378 L 290.947 424.378 Q 290.043 424.129 288.674 423.461 Z  M 212.349 390.653 L 212.349 390.653 L 205.673 390.653 L 205.673 370.802 L 210.839 370.802 L 210.839 370.802 Q 213.281 370.802 214.65 371.463 L 214.65 371.463 L 214.65 371.463 Q 216.019 372.124 216.738 373.282 L 216.738 373.282 L 216.738 373.282 Q 217.458 374.44 217.458 375.96 L 217.458 375.96 L 217.458 375.96 Q 217.458 378.887 214.452 380.152 L 214.452 380.152 L 214.452 380.152 Q 216.611 380.564 217.889 381.942 L 217.889 381.942 L 217.889 381.942 Q 219.166 383.321 219.166 385.239 L 219.166 385.239 L 219.166 385.239 Q 219.166 386.759 218.39 387.953 L 218.39 387.953 L 218.39 387.953 Q 217.613 389.146 216.11 389.9 L 216.11 389.9 L 216.11 389.9 Q 214.607 390.653 212.349 390.653 Z  M 210.924 373.332 L 210.924 373.332 L 208.496 373.332 L 208.496 379.3 L 210.373 379.3 L 210.373 379.3 Q 212.631 379.3 213.584 378.433 L 213.584 378.433 L 213.584 378.433 Q 214.537 377.566 214.537 376.188 L 214.537 376.188 L 214.537 376.188 Q 214.537 373.332 210.924 373.332 Z  M 211.135 381.829 L 211.135 381.829 L 208.496 381.829 L 208.496 388.123 L 211.276 388.123 L 211.276 388.123 Q 213.591 388.123 214.417 387.761 L 214.417 387.761 L 214.417 387.761 Q 215.242 387.399 215.743 386.631 L 215.743 386.631 L 215.743 386.631 Q 216.244 385.864 216.244 384.983 L 216.244 384.983 L 216.244 384.983 Q 216.244 384.074 215.715 383.321 L 215.715 383.321 L 215.715 383.321 Q 215.186 382.568 214.212 382.198 L 214.212 382.198 L 214.212 382.198 Q 213.238 381.829 211.135 381.829 Z  M 222.92 372.081 L 222.92 372.081 L 222.92 372.081 Q 223.555 372.081 224.007 372.522 L 224.007 372.522 L 224.007 372.522 Q 224.458 372.962 224.458 373.602 L 224.458 373.602 L 224.458 373.602 Q 224.458 374.227 224.007 374.682 L 224.007 374.682 L 224.007 374.682 Q 223.555 375.136 222.92 375.136 L 222.92 375.136 L 222.92 375.136 Q 222.327 375.136 221.876 374.674 L 221.876 374.674 L 221.876 374.674 Q 221.424 374.213 221.424 373.602 L 221.424 373.602 L 221.424 373.602 Q 221.424 373.005 221.876 372.543 L 221.876 372.543 L 221.876 372.543 Q 222.327 372.081 222.92 372.081 Z  M 221.65 390.653 L 221.65 377.58 L 224.218 377.58 L 224.218 390.653 L 221.65 390.653 L 221.65 390.653 Z  M 227.817 389.928 L 227.817 370.802 L 230.386 370.802 L 230.386 378.518 L 230.386 378.518 Q 232.051 377.296 233.943 377.296 L 233.943 377.296 L 233.943 377.296 Q 236.412 377.296 237.979 379.172 L 237.979 379.172 L 237.979 379.172 Q 239.546 381.047 239.546 383.989 L 239.546 383.989 L 239.546 383.989 Q 239.546 387.143 237.676 389.011 L 237.676 389.011 L 237.676 389.011 Q 235.806 390.88 232.672 390.88 L 232.672 390.88 L 232.672 390.88 Q 231.416 390.88 230.026 390.61 L 230.026 390.61 L 230.026 390.61 Q 228.636 390.34 227.817 389.928 L 227.817 389.928 L 227.817 389.928 Z  M 230.386 380.99 L 230.386 380.99 L 230.386 388.067 L 230.386 388.067 Q 231.699 388.464 233.082 388.464 L 233.082 388.464 L 233.082 388.464 Q 234.789 388.464 235.869 387.242 L 235.869 387.242 L 235.869 387.242 Q 236.949 386.02 236.949 384.102 L 236.949 384.102 L 236.949 384.102 Q 236.949 382.156 235.94 380.934 L 235.94 380.934 L 235.94 380.934 Q 234.931 379.712 233.308 379.712 L 233.308 379.712 L 233.308 379.712 Q 231.868 379.712 230.386 380.99 Z  M 242.439 390.653 L 242.439 370.802 L 245.008 370.802 L 245.008 390.653 L 242.439 390.653 L 242.439 390.653 Z  M 250.046 372.081 L 250.046 372.081 L 250.046 372.081 Q 250.681 372.081 251.133 372.522 L 251.133 372.522 L 251.133 372.522 Q 251.584 372.962 251.584 373.602 L 251.584 373.602 L 251.584 373.602 Q 251.584 374.227 251.133 374.682 L 251.133 374.682 L 251.133 374.682 Q 250.681 375.136 250.046 375.136 L 250.046 375.136 L 250.046 375.136 Q 249.453 375.136 249.002 374.674 L 249.002 374.674 L 249.002 374.674 Q 248.55 374.213 248.55 373.602 L 248.55 373.602 L 248.55 373.602 Q 248.55 373.005 249.002 372.543 L 249.002 372.543 L 249.002 372.543 Q 249.453 372.081 250.046 372.081 Z  M 248.776 390.653 L 248.776 377.58 L 251.344 377.58 L 251.344 390.653 L 248.776 390.653 L 248.776 390.653 Z  M 261.266 377.552 L 261.266 377.552 L 261.266 377.552 Q 264.23 377.552 266.192 379.477 L 266.192 379.477 L 266.192 379.477 Q 268.154 381.402 268.154 384.315 L 268.154 384.315 L 268.154 384.315 Q 268.154 387.143 266.164 389.011 L 266.164 389.011 L 266.164 389.011 Q 264.174 390.88 261.153 390.88 L 261.153 390.88 L 261.153 390.88 Q 258.232 390.88 256.27 388.983 L 256.27 388.983 L 256.27 388.983 Q 254.308 387.086 254.308 384.244 L 254.308 384.244 L 254.308 384.244 Q 254.308 381.374 256.291 379.463 L 256.291 379.463 L 256.291 379.463 Q 258.274 377.552 261.266 377.552 Z  M 261.125 379.882 L 261.125 379.882 L 261.125 379.882 Q 259.276 379.882 258.091 381.104 L 258.091 381.104 L 258.091 381.104 Q 256.905 382.326 256.905 384.216 L 256.905 384.216 L 256.905 384.216 Q 256.905 386.091 258.119 387.278 L 258.119 387.278 L 258.119 387.278 Q 259.333 388.464 261.238 388.464 L 261.238 388.464 L 261.238 388.464 Q 263.129 388.464 264.336 387.264 L 264.336 387.264 L 264.336 387.264 Q 265.543 386.063 265.543 384.187 L 265.543 384.187 L 265.543 384.187 Q 265.543 382.326 264.286 381.104 L 264.286 381.104 L 264.286 381.104 Q 263.03 379.882 261.125 379.882 Z  M 269.184 379.911 L 269.184 379.655 L 274.011 374.88 L 274.011 377.58 L 278.118 377.58 L 278.118 379.911 L 274.011 379.911 L 274.011 386.308 L 274.011 386.308 Q 274.011 388.55 275.859 388.55 L 275.859 388.55 L 275.859 388.55 Q 277.243 388.55 278.781 387.626 L 278.781 387.626 L 278.781 390.042 L 278.781 390.042 Q 277.299 390.88 275.549 390.88 L 275.549 390.88 L 275.549 390.88 Q 273.785 390.88 272.613 389.843 L 272.613 389.843 L 272.613 389.843 Q 272.246 389.53 272.007 389.139 L 272.007 389.139 L 272.007 389.139 Q 271.767 388.749 271.604 388.116 L 271.604 388.116 L 271.604 388.116 Q 271.442 387.484 271.442 385.708 L 271.442 385.708 L 271.442 379.911 L 269.184 379.911 L 269.184 379.911 Z  M 291.695 384.017 L 291.695 384.344 L 282.563 384.344 L 282.563 384.344 Q 282.662 386.219 283.812 387.328 L 283.812 387.328 L 283.812 387.328 Q 284.963 388.436 286.783 388.436 L 286.783 388.436 L 286.783 388.436 Q 289.324 388.436 291.469 386.845 L 291.469 386.845 L 291.469 389.374 L 291.469 389.374 Q 290.283 390.169 289.119 390.51 L 289.119 390.51 L 289.119 390.51 Q 287.955 390.852 286.388 390.852 L 286.388 390.852 L 286.388 390.852 Q 284.243 390.852 282.916 389.956 L 282.916 389.956 L 282.916 389.956 Q 281.59 389.061 280.792 387.548 L 280.792 387.548 L 280.792 387.548 Q 279.995 386.035 279.995 384.045 L 279.995 384.045 L 279.995 384.045 Q 279.995 381.061 281.674 379.193 L 281.674 379.193 L 281.674 379.193 Q 283.354 377.324 286.035 377.324 L 286.035 377.324 L 286.035 377.324 Q 288.618 377.324 290.156 379.143 L 290.156 379.143 L 290.156 379.143 Q 291.695 380.962 291.695 384.017 L 291.695 384.017 L 291.695 384.017 Z  M 282.62 382.795 L 282.62 382.795 L 289.154 382.795 L 289.154 382.795 Q 289.056 381.246 288.237 380.408 L 288.237 380.408 L 288.237 380.408 Q 287.418 379.569 286.035 379.569 L 286.035 379.569 L 286.035 379.569 Q 284.652 379.569 283.77 380.408 L 283.77 380.408 L 283.77 380.408 Q 282.888 381.246 282.62 382.795 Z  M 304.213 387.598 L 304.213 387.598 L 304.213 390.155 L 304.213 390.155 Q 302.28 390.88 300.431 390.88 L 300.431 390.88 L 300.431 390.88 Q 297.382 390.88 295.569 389.061 L 295.569 389.061 L 295.569 389.061 Q 293.755 387.242 293.755 384.187 L 293.755 384.187 L 293.755 384.187 Q 293.755 381.104 295.519 379.214 L 295.519 379.214 L 295.519 379.214 Q 297.284 377.324 300.163 377.324 L 300.163 377.324 L 300.163 377.324 Q 301.165 377.324 301.962 377.516 L 301.962 377.516 L 301.962 377.516 Q 302.76 377.708 303.931 378.234 L 303.931 378.234 L 303.931 380.99 L 303.931 380.99 Q 301.983 379.74 300.318 379.74 L 300.318 379.74 L 300.318 379.74 Q 298.582 379.74 297.467 380.969 L 297.467 380.969 L 297.467 380.969 Q 296.352 382.198 296.352 384.102 L 296.352 384.102 L 296.352 384.102 Q 296.352 386.106 297.559 387.285 L 297.559 387.285 L 297.559 387.285 Q 298.766 388.464 300.812 388.464 L 300.812 388.464 L 300.812 388.464 Q 302.294 388.464 304.213 387.598 Z  M 315.292 382.795 L 315.292 382.795 L 315.292 388.351 L 315.292 388.351 Q 315.292 389.019 315.744 389.019 L 315.744 389.019 L 315.744 389.019 Q 316.21 389.019 317.198 388.322 L 317.198 388.322 L 317.198 389.9 L 317.198 389.9 Q 316.323 390.468 315.793 390.674 L 315.793 390.674 L 315.793 390.674 Q 315.264 390.88 314.686 390.88 L 314.686 390.88 L 314.686 390.88 Q 313.034 390.88 312.738 389.573 L 312.738 389.573 L 312.738 389.573 Q 311.101 390.852 309.252 390.852 L 309.252 390.852 L 309.252 390.852 Q 307.897 390.852 306.994 389.949 L 306.994 389.949 L 306.994 389.949 Q 306.09 389.047 306.09 387.683 L 306.09 387.683 L 306.09 387.683 Q 306.09 386.447 306.973 385.473 L 306.973 385.473 L 306.973 385.473 Q 307.855 384.5 309.478 383.932 L 309.478 383.932 L 312.766 382.795 L 312.766 382.099 L 312.766 382.099 Q 312.766 379.74 310.423 379.74 L 310.423 379.74 L 310.423 379.74 Q 308.32 379.74 306.33 381.928 L 306.33 381.928 L 306.33 379.101 L 306.33 379.101 Q 307.826 377.324 310.635 377.324 L 310.635 377.324 L 310.635 377.324 Q 312.738 377.324 314.008 378.433 L 314.008 378.433 L 314.008 378.433 Q 314.431 378.788 314.77 379.378 L 314.77 379.378 L 314.77 379.378 Q 315.109 379.967 315.201 380.557 L 315.201 380.557 L 315.201 380.557 Q 315.292 381.147 315.292 382.795 Z  M 312.766 388.067 L 312.766 388.067 L 312.766 384.187 L 311.044 384.855 L 311.044 384.855 Q 309.732 385.381 309.188 385.914 L 309.188 385.914 L 309.188 385.914 Q 308.645 386.447 308.645 387.242 L 308.645 387.242 L 308.645 387.242 Q 308.645 388.052 309.16 388.564 L 309.16 388.564 L 309.16 388.564 Q 309.675 389.075 310.494 389.075 L 310.494 389.075 L 310.494 389.075 Q 311.722 389.075 312.766 388.067 Z " fill-rule="evenodd" fill="rgb(255,255,255)"/><g><g><path d=" M 615.505 313.3 L 608.842 458.525 C 607.307 462.276 605.661 462.543 603.812 459.213 L 595.035 313.3 L 615.505 313.3 L 615.505 313.3 Z " fill-rule="evenodd" fill="rgb(0,149,218)"/><path d=" M 583.564 313.3 L 576.901 458.525 C 575.366 462.276 573.72 462.543 571.871 459.213 L 563.094 313.3 L 583.564 313.3 L 583.564 313.3 Z " fill-rule="evenodd" fill="rgb(0,149,218)"/><path d=" M 551.488 313.3 L 544.825 458.525 C 543.29 462.276 541.644 462.543 539.795 459.213 L 531.018 313.3 L 551.488 313.3 L 551.488 313.3 Z " fill-rule="evenodd" fill="rgb(0,149,218)"/><path d=" M 537.314 418.886 L 535.527 418.493 L 534.225 418.264 L 532.947 418.095 L 531.694 417.981 L 530.471 417.917 L 529.276 417.903 L 528.115 417.932 L 526.988 418.002 L 525.9 418.11 L 524.85 418.25 L 523.843 418.421 L 522.879 418.618 L 521.962 418.838 L 521.093 419.078 L 520.274 419.334 L 517.611 420.27 L 520.344 421.099 L 521.118 421.355 L 521.874 421.624 L 522.614 421.909 L 523.339 422.211 L 524.049 422.528 L 524.745 422.861 L 525.428 423.211 L 526.1 423.577 L 526.759 423.961 L 527.409 424.364 L 528.048 424.786 L 528.681 425.226 L 529.303 425.686 L 529.919 426.165 L 530.176 426.376 L 530.094 426.607 L 529.813 427.223 L 529.468 427.832 L 529.054 428.459 L 528.566 429.12 L 527.999 429.836 L 527.352 430.621 L 524.716 433.766 L 528.055 432.216 L 528.69 431.942 L 529.325 431.687 L 529.957 431.449 L 530.59 431.226 L 531.22 431.015 L 531.852 430.815 L 532.482 430.624 L 533.115 430.436 L 533.749 430.252 L 534.386 430.069 L 535.022 429.886 L 535.663 429.696 L 536.305 429.503 L 536.951 429.3 L 538.087 428.929 L 537.314 418.886 L 537.314 418.886 Z " fill-rule="evenodd" fill="rgb(35,31,32)"/><path d=" M 536.693 419.427 C 529.737 417.744 523.563 418.807 519.737 420.224 C 524.085 421.494 527.65 423.384 530.954 426.159 C 530.375 428.078 529.186 429.466 527.128 431.917 C 530.635 430.234 533.969 429.614 537.389 428.462 L 536.693 419.427 Z " fill-rule="evenodd" fill="rgb(237,28,36)"/><path d=" M 612.117 417.756 L 613.116 417.704 L 614.13 417.674 L 615.159 417.673 L 616.208 417.71 L 617.276 417.793 L 618.369 417.925 L 619.485 418.119 L 620.63 418.38 L 621.801 418.716 L 623.006 419.133 L 624.243 419.64 L 625.516 420.241 L 628.295 421.737 L 625.929 422.351 L 625.214 422.553 L 624.513 422.765 L 623.826 422.992 L 623.154 423.229 L 622.496 423.479 L 621.851 423.742 L 621.218 424.019 L 620.6 424.306 L 619.994 424.607 L 619.402 424.921 L 618.822 425.249 L 618.256 425.589 L 617.7 425.944 L 617.157 426.312 L 616.962 426.452 L 617.019 426.739 L 617.201 427.387 L 617.43 428.016 L 617.705 428.635 L 618.025 429.25 L 618.385 429.872 L 618.785 430.505 L 620.35 432.855 L 617.839 431.925 L 617.241 431.707 L 616.649 431.494 L 616.061 431.287 L 615.478 431.083 L 614.897 430.886 L 614.321 430.693 L 613.743 430.506 L 613.166 430.322 L 612.59 430.144 L 612.012 429.971 L 611.43 429.803 L 610.845 429.639 L 610.257 429.481 L 609.663 429.327 L 608.557 429.054 L 608.557 418.019 L 610.147 417.898 L 611.127 417.824 L 612.117 417.757 L 612.117 417.756 Z " fill-rule="evenodd" fill="rgb(35,31,32)"/><path d=" M 609.218 418.63 C 614.436 418.252 619.552 417.564 626.498 421.519 C 622.5 422.516 619.111 424.029 616.231 426.161 C 616.537 428.156 617.451 429.738 618.671 431.526 C 615.418 430.322 612.471 429.325 609.218 428.535 L 609.218 418.63 L 609.218 418.63 Z " fill-rule="evenodd" fill="rgb(237,28,36)"/><path d=" M 618.103 309.106 L 617.475 311.083 L 615.6 312.549 L 615.6 312.461 L 593.638 312.461 L 591.977 311.249 L 591.654 309.106 L 618.103 309.106 L 618.103 309.106 Z " fill-rule="evenodd" fill="rgb(0,149,218)"/><path d=" M 619.647 303.976 L 619.749 304.083 L 619.734 307.308 L 619.215 307.968 L 590.956 307.968 L 590.314 307.253 L 590.321 304.194 L 590.576 303.976 L 619.645 303.976 L 619.647 303.976 Z " fill-rule="evenodd" fill="rgb(0,149,218)"/><path d=" M 592.11 299.031 L 618.065 299.031 L 618.667 302.839 L 591.654 302.839 L 592.11 299.031 Z " fill-rule="evenodd" fill="rgb(0,149,218)"/><path d=" M 587.707 303.976 L 587.808 304.083 L 587.793 307.308 L 587.275 307.968 L 559.016 307.968 L 558.373 307.253 L 558.38 304.194 L 558.636 303.976 L 587.704 303.976 L 587.707 303.976 Z " fill-rule="evenodd" fill="rgb(0,149,218)"/><path d=" M 560.169 299.031 L 586.124 299.031 L 586.727 302.839 L 559.713 302.839 L 560.169 299.031 L 560.169 299.031 Z " fill-rule="evenodd" fill="rgb(0,149,218)"/><path d=" M 578.463 316.09 L 577.276 347.546 L 576.09 379 C 576.082 379.991 577.463 380.143 577.546 378.862 L 581.598 316.108 C 581.287 314.585 579.308 314.459 578.463 316.089 L 578.463 316.09 Z " fill-rule="evenodd" fill="rgb(255,255,255)"/><path d=" M 571.768 316.976 L 573.058 346.578 L 574.349 376.181 C 574.415 377.111 575.586 377.139 575.562 375.931 L 574.404 316.73 C 574.032 315.327 572.359 315.375 571.768 316.976 Z " fill-rule="evenodd" fill="rgb(255,255,255)"/><path d=" M 565.872 316.69 L 568.694 344.642 L 571.515 372.592 C 571.63 373.47 572.802 373.437 572.714 372.294 L 568.492 316.327 C 568.048 315.018 566.38 315.146 565.872 316.69 Z " fill-rule="evenodd" fill="rgb(255,255,255)"/><path d=" M 586.441 309.106 L 585.813 311.083 L 583.938 312.549 L 583.938 312.461 L 561.977 312.461 L 560.316 311.249 L 559.992 309.106 L 586.441 309.106 L 586.441 309.106 Z " fill-rule="evenodd" fill="rgb(0,149,218)"/><path d=" M 603.646 318.614 L 604.937 380.993 L 606.227 443.371 C 606.294 445.332 607.465 445.391 607.441 442.843 L 606.282 318.101 C 605.91 315.143 604.237 315.242 603.646 318.614 L 603.646 318.614 Z " fill-rule="evenodd" fill="rgb(255,255,255)"/><path d=" M 597.75 318.602 L 600.572 381.583 L 603.393 444.565 C 603.508 446.541 604.68 446.469 604.593 443.894 L 600.37 317.784 C 599.926 314.833 598.258 315.121 597.75 318.602 Z " fill-rule="evenodd" fill="rgb(255,255,255)"/><path d=" M 546.216 318.102 L 545.03 381.209 L 543.842 444.317 C 543.835 446.306 545.217 446.611 545.298 444.039 L 549.351 318.136 C 549.04 315.08 547.061 314.829 546.216 318.103 L 546.216 318.102 Z " fill-rule="evenodd" fill="rgb(255,255,255)"/><path d=" M 539.521 319.217 L 540.812 382.486 L 542.102 445.754 C 542.169 447.743 543.34 447.803 543.316 445.219 L 542.156 318.696 C 541.785 315.697 540.112 315.796 539.521 319.217 L 539.521 319.217 Z " fill-rule="evenodd" fill="rgb(255,255,255)"/><path d=" M 533.626 319.147 L 536.447 382.011 L 539.268 444.875 C 539.383 446.85 540.554 446.777 540.468 444.206 L 536.244 318.331 C 535.801 315.386 534.133 315.674 533.626 319.147 L 533.626 319.147 Z " fill-rule="evenodd" fill="rgb(255,255,255)"/><path d=" M 610.341 317.543 L 609.155 380.514 L 607.968 443.486 C 607.96 445.47 609.341 445.774 609.423 443.209 L 613.476 317.576 C 613.165 314.526 611.186 314.275 610.341 317.543 L 610.341 317.543 Z " fill-rule="evenodd" fill="rgb(255,255,255)"/><path d=" M 554.365 309.106 L 553.737 311.083 L 551.862 312.549 L 551.862 312.461 L 529.901 312.461 L 528.24 311.249 L 527.916 309.106 L 554.365 309.106 L 554.365 309.106 Z " fill-rule="evenodd" fill="rgb(0,149,218)"/><path d=" M 555.631 303.976 L 555.732 304.083 L 555.717 307.308 L 555.199 307.968 L 526.939 307.968 L 526.297 307.253 L 526.305 304.194 L 526.56 303.976 L 555.629 303.976 L 555.631 303.976 Z " fill-rule="evenodd" fill="rgb(0,149,218)"/><path d=" M 528.093 299.031 L 554.048 299.031 L 554.651 302.839 L 527.637 302.839 L 528.093 299.031 L 528.093 299.031 Z " fill-rule="evenodd" fill="rgb(0,149,218)"/><path d=" M 630.284 441.75 L 629.96 440.346 L 629.607 439.356 L 629.151 438.418 L 628.597 437.532 L 627.958 436.693 L 627.239 435.904 L 626.448 435.158 L 625.594 434.457 L 624.684 433.793 L 623.722 433.168 L 622.717 432.578 L 621.672 432.022 L 620.598 431.494 L 619.497 430.997 L 618.378 430.527 L 617.246 430.082 L 616.109 429.658 L 614.971 429.258 L 613.841 428.876 L 612.722 428.514 L 611.624 428.168 L 610.551 427.838 L 609.511 427.52 L 608.51 427.215 L 607.556 426.918 L 606.653 426.633 L 605.811 426.354 L 605.036 426.084 L 604.336 425.818 L 603.719 425.558 L 603.194 425.305 L 602.361 424.828 L 597.976 428.161 L 597.938 429.127 L 597.949 429.835 L 597.995 430.565 L 598.075 431.314 L 598.185 432.07 L 598.322 432.828 L 598.485 433.58 L 598.671 434.319 L 598.879 435.033 L 599.105 435.72 L 599.35 436.369 L 599.611 436.976 L 599.889 437.53 L 600.183 438.03 L 600.499 438.467 L 600.954 438.958 L 602.504 439.238 L 603.78 439.496 L 605.01 439.771 L 606.198 440.064 L 607.348 440.374 L 608.466 440.704 L 609.556 441.052 L 610.622 441.421 L 611.671 441.808 L 612.704 442.216 L 613.729 442.645 L 614.749 443.098 L 615.769 443.57 L 616.792 444.068 L 617.825 444.587 L 619.022 445.211 L 620.095 445.192 L 620.976 445.153 L 621.82 445.087 L 622.63 444.995 L 623.408 444.878 L 624.153 444.736 L 624.867 444.569 L 625.548 444.376 L 626.203 444.16 L 626.826 443.919 L 627.42 443.654 L 627.986 443.368 L 628.525 443.057 L 629.036 442.724 L 629.521 442.37 L 630.284 441.748 L 630.284 441.75 Z " fill-rule="evenodd" fill="rgb(35,31,32)"/><path d=" M 629.547 441.497 C 627.752 430.959 606.952 428.533 602.412 425.619 L 598.624 428.498 C 598.387 431.784 599.799 436.991 601.289 438.346 C 608.574 439.6 613.521 441.565 619.179 444.547 C 624.058 444.547 627.311 443.428 629.547 441.497 L 629.547 441.497 Z " fill-rule="evenodd" fill="rgb(237,28,36)"/><path d=" M 515.028 443.272 L 515.077 441.861 L 515.272 440.813 L 515.612 439.808 L 516.084 438.848 L 516.678 437.932 L 517.379 437.061 L 518.18 436.232 L 519.067 435.445 L 520.036 434.693 L 521.074 433.981 L 522.177 433.302 L 523.332 432.66 L 524.534 432.05 L 525.773 431.474 L 527.04 430.929 L 528.329 430.418 L 529.633 429.936 L 530.938 429.486 L 532.24 429.066 L 533.528 428.679 L 534.796 428.32 L 536.035 427.991 L 537.235 427.692 L 538.387 427.423 L 539.485 427.181 L 540.52 426.969 L 541.483 426.785 L 542.365 426.631 L 543.161 426.504 L 543.859 426.405 L 544.456 426.333 L 545.181 426.268 L 549.007 429.127 L 548.97 429.952 L 548.94 430.442 L 548.906 430.943 L 548.863 431.456 L 548.81 431.98 L 548.744 432.518 L 548.665 433.067 L 548.568 433.629 L 548.454 434.201 L 548.32 434.787 L 548.165 435.386 L 547.985 435.997 L 547.781 436.619 L 547.549 437.255 L 547.289 437.904 L 546.889 438.812 L 545.465 439.335 L 544.252 439.725 L 543.016 440.082 L 541.761 440.416 L 540.502 440.739 L 539.244 441.059 L 537.999 441.386 L 536.774 441.73 L 535.582 442.098 L 534.432 442.5 L 533.332 442.944 L 532.294 443.441 L 531.327 443.993 L 530.437 444.612 L 529.634 445.304 L 528.706 446.315 L 527.832 446.349 L 527.174 446.364 L 526.467 446.367 L 525.715 446.36 L 524.925 446.33 L 524.102 446.278 L 523.252 446.198 L 522.38 446.086 L 521.493 445.936 L 520.595 445.745 L 519.693 445.506 L 518.792 445.22 L 517.898 444.874 L 517.017 444.47 L 516.156 444 L 515.026 443.271 L 515.028 443.272 Z " fill-rule="evenodd" fill="rgb(35,31,32)"/><path d=" M 515.702 442.92 C 515.269 432.223 540.676 427.251 544.988 426.949 L 548.33 429.447 C 548.223 431.945 547.985 434.834 546.4 438.288 C 540.402 440.66 532.231 440.945 528.408 445.665 C 525.39 445.793 519.85 445.835 515.702 442.92 L 515.702 442.92 Z " fill-rule="evenodd" fill="rgb(237,28,36)"/><path d=" M 523.936 326.302 L 622.484 326.302 L 622.483 391.805 L 622.394 393.841 L 622.164 395.886 L 621.801 397.918 L 621.309 399.937 L 620.693 401.938 L 619.959 403.921 L 619.111 405.881 L 618.153 407.818 L 617.094 409.729 L 615.934 411.614 L 614.679 413.469 L 613.333 415.294 L 611.903 417.085 L 610.39 418.842 L 608.8 420.561 L 607.137 422.242 L 605.408 423.882 L 603.613 425.48 L 601.758 427.032 L 599.848 428.538 L 597.887 429.994 L 595.878 431.4 L 593.826 432.752 L 591.735 434.05 L 589.61 435.289 L 587.454 436.47 L 585.273 437.589 L 583.068 438.644 L 580.848 439.632 L 578.612 440.554 L 576.366 441.405 L 573.729 442.316 L 570.339 441.291 L 567.423 440.295 L 564.598 439.214 L 561.86 438.055 L 559.213 436.82 L 556.657 435.515 L 554.193 434.146 L 551.818 432.717 L 549.54 431.229 L 547.351 429.693 L 545.259 428.11 L 543.259 426.486 L 541.355 424.824 L 539.545 423.131 L 537.832 421.411 L 536.214 419.669 L 534.695 417.906 L 533.273 416.132 L 531.95 414.347 L 530.723 412.56 L 529.596 410.77 L 528.57 408.987 L 527.644 407.213 L 526.817 405.452 L 526.095 403.707 L 525.473 401.987 L 524.956 400.291 L 524.542 398.626 L 524.236 396.993 L 524.035 395.4 L 523.944 393.849 L 523.963 392.406 L 523.937 326.302 L 523.936 326.302 Z " fill-rule="evenodd" fill="rgb(35,31,32)"/><path d=" M 525.259 327.624 L 621.162 327.624 L 621.161 391.775 C 620.958 412.734 597.319 433.16 573.702 440.926 C 541.68 431.883 524.524 407.101 525.286 392.414 L 525.259 327.624 L 525.259 327.624 Z " fill-rule="evenodd" fill="rgb(255,255,255)"/><path d=" M 523.935 326.302 L 622.484 326.302 L 622.483 354.845 L 622.294 355.585 L 621.836 356.27 L 621.278 356.835 L 620.628 357.354 L 619.887 357.855 L 619.061 358.342 L 618.163 358.815 L 617.206 359.269 L 616.208 359.7 L 615.177 360.1 L 614.133 360.463 L 613.09 360.779 L 612.062 361.044 L 611.061 361.247 L 610.098 361.38 L 609.16 361.432 L 608.231 361.359 L 607.316 361.154 L 606.441 360.851 L 605.598 360.471 L 604.785 360.038 L 603.991 359.567 L 603.217 359.076 L 602.46 358.579 L 601.72 358.094 L 600.995 357.634 L 600.29 357.215 L 599.607 356.851 L 598.953 356.557 L 598.328 356.341 L 597.742 356.209 L 597.196 356.165 L 596.652 356.212 L 596.071 356.348 L 595.45 356.573 L 594.795 356.878 L 594.113 357.253 L 593.407 357.687 L 592.683 358.162 L 591.941 358.662 L 591.184 359.174 L 590.409 359.68 L 589.616 360.165 L 588.799 360.611 L 587.955 361 L 587.074 361.312 L 586.154 361.52 L 585.211 361.592 L 584.271 361.527 L 583.352 361.326 L 582.475 361.025 L 581.63 360.647 L 580.815 360.215 L 580.02 359.742 L 579.246 359.25 L 578.488 358.751 L 577.749 358.264 L 577.023 357.801 L 576.318 357.38 L 575.634 357.014 L 574.98 356.718 L 574.358 356.501 L 573.773 356.369 L 573.222 356.324 L 572.675 356.368 L 572.096 356.499 L 571.478 356.721 L 570.824 357.023 L 570.145 357.397 L 569.438 357.831 L 568.715 358.305 L 567.974 358.807 L 567.217 359.321 L 566.442 359.829 L 565.65 360.316 L 564.833 360.763 L 563.989 361.156 L 563.108 361.47 L 562.186 361.679 L 561.237 361.752 L 560.292 361.678 L 559.378 361.473 L 558.504 361.17 L 557.66 360.791 L 556.846 360.358 L 556.052 359.887 L 555.279 359.395 L 554.521 358.898 L 553.782 358.414 L 553.056 357.954 L 552.351 357.534 L 551.668 357.17 L 551.014 356.876 L 550.39 356.66 L 549.805 356.529 L 549.257 356.484 L 548.712 356.531 L 548.129 356.666 L 547.507 356.888 L 546.851 357.188 L 546.17 357.559 L 545.463 357.987 L 544.741 358.457 L 543.999 358.952 L 543.244 359.46 L 542.47 359.963 L 541.679 360.446 L 540.865 360.892 L 540.026 361.285 L 539.15 361.603 L 538.237 361.822 L 537.303 361.91 L 536.331 361.868 L 535.348 361.754 L 534.333 361.578 L 533.294 361.347 L 532.247 361.066 L 531.201 360.74 L 530.173 360.377 L 529.176 359.979 L 528.225 359.552 L 527.332 359.098 L 526.511 358.618 L 525.769 358.11 L 525.118 357.566 L 524.562 356.957 L 524.13 356.224 L 523.962 355.46 L 523.936 326.302 L 523.935 326.302 Z " fill-rule="evenodd" fill="rgb(35,31,32)"/><path d=" M 525.259 327.624 L 621.162 327.624 L 621.161 354.678 C 621.146 356.487 613.171 360.086 609.176 360.107 C 605.181 360.103 601.187 354.841 597.192 354.838 C 593.197 354.856 589.202 360.282 585.207 360.266 C 581.213 360.3 577.218 355 573.223 354.997 C 569.228 354.982 565.233 360.442 561.238 360.426 C 557.243 360.422 553.249 355.16 549.254 355.157 C 545.259 355.175 541.264 360.517 537.27 360.585 C 533.026 360.57 525.3 357.489 525.286 355.316 L 525.259 327.624 L 525.259 327.624 Z " fill-rule="evenodd" fill="rgb(0,149,218)"/><path d=" M 586.544 349.999 C 585.521 349.101 584.314 348.725 582.864 349.036 C 584.152 347.687 586.628 345.962 589.806 345.043 C 591.816 344.053 592.744 341.871 598.531 342.699 C 597.643 343.194 596.838 343.913 596.788 344.855 C 600.517 345.088 605.167 346.354 607.806 347.397 C 609.423 345.732 609.587 344.458 613.887 344.441 C 612.752 345.47 611.227 346.444 610.819 347.92 C 611.952 349.328 612.61 351.128 614.218 352.145 C 610.76 352.343 609.815 350.027 607.614 348.968 C 605.563 349.482 605.58 350.165 600.875 350.875 C 601.52 351.455 602.249 352.035 603.062 352.531 C 602.715 352.524 602.406 352.55 602.106 352.578 C 600.949 352.434 599.84 351.798 598.751 350.985 C 599.234 351.853 599.869 352.44 600.649 352.678 C 599.819 352.655 598.784 352.445 597.146 351.675 C 593.211 352.723 588.795 352.626 583.004 349.508 C 583.863 349.278 585.128 349.546 586.544 349.999 L 586.544 349.999 Z  M 586.457 347.525 C 586.686 347.525 586.871 347.714 586.871 347.946 C 586.871 348.178 586.686 348.368 586.457 348.368 C 586.229 348.368 586.043 348.178 586.043 347.946 C 586.043 347.714 586.229 347.525 586.457 347.525 Z " fill-rule="evenodd" fill="rgb(255,255,255)"/><path d=" M 564.311 339.724 C 563.459 338.848 562.288 338.442 560.649 338.721 C 561.983 337.398 564.622 335.811 567.748 334.907 C 569.758 333.917 570.29 331.905 576.077 332.676 C 575.188 333.171 574.553 333.664 574.504 334.606 C 578.232 335.122 583.166 336.218 585.975 337.035 C 587.591 335.37 588.096 333.982 592.168 333.286 C 591.034 334.316 589.452 336.138 589.045 337.614 C 590.178 339.023 592.761 339.351 594.425 339.972 C 590.853 341.471 588.607 339.891 586.348 338.492 C 584.298 339.007 583.296 339.915 578.591 340.626 C 579.235 341.206 579.964 341.786 580.777 342.282 C 580.264 342.274 579.831 342.328 579.396 342.373 C 578.491 342.243 577.564 341.637 576.635 340.934 C 577.102 341.704 577.559 342.274 577.997 342.407 C 577.229 342.338 576.272 342.088 574.862 341.426 C 570.912 342.477 566.478 342.375 560.657 339.225 C 561.692 339 562.976 339.307 564.311 339.724 L 564.311 339.724 Z  M 564.173 337.275 C 564.401 337.275 564.588 337.465 564.588 337.697 C 564.588 337.929 564.401 338.119 564.173 338.119 C 563.945 338.119 563.759 337.929 563.759 337.697 C 563.759 337.465 563.945 337.275 564.173 337.275 Z " fill-rule="evenodd" fill="rgb(255,255,255)"/><path d=" M 539.34 350.225 C 538.321 349.388 537.168 348.918 535.723 349.25 C 536.957 347.899 539.163 346.268 542.421 345.326 C 544.432 344.336 545.36 342.154 551.147 342.982 C 550.258 343.477 549.454 344.196 549.403 345.138 C 553.132 345.371 557.783 346.637 560.422 347.68 C 562.039 346.015 562.882 344.458 567.182 344.441 C 566.047 345.47 564.182 346.897 563.435 348.204 C 564.568 349.611 566.302 351.015 567.91 352.032 C 564.451 352.23 562.77 350.423 560.569 349.364 C 558.518 349.878 558.196 350.448 553.49 351.158 C 554.136 351.738 554.864 352.319 555.677 352.815 C 555.136 352.803 554.685 352.866 554.226 352.913 C 553.561 352.83 552.599 352.287 551.339 351.284 C 551.807 352.147 552.407 352.725 553.166 352.957 C 552.351 352.924 551.341 352.7 549.762 351.958 C 545.85 353 541.784 352.749 536.06 349.677 C 537.018 349.572 538.153 349.845 539.34 350.225 L 539.34 350.225 Z  M 540.149 347.242 C 540.377 347.242 540.563 347.431 540.563 347.663 C 540.563 347.895 540.377 348.085 540.149 348.085 C 539.92 348.085 539.734 347.895 539.734 347.663 C 539.734 347.431 539.92 347.242 540.149 347.242 Z " fill-rule="evenodd" fill="rgb(255,255,255)"/><path d=" M 515.259 441.739 L 517.072 442.817 L 518.049 443.292 L 519.092 443.7 L 520.196 444.045 L 521.365 444.327 L 522.597 444.55 L 523.891 444.717 L 525.244 444.831 L 526.66 444.891 L 528.133 444.907 L 529.665 444.877 L 531.251 444.806 L 532.894 444.697 L 534.591 444.552 L 536.34 444.377 L 538.141 444.173 L 539.995 443.943 L 541.899 443.694 L 543.851 443.426 L 545.85 443.143 L 547.897 442.848 L 549.99 442.547 L 552.129 442.24 L 554.311 441.934 L 556.538 441.629 L 558.806 441.33 L 561.116 441.04 L 563.467 440.764 L 565.858 440.503 L 568.287 440.263 L 570.754 440.045 L 573.285 439.851 L 575.123 439.889 L 577.006 439.97 L 578.954 440.089 L 580.956 440.243 L 583.006 440.426 L 585.098 440.635 L 587.223 440.866 L 589.374 441.113 L 591.545 441.37 L 593.726 441.636 L 595.912 441.904 L 598.093 442.172 L 600.263 442.433 L 602.414 442.685 L 604.539 442.922 L 606.629 443.139 L 608.677 443.332 L 610.676 443.498 L 612.619 443.63 L 614.493 443.728 L 616.297 443.782 L 618.017 443.793 L 619.65 443.753 L 621.182 443.66 L 622.609 443.508 L 623.921 443.297 L 625.107 443.021 L 626.159 442.683 L 627.067 442.279 L 627.825 441.814 L 628.431 441.289 L 629.712 439.651 L 630.263 441.432 L 630.411 442.034 L 630.524 442.649 L 630.599 443.275 L 630.633 443.909 L 630.622 444.552 L 630.567 445.201 L 630.462 445.872 L 629.911 447.798 L 629.253 449.509 L 628.483 451.029 L 627.6 452.365 L 626.612 453.522 L 625.517 454.506 L 624.326 455.324 L 623.043 455.986 L 621.678 456.498 L 620.234 456.874 L 618.716 457.126 L 617.128 457.269 L 615.471 457.311 L 613.745 457.266 L 611.955 457.144 L 610.102 456.955 L 608.187 456.709 L 606.213 456.418 L 604.182 456.091 L 602.093 455.74 L 599.953 455.371 L 597.761 454.998 L 595.521 454.63 L 593.233 454.276 L 590.904 453.946 L 588.533 453.651 L 586.123 453.398 L 583.677 453.202 L 581.198 453.068 L 578.687 453.01 L 576.148 453.032 L 573.54 453.153 L 571.277 453.059 L 569.039 453.074 L 566.788 453.182 L 564.525 453.375 L 562.258 453.639 L 559.989 453.964 L 557.726 454.341 L 555.469 454.758 L 553.227 455.202 L 551.002 455.664 L 548.8 456.13 L 546.624 456.595 L 544.48 457.04 L 542.371 457.458 L 540.302 457.838 L 538.275 458.169 L 536.299 458.435 L 534.374 458.63 L 532.504 458.739 L 530.693 458.751 L 528.946 458.653 L 527.264 458.434 L 525.656 458.079 L 524.124 457.574 L 522.678 456.906 L 521.325 456.065 L 520.075 455.038 L 518.934 453.819 L 517.913 452.398 L 517.013 450.772 L 516.24 448.93 L 515.602 446.884 L 515.455 446.374 L 515.324 445.849 L 515.217 445.318 L 515.133 444.784 L 515.08 444.252 L 515.062 443.727 L 515.08 443.212 L 515.258 441.738 L 515.259 441.739 Z " fill-rule="evenodd" fill="rgb(35,31,32)"/><path d=" M 515.793 442.826 C 525.732 449.372 546.485 442.398 573.304 440.513 C 592.062 440.662 624.52 448.943 629.454 441.053 C 629.948 442.517 630.132 444.106 629.818 445.727 C 624.713 466.703 601.312 450.683 573.541 452.491 C 549.63 450.902 522.259 469.409 516.238 446.694 C 515.835 445.405 515.597 443.96 515.793 442.826 L 515.793 442.826 Z " fill-rule="evenodd" fill="rgb(237,28,36)"/><path d=" M 526.68 453.248 L 527.964 452.728 C 528.041 453.007 528.136 453.208 528.247 453.333 C 528.429 453.533 528.652 453.591 528.914 453.508 C 529.109 453.447 529.249 453.337 529.334 453.18 C 529.417 453.021 529.445 452.859 529.418 452.696 C 529.392 452.539 529.319 452.414 529.196 452.323 C 529.074 452.231 528.822 452.187 528.436 452.194 C 527.804 452.198 527.336 452.089 527.028 451.864 C 526.719 451.641 526.525 451.294 526.445 450.822 C 526.392 450.512 526.407 450.198 526.492 449.881 C 526.579 449.563 526.74 449.285 526.977 449.042 C 527.216 448.802 527.566 448.61 528.027 448.464 C 528.592 448.287 529.049 448.294 529.395 448.486 C 529.74 448.68 529.994 449.081 530.156 449.688 L 528.884 450.196 C 528.804 449.936 528.698 449.76 528.566 449.671 C 528.437 449.583 528.275 449.569 528.082 449.63 C 527.922 449.68 527.81 449.763 527.745 449.881 C 527.681 449.997 527.66 450.122 527.682 450.255 C 527.696 450.35 527.745 450.426 527.824 450.482 C 527.903 450.541 528.068 450.567 528.322 450.559 C 528.949 450.548 529.408 450.589 529.697 450.689 C 529.986 450.788 530.213 450.95 530.375 451.18 C 530.538 451.409 530.648 451.687 530.704 452.017 C 530.77 452.403 530.751 452.786 530.649 453.161 C 530.548 453.538 530.37 453.854 530.117 454.112 C 529.863 454.369 529.522 454.564 529.093 454.7 C 528.34 454.936 527.785 454.903 527.428 454.598 C 527.071 454.295 526.822 453.845 526.68 453.248 L 526.68 453.248 Z  M 534.378 450.611 L 535.655 450.819 C 535.633 451.301 535.556 451.718 535.421 452.071 C 535.286 452.424 535.098 452.711 534.859 452.931 C 534.62 453.153 534.3 453.31 533.899 453.406 C 533.413 453.523 533.003 453.522 532.671 453.404 C 532.336 453.285 532.026 453.01 531.739 452.578 C 531.454 452.146 531.26 451.552 531.162 450.796 C 531.032 449.787 531.129 448.963 531.452 448.327 C 531.776 447.69 532.298 447.285 533.018 447.111 C 533.582 446.975 534.045 447.024 534.408 447.258 C 534.771 447.491 535.073 447.911 535.313 448.517 L 534.139 449.18 C 534.072 449.005 534.01 448.879 533.952 448.803 C 533.857 448.678 533.747 448.59 533.625 448.54 C 533.502 448.489 533.373 448.48 533.234 448.513 C 532.922 448.588 532.704 448.817 532.581 449.202 C 532.488 449.487 532.476 449.903 532.547 450.45 C 532.635 451.127 532.771 451.572 532.953 451.786 C 533.137 452.002 533.365 452.076 533.636 452.011 C 533.902 451.947 534.089 451.798 534.197 451.562 C 534.307 451.328 534.367 451.011 534.379 450.61 L 534.378 450.611 Z  M 535.942 446.663 L 537.331 446.363 L 538.042 452.479 L 536.652 452.779 L 535.942 446.663 Z  M 538.514 446.149 L 542.249 445.523 L 542.367 446.836 L 540.028 447.227 L 540.117 448.203 L 542.286 447.841 L 542.399 449.094 L 540.23 449.458 L 540.339 450.669 L 542.746 450.266 L 542.871 451.658 L 539.068 452.295 L 538.514 446.149 L 538.514 446.149 Z  M 543.127 445.453 L 544.432 445.267 L 546.397 448.429 L 546.134 445.022 L 547.45 444.834 L 547.925 450.993 L 546.609 451.181 L 544.654 448.042 L 544.916 451.424 L 543.602 451.611 L 543.127 445.453 L 543.127 445.453 Z  M 548.248 444.796 L 552.507 444.39 L 552.585 445.916 L 551.157 446.053 L 551.395 450.703 L 549.993 450.837 L 549.755 446.186 L 548.326 446.322 L 548.248 444.796 L 548.248 444.796 Z  M 553.207 444.328 L 554.612 444.194 L 554.928 450.371 L 553.524 450.505 L 553.207 444.328 L 553.207 444.328 Z  M 558.694 449.128 L 557.096 449.242 L 556.915 450.279 L 555.483 450.381 L 556.95 444.076 L 558.48 443.966 L 560.424 450.028 L 558.956 450.133 L 558.694 449.128 L 558.694 449.128 Z  M 558.349 447.812 L 557.761 445.625 L 557.348 447.883 L 558.349 447.812 L 558.349 447.812 Z  M 565.766 448.859 L 564.167 448.935 L 563.973 449.967 L 562.538 450.035 L 564.087 443.765 L 565.617 443.692 L 567.483 449.8 L 566.015 449.869 L 565.766 448.859 L 565.766 448.859 Z  M 565.438 447.534 L 564.878 445.334 L 564.436 447.582 L 565.438 447.534 Z  M 567.875 443.659 L 569.961 443.61 C 570.372 443.598 570.706 443.668 570.961 443.814 C 571.216 443.961 571.429 444.173 571.597 444.454 C 571.766 444.735 571.89 445.062 571.97 445.438 C 572.048 445.814 572.091 446.213 572.096 446.634 C 572.104 447.297 572.056 447.812 571.949 448.178 C 571.845 448.546 571.695 448.855 571.502 449.105 C 571.308 449.356 571.101 449.525 570.876 449.613 C 570.569 449.733 570.291 449.796 570.041 449.802 L 567.954 449.851 L 567.875 443.659 Z  M 569.297 445.028 L 569.341 448.411 L 569.684 448.403 C 569.978 448.396 570.187 448.349 570.31 448.256 C 570.431 448.165 570.527 448.007 570.595 447.785 C 570.663 447.563 570.693 447.203 570.686 446.708 C 570.678 446.051 570.594 445.605 570.434 445.367 C 570.274 445.129 570.011 445.013 569.647 445.022 L 569.297 445.029 L 569.297 445.028 Z  M 574.774 447.733 L 576.112 447.651 C 576.138 447.947 576.192 448.174 576.279 448.331 C 576.42 448.585 576.626 448.714 576.894 448.72 C 577.095 448.724 577.25 448.665 577.36 448.54 C 577.47 448.414 577.526 448.266 577.528 448.098 C 577.53 447.938 577.481 447.792 577.379 447.664 C 577.277 447.534 577.039 447.408 576.664 447.288 C 576.051 447.084 575.616 446.824 575.356 446.505 C 575.096 446.186 574.969 445.784 574.975 445.301 C 574.979 444.982 575.051 444.682 575.19 444.403 C 575.329 444.124 575.535 443.907 575.809 443.75 C 576.082 443.596 576.456 443.523 576.93 443.534 C 577.51 443.549 577.952 443.705 578.252 444.007 C 578.554 444.309 578.729 444.782 578.779 445.424 L 577.453 445.498 C 577.423 445.219 577.35 445.014 577.24 444.885 C 577.129 444.756 576.974 444.689 576.776 444.684 C 576.612 444.681 576.489 444.724 576.405 444.817 C 576.321 444.909 576.278 445.023 576.277 445.159 C 576.275 445.257 576.307 445.346 576.375 445.426 C 576.441 445.51 576.596 445.589 576.843 445.665 C 577.455 445.86 577.892 446.054 578.155 446.244 C 578.419 446.435 578.609 446.667 578.726 446.945 C 578.844 447.22 578.901 447.526 578.897 447.865 C 578.893 448.261 578.805 448.627 578.64 448.957 C 578.475 449.289 578.246 449.537 577.954 449.703 C 577.664 449.869 577.298 449.947 576.857 449.936 C 576.085 449.918 575.552 449.704 575.259 449.29 C 574.966 448.878 574.805 448.359 574.774 447.733 L 574.774 447.733 Z  M 582.398 448.909 L 580.799 448.833 L 580.553 449.845 L 579.119 449.776 L 580.984 443.668 L 582.515 443.741 L 584.064 450.011 L 582.596 449.941 L 582.398 448.909 L 582.398 448.909 Z  M 582.139 447.557 L 581.693 445.309 L 581.137 447.509 L 582.139 447.557 L 582.139 447.557 Z  M 584.748 443.797 L 587.079 443.964 C 587.586 444.001 587.96 444.191 588.201 444.54 C 588.44 444.886 588.549 445.365 588.526 445.97 C 588.504 446.596 588.346 447.073 588.056 447.405 C 587.767 447.737 587.339 447.882 586.774 447.843 L 586.007 447.788 L 585.918 450.082 L 584.51 449.981 L 584.748 443.797 L 584.748 443.797 Z  M 586.055 446.535 L 586.398 446.561 C 586.67 446.579 586.861 446.531 586.976 446.409 C 587.09 446.289 587.151 446.129 587.158 445.93 C 587.166 445.736 587.125 445.567 587.035 445.426 C 586.946 445.284 586.769 445.204 586.508 445.185 L 586.108 445.155 L 586.055 446.535 L 586.055 446.535 Z  M 589.394 444.148 L 590.801 444.248 L 590.562 450.432 L 589.156 450.332 L 589.394 444.148 L 589.394 444.148 Z  M 591.886 444.248 L 595.64 444.605 L 595.572 445.924 L 593.222 445.701 L 593.172 446.683 L 595.351 446.891 L 595.287 448.151 L 593.107 447.943 L 593.045 449.16 L 595.463 449.391 L 595.391 450.789 L 591.569 450.425 L 591.886 444.248 L 591.886 444.248 Z  M 596.561 444.702 L 597.868 444.858 L 599.353 448.473 L 599.573 445.06 L 600.892 445.218 L 600.496 451.387 L 599.177 451.229 L 597.698 447.64 L 597.48 451.028 L 596.165 450.87 L 596.561 444.702 L 596.561 444.702 Z  M 601.617 445.298 L 605.855 446.007 L 605.718 447.525 L 604.295 447.287 L 603.878 451.915 L 602.484 451.682 L 602.902 447.053 L 601.481 446.816 L 601.617 445.298 L 601.617 445.298 Z  M 606.652 446.079 L 608.045 446.345 L 607.413 452.477 L 606.019 452.211 L 606.652 446.079 L 606.652 446.079 Z  M 611.313 452.23 L 609.733 451.889 L 609.398 452.851 L 607.982 452.546 L 610.379 446.793 L 611.892 447.119 L 612.869 453.6 L 611.416 453.287 L 611.313 452.23 L 611.313 452.23 Z  M 611.177 450.844 L 610.936 448.538 L 610.187 450.631 L 611.177 450.844 Z  M 614.235 447.566 L 616.042 448.09 L 616.164 451.976 L 617.434 448.493 L 619.236 449.015 L 618.29 455.072 L 617.168 454.747 L 617.889 450.128 L 616.298 454.494 L 615.283 454.2 L 615.136 449.331 L 614.415 453.95 L 613.29 453.623 L 614.235 447.566 L 614.235 447.566 Z " fill-rule="evenodd" fill="rgb(255,255,255)"/><path d=" M 556.255 293.765 L 556.538 292.827 L 556.693 291.885 L 556.727 290.941 L 556.654 289.999 L 556.482 289.058 L 556.223 288.117 L 555.888 287.173 L 555.49 286.224 L 555.032 285.266 L 554.528 284.299 L 553.985 283.317 L 553.412 282.32 L 552.817 281.302 L 552.209 280.266 L 551.594 279.206 L 550.983 278.122 L 550.382 277.011 L 549.802 275.872 L 549.248 274.703 L 548.732 273.504 L 548.257 272.269 L 547.835 271.001 L 547.471 269.695 L 547.176 268.35 L 546.955 266.964 L 546.818 265.534 L 546.693 261.586 L 545.423 263.938 L 545.331 264.293 L 545.266 264.698 L 545.208 265.18 L 545.156 265.743 L 545.105 266.374 L 545.056 267.067 L 545.007 267.808 L 544.96 268.588 L 544.911 269.392 L 544.861 270.208 L 544.806 271.023 L 544.75 271.828 L 544.688 272.607 L 544.666 272.856 L 544.458 272.624 L 544.063 272.034 L 543.718 271.363 L 543.421 270.626 L 543.163 269.836 L 542.941 269.009 L 542.745 268.158 L 542.571 267.299 L 542.405 266.446 L 542.243 265.611 L 542.073 264.807 L 541.885 264.047 L 541.666 263.337 L 541.401 262.691 L 539.849 260 L 539.875 264.033 L 539.74 265.462 L 539.473 266.827 L 539.084 268.136 L 538.586 269.396 L 537.989 270.608 L 537.306 271.779 L 536.546 272.91 L 535.724 274.008 L 534.851 275.072 L 533.94 276.109 L 533.002 277.119 L 532.052 278.109 L 531.101 279.08 L 530.163 280.038 L 529.248 280.986 L 528.373 281.931 L 527.546 282.874 L 526.785 283.825 L 526.098 284.784 L 525.502 285.763 L 525.012 286.764 L 524.644 287.795 L 524.416 288.856 L 524.348 289.951 L 524.453 291.071 L 524.745 292.216 L 525.232 293.379 L 525.921 294.566 L 526.821 295.778 L 527.941 297.023 L 529.469 298.472 L 552.528 298.472 L 553.711 297.425 L 554.569 296.522 L 555.273 295.613 L 555.832 294.694 L 556.252 293.765 L 556.255 293.765 Z " fill-rule="evenodd" fill="rgb(35,31,32)"/><path d=" M 529.736 297.811 L 552.281 297.811 C 563.546 288.574 546.078 280.513 546.11 264.057 C 545.73 264.356 545.609 270.521 545.209 274.112 L 545.056 274.089 C 541.601 271.813 542.136 264.786 540.529 262.501 C 541.49 279.542 514.37 284.196 529.736 297.813 L 529.736 297.811 Z " fill-rule="evenodd" fill="rgb(237,28,36)"/><path d=" M 545.132 274.525 L 545.117 274.941 L 545.11 275.331 L 545.108 275.705 L 545.11 276.072 L 545.109 276.441 L 545.101 276.819 L 545.083 277.214 L 545.053 277.638 L 545.004 278.095 L 544.934 278.597 L 544.838 279.149 L 544.713 279.762 L 544.554 280.444 L 544.358 281.203 L 544.12 282.049 L 543.545 283.891 L 542.876 285.506 L 542.13 286.901 L 541.323 288.091 L 540.47 289.09 L 539.587 289.907 L 538.688 290.558 L 537.788 291.054 L 536.906 291.408 L 536.053 291.635 L 535.248 291.748 L 534.504 291.755 L 533.838 291.677 L 533.259 291.519 L 532.786 291.296 L 532.425 291.009 L 532.039 290.349 L 531.817 289.614 L 531.755 288.858 L 531.853 288.139 L 532.121 287.52 L 532.575 287.068 L 533.211 286.88 L 533.975 287.024 L 535.182 287.43 L 536.254 287.679 L 537.219 287.792 L 538.082 287.777 L 538.854 287.654 L 539.54 287.432 L 540.151 287.124 L 540.695 286.739 L 541.182 286.292 L 541.615 285.791 L 542.004 285.248 L 542.351 284.674 L 542.668 284.085 L 542.956 283.489 L 543.226 282.9 L 543.477 282.342 L 543.624 281.839 L 543.766 281.271 L 543.898 280.656 L 544.023 280.009 L 544.139 279.341 L 544.247 278.664 L 544.346 277.989 L 544.435 277.33 L 544.517 276.698 L 544.589 276.106 L 544.652 275.565 L 544.749 274.683 L 544.783 274.365 L 544.809 274.144 L 545.458 269.362 L 545.129 274.523 L 545.132 274.525 Z " fill-rule="evenodd" fill="rgb(35,31,32)"/><path d=" M 577.918 387.593 L 574.928 427.64 C 574.239 429.323 573.5 429.443 572.67 427.949 L 568.732 387.593 L 577.918 387.593 L 577.918 387.593 Z " fill-rule="evenodd" fill="rgb(0,149,218)"/><path d=" M 579.777 383.409 L 579.822 383.457 L 579.815 384.904 L 579.582 385.201 L 566.9 385.201 L 566.612 384.879 L 566.616 383.507 L 566.731 383.409 L 579.775 383.409 L 579.777 383.409 Z " fill-rule="evenodd" fill="rgb(0,149,218)"/><path d=" M 567.419 381.19 L 579.067 381.19 L 579.337 382.899 L 567.215 382.899 L 567.419 381.19 L 567.419 381.19 Z " fill-rule="evenodd" fill="rgb(0,149,218)"/><path d=" M 575.629 388.846 L 575.096 402.962 L 574.563 417.078 C 574.56 417.523 575.18 417.591 575.217 417.016 L 577.035 388.853 C 576.896 388.17 576.008 388.114 575.629 388.846 L 575.629 388.846 Z " fill-rule="evenodd" fill="rgb(255,255,255)"/><path d=" M 572.624 389.243 L 573.203 402.528 L 573.782 415.813 C 573.812 416.231 574.338 416.243 574.327 415.701 L 573.807 389.133 C 573.64 388.503 572.889 388.525 572.624 389.243 L 572.624 389.243 Z " fill-rule="evenodd" fill="rgb(255,255,255)"/><path d=" M 569.978 389.115 L 571.245 401.659 L 572.511 414.202 C 572.562 414.596 573.088 414.582 573.049 414.069 L 571.154 388.952 C 570.955 388.364 570.206 388.422 569.978 389.115 Z " fill-rule="evenodd" fill="rgb(255,255,255)"/><path d=" M 579.209 385.711 L 578.927 386.599 L 578.086 387.256 L 578.086 387.217 L 568.23 387.217 L 567.485 386.673 L 567.34 385.711 L 579.209 385.711 L 579.209 385.711 Z " fill-rule="evenodd" fill="rgb(0,149,218)"/><path d=" M 579.358 380.375 L 579.93 379.548 L 580.249 378.703 L 580.333 377.85 L 580.222 376.997 L 579.954 376.147 L 579.569 375.288 L 579.097 374.411 L 578.573 373.506 L 578.024 372.565 L 577.481 371.581 L 576.973 370.547 L 576.53 369.458 L 576.178 368.305 L 575.947 367.084 L 575.746 363.931 L 575.145 365.927 L 575.086 366.351 L 575.039 366.892 L 574.997 367.527 L 574.956 368.218 L 574.911 368.931 L 574.861 369.624 L 574.859 369.642 L 574.819 369.604 L 574.49 369.046 L 574.244 368.366 L 574.056 367.617 L 573.904 366.848 L 573.755 366.111 L 573.57 365.444 L 572.753 363.769 L 572.641 366.41 L 572.347 367.605 L 571.859 368.709 L 571.213 369.74 L 570.456 370.707 L 569.627 371.624 L 568.774 372.504 L 567.941 373.361 L 567.176 374.209 L 566.523 375.069 L 566.033 375.964 L 565.762 376.911 L 565.781 377.914 L 566.133 378.959 L 566.851 380.041 L 568.047 381.264 L 578.437 381.264 L 579.359 380.377 L 579.358 380.375 Z " fill-rule="evenodd" fill="rgb(35,31,32)"/><path d=" M 568.184 380.933 L 578.302 380.933 C 583.357 376.787 575.518 373.17 575.533 365.785 C 575.342 366.084 575.308 368.685 575.129 370.297 L 575.059 370.286 C 573.509 369.264 573.749 366.111 573.028 365.085 C 573.459 372.733 561.289 374.821 568.184 380.932 L 568.184 380.933 Z " fill-rule="evenodd" fill="rgb(237,28,36)"/><path d=" M 575.32 367.419 L 575.252 370.713 L 575.222 371.15 L 575.176 371.595 L 575.112 372.048 L 575.036 372.504 L 574.946 372.964 L 574.844 373.422 L 574.729 373.886 L 574.168 375.449 L 573.46 376.627 L 572.666 377.456 L 571.839 377.984 L 571.04 378.252 L 570.32 378.309 L 569.732 378.197 L 569.326 377.952 L 569.134 377.621 L 569.028 377.27 L 568.998 376.91 L 569.044 376.567 L 569.177 376.26 L 569.409 376.029 L 569.738 375.931 L 570.106 376.002 L 571.124 376.293 L 571.92 376.336 L 572.548 376.186 L 573.045 375.89 L 573.443 375.478 L 573.766 374.99 L 574.034 374.464 L 574.263 373.96 L 574.393 373.487 L 574.514 372.926 L 574.625 372.327 L 574.72 371.733 L 574.8 371.187 L 574.862 370.733 L 574.905 370.411 L 575.319 367.419 L 575.32 367.419 Z " fill-rule="evenodd" fill="rgb(35,31,32)"/><path d=" M 588.717 293.765 L 589 292.827 L 589.154 291.885 L 589.188 290.941 L 589.114 289.999 L 588.942 289.058 L 588.684 288.117 L 588.349 287.173 L 587.951 286.224 L 587.493 285.266 L 586.989 284.299 L 586.445 283.317 L 585.873 282.32 L 585.278 281.302 L 584.67 280.266 L 584.055 279.206 L 583.444 278.122 L 582.843 277.011 L 582.263 275.872 L 581.709 274.703 L 581.193 273.504 L 580.718 272.269 L 580.296 271.001 L 579.932 269.695 L 579.637 268.35 L 579.416 266.964 L 579.279 265.534 L 579.154 261.586 L 577.883 263.938 L 577.792 264.293 L 577.727 264.698 L 577.669 265.18 L 577.617 265.743 L 577.566 266.374 L 577.517 267.067 L 577.468 267.808 L 577.421 268.588 L 577.372 269.392 L 577.321 270.208 L 577.267 271.023 L 577.211 271.828 L 577.149 272.607 L 577.127 272.856 L 576.919 272.624 L 576.525 272.034 L 576.18 271.363 L 575.882 270.626 L 575.625 269.836 L 575.402 269.009 L 575.206 268.158 L 575.032 267.299 L 574.867 266.446 L 574.705 265.611 L 574.534 264.807 L 574.346 264.047 L 574.127 263.337 L 573.862 262.691 L 572.31 260 L 572.336 264.033 L 572.201 265.462 L 571.934 266.827 L 571.545 268.136 L 571.047 269.396 L 570.45 270.608 L 569.767 271.779 L 569.007 272.91 L 568.186 274.008 L 567.313 275.072 L 566.401 276.109 L 565.464 277.119 L 564.513 278.109 L 563.562 279.08 L 562.624 280.038 L 561.709 280.986 L 560.834 281.931 L 560.008 282.874 L 559.246 283.825 L 558.559 284.784 L 557.964 285.763 L 557.473 286.764 L 557.105 287.795 L 556.877 288.856 L 556.809 289.951 L 556.914 291.071 L 557.207 292.216 L 557.693 293.379 L 558.382 294.566 L 559.282 295.778 L 560.403 297.023 L 561.93 298.472 L 584.99 298.472 L 586.173 297.425 L 587.03 296.522 L 587.735 295.613 L 588.294 294.694 L 588.714 293.765 L 588.717 293.765 Z " fill-rule="evenodd" fill="rgb(35,31,32)"/><path d=" M 562.197 297.811 L 584.742 297.811 C 596.007 288.574 578.54 280.513 578.571 264.057 C 578.191 264.356 578.071 270.521 577.67 274.112 L 577.517 274.089 C 574.062 271.813 574.597 264.786 572.99 262.501 C 573.952 279.542 546.831 284.196 562.197 297.813 L 562.197 297.811 Z " fill-rule="evenodd" fill="rgb(237,28,36)"/><path d=" M 577.593 274.525 L 577.578 274.941 L 577.571 275.331 L 577.57 275.705 L 577.572 276.072 L 577.57 276.441 L 577.563 276.819 L 577.544 277.214 L 577.514 277.638 L 577.466 278.095 L 577.396 278.597 L 577.299 279.149 L 577.174 279.762 L 577.016 280.444 L 576.819 281.203 L 576.582 282.049 L 576.007 283.891 L 575.337 285.506 L 574.592 286.901 L 573.784 288.091 L 572.932 289.09 L 572.049 289.907 L 571.149 290.558 L 570.249 291.054 L 569.367 291.408 L 568.515 291.635 L 567.709 291.748 L 566.966 291.755 L 566.299 291.677 L 565.721 291.519 L 565.247 291.296 L 564.887 291.009 L 564.5 290.349 L 564.278 289.614 L 564.216 288.858 L 564.314 288.139 L 564.583 287.52 L 565.036 287.068 L 565.673 286.88 L 566.436 287.024 L 567.643 287.43 L 568.716 287.679 L 569.681 287.792 L 570.543 287.777 L 571.315 287.654 L 572.001 287.432 L 572.613 287.124 L 573.156 286.739 L 573.643 286.292 L 574.077 285.791 L 574.466 285.248 L 574.813 284.674 L 575.129 284.085 L 575.417 283.489 L 575.688 282.9 L 575.938 282.342 L 576.086 281.839 L 576.227 281.271 L 576.36 280.656 L 576.484 280.009 L 576.6 279.341 L 576.709 278.664 L 576.807 277.989 L 576.897 277.33 L 576.979 276.698 L 577.05 276.106 L 577.114 275.565 L 577.211 274.683 L 577.245 274.365 L 577.271 274.144 L 577.92 269.362 L 577.591 274.523 L 577.593 274.525 Z " fill-rule="evenodd" fill="rgb(35,31,32)"/><path d=" M 620.668 293.765 L 620.951 292.827 L 621.106 291.885 L 621.139 290.941 L 621.066 289.999 L 620.894 289.058 L 620.636 288.117 L 620.301 287.173 L 619.902 286.224 L 619.445 285.266 L 618.94 284.299 L 618.397 283.317 L 617.825 282.32 L 617.23 281.302 L 616.622 280.266 L 616.006 279.206 L 615.396 278.122 L 614.795 277.011 L 614.215 275.872 L 613.661 274.703 L 613.144 273.504 L 612.67 272.269 L 612.248 271.001 L 611.884 269.695 L 611.589 268.35 L 611.367 266.964 L 611.23 265.534 L 611.105 261.586 L 609.835 263.938 L 609.744 264.293 L 609.679 264.698 L 609.621 265.18 L 609.569 265.743 L 609.518 266.374 L 609.469 267.067 L 609.42 267.808 L 609.372 268.588 L 609.323 269.392 L 609.273 270.208 L 609.219 271.023 L 609.163 271.828 L 609.101 272.607 L 609.079 272.856 L 608.871 272.624 L 608.476 272.034 L 608.131 271.363 L 607.833 270.626 L 607.576 269.836 L 607.353 269.009 L 607.158 268.158 L 606.984 267.299 L 606.818 266.446 L 606.656 265.611 L 606.485 264.807 L 606.298 264.047 L 606.078 263.337 L 605.814 262.691 L 604.261 260 L 604.288 264.033 L 604.153 265.462 L 603.886 266.827 L 603.496 268.136 L 602.998 269.396 L 602.401 270.608 L 601.718 271.779 L 600.958 272.91 L 600.137 274.008 L 599.264 275.072 L 598.353 276.109 L 597.415 277.119 L 596.465 278.109 L 595.514 279.08 L 594.575 280.038 L 593.66 280.986 L 592.785 281.931 L 591.959 282.874 L 591.197 283.825 L 590.51 284.784 L 589.915 285.763 L 589.425 286.764 L 589.057 287.795 L 588.829 288.856 L 588.76 289.951 L 588.866 291.071 L 589.158 292.216 L 589.645 293.379 L 590.334 294.566 L 591.233 295.778 L 592.354 297.023 L 593.881 298.472 L 616.941 298.472 L 618.124 297.425 L 618.981 296.522 L 619.686 295.613 L 620.245 294.694 L 620.665 293.765 L 620.668 293.765 Z " fill-rule="evenodd" fill="rgb(35,31,32)"/><path d=" M 594.149 297.811 L 616.694 297.811 C 627.958 288.574 610.491 280.513 610.523 264.057 C 610.142 264.356 610.022 270.521 609.622 274.112 L 609.468 274.089 C 606.014 271.813 606.549 264.786 604.941 262.501 C 605.903 279.542 578.783 284.196 594.149 297.813 L 594.149 297.811 Z " fill-rule="evenodd" fill="rgb(237,28,36)"/><path d=" M 609.545 274.525 L 609.53 274.941 L 609.523 275.331 L 609.521 275.705 L 609.523 276.072 L 609.522 276.441 L 609.515 276.819 L 609.496 277.214 L 609.466 277.638 L 609.418 278.095 L 609.347 278.597 L 609.251 279.149 L 609.126 279.762 L 608.967 280.444 L 608.771 281.203 L 608.533 282.049 L 607.958 283.891 L 607.289 285.506 L 606.544 286.901 L 605.736 288.091 L 604.884 289.09 L 604 289.907 L 603.101 290.558 L 602.201 291.054 L 601.319 291.408 L 600.466 291.635 L 599.661 291.748 L 598.917 291.755 L 598.251 291.677 L 597.672 291.519 L 597.199 291.296 L 596.838 291.009 L 596.452 290.349 L 596.23 289.614 L 596.168 288.858 L 596.265 288.139 L 596.534 287.52 L 596.988 287.068 L 597.625 286.88 L 598.388 287.024 L 599.595 287.43 L 600.667 287.679 L 601.632 287.792 L 602.495 287.777 L 603.267 287.654 L 603.952 287.432 L 604.564 287.124 L 605.108 286.739 L 605.594 286.292 L 606.028 285.791 L 606.417 285.248 L 606.764 284.674 L 607.08 284.085 L 607.369 283.489 L 607.639 282.9 L 607.89 282.342 L 608.038 281.839 L 608.179 281.271 L 608.311 280.656 L 608.435 280.009 L 608.552 279.341 L 608.66 278.664 L 608.759 277.989 L 608.848 277.33 L 608.93 276.698 L 609.001 276.106 L 609.065 275.565 L 609.162 274.683 L 609.196 274.365 L 609.222 274.144 L 609.871 269.362 L 609.542 274.523 L 609.545 274.525 Z " fill-rule="evenodd" fill="rgb(35,31,32)"/></g><path d=" M 554.561 490.649 L 553.493 490.649 L 548.957 501.269 L 550.505 501.269 L 551.837 498.157 L 556.326 498.157 L 557.735 501.269 L 559.283 501.269 L 554.561 490.649 Z  M 554.004 492.971 L 555.707 496.795 L 552.425 496.795 L 554.004 492.971 Z  M 561.961 490.711 L 560.429 490.711 L 560.429 501.269 L 566.714 501.269 L 566.714 499.891 L 561.961 499.891 L 561.961 490.711 Z  M 572.473 490.649 L 571.405 490.649 L 566.869 501.269 L 568.417 501.269 L 569.748 498.157 L 574.238 498.157 L 575.647 501.269 L 577.195 501.269 L 572.473 490.649 Z  M 571.916 492.971 L 573.619 496.795 L 570.337 496.795 L 571.916 492.971 Z  M 587.614 496.083 L 584.069 496.083 L 584.069 497.414 L 586.097 497.414 L 586.097 499.613 L 585.957 499.659 C 584.92 499.984 584.456 500.077 583.79 500.077 C 581.297 500.077 579.548 498.39 579.548 495.99 C 579.548 493.699 581.344 491.918 583.651 491.918 C 584.874 491.918 586.174 492.305 587.397 493.018 L 587.397 491.469 C 585.772 490.788 584.874 490.572 583.682 490.572 C 580.415 490.572 577.969 492.925 577.969 496.083 C 577.969 497.523 578.495 498.808 579.502 499.814 C 580.601 500.913 581.932 501.408 583.744 501.408 C 585.059 501.408 586.221 501.145 587.614 500.541 L 587.614 496.083 Z  M 594.998 490.572 C 591.732 490.572 589.348 492.863 589.348 496.021 C 589.348 499.102 591.732 501.408 594.921 501.408 C 598.249 501.408 600.695 499.117 600.695 495.99 C 600.695 492.878 598.265 490.572 594.998 490.572 Z  M 595.06 491.996 C 597.367 491.996 599.147 493.73 599.147 495.959 C 599.147 498.266 597.367 500 595.014 500 C 592.676 500 590.911 498.297 590.911 496.021 C 590.911 493.683 592.645 491.996 595.06 491.996 Z  M 606.996 490.649 L 605.928 490.649 L 601.392 501.269 L 602.94 501.269 L 604.272 498.157 L 608.761 498.157 L 610.17 501.269 L 611.718 501.269 L 606.996 490.649 Z  M 606.439 492.971 L 608.142 496.795 L 604.86 496.795 L 606.439 492.971 Z  M 617.895 491.315 C 617.137 490.804 616.332 490.572 615.465 490.572 C 613.622 490.572 612.353 491.717 612.353 493.374 C 612.353 494.504 612.926 495.293 614.35 496.145 L 615.496 496.841 C 616.393 497.368 616.889 498.018 616.889 498.668 C 616.889 499.473 616.177 500.062 615.232 500.062 C 614.582 500.062 613.855 499.814 613.266 499.38 C 612.926 499.133 612.771 498.978 612.399 498.513 L 612.399 500.433 C 613.266 501.083 614.226 501.408 615.248 501.408 C 617.059 501.408 618.313 500.232 618.313 498.529 C 618.313 497.337 617.663 496.346 616.378 495.603 L 615.217 494.922 C 614.18 494.302 613.746 493.792 613.746 493.157 C 613.746 492.445 614.443 491.934 615.434 491.934 C 616.301 491.934 617.137 492.305 617.895 493.033 L 617.895 491.315 Z  M 526.478 490.711 L 526.478 501.269 L 529.822 501.285 C 531.432 501.285 531.773 501.223 532.609 500.944 C 534.761 500.216 536.185 498.235 536.185 495.99 C 536.185 494.008 535.117 492.197 533.429 491.346 C 533.011 491.129 532.532 490.959 531.99 490.866 C 531.417 490.742 530.952 490.711 530.039 490.711 L 526.478 490.711 Z  M 527.98 492.058 L 529.884 492.058 C 531.278 492.058 531.711 492.12 532.423 492.445 C 533.817 493.064 534.622 494.349 534.622 495.913 C 534.622 497.739 533.538 499.256 531.928 499.69 C 531.247 499.876 530.952 499.907 529.931 499.907 L 527.98 499.907 L 527.98 492.058 Z  M 544.065 490.711 L 538.074 490.711 L 538.074 501.269 L 544.204 501.269 L 544.204 499.907 L 539.591 499.907 L 539.591 496.625 L 543.91 496.625 L 543.91 495.278 L 539.591 495.278 L 539.591 492.058 L 544.065 492.058 L 544.065 490.711 Z  M 603.018 474.452 L 597.383 474.452 L 597.383 485.01 L 598.9 485.01 L 598.9 480.103 L 603.018 480.103 L 603.018 478.74 L 598.9 478.74 L 598.9 475.814 L 603.018 475.814 L 603.018 474.452 Z  M 610.619 474.452 L 604.628 474.452 L 604.628 485.01 L 610.758 485.01 L 610.758 483.648 L 606.145 483.648 L 606.145 480.366 L 610.464 480.366 L 610.464 479.019 L 606.145 479.019 L 606.145 475.799 L 610.619 475.799 L 610.619 474.452 Z  M 612.384 474.452 L 612.384 485.01 L 615.728 485.026 C 617.338 485.026 617.678 484.964 618.514 484.685 C 620.666 483.957 622.091 481.976 622.091 479.731 C 622.091 477.749 621.022 475.938 619.335 475.087 C 618.917 474.87 618.437 474.7 617.895 474.607 C 617.322 474.483 616.858 474.452 615.945 474.452 L 612.384 474.452 Z  M 613.886 475.799 L 615.79 475.799 C 617.183 475.799 617.616 475.861 618.329 476.186 C 619.722 476.805 620.527 478.09 620.527 479.654 C 620.527 481.48 619.443 482.998 617.833 483.431 C 617.152 483.617 616.858 483.648 615.836 483.648 L 613.886 483.648 L 613.886 475.799 Z  M 629.971 474.452 L 623.979 474.452 L 623.979 485.01 L 630.11 485.01 L 630.11 483.648 L 625.496 483.648 L 625.496 480.366 L 629.816 480.366 L 629.816 479.019 L 625.496 479.019 L 625.496 475.799 L 629.971 475.799 L 629.971 474.452 Z  M 631.766 474.452 L 631.766 485.01 L 633.268 485.01 L 633.268 480.412 L 633.671 480.412 C 634.352 480.412 634.584 480.459 634.94 480.722 C 635.373 481.031 635.761 481.48 636.271 482.192 C 636.488 482.518 636.891 483.121 637.278 483.756 C 637.448 484.019 637.572 484.205 637.634 484.313 L 638.005 484.871 L 638.114 485.01 L 639.909 485.01 L 639.817 484.886 L 639.352 484.252 C 639.12 483.942 638.826 483.493 638.47 482.905 C 637.742 481.713 637.494 481.341 637.03 480.815 C 636.689 480.412 636.535 480.273 636.117 479.994 C 637.262 479.545 637.881 478.632 637.881 477.393 C 637.881 475.582 636.55 474.452 634.414 474.452 L 631.766 474.452 Z  M 633.268 475.737 L 633.732 475.737 C 634.661 475.737 635.141 475.799 635.528 475.985 C 636.008 476.217 636.333 476.774 636.333 477.378 C 636.333 478.245 635.776 478.895 634.94 479.003 C 634.661 479.05 634.274 479.065 633.856 479.065 L 633.268 479.065 L 633.268 475.737 Z  M 645.514 474.39 L 644.445 474.39 L 639.909 485.01 L 641.458 485.01 L 642.789 481.898 L 647.279 481.898 L 648.687 485.01 L 650.235 485.01 L 645.514 474.39 Z  M 644.956 476.712 L 646.659 480.536 L 643.377 480.536 L 644.956 476.712 Z  M 652.914 474.452 L 651.381 474.452 L 651.381 485.01 L 657.666 485.01 L 657.666 483.632 L 652.914 483.632 L 652.914 474.452 Z  M 496.305 474.452 L 494.804 474.452 L 494.804 480.443 C 494.804 480.939 494.757 481.589 494.695 481.867 C 494.479 483.028 493.302 483.803 491.769 483.803 C 490.779 483.803 489.989 483.508 489.416 482.92 C 488.89 482.394 488.751 481.836 488.751 480.443 L 488.751 474.452 L 487.233 474.452 L 487.233 480.428 C 487.233 481.573 487.264 481.883 487.481 482.549 C 487.992 484.159 489.633 485.149 491.785 485.149 C 493.132 485.149 494.262 484.762 495.113 484.004 C 495.562 483.601 495.887 483.09 496.073 482.518 C 496.275 481.867 496.305 481.604 496.305 480.443 L 496.305 474.452 Z  M 508.242 474.452 L 506.802 474.452 L 506.802 482.641 L 499.68 474.452 L 498.457 474.452 L 498.457 485.01 L 499.882 485.01 L 499.882 476.882 L 506.941 485.01 L 508.242 485.01 L 508.242 474.452 Z  M 512.034 474.452 L 510.517 474.452 L 510.517 485.01 L 512.034 485.01 L 512.034 474.452 Z  M 522.562 474.452 L 521.06 474.452 L 517.902 481.867 L 514.728 474.452 L 513.211 474.452 L 517.762 485.072 L 518.103 485.072 L 522.562 474.452 Z  M 529.714 474.452 L 523.723 474.452 L 523.723 485.01 L 529.853 485.01 L 529.853 483.648 L 525.24 483.648 L 525.24 480.366 L 529.559 480.366 L 529.559 479.019 L 525.24 479.019 L 525.24 475.799 L 529.714 475.799 L 529.714 474.452 Z  M 531.51 474.452 L 531.51 485.01 L 533.011 485.01 L 533.011 480.412 L 533.414 480.412 C 534.095 480.412 534.327 480.459 534.683 480.722 C 535.117 481.031 535.504 481.48 536.015 482.192 C 536.232 482.518 536.634 483.121 537.021 483.756 C 537.191 484.019 537.315 484.205 537.377 484.313 L 537.749 484.871 L 537.857 485.01 L 539.653 485.01 L 539.56 484.886 L 539.096 484.252 C 538.863 483.942 538.569 483.493 538.213 482.905 C 537.486 481.713 537.238 481.341 536.773 480.815 C 536.433 480.412 536.278 480.273 535.86 479.994 C 537.006 479.545 537.625 478.632 537.625 477.393 C 537.625 475.582 536.294 474.452 534.157 474.452 L 531.51 474.452 Z  M 533.011 475.737 L 533.476 475.737 C 534.405 475.737 534.885 475.799 535.272 475.985 C 535.752 476.217 536.077 476.774 536.077 477.378 C 536.077 478.245 535.519 478.895 534.683 479.003 C 534.405 479.05 534.018 479.065 533.6 479.065 L 533.011 479.065 L 533.011 475.737 Z  M 545.83 475.056 C 545.071 474.545 544.266 474.313 543.399 474.313 C 541.557 474.313 540.288 475.458 540.288 477.115 C 540.288 478.245 540.86 479.034 542.285 479.886 L 543.43 480.582 C 544.328 481.109 544.824 481.759 544.824 482.409 C 544.824 483.214 544.112 483.803 543.167 483.803 C 542.517 483.803 541.789 483.555 541.201 483.121 C 540.86 482.874 540.706 482.719 540.334 482.254 L 540.334 484.174 C 541.201 484.824 542.161 485.149 543.183 485.149 C 544.994 485.149 546.248 483.973 546.248 482.27 C 546.248 481.078 545.598 480.087 544.313 479.344 L 543.152 478.663 C 542.114 478.044 541.681 477.533 541.681 476.898 C 541.681 476.186 542.378 475.675 543.368 475.675 C 544.235 475.675 545.071 476.046 545.83 476.774 L 545.83 475.056 Z  M 549.437 474.452 L 547.92 474.452 L 547.92 485.01 L 549.437 485.01 L 549.437 474.452 Z  M 551.79 474.452 L 551.79 485.01 L 555.134 485.026 C 556.744 485.026 557.085 484.964 557.921 484.685 C 560.073 483.957 561.497 481.976 561.497 479.731 C 561.497 477.749 560.429 475.938 558.741 475.087 C 558.323 474.87 557.843 474.7 557.302 474.607 C 556.729 474.483 556.264 474.452 555.351 474.452 L 551.79 474.452 Z  M 553.292 475.799 L 555.196 475.799 C 556.589 475.799 557.023 475.861 557.735 476.186 C 559.128 476.805 559.933 478.09 559.933 479.654 C 559.933 481.48 558.85 482.998 557.24 483.431 C 556.558 483.617 556.264 483.648 555.243 483.648 L 553.292 483.648 L 553.292 475.799 Z  M 567.829 474.39 L 566.761 474.39 L 562.225 485.01 L 563.773 485.01 L 565.104 481.898 L 569.594 481.898 L 571.002 485.01 L 572.551 485.01 L 567.829 474.39 Z  M 567.271 476.712 L 568.974 480.536 L 565.692 480.536 L 567.271 476.712 Z  M 573.727 474.452 L 573.727 485.01 L 577.071 485.026 C 578.681 485.026 579.022 484.964 579.858 484.685 C 582.01 483.957 583.434 481.976 583.434 479.731 C 583.434 477.749 582.366 475.938 580.678 475.087 C 580.26 474.87 579.78 474.7 579.238 474.607 C 578.666 474.483 578.201 474.452 577.288 474.452 L 573.727 474.452 Z  M 575.229 475.799 L 577.133 475.799 C 578.526 475.799 578.96 475.861 579.672 476.186 C 581.065 476.805 581.87 478.09 581.87 479.654 C 581.87 481.48 580.787 482.998 579.177 483.431 C 578.495 483.617 578.201 483.648 577.179 483.648 L 575.229 483.648 L 575.229 475.799 Z  M 591.314 474.452 L 585.323 474.452 L 585.323 485.01 L 591.453 485.01 L 591.453 483.648 L 586.84 483.648 L 586.84 480.366 L 591.159 480.366 L 591.159 479.019 L 586.84 479.019 L 586.84 475.799 L 591.314 475.799 L 591.314 474.452 Z " fill-rule="evenodd" fill="rgb(255,255,255)"/></g></g></svg>