<?xml version="1.0" standalone="no"?><!-- Generator: Gravit.io --><svg xmlns="http://www.w3.org/2000/svg" xmlns:xlink="http://www.w3.org/1999/xlink" style="isolation:isolate" viewBox="61.723 174.877 718.445 245.521" width="718.445" height="245.521"><g><g><g><g><path d=" M 717.57 228.177 L 710.907 373.403 C 709.373 377.153 707.727 377.42 705.877 374.09 L 697.1 228.177 L 717.57 228.177 L 717.57 228.177 Z " fill-rule="evenodd" fill="rgb(0,149,218)"/><path d=" M 685.629 228.177 L 678.967 373.403 C 677.432 377.153 675.786 377.42 673.936 374.09 L 665.159 228.177 L 685.629 228.177 L 685.629 228.177 Z " fill-rule="evenodd" fill="rgb(0,149,218)"/><path d=" M 653.553 228.177 L 646.89 373.403 C 645.356 377.153 643.71 377.42 641.86 374.09 L 633.083 228.177 L 653.553 228.177 L 653.553 228.177 Z " fill-rule="evenodd" fill="rgb(0,149,218)"/><path d=" M 639.38 333.763 L 637.593 333.37 L 636.291 333.141 L 635.013 332.972 L 633.76 332.858 L 632.536 332.795 L 631.341 332.78 L 630.18 332.81 L 629.054 332.88 L 627.966 332.987 L 626.916 333.127 L 625.908 333.298 L 624.945 333.495 L 624.028 333.715 L 623.158 333.956 L 622.339 334.211 L 619.676 335.147 L 622.41 335.976 L 623.183 336.232 L 623.94 336.502 L 624.679 336.787 L 625.405 337.088 L 626.114 337.405 L 626.811 337.738 L 627.493 338.088 L 628.166 338.454 L 628.825 338.839 L 629.474 339.241 L 630.114 339.663 L 630.746 340.103 L 631.369 340.563 L 631.984 341.042 L 632.242 341.253 L 632.16 341.484 L 631.878 342.1 L 631.533 342.709 L 631.12 343.336 L 630.632 343.997 L 630.064 344.713 L 629.417 345.498 L 626.781 348.643 L 630.12 347.093 L 630.756 346.819 L 631.391 346.564 L 632.023 346.327 L 632.655 346.103 L 633.285 345.893 L 633.917 345.693 L 634.548 345.501 L 635.18 345.313 L 635.814 345.13 L 636.451 344.946 L 637.088 344.763 L 637.729 344.573 L 638.371 344.38 L 639.016 344.177 L 640.153 343.806 L 639.38 333.763 L 639.38 333.763 Z " fill-rule="evenodd" fill="rgb(35,31,32)"/><path d=" M 638.758 334.304 C 631.802 332.621 625.628 333.684 621.802 335.101 C 626.15 336.371 629.715 338.261 633.019 341.036 C 632.44 342.955 631.252 344.343 629.193 346.794 C 632.701 345.111 636.034 344.491 639.454 343.34 L 638.758 334.304 Z " fill-rule="evenodd" fill="rgb(237,28,36)"/><path d=" M 714.182 332.633 L 715.181 332.581 L 716.196 332.551 L 717.225 332.55 L 718.274 332.587 L 719.342 332.67 L 720.434 332.802 L 721.551 332.996 L 722.695 333.257 L 723.867 333.593 L 725.072 334.01 L 726.309 334.517 L 727.581 335.118 L 730.361 336.614 L 727.995 337.228 L 727.279 337.43 L 726.579 337.643 L 725.892 337.87 L 725.22 338.106 L 724.561 338.356 L 723.917 338.62 L 723.283 338.896 L 722.665 339.184 L 722.06 339.484 L 721.468 339.798 L 720.888 340.126 L 720.321 340.467 L 719.765 340.821 L 719.223 341.189 L 719.027 341.329 L 719.084 341.616 L 719.266 342.264 L 719.496 342.894 L 719.77 343.513 L 720.09 344.127 L 720.451 344.749 L 720.85 345.382 L 722.415 347.732 L 719.904 346.802 L 719.306 346.584 L 718.715 346.371 L 718.127 346.164 L 717.544 345.961 L 716.963 345.763 L 716.386 345.57 L 715.808 345.383 L 715.232 345.199 L 714.655 345.021 L 714.077 344.848 L 713.495 344.68 L 712.911 344.516 L 712.323 344.358 L 711.729 344.204 L 710.622 343.931 L 710.622 332.896 L 712.213 332.775 L 713.193 332.701 L 714.182 332.634 L 714.182 332.633 Z " fill-rule="evenodd" fill="rgb(35,31,32)"/><path d=" M 711.283 333.508 C 716.501 333.129 721.617 332.441 728.564 336.396 C 724.565 337.393 721.177 338.907 718.297 341.039 C 718.602 343.033 719.517 344.615 720.737 346.404 C 717.484 345.2 714.536 344.202 711.283 343.412 L 711.283 333.508 L 711.283 333.508 Z " fill-rule="evenodd" fill="rgb(237,28,36)"/><path d=" M 720.168 223.983 L 719.54 225.961 L 717.665 227.426 L 717.665 227.338 L 695.704 227.338 L 694.042 226.126 L 693.719 223.983 L 720.168 223.983 L 720.168 223.983 Z " fill-rule="evenodd" fill="rgb(0,149,218)"/><path d=" M 721.713 218.854 L 721.814 218.96 L 721.799 222.185 L 721.281 222.845 L 693.022 222.845 L 692.379 222.13 L 692.387 219.071 L 692.642 218.854 L 721.71 218.854 L 721.713 218.854 Z " fill-rule="evenodd" fill="rgb(0,149,218)"/><path d=" M 694.175 213.909 L 720.13 213.909 L 720.733 217.716 L 693.719 217.716 L 694.175 213.909 Z " fill-rule="evenodd" fill="rgb(0,149,218)"/><path d=" M 689.772 218.854 L 689.874 218.96 L 689.859 222.185 L 689.34 222.845 L 661.081 222.845 L 660.438 222.13 L 660.446 219.071 L 660.701 218.854 L 689.77 218.854 L 689.772 218.854 Z " fill-rule="evenodd" fill="rgb(0,149,218)"/><path d=" M 662.235 213.909 L 688.19 213.909 L 688.792 217.716 L 661.779 217.716 L 662.235 213.909 L 662.235 213.909 Z " fill-rule="evenodd" fill="rgb(0,149,218)"/><path d=" M 680.529 230.968 L 679.341 262.423 L 678.155 293.877 C 678.148 294.868 679.528 295.021 679.611 293.739 L 683.664 230.985 C 683.352 229.462 681.374 229.336 680.529 230.966 L 680.529 230.968 Z " fill-rule="evenodd" fill="rgb(255,255,255)"/><path d=" M 673.833 231.853 L 675.123 261.455 L 676.414 291.058 C 676.48 291.988 677.652 292.016 677.628 290.808 L 676.469 231.608 C 676.097 230.205 674.424 230.252 673.833 231.853 Z " fill-rule="evenodd" fill="rgb(255,255,255)"/><path d=" M 667.937 231.568 L 670.76 259.519 L 673.581 287.469 C 673.695 288.347 674.867 288.314 674.779 287.171 L 670.557 231.204 C 670.113 229.895 668.446 230.023 667.937 231.568 Z " fill-rule="evenodd" fill="rgb(255,255,255)"/><path d=" M 688.507 223.983 L 687.879 225.961 L 686.004 227.426 L 686.004 227.338 L 664.043 227.338 L 662.381 226.126 L 662.058 223.983 L 688.507 223.983 L 688.507 223.983 Z " fill-rule="evenodd" fill="rgb(0,149,218)"/><path d=" M 705.711 233.492 L 707.002 295.87 L 708.292 358.248 C 708.359 360.209 709.531 360.268 709.507 357.72 L 708.347 232.978 C 707.975 230.02 706.303 230.119 705.711 233.492 L 705.711 233.492 Z " fill-rule="evenodd" fill="rgb(255,255,255)"/><path d=" M 699.815 233.479 L 702.638 296.461 L 705.459 359.442 C 705.573 361.418 706.745 361.346 706.658 358.771 L 702.435 232.661 C 701.991 229.71 700.323 229.998 699.815 233.479 Z " fill-rule="evenodd" fill="rgb(255,255,255)"/><path d=" M 648.282 232.979 L 647.095 296.086 L 645.908 359.194 C 645.9 361.183 647.282 361.488 647.364 358.916 L 651.416 233.014 C 651.105 229.957 649.127 229.706 648.282 232.98 L 648.282 232.979 Z " fill-rule="evenodd" fill="rgb(255,255,255)"/><path d=" M 641.586 234.094 L 642.877 297.363 L 644.167 360.632 C 644.234 362.62 645.406 362.68 645.381 360.096 L 644.222 233.573 C 643.85 230.574 642.177 230.674 641.586 234.094 L 641.586 234.094 Z " fill-rule="evenodd" fill="rgb(255,255,255)"/><path d=" M 635.691 234.024 L 638.512 296.889 L 641.334 359.753 C 641.448 361.727 642.62 361.654 642.533 359.083 L 638.31 233.208 C 637.866 230.263 636.198 230.551 635.691 234.024 L 635.691 234.024 Z " fill-rule="evenodd" fill="rgb(255,255,255)"/><path d=" M 712.407 232.42 L 711.22 295.391 L 710.033 358.363 C 710.026 360.348 711.407 360.651 711.489 358.086 L 715.541 232.454 C 715.231 229.403 713.252 229.152 712.407 232.42 L 712.407 232.42 Z " fill-rule="evenodd" fill="rgb(255,255,255)"/><path d=" M 656.431 223.983 L 655.803 225.961 L 653.928 227.426 L 653.928 227.338 L 631.967 227.338 L 630.305 226.126 L 629.982 223.983 L 656.431 223.983 L 656.431 223.983 Z " fill-rule="evenodd" fill="rgb(0,149,218)"/><path d=" M 657.696 218.854 L 657.797 218.96 L 657.782 222.185 L 657.264 222.845 L 629.005 222.845 L 628.363 222.13 L 628.37 219.071 L 628.625 218.854 L 657.694 218.854 L 657.696 218.854 Z " fill-rule="evenodd" fill="rgb(0,149,218)"/><path d=" M 630.159 213.909 L 656.114 213.909 L 656.716 217.716 L 629.702 217.716 L 630.159 213.909 L 630.159 213.909 Z " fill-rule="evenodd" fill="rgb(0,149,218)"/><path d=" M 732.349 356.627 L 732.026 355.223 L 731.673 354.233 L 731.216 353.295 L 730.662 352.409 L 730.024 351.57 L 729.304 350.781 L 728.514 350.035 L 727.66 349.334 L 726.749 348.671 L 725.787 348.046 L 724.782 347.455 L 723.738 346.899 L 722.663 346.371 L 721.563 345.874 L 720.444 345.404 L 719.311 344.959 L 718.174 344.535 L 717.037 344.136 L 715.906 343.753 L 714.787 343.392 L 713.689 343.045 L 712.616 342.715 L 711.577 342.397 L 710.575 342.092 L 709.621 341.796 L 708.718 341.51 L 707.877 341.232 L 707.102 340.961 L 706.402 340.695 L 705.784 340.435 L 705.259 340.182 L 704.426 339.705 L 700.041 343.038 L 700.004 344.005 L 700.015 344.712 L 700.061 345.442 L 700.14 346.192 L 700.251 346.947 L 700.388 347.706 L 700.55 348.457 L 700.736 349.196 L 700.944 349.91 L 701.171 350.597 L 701.415 351.246 L 701.677 351.853 L 701.954 352.407 L 702.249 352.907 L 702.565 353.344 L 703.019 353.835 L 704.57 354.115 L 705.846 354.373 L 707.075 354.648 L 708.263 354.941 L 709.414 355.251 L 710.531 355.581 L 711.621 355.93 L 712.687 356.298 L 713.736 356.686 L 714.769 357.094 L 715.795 357.523 L 716.814 357.975 L 717.834 358.447 L 718.858 358.945 L 719.891 359.464 L 721.087 360.088 L 722.161 360.069 L 723.041 360.03 L 723.886 359.964 L 724.696 359.873 L 725.473 359.755 L 726.218 359.613 L 726.932 359.446 L 727.614 359.254 L 728.268 359.037 L 728.891 358.797 L 729.485 358.531 L 730.051 358.245 L 730.591 357.934 L 731.102 357.601 L 731.586 357.247 L 732.349 356.625 L 732.349 356.627 Z " fill-rule="evenodd" fill="rgb(35,31,32)"/><path d=" M 731.613 356.374 C 729.817 345.837 709.018 343.41 704.477 340.496 L 700.69 343.375 C 700.453 346.661 701.864 351.868 703.355 353.223 C 710.64 354.477 715.586 356.442 721.245 359.424 C 726.124 359.424 729.377 358.305 731.613 356.374 L 731.613 356.374 Z " fill-rule="evenodd" fill="rgb(237,28,36)"/><path d=" M 617.093 358.15 L 617.142 356.738 L 617.338 355.69 L 617.677 354.685 L 618.15 353.725 L 618.743 352.809 L 619.444 351.938 L 620.246 351.109 L 621.132 350.322 L 622.102 349.57 L 623.139 348.858 L 624.242 348.179 L 625.397 347.537 L 626.6 346.927 L 627.838 346.351 L 629.106 345.807 L 630.395 345.295 L 631.698 344.813 L 633.004 344.364 L 634.306 343.944 L 635.594 343.556 L 636.862 343.197 L 638.1 342.868 L 639.3 342.569 L 640.452 342.3 L 641.551 342.058 L 642.586 341.846 L 643.549 341.662 L 644.431 341.508 L 645.226 341.381 L 645.924 341.282 L 646.521 341.211 L 647.247 341.146 L 651.072 344.004 L 651.035 344.829 L 651.005 345.32 L 650.971 345.82 L 650.928 346.334 L 650.876 346.857 L 650.81 347.395 L 650.73 347.944 L 650.633 348.506 L 650.52 349.079 L 650.385 349.664 L 650.23 350.263 L 650.05 350.874 L 649.847 351.496 L 649.615 352.133 L 649.355 352.781 L 648.954 353.689 L 647.53 354.212 L 646.318 354.602 L 645.081 354.959 L 643.827 355.293 L 642.567 355.616 L 641.309 355.936 L 640.064 356.263 L 638.839 356.607 L 637.648 356.975 L 636.497 357.377 L 635.398 357.821 L 634.359 358.318 L 633.392 358.87 L 632.503 359.489 L 631.699 360.181 L 630.771 361.192 L 629.898 361.226 L 629.24 361.241 L 628.533 361.245 L 627.78 361.237 L 626.99 361.207 L 626.168 361.156 L 625.317 361.076 L 624.446 360.963 L 623.558 360.813 L 622.661 360.622 L 621.759 360.384 L 620.857 360.097 L 619.964 359.752 L 619.082 359.347 L 618.221 358.877 L 617.091 358.148 L 617.093 358.15 Z " fill-rule="evenodd" fill="rgb(35,31,32)"/><path d=" M 617.767 357.797 C 617.335 347.1 642.741 342.128 647.054 341.827 L 650.396 344.324 C 650.289 346.823 650.05 349.711 648.465 353.166 C 642.468 355.537 634.297 355.822 630.473 360.542 C 627.455 360.67 621.916 360.712 617.767 357.797 L 617.767 357.797 Z " fill-rule="evenodd" fill="rgb(237,28,36)"/><path d=" M 626.001 241.179 L 724.55 241.179 L 724.549 306.682 L 724.459 308.718 L 724.229 310.763 L 723.867 312.795 L 723.374 314.814 L 722.759 316.815 L 722.024 318.798 L 721.176 320.758 L 720.219 322.695 L 719.16 324.606 L 717.999 326.491 L 716.745 328.346 L 715.399 330.171 L 713.968 331.962 L 712.455 333.719 L 710.866 335.439 L 709.202 337.12 L 707.473 338.759 L 705.678 340.357 L 703.823 341.909 L 701.914 343.415 L 699.953 344.872 L 697.943 346.277 L 695.892 347.629 L 693.801 348.927 L 691.676 350.166 L 689.52 351.347 L 687.339 352.466 L 685.134 353.521 L 682.913 354.509 L 680.678 355.431 L 678.432 356.282 L 675.794 357.193 L 672.404 356.168 L 669.489 355.173 L 666.664 354.091 L 663.925 352.933 L 661.279 351.697 L 658.723 350.393 L 656.258 349.023 L 653.884 347.594 L 651.605 346.107 L 649.417 344.57 L 647.325 342.987 L 645.325 341.363 L 643.42 339.701 L 641.611 338.009 L 639.898 336.288 L 638.28 334.546 L 636.761 332.783 L 635.339 331.009 L 634.015 329.225 L 632.788 327.437 L 631.661 325.647 L 630.635 323.864 L 629.709 322.09 L 628.882 320.329 L 628.16 318.585 L 627.539 316.864 L 627.021 315.168 L 626.607 313.503 L 626.301 311.871 L 626.1 310.278 L 626.01 308.726 L 626.028 307.283 L 626.002 241.179 L 626.001 241.179 Z " fill-rule="evenodd" fill="rgb(35,31,32)"/><path d=" M 627.324 242.501 L 723.227 242.501 L 723.226 306.653 C 723.024 327.611 699.385 348.037 675.767 355.803 C 643.745 346.76 626.59 321.979 627.351 307.291 L 627.325 242.501 L 627.324 242.501 Z " fill-rule="evenodd" fill="rgb(255,255,255)"/><path d=" M 626 241.179 L 724.55 241.179 L 724.549 269.722 L 724.359 270.462 L 723.901 271.147 L 723.343 271.712 L 722.693 272.232 L 721.952 272.732 L 721.126 273.219 L 720.229 273.693 L 719.272 274.146 L 718.274 274.577 L 717.242 274.977 L 716.198 275.341 L 715.155 275.656 L 714.128 275.921 L 713.127 276.124 L 712.163 276.258 L 711.226 276.309 L 710.296 276.236 L 709.381 276.031 L 708.507 275.728 L 707.664 275.348 L 706.85 274.916 L 706.056 274.444 L 705.283 273.953 L 704.525 273.456 L 703.786 272.971 L 703.06 272.511 L 702.355 272.092 L 701.672 271.728 L 701.018 271.434 L 700.394 271.218 L 699.808 271.086 L 699.261 271.042 L 698.718 271.089 L 698.136 271.225 L 697.516 271.45 L 696.861 271.755 L 696.179 272.13 L 695.473 272.564 L 694.748 273.039 L 694.006 273.539 L 693.25 274.052 L 692.475 274.557 L 691.682 275.042 L 690.865 275.488 L 690.021 275.877 L 689.14 276.189 L 688.22 276.397 L 687.277 276.469 L 686.337 276.404 L 685.418 276.203 L 684.541 275.902 L 683.696 275.524 L 682.881 275.092 L 682.086 274.619 L 681.312 274.127 L 680.553 273.628 L 679.814 273.141 L 679.089 272.679 L 678.383 272.257 L 677.7 271.892 L 677.045 271.595 L 676.423 271.378 L 675.838 271.246 L 675.287 271.201 L 674.741 271.245 L 674.161 271.377 L 673.544 271.598 L 672.89 271.9 L 672.21 272.275 L 671.503 272.708 L 670.78 273.182 L 670.04 273.684 L 669.283 274.198 L 668.508 274.706 L 667.716 275.193 L 666.899 275.641 L 666.055 276.034 L 665.173 276.347 L 664.252 276.556 L 663.302 276.629 L 662.358 276.555 L 661.443 276.35 L 660.569 276.047 L 659.726 275.668 L 658.912 275.235 L 658.117 274.764 L 657.345 274.272 L 656.587 273.776 L 655.847 273.291 L 655.122 272.831 L 654.417 272.412 L 653.734 272.048 L 653.08 271.754 L 652.455 271.537 L 651.87 271.406 L 651.323 271.361 L 650.778 271.408 L 650.194 271.543 L 649.572 271.765 L 648.917 272.065 L 648.235 272.437 L 647.529 272.864 L 646.806 273.334 L 646.065 273.829 L 645.31 274.337 L 644.536 274.84 L 643.745 275.323 L 642.931 275.77 L 642.092 276.162 L 641.216 276.48 L 640.302 276.699 L 639.368 276.787 L 638.396 276.745 L 637.414 276.631 L 636.399 276.456 L 635.359 276.224 L 634.312 275.943 L 633.266 275.617 L 632.238 275.254 L 631.241 274.856 L 630.291 274.429 L 629.398 273.975 L 628.576 273.495 L 627.834 272.988 L 627.183 272.443 L 626.628 271.834 L 626.195 271.101 L 626.028 270.337 L 626.002 241.179 L 626 241.179 Z " fill-rule="evenodd" fill="rgb(35,31,32)"/><path d=" M 627.324 242.501 L 723.227 242.501 L 723.226 269.555 C 723.211 271.365 715.236 274.964 711.242 274.984 C 707.247 274.98 703.252 269.718 699.257 269.715 C 695.262 269.734 691.268 275.16 687.273 275.143 C 683.278 275.177 679.283 269.878 675.288 269.875 C 671.293 269.86 667.298 275.319 663.304 275.303 C 659.309 275.299 655.314 270.037 651.32 270.034 C 647.325 270.053 643.33 275.394 639.335 275.462 C 635.091 275.447 627.365 272.366 627.351 270.194 L 627.325 242.501 L 627.324 242.501 Z " fill-rule="evenodd" fill="rgb(0,149,218)"/><path d=" M 688.61 264.876 C 687.587 263.978 686.379 263.602 684.93 263.913 C 686.217 262.564 688.693 260.84 691.871 259.92 C 693.882 258.93 694.809 256.748 700.596 257.576 C 699.708 258.071 698.903 258.79 698.853 259.732 C 702.582 259.965 707.232 261.232 709.872 262.274 C 711.488 260.609 711.653 259.335 715.953 259.318 C 714.818 260.347 713.293 261.321 712.885 262.798 C 714.017 264.205 714.676 266.005 716.284 267.023 C 712.825 267.22 711.881 264.904 709.679 263.845 C 707.629 264.36 707.645 265.042 702.941 265.752 C 703.585 266.332 704.314 266.913 705.127 267.409 C 704.78 267.401 704.471 267.427 704.171 267.455 C 703.014 267.311 701.905 266.675 700.816 265.862 C 701.299 266.73 701.934 267.317 702.715 267.555 C 701.885 267.532 700.85 267.322 699.211 266.552 C 695.277 267.6 690.861 267.503 685.07 264.385 C 685.929 264.155 687.194 264.423 688.61 264.876 L 688.61 264.876 Z  M 688.523 262.402 C 688.751 262.402 688.937 262.591 688.937 262.823 C 688.937 263.055 688.751 263.245 688.523 263.245 C 688.295 263.245 688.109 263.055 688.109 262.823 C 688.109 262.591 688.295 262.402 688.523 262.402 Z " fill-rule="evenodd" fill="rgb(255,255,255)"/><path d=" M 666.377 254.602 C 665.525 253.725 664.353 253.319 662.714 253.598 C 664.049 252.275 666.688 250.688 669.813 249.784 C 671.824 248.794 672.356 246.782 678.143 247.553 C 677.254 248.049 676.619 248.541 676.569 249.483 C 680.298 249.999 685.232 251.095 688.04 251.912 C 689.657 250.247 690.161 248.859 694.234 248.163 C 693.1 249.193 691.517 251.015 691.11 252.492 C 692.243 253.9 694.826 254.228 696.49 254.849 C 692.918 256.349 690.672 254.768 688.414 253.37 C 686.363 253.884 685.361 254.792 680.656 255.503 C 681.301 256.083 682.03 256.663 682.843 257.159 C 682.329 257.152 681.897 257.205 681.462 257.25 C 680.556 257.12 679.63 256.514 678.701 255.812 C 679.167 256.581 679.624 257.151 680.063 257.284 C 679.295 257.215 678.337 256.965 676.928 256.303 C 672.978 257.354 668.544 257.253 662.722 254.102 C 663.757 253.877 665.042 254.184 666.377 254.602 L 666.377 254.602 Z  M 666.238 252.152 C 666.467 252.152 666.653 252.342 666.653 252.574 C 666.653 252.807 666.467 252.996 666.238 252.996 C 666.01 252.996 665.824 252.807 665.824 252.574 C 665.824 252.342 666.01 252.152 666.238 252.152 Z " fill-rule="evenodd" fill="rgb(255,255,255)"/><path d=" M 641.405 265.102 C 640.386 264.266 639.234 263.795 637.789 264.127 C 639.023 262.776 641.229 261.146 644.486 260.203 C 646.497 259.213 647.425 257.031 653.212 257.859 C 652.324 258.354 651.519 259.073 651.469 260.016 C 655.198 260.248 659.848 261.515 662.488 262.557 C 664.105 260.892 664.948 259.335 669.248 259.318 C 668.113 260.347 666.248 261.774 665.501 263.081 C 666.633 264.489 668.367 265.892 669.975 266.909 C 666.516 267.107 664.836 265.3 662.634 264.241 C 660.584 264.756 660.261 265.325 655.556 266.035 C 656.201 266.615 656.929 267.196 657.742 267.692 C 657.201 267.68 656.75 267.743 656.291 267.79 C 655.627 267.707 654.665 267.164 653.405 266.162 C 653.872 267.024 654.472 267.602 655.231 267.835 C 654.417 267.801 653.406 267.577 651.828 266.836 C 647.915 267.877 643.85 267.626 638.126 264.554 C 639.083 264.449 640.219 264.722 641.405 265.102 L 641.405 265.102 Z  M 642.214 262.119 C 642.442 262.119 642.628 262.308 642.628 262.54 C 642.628 262.773 642.442 262.962 642.214 262.962 C 641.986 262.962 641.8 262.773 641.8 262.54 C 641.8 262.308 641.986 262.119 642.214 262.119 Z " fill-rule="evenodd" fill="rgb(255,255,255)"/><path d=" M 617.324 356.616 L 619.137 357.694 L 620.115 358.169 L 621.157 358.577 L 622.261 358.922 L 623.43 359.204 L 624.662 359.427 L 625.956 359.594 L 627.309 359.708 L 628.726 359.769 L 630.198 359.784 L 631.73 359.754 L 633.316 359.683 L 634.96 359.574 L 636.656 359.429 L 638.406 359.254 L 640.207 359.051 L 642.061 358.821 L 643.964 358.571 L 645.916 358.303 L 647.915 358.021 L 649.963 357.725 L 652.056 357.424 L 654.194 357.117 L 656.377 356.811 L 658.603 356.506 L 660.872 356.207 L 663.182 355.917 L 665.532 355.641 L 667.923 355.38 L 670.352 355.14 L 672.82 354.922 L 675.35 354.728 L 677.188 354.766 L 679.072 354.847 L 681.019 354.966 L 683.021 355.12 L 685.072 355.304 L 687.163 355.512 L 689.289 355.743 L 691.439 355.99 L 693.61 356.247 L 695.791 356.513 L 697.978 356.781 L 700.159 357.049 L 702.329 357.311 L 704.48 357.562 L 706.604 357.799 L 708.694 358.016 L 710.743 358.209 L 712.741 358.375 L 714.684 358.507 L 716.559 358.605 L 718.362 358.659 L 720.083 358.67 L 721.715 358.63 L 723.248 358.537 L 724.675 358.385 L 725.986 358.174 L 727.172 357.899 L 728.224 357.56 L 729.132 357.157 L 729.891 356.691 L 730.497 356.167 L 731.777 354.528 L 732.328 356.309 L 732.476 356.911 L 732.59 357.527 L 732.665 358.152 L 732.698 358.786 L 732.687 359.43 L 732.633 360.078 L 732.527 360.749 L 731.977 362.675 L 731.318 364.387 L 730.548 365.906 L 729.666 367.242 L 728.677 368.399 L 727.583 369.384 L 726.391 370.202 L 725.108 370.863 L 723.743 371.375 L 722.3 371.751 L 720.782 372.004 L 719.193 372.146 L 717.536 372.188 L 715.811 372.143 L 714.021 372.021 L 712.167 371.832 L 710.253 371.586 L 708.279 371.295 L 706.247 370.969 L 704.159 370.617 L 702.018 370.249 L 699.827 369.875 L 697.586 369.507 L 695.299 369.153 L 692.97 368.823 L 690.598 368.528 L 688.189 368.276 L 685.742 368.079 L 683.263 367.945 L 680.752 367.887 L 678.213 367.909 L 675.605 368.03 L 673.342 367.936 L 671.105 367.951 L 668.853 368.06 L 666.59 368.252 L 664.323 368.516 L 662.055 368.842 L 659.791 369.219 L 657.535 369.635 L 655.293 370.079 L 653.068 370.541 L 650.865 371.008 L 648.69 371.472 L 646.546 371.917 L 644.437 372.335 L 642.368 372.715 L 640.341 373.046 L 638.365 373.312 L 636.439 373.507 L 634.57 373.616 L 632.758 373.628 L 631.011 373.53 L 629.33 373.311 L 627.722 372.956 L 626.19 372.452 L 624.743 371.783 L 623.39 370.942 L 622.14 369.915 L 621 368.696 L 619.979 367.275 L 619.079 365.649 L 618.306 363.807 L 617.667 361.761 L 617.52 361.252 L 617.39 360.727 L 617.283 360.195 L 617.198 359.661 L 617.146 359.129 L 617.127 358.604 L 617.146 358.089 L 617.323 356.615 L 617.324 356.616 Z " fill-rule="evenodd" fill="rgb(35,31,32)"/><path d=" M 617.859 357.703 C 627.798 364.249 648.55 357.275 675.369 355.39 C 694.128 355.539 726.585 363.82 731.52 355.93 C 732.014 357.394 732.198 358.983 731.883 360.604 C 726.779 381.58 703.378 365.56 675.606 367.368 C 651.696 365.779 624.324 384.286 618.304 361.571 C 617.901 360.282 617.662 358.837 617.859 357.703 L 617.859 357.703 Z " fill-rule="evenodd" fill="rgb(237,28,36)"/><path d=" M 628.746 368.126 L 630.029 367.605 C 630.106 367.884 630.201 368.086 630.313 368.21 C 630.494 368.41 630.718 368.468 630.979 368.385 C 631.175 368.324 631.314 368.214 631.399 368.057 C 631.483 367.898 631.511 367.737 631.484 367.573 C 631.458 367.416 631.384 367.291 631.261 367.2 C 631.14 367.108 630.887 367.064 630.501 367.071 C 629.87 367.075 629.401 366.966 629.094 366.742 C 628.785 366.518 628.59 366.171 628.51 365.699 C 628.457 365.389 628.473 365.075 628.558 364.758 C 628.644 364.44 628.806 364.162 629.043 363.92 C 629.281 363.679 629.631 363.487 630.092 363.341 C 630.658 363.164 631.115 363.172 631.46 363.363 C 631.805 363.557 632.06 363.958 632.222 364.566 L 630.949 365.073 C 630.869 364.813 630.764 364.637 630.632 364.548 C 630.502 364.46 630.341 364.447 630.147 364.508 C 629.987 364.557 629.876 364.64 629.811 364.758 C 629.746 364.874 629.725 364.999 629.747 365.132 C 629.762 365.228 629.811 365.303 629.89 365.36 C 629.969 365.418 630.133 365.444 630.388 365.436 C 631.015 365.425 631.474 365.466 631.762 365.566 C 632.051 365.665 632.278 365.827 632.441 366.057 C 632.603 366.286 632.714 366.564 632.77 366.895 C 632.836 367.281 632.817 367.663 632.715 368.038 C 632.613 368.415 632.435 368.731 632.182 368.989 C 631.929 369.246 631.588 369.441 631.159 369.577 C 630.406 369.814 629.851 369.781 629.494 369.475 C 629.137 369.172 628.887 368.722 628.746 368.125 L 628.746 368.126 Z  M 636.444 365.488 L 637.721 365.696 C 637.698 366.178 637.621 366.595 637.486 366.948 C 637.352 367.302 637.163 367.588 636.925 367.808 C 636.685 368.03 636.365 368.187 635.965 368.283 C 635.478 368.4 635.068 368.399 634.736 368.281 C 634.402 368.162 634.092 367.887 633.804 367.455 C 633.519 367.023 633.325 366.43 633.228 365.673 C 633.097 364.664 633.194 363.84 633.518 363.204 C 633.841 362.567 634.364 362.162 635.084 361.988 C 635.648 361.853 636.111 361.902 636.474 362.135 C 636.837 362.368 637.138 362.788 637.379 363.394 L 636.205 364.057 C 636.138 363.882 636.076 363.756 636.018 363.68 C 635.922 363.556 635.812 363.468 635.691 363.417 C 635.568 363.366 635.438 363.357 635.299 363.391 C 634.987 363.465 634.769 363.695 634.646 364.079 C 634.553 364.364 634.541 364.78 634.613 365.327 C 634.701 366.004 634.836 366.449 635.019 366.663 C 635.202 366.879 635.431 366.953 635.702 366.888 C 635.967 366.824 636.154 366.675 636.263 366.439 C 636.372 366.206 636.432 365.888 636.444 365.487 L 636.444 365.488 Z  M 638.007 361.54 L 639.396 361.24 L 640.108 367.356 L 638.717 367.657 L 638.007 361.54 Z  M 640.58 361.026 L 644.315 360.4 L 644.432 361.713 L 642.094 362.104 L 642.183 363.081 L 644.352 362.719 L 644.464 363.972 L 642.296 364.335 L 642.404 365.546 L 644.811 365.143 L 644.936 366.535 L 641.133 367.172 L 640.58 361.026 L 640.58 361.026 Z  M 645.192 360.33 L 646.497 360.144 L 648.463 363.306 L 648.199 359.9 L 649.516 359.711 L 649.991 365.87 L 648.675 366.059 L 646.72 362.919 L 646.981 366.301 L 645.667 366.488 L 645.192 360.33 L 645.192 360.33 Z  M 650.314 359.673 L 654.573 359.267 L 654.65 360.793 L 653.222 360.93 L 653.46 365.581 L 652.059 365.714 L 651.82 361.063 L 650.392 361.199 L 650.314 359.673 L 650.314 359.673 Z  M 655.273 359.205 L 656.677 359.071 L 656.994 365.249 L 655.59 365.382 L 655.273 359.205 L 655.273 359.205 Z  M 660.759 364.006 L 659.161 364.119 L 658.981 365.156 L 657.548 365.258 L 659.016 358.953 L 660.545 358.843 L 662.489 364.905 L 661.022 365.01 L 660.759 364.006 L 660.759 364.006 Z  M 660.414 362.689 L 659.827 360.502 L 659.414 362.76 L 660.414 362.689 L 660.414 362.689 Z  M 667.831 363.736 L 666.232 363.812 L 666.038 364.845 L 664.604 364.912 L 666.152 358.642 L 667.683 358.57 L 669.549 364.677 L 668.081 364.747 L 667.831 363.736 L 667.831 363.736 Z  M 667.503 362.412 L 666.943 360.211 L 666.501 362.459 L 667.503 362.412 Z  M 669.941 358.537 L 672.027 358.487 C 672.438 358.476 672.771 358.546 673.026 358.691 C 673.282 358.838 673.494 359.051 673.663 359.331 C 673.832 359.612 673.955 359.939 674.035 360.315 C 674.114 360.691 674.157 361.09 674.162 361.512 C 674.169 362.174 674.122 362.689 674.015 363.056 C 673.91 363.423 673.761 363.732 673.567 363.982 C 673.374 364.233 673.166 364.402 672.942 364.49 C 672.634 364.61 672.356 364.673 672.107 364.679 L 670.02 364.728 L 669.941 358.537 Z  M 671.363 359.906 L 671.406 363.288 L 671.75 363.281 C 672.044 363.273 672.252 363.226 672.375 363.133 C 672.497 363.042 672.592 362.885 672.66 362.662 C 672.728 362.44 672.758 362.08 672.751 361.585 C 672.744 360.928 672.659 360.483 672.5 360.244 C 672.339 360.006 672.077 359.89 671.713 359.899 L 671.363 359.906 L 671.363 359.906 Z  M 676.839 362.61 L 678.177 362.528 C 678.203 362.824 678.258 363.051 678.345 363.209 C 678.485 363.462 678.692 363.592 678.96 363.598 C 679.16 363.601 679.315 363.543 679.426 363.417 C 679.535 363.291 679.592 363.143 679.593 362.975 C 679.595 362.815 679.547 362.67 679.445 362.541 C 679.343 362.412 679.105 362.285 678.729 362.165 C 678.116 361.962 677.681 361.701 677.422 361.382 C 677.162 361.063 677.035 360.661 677.041 360.178 C 677.044 359.86 677.116 359.559 677.255 359.28 C 677.395 359.001 677.6 358.784 677.874 358.627 C 678.148 358.473 678.522 358.4 678.995 358.411 C 679.575 358.426 680.017 358.583 680.318 358.884 C 680.619 359.186 680.794 359.659 680.844 360.302 L 679.519 360.375 C 679.489 360.096 679.416 359.891 679.305 359.762 C 679.194 359.633 679.04 359.566 678.841 359.561 C 678.677 359.558 678.554 359.601 678.47 359.694 C 678.386 359.786 678.343 359.9 678.342 360.036 C 678.34 360.134 678.372 360.223 678.44 360.304 C 678.506 360.387 678.662 360.466 678.909 360.542 C 679.521 360.737 679.957 360.931 680.221 361.122 C 680.484 361.312 680.675 361.545 680.791 361.822 C 680.909 362.097 680.966 362.403 680.962 362.743 C 680.958 363.139 680.87 363.504 680.706 363.834 C 680.54 364.166 680.312 364.414 680.019 364.58 C 679.729 364.747 679.363 364.824 678.922 364.814 C 678.15 364.795 677.617 364.581 677.325 364.167 C 677.032 363.755 676.87 363.236 676.839 362.61 L 676.839 362.61 Z  M 684.464 363.786 L 682.864 363.71 L 682.618 364.722 L 681.185 364.653 L 683.05 358.546 L 684.58 358.619 L 686.13 364.888 L 684.661 364.818 L 684.464 363.786 L 684.464 363.786 Z  M 684.204 362.434 L 683.758 360.186 L 683.202 362.386 L 684.204 362.434 L 684.204 362.434 Z  M 686.814 358.675 L 689.145 358.841 C 689.652 358.878 690.026 359.068 690.266 359.417 C 690.506 359.763 690.614 360.242 690.592 360.847 C 690.569 361.473 690.411 361.95 690.122 362.282 C 689.832 362.614 689.405 362.759 688.84 362.72 L 688.073 362.665 L 687.984 364.959 L 686.575 364.858 L 686.814 358.675 L 686.814 358.675 Z  M 688.12 361.412 L 688.464 361.438 C 688.735 361.457 688.927 361.408 689.041 361.286 C 689.155 361.166 689.216 361.006 689.224 360.807 C 689.231 360.613 689.19 360.444 689.1 360.304 C 689.011 360.161 688.835 360.081 688.573 360.062 L 688.174 360.032 L 688.12 361.412 L 688.12 361.412 Z  M 691.459 359.025 L 692.866 359.125 L 692.627 365.309 L 691.222 365.21 L 691.459 359.025 L 691.459 359.025 Z  M 693.951 359.125 L 697.705 359.483 L 697.637 360.801 L 695.288 360.578 L 695.237 361.56 L 697.417 361.768 L 697.353 363.028 L 695.172 362.82 L 695.111 364.037 L 697.529 364.268 L 697.457 365.666 L 693.634 365.302 L 693.951 359.125 L 693.951 359.125 Z  M 698.627 359.579 L 699.934 359.735 L 701.419 363.35 L 701.639 359.937 L 702.957 360.095 L 702.561 366.264 L 701.242 366.107 L 699.763 362.517 L 699.545 365.905 L 698.231 365.747 L 698.627 359.579 L 698.627 359.579 Z  M 703.683 360.175 L 707.92 360.884 L 707.783 362.403 L 706.361 362.164 L 705.944 366.792 L 704.55 366.559 L 704.967 361.931 L 703.546 361.693 L 703.683 360.175 L 703.683 360.175 Z  M 708.717 360.956 L 710.111 361.222 L 709.478 367.354 L 708.085 367.088 L 708.717 360.956 L 708.717 360.956 Z  M 713.379 367.107 L 711.799 366.766 L 711.463 367.728 L 710.047 367.423 L 712.444 361.67 L 713.957 361.996 L 714.934 368.477 L 713.482 368.164 L 713.379 367.107 L 713.379 367.107 Z  M 713.242 365.721 L 713.002 363.415 L 712.253 365.508 L 713.242 365.721 Z  M 716.301 362.443 L 718.107 362.967 L 718.23 366.853 L 719.5 363.37 L 721.301 363.892 L 720.356 369.949 L 719.233 369.624 L 719.955 365.005 L 718.364 369.371 L 717.348 369.077 L 717.201 364.208 L 716.48 368.827 L 715.355 368.501 L 716.301 362.443 L 716.301 362.443 Z " fill-rule="evenodd" fill="rgb(255,255,255)"/><path d=" M 658.321 208.642 L 658.604 207.704 L 658.759 206.762 L 658.792 205.818 L 658.719 204.876 L 658.547 203.935 L 658.289 202.994 L 657.954 202.05 L 657.555 201.101 L 657.097 200.143 L 656.593 199.176 L 656.05 198.194 L 655.478 197.197 L 654.883 196.179 L 654.274 195.143 L 653.659 194.083 L 653.049 192.999 L 652.448 191.888 L 651.868 190.749 L 651.314 189.58 L 650.797 188.381 L 650.323 187.146 L 649.901 185.878 L 649.537 184.572 L 649.242 183.227 L 649.02 181.841 L 648.883 180.412 L 648.758 176.463 L 647.488 178.815 L 647.397 179.17 L 647.332 179.575 L 647.274 180.057 L 647.221 180.62 L 647.171 181.251 L 647.122 181.944 L 647.073 182.685 L 647.025 183.466 L 646.976 184.269 L 646.926 185.085 L 646.872 185.9 L 646.816 186.705 L 646.754 187.484 L 646.732 187.733 L 646.524 187.501 L 646.129 186.911 L 645.784 186.24 L 645.486 185.504 L 645.229 184.713 L 645.006 183.886 L 644.81 183.035 L 644.636 182.177 L 644.471 181.323 L 644.309 180.488 L 644.138 179.684 L 643.951 178.924 L 643.731 178.215 L 643.467 177.568 L 641.914 174.877 L 641.941 178.91 L 641.806 180.339 L 641.539 181.704 L 641.149 183.013 L 640.651 184.273 L 640.054 185.486 L 639.371 186.656 L 638.611 187.787 L 637.79 188.885 L 636.917 189.95 L 636.006 190.986 L 635.068 191.996 L 634.117 192.986 L 633.167 193.957 L 632.228 194.915 L 631.313 195.863 L 630.438 196.809 L 629.612 197.751 L 628.85 198.702 L 628.163 199.661 L 627.568 200.64 L 627.077 201.641 L 626.71 202.672 L 626.481 203.733 L 626.413 204.828 L 626.518 205.948 L 626.811 207.093 L 627.298 208.256 L 627.986 209.443 L 628.886 210.655 L 630.007 211.9 L 631.534 213.349 L 654.594 213.349 L 655.777 212.302 L 656.634 211.399 L 657.339 210.49 L 657.898 209.571 L 658.318 208.642 L 658.321 208.642 Z " fill-rule="evenodd" fill="rgb(35,31,32)"/><path d=" M 631.802 212.689 L 654.347 212.689 C 665.611 203.451 648.144 195.39 648.175 178.935 C 647.795 179.233 647.675 185.398 647.275 188.989 L 647.121 188.966 C 643.667 186.69 644.202 179.663 642.594 177.378 C 643.556 194.42 616.435 199.074 631.802 212.69 L 631.802 212.689 Z " fill-rule="evenodd" fill="rgb(237,28,36)"/><path d=" M 647.198 189.402 L 647.183 189.818 L 647.175 190.208 L 647.174 190.583 L 647.176 190.949 L 647.174 191.318 L 647.167 191.696 L 647.148 192.091 L 647.118 192.515 L 647.07 192.972 L 647 193.474 L 646.903 194.026 L 646.779 194.64 L 646.62 195.321 L 646.423 196.08 L 646.186 196.926 L 645.61 198.768 L 644.941 200.383 L 644.196 201.778 L 643.389 202.968 L 642.536 203.967 L 641.653 204.784 L 640.753 205.435 L 639.853 205.931 L 638.971 206.286 L 638.119 206.512 L 637.313 206.625 L 636.57 206.632 L 635.903 206.554 L 635.325 206.396 L 634.851 206.173 L 634.491 205.886 L 634.105 205.226 L 633.883 204.491 L 633.82 203.735 L 633.918 203.016 L 634.187 202.397 L 634.64 201.945 L 635.277 201.757 L 636.04 201.901 L 637.247 202.307 L 638.32 202.557 L 639.285 202.669 L 640.147 202.654 L 640.919 202.531 L 641.605 202.309 L 642.217 202.001 L 642.76 201.617 L 643.247 201.169 L 643.681 200.668 L 644.07 200.125 L 644.417 199.551 L 644.733 198.962 L 645.021 198.366 L 645.292 197.778 L 645.542 197.22 L 645.69 196.716 L 645.832 196.148 L 645.964 195.533 L 646.088 194.886 L 646.204 194.218 L 646.313 193.541 L 646.411 192.866 L 646.501 192.207 L 646.583 191.575 L 646.654 190.983 L 646.718 190.442 L 646.815 189.56 L 646.848 189.242 L 646.875 189.021 L 647.524 184.239 L 647.194 189.4 L 647.198 189.402 Z " fill-rule="evenodd" fill="rgb(35,31,32)"/><path d=" M 679.983 302.471 L 676.993 342.517 C 676.304 344.201 675.566 344.32 674.736 342.826 L 670.797 302.471 L 679.983 302.471 L 679.983 302.471 Z " fill-rule="evenodd" fill="rgb(0,149,218)"/><path d=" M 681.842 298.287 L 681.888 298.334 L 681.88 299.781 L 681.648 300.078 L 668.966 300.078 L 668.678 299.757 L 668.682 298.384 L 668.796 298.287 L 681.841 298.287 L 681.842 298.287 Z " fill-rule="evenodd" fill="rgb(0,149,218)"/><path d=" M 669.485 296.067 L 681.132 296.067 L 681.403 297.776 L 669.28 297.776 L 669.485 296.067 L 669.485 296.067 Z " fill-rule="evenodd" fill="rgb(0,149,218)"/><path d=" M 677.694 303.723 L 677.162 317.84 L 676.629 331.955 C 676.626 332.4 677.245 332.469 677.282 331.894 L 679.101 303.731 C 678.961 303.047 678.073 302.991 677.694 303.723 L 677.694 303.723 Z " fill-rule="evenodd" fill="rgb(255,255,255)"/><path d=" M 674.69 304.12 L 675.269 317.405 L 675.848 330.69 C 675.878 331.108 676.403 331.121 676.392 330.578 L 675.872 304.01 C 675.705 303.381 674.955 303.402 674.69 304.12 L 674.69 304.12 Z " fill-rule="evenodd" fill="rgb(255,255,255)"/><path d=" M 672.044 303.992 L 673.31 316.536 L 674.576 329.079 C 674.627 329.473 675.153 329.459 675.114 328.946 L 673.219 303.829 C 673.02 303.241 672.272 303.299 672.044 303.992 Z " fill-rule="evenodd" fill="rgb(255,255,255)"/><path d=" M 681.274 300.588 L 680.993 301.476 L 680.151 302.134 L 680.151 302.094 L 670.296 302.094 L 669.55 301.55 L 669.405 300.588 L 681.274 300.588 L 681.274 300.588 Z " fill-rule="evenodd" fill="rgb(0,149,218)"/><path d=" M 681.423 295.252 L 681.995 294.426 L 682.314 293.58 L 682.399 292.727 L 682.288 291.874 L 682.02 291.024 L 681.634 290.165 L 681.163 289.288 L 680.638 288.383 L 680.089 287.442 L 679.547 286.458 L 679.039 285.425 L 678.596 284.335 L 678.243 283.182 L 678.012 281.961 L 677.812 278.808 L 677.21 280.804 L 677.152 281.228 L 677.104 281.769 L 677.062 282.404 L 677.022 283.096 L 676.977 283.808 L 676.927 284.501 L 676.924 284.52 L 676.884 284.481 L 676.556 283.923 L 676.309 283.243 L 676.122 282.494 L 675.97 281.726 L 675.82 280.988 L 675.635 280.321 L 674.818 278.646 L 674.706 281.288 L 674.413 282.483 L 673.924 283.586 L 673.279 284.617 L 672.521 285.584 L 671.692 286.501 L 670.839 287.381 L 670.007 288.238 L 669.242 289.086 L 668.589 289.947 L 668.099 290.841 L 667.828 291.788 L 667.846 292.791 L 668.199 293.836 L 668.916 294.918 L 670.113 296.142 L 680.502 296.142 L 681.425 295.254 L 681.423 295.252 Z " fill-rule="evenodd" fill="rgb(35,31,32)"/><path d=" M 670.25 295.81 L 680.367 295.81 C 685.423 291.665 677.584 288.047 677.598 280.662 C 677.407 280.961 677.373 283.562 677.194 285.174 L 677.125 285.163 C 675.575 284.141 675.815 280.988 675.094 279.962 C 675.525 287.61 663.354 289.699 670.25 295.809 L 670.25 295.81 Z " fill-rule="evenodd" fill="rgb(237,28,36)"/><path d=" M 677.386 282.296 L 677.318 285.59 L 677.288 286.027 L 677.242 286.472 L 677.178 286.925 L 677.101 287.381 L 677.012 287.841 L 676.909 288.299 L 676.795 288.764 L 676.233 290.326 L 675.526 291.504 L 674.731 292.334 L 673.905 292.861 L 673.105 293.129 L 672.386 293.186 L 671.798 293.075 L 671.392 292.829 L 671.199 292.498 L 671.093 292.147 L 671.063 291.788 L 671.109 291.444 L 671.242 291.137 L 671.475 290.906 L 671.804 290.808 L 672.171 290.879 L 673.19 291.17 L 673.986 291.213 L 674.613 291.063 L 675.11 290.767 L 675.509 290.355 L 675.831 289.867 L 676.099 289.341 L 676.328 288.838 L 676.458 288.364 L 676.58 287.803 L 676.691 287.204 L 676.786 286.61 L 676.866 286.065 L 676.927 285.61 L 676.97 285.288 L 677.384 282.296 L 677.386 282.296 Z " fill-rule="evenodd" fill="rgb(35,31,32)"/><path d=" M 690.782 208.642 L 691.065 207.704 L 691.22 206.762 L 691.253 205.818 L 691.18 204.876 L 691.008 203.935 L 690.749 202.994 L 690.415 202.05 L 690.016 201.101 L 689.558 200.143 L 689.054 199.176 L 688.511 198.194 L 687.939 197.197 L 687.344 196.179 L 686.735 195.143 L 686.12 194.083 L 685.51 192.999 L 684.909 191.888 L 684.329 190.749 L 683.775 189.58 L 683.258 188.381 L 682.784 187.146 L 682.361 185.878 L 681.998 184.572 L 681.703 183.227 L 681.481 181.841 L 681.344 180.412 L 681.219 176.463 L 679.949 178.815 L 679.857 179.17 L 679.793 179.575 L 679.734 180.057 L 679.682 180.62 L 679.632 181.251 L 679.583 181.944 L 679.534 182.685 L 679.486 183.466 L 679.437 184.269 L 679.387 185.085 L 679.333 185.9 L 679.276 186.705 L 679.215 187.484 L 679.192 187.733 L 678.985 187.501 L 678.59 186.911 L 678.245 186.24 L 677.947 185.504 L 677.69 184.713 L 677.467 183.886 L 677.271 183.035 L 677.098 182.177 L 676.932 181.323 L 676.77 180.488 L 676.6 179.684 L 676.412 178.924 L 676.192 178.215 L 675.928 177.568 L 674.376 174.877 L 674.402 178.91 L 674.267 180.339 L 674 181.704 L 673.611 183.013 L 673.112 184.273 L 672.515 185.486 L 671.832 186.656 L 671.072 187.787 L 670.251 188.885 L 669.378 189.95 L 668.467 190.986 L 667.529 191.996 L 666.579 192.986 L 665.628 193.957 L 664.689 194.915 L 663.774 195.863 L 662.899 196.809 L 662.073 197.751 L 661.311 198.702 L 660.624 199.661 L 660.029 200.64 L 659.539 201.641 L 659.171 202.672 L 658.943 203.733 L 658.875 204.828 L 658.98 205.948 L 659.272 207.093 L 659.759 208.256 L 660.448 209.443 L 661.347 210.655 L 662.468 211.9 L 663.996 213.349 L 687.055 213.349 L 688.238 212.302 L 689.095 211.399 L 689.8 210.49 L 690.359 209.571 L 690.779 208.642 L 690.782 208.642 Z " fill-rule="evenodd" fill="rgb(35,31,32)"/><path d=" M 664.263 212.689 L 686.808 212.689 C 698.073 203.451 680.605 195.39 680.637 178.935 C 680.257 179.233 680.136 185.398 679.736 188.989 L 679.583 188.966 C 676.128 186.69 676.663 179.663 675.055 177.378 C 676.017 194.42 648.897 199.074 664.263 212.69 L 664.263 212.689 Z " fill-rule="evenodd" fill="rgb(237,28,36)"/><path d=" M 679.659 189.402 L 679.644 189.818 L 679.636 190.208 L 679.635 190.583 L 679.637 190.949 L 679.636 191.318 L 679.628 191.696 L 679.61 192.091 L 679.58 192.515 L 679.531 192.972 L 679.461 193.474 L 679.365 194.026 L 679.24 194.64 L 679.081 195.321 L 678.885 196.08 L 678.647 196.926 L 678.072 198.768 L 677.403 200.383 L 676.657 201.778 L 675.85 202.968 L 674.997 203.967 L 674.114 204.784 L 673.215 205.435 L 672.315 205.931 L 671.433 206.286 L 670.58 206.512 L 669.775 206.625 L 669.031 206.632 L 668.365 206.554 L 667.786 206.396 L 667.313 206.173 L 666.952 205.886 L 666.566 205.226 L 666.344 204.491 L 666.282 203.735 L 666.38 203.016 L 666.648 202.397 L 667.102 201.945 L 667.738 201.757 L 668.502 201.901 L 669.708 202.307 L 670.781 202.557 L 671.746 202.669 L 672.609 202.654 L 673.381 202.531 L 674.067 202.309 L 674.678 202.001 L 675.222 201.617 L 675.709 201.169 L 676.142 200.668 L 676.531 200.125 L 676.878 199.551 L 677.195 198.962 L 677.483 198.366 L 677.753 197.778 L 678.004 197.22 L 678.151 196.716 L 678.293 196.148 L 678.425 195.533 L 678.549 194.886 L 678.666 194.218 L 678.774 193.541 L 678.873 192.866 L 678.962 192.207 L 679.044 191.575 L 679.116 190.983 L 679.179 190.442 L 679.276 189.56 L 679.31 189.242 L 679.336 189.021 L 679.986 184.239 L 679.656 189.4 L 679.659 189.402 Z " fill-rule="evenodd" fill="rgb(35,31,32)"/><path d=" M 722.733 208.642 L 723.016 207.704 L 723.171 206.762 L 723.205 205.818 L 723.132 204.876 L 722.959 203.935 L 722.701 202.994 L 722.366 202.05 L 721.968 201.101 L 721.51 200.143 L 721.006 199.176 L 720.462 198.194 L 719.891 197.197 L 719.295 196.179 L 718.687 195.143 L 718.072 194.083 L 717.461 192.999 L 716.86 191.888 L 716.281 190.749 L 715.726 189.58 L 715.21 188.381 L 714.736 187.146 L 714.313 185.878 L 713.949 184.572 L 713.654 183.227 L 713.433 181.841 L 713.296 180.412 L 713.171 176.463 L 711.901 178.815 L 711.809 179.17 L 711.745 179.575 L 711.686 180.057 L 711.634 180.62 L 711.583 181.251 L 711.534 181.944 L 711.486 182.685 L 711.438 183.466 L 711.389 184.269 L 711.339 185.085 L 711.284 185.9 L 711.228 186.705 L 711.166 187.484 L 711.144 187.733 L 710.936 187.501 L 710.541 186.911 L 710.196 186.24 L 709.899 185.504 L 709.642 184.713 L 709.419 183.886 L 709.223 183.035 L 709.049 182.177 L 708.884 181.323 L 708.721 180.488 L 708.551 179.684 L 708.363 178.924 L 708.144 178.215 L 707.879 177.568 L 706.327 174.877 L 706.353 178.91 L 706.218 180.339 L 705.951 181.704 L 705.562 183.013 L 705.064 184.273 L 704.467 185.486 L 703.784 186.656 L 703.024 187.787 L 702.202 188.885 L 701.33 189.95 L 700.418 190.986 L 699.48 191.996 L 698.53 192.986 L 697.579 193.957 L 696.641 194.915 L 695.726 195.863 L 694.851 196.809 L 694.025 197.751 L 693.263 198.702 L 692.576 199.661 L 691.98 200.64 L 691.49 201.641 L 691.122 202.672 L 690.894 203.733 L 690.826 204.828 L 690.931 205.948 L 691.223 207.093 L 691.71 208.256 L 692.399 209.443 L 693.298 210.655 L 694.419 211.9 L 695.947 213.349 L 719.007 213.349 L 720.19 212.302 L 721.047 211.399 L 721.752 210.49 L 722.311 209.571 L 722.73 208.642 L 722.733 208.642 Z " fill-rule="evenodd" fill="rgb(35,31,32)"/><path d=" M 696.214 212.689 L 718.759 212.689 C 730.024 203.451 712.556 195.39 712.588 178.935 C 712.208 179.233 712.087 185.398 711.687 188.989 L 711.534 188.966 C 708.079 186.69 708.614 179.663 707.007 177.378 C 707.968 194.42 680.848 199.074 696.214 212.69 L 696.214 212.689 Z " fill-rule="evenodd" fill="rgb(237,28,36)"/><path d=" M 711.61 189.402 L 711.595 189.818 L 711.588 190.208 L 711.587 190.583 L 711.589 190.949 L 711.587 191.318 L 711.58 191.696 L 711.561 192.091 L 711.531 192.515 L 711.483 192.972 L 711.413 193.474 L 711.316 194.026 L 711.191 194.64 L 711.032 195.321 L 710.836 196.08 L 710.599 196.926 L 710.023 198.768 L 709.354 200.383 L 708.609 201.778 L 707.802 202.968 L 706.949 203.967 L 706.066 204.784 L 705.166 205.435 L 704.266 205.931 L 703.384 206.286 L 702.532 206.512 L 701.726 206.625 L 700.983 206.632 L 700.316 206.554 L 699.738 206.396 L 699.264 206.173 L 698.904 205.886 L 698.518 205.226 L 698.295 204.491 L 698.233 203.735 L 698.331 203.016 L 698.599 202.397 L 699.053 201.945 L 699.69 201.757 L 700.453 201.901 L 701.66 202.307 L 702.733 202.557 L 703.697 202.669 L 704.56 202.654 L 705.332 202.531 L 706.018 202.309 L 706.63 202.001 L 707.173 201.617 L 707.66 201.169 L 708.094 200.668 L 708.483 200.125 L 708.83 199.551 L 709.146 198.962 L 709.434 198.366 L 709.705 197.778 L 709.955 197.22 L 710.103 196.716 L 710.244 196.148 L 710.377 195.533 L 710.501 194.886 L 710.617 194.218 L 710.726 193.541 L 710.824 192.866 L 710.914 192.207 L 710.995 191.575 L 711.067 190.983 L 711.13 190.442 L 711.228 189.56 L 711.261 189.242 L 711.288 189.021 L 711.937 184.239 L 711.608 189.4 L 711.61 189.402 Z " fill-rule="evenodd" fill="rgb(35,31,32)"/></g><path d=" M 654.54 406.27 L 657.605 406.27 L 662.289 416.83 L 659.462 416.83 L 658.591 414.744 L 653.862 414.744 L 653.074 416.83 L 650.285 416.83 L 654.54 406.27 L 654.54 406.27 Z  M 654.559 412.9 L 657.822 412.9 L 656.109 408.795 L 654.559 412.9 L 654.559 412.9 Z  M 666.137 414.895 L 671.557 414.895 L 671.557 416.83 L 663.506 416.83 L 663.506 406.27 L 666.137 406.27 L 666.137 414.895 L 666.137 414.895 Z  M 676.152 406.27 L 679.216 406.27 L 683.901 416.83 L 681.074 416.83 L 680.203 414.744 L 675.474 414.744 L 674.686 416.83 L 671.897 416.83 L 676.152 406.27 L 676.152 406.27 Z  M 676.171 412.9 L 679.434 412.9 L 677.721 408.795 L 676.171 412.9 L 676.171 412.9 Z  M 695.194 407.004 L 695.194 407.004 L 695.194 409.309 L 695.194 409.309 Q 693.176 408.334 691.248 408.334 L 691.248 408.334 L 691.248 408.334 Q 689.389 408.334 688.383 409.271 L 688.383 409.271 L 688.383 409.271 Q 687.378 410.209 687.378 411.66 L 687.378 411.66 L 687.378 411.66 Q 687.378 413.051 688.383 413.913 L 688.383 413.913 L 688.383 413.913 Q 689.389 414.774 691.029 414.774 L 691.029 414.774 L 691.029 414.774 Q 691.898 414.774 692.775 414.396 L 692.775 414.396 L 692.775 413.164 L 691.248 413.164 L 691.248 411.229 L 695.413 411.229 L 695.413 415.545 L 695.413 415.545 Q 694.786 416.173 693.505 416.57 L 693.505 416.57 L 693.505 416.57 Q 692.223 416.967 690.969 416.967 L 690.969 416.967 L 690.969 416.967 Q 688.21 416.967 686.437 415.443 L 686.437 415.443 L 686.437 415.443 Q 684.664 413.92 684.664 411.569 L 684.664 411.569 L 684.664 411.569 Q 684.664 409.165 686.437 407.65 L 686.437 407.65 L 686.437 407.65 Q 688.21 406.134 691.029 406.134 L 691.029 406.134 L 691.029 406.134 Q 693.357 406.134 695.194 407.004 Z  M 703.305 406.134 L 703.305 406.134 L 703.305 406.134 Q 706.004 406.134 707.674 407.763 L 707.674 407.763 L 707.674 407.763 Q 709.345 409.392 709.345 411.554 L 709.345 411.554 L 709.345 411.554 Q 709.345 413.746 707.652 415.356 L 707.652 415.356 L 707.652 415.356 Q 705.959 416.967 703.305 416.967 L 703.305 416.967 L 703.305 416.967 Q 700.622 416.967 698.936 415.364 L 698.936 415.364 L 698.936 415.364 Q 697.25 413.761 697.25 411.554 L 697.25 411.554 L 697.25 411.554 Q 697.25 409.385 698.925 407.759 L 698.925 407.759 L 698.925 407.759 Q 700.599 406.134 703.305 406.134 Z  M 703.305 414.774 L 703.305 414.774 L 703.305 414.774 Q 704.802 414.774 705.717 413.886 L 705.717 413.886 L 705.717 413.886 Q 706.631 412.998 706.631 411.554 L 706.631 411.554 L 706.631 411.554 Q 706.631 410.103 705.717 409.218 L 705.717 409.218 L 705.717 409.218 Q 704.802 408.334 703.305 408.334 L 703.305 408.334 L 703.305 408.334 Q 701.801 408.334 700.883 409.218 L 700.883 409.218 L 700.883 409.218 Q 699.964 410.103 699.964 411.554 L 699.964 411.554 L 699.964 411.554 Q 699.964 412.998 700.883 413.886 L 700.883 413.886 L 700.883 413.886 Q 701.801 414.774 703.305 414.774 Z  M 714.371 406.27 L 717.436 406.27 L 722.12 416.83 L 719.293 416.83 L 718.422 414.744 L 713.693 414.744 L 712.905 416.83 L 710.116 416.83 L 714.371 406.27 L 714.371 406.27 Z  M 714.39 412.9 L 717.653 412.9 L 715.94 408.795 L 714.39 412.9 L 714.39 412.9 Z  M 730.503 406.951 L 730.503 406.951 L 730.503 409.014 L 730.503 409.014 Q 728.402 408.069 727.155 408.069 L 727.155 408.069 L 727.155 408.069 Q 726.444 408.069 726.024 408.307 L 726.024 408.307 L 726.024 408.307 Q 725.605 408.546 725.605 408.939 L 725.605 408.939 L 725.605 408.939 Q 725.605 409.241 725.907 409.513 L 725.907 409.513 L 725.907 409.513 Q 726.21 409.785 727.381 410.216 L 727.381 410.216 L 727.381 410.216 Q 728.553 410.647 729.256 411.017 L 729.256 411.017 L 729.256 411.017 Q 729.959 411.388 730.469 412.061 L 730.469 412.061 L 730.469 412.061 Q 730.979 412.733 730.979 413.761 L 730.979 413.761 L 730.979 413.761 Q 730.979 415.228 729.864 416.097 L 729.864 416.097 L 729.864 416.097 Q 728.75 416.967 726.928 416.967 L 726.928 416.967 L 726.928 416.967 Q 724.962 416.967 723.118 415.946 L 723.118 415.946 L 723.118 413.671 L 723.118 413.671 Q 724.176 414.381 724.993 414.706 L 724.993 414.706 L 724.993 414.706 Q 725.809 415.031 726.724 415.031 L 726.724 415.031 L 726.724 415.031 Q 728.273 415.031 728.273 414.06 L 728.273 414.06 L 728.273 414.06 Q 728.273 413.729 727.963 413.435 L 727.963 413.435 L 727.963 413.435 Q 727.653 413.141 726.47 412.714 L 726.47 412.714 L 726.47 412.714 Q 725.287 412.287 724.596 411.925 L 724.596 411.925 L 724.596 411.925 Q 723.904 411.562 723.401 410.889 L 723.401 410.889 L 723.401 410.889 Q 722.899 410.216 722.899 409.165 L 722.899 409.165 L 722.899 409.165 Q 722.899 407.805 723.995 406.969 L 723.995 406.969 L 723.995 406.969 Q 725.091 406.134 726.928 406.134 L 726.928 406.134 L 726.928 406.134 Q 728.621 406.134 730.503 406.951 Z  M 624.863 416.83 L 624.863 406.27 L 629.52 406.27 L 629.52 406.27 Q 632.219 406.27 633.787 407.748 L 633.787 407.748 L 633.787 407.748 Q 635.356 409.226 635.356 411.569 L 635.356 411.569 L 635.356 411.569 Q 635.356 414.026 633.764 415.428 L 633.764 415.428 L 633.764 415.428 Q 632.173 416.83 629.225 416.83 L 629.225 416.83 L 624.863 416.83 L 624.863 416.83 Z  M 629.18 408.205 L 627.494 408.205 L 627.494 414.895 L 629.21 414.895 L 629.21 414.895 Q 630.881 414.895 631.765 413.977 L 631.765 413.977 L 631.765 413.977 Q 632.649 413.058 632.649 411.554 L 632.649 411.554 L 632.649 411.554 Q 632.649 409.997 631.754 409.101 L 631.754 409.101 L 631.754 409.101 Q 630.858 408.205 629.18 408.205 L 629.18 408.205 L 629.18 408.205 Z  M 639.952 414.895 L 645.107 414.895 L 645.107 416.83 L 637.321 416.83 L 637.321 406.27 L 645.001 406.27 L 645.001 408.205 L 639.952 408.205 L 639.952 410.42 L 644.767 410.42 L 644.767 412.355 L 639.952 412.355 L 639.952 414.895 L 639.952 414.895 Z  M 706.008 390.011 L 713.28 390.011 L 713.28 391.946 L 708.638 391.946 L 708.638 394.305 L 713.28 394.305 L 713.28 396.24 L 708.638 396.24 L 708.638 400.572 L 706.008 400.572 L 706.008 390.011 L 706.008 390.011 Z  M 718.019 398.636 L 723.175 398.636 L 723.175 400.572 L 715.389 400.572 L 715.389 390.011 L 723.069 390.011 L 723.069 391.946 L 718.019 391.946 L 718.019 394.161 L 722.834 394.161 L 722.834 396.096 L 718.019 396.096 L 718.019 398.636 L 718.019 398.636 Z  M 725.17 400.572 L 725.17 390.011 L 729.827 390.011 L 729.827 390.011 Q 732.525 390.011 734.094 391.489 L 734.094 391.489 L 734.094 391.489 Q 735.662 392.967 735.662 395.31 L 735.662 395.31 L 735.662 395.31 Q 735.662 397.767 734.071 399.169 L 734.071 399.169 L 734.071 399.169 Q 732.48 400.572 729.532 400.572 L 729.532 400.572 L 725.17 400.572 L 725.17 400.572 Z  M 729.487 391.946 L 727.801 391.946 L 727.801 398.636 L 729.517 398.636 L 729.517 398.636 Q 731.187 398.636 732.072 397.718 L 732.072 397.718 L 732.072 397.718 Q 732.956 396.799 732.956 395.295 L 732.956 395.295 L 732.956 395.295 Q 732.956 393.738 732.06 392.842 L 732.06 392.842 L 732.06 392.842 Q 731.165 391.946 729.487 391.946 L 729.487 391.946 L 729.487 391.946 Z  M 740.258 398.636 L 745.414 398.636 L 745.414 400.572 L 737.628 400.572 L 737.628 390.011 L 745.308 390.011 L 745.308 391.946 L 740.258 391.946 L 740.258 394.161 L 745.074 394.161 L 745.074 396.096 L 740.258 396.096 L 740.258 398.636 L 740.258 398.636 Z  M 747.425 400.572 L 747.425 390.011 L 752.141 390.011 L 752.141 390.011 Q 753.676 390.011 754.636 390.899 L 754.636 390.899 L 754.636 390.899 Q 755.596 391.787 755.596 393.048 L 755.596 393.048 L 755.596 393.048 Q 755.596 394.793 753.782 395.632 L 753.782 395.632 L 753.782 395.632 Q 754.583 395.991 755.297 397.578 L 755.297 397.578 L 755.297 397.578 Q 756.012 399.166 756.677 400.572 L 756.677 400.572 L 753.785 400.572 L 753.785 400.572 Q 753.527 400.05 752.887 398.583 L 752.887 398.583 L 752.887 398.583 Q 752.247 397.117 751.79 396.701 L 751.79 396.701 L 751.79 396.701 Q 751.333 396.285 750.811 396.285 L 750.811 396.285 L 750.055 396.285 L 750.055 400.572 L 747.425 400.572 L 747.425 400.572 Z  M 751.386 391.946 L 750.055 391.946 L 750.055 394.35 L 751.446 394.35 L 751.446 394.35 Q 752.111 394.35 752.501 394.037 L 752.501 394.037 L 752.501 394.037 Q 752.89 393.723 752.89 393.141 L 752.89 393.141 L 752.89 393.141 Q 752.89 391.946 751.386 391.946 L 751.386 391.946 L 751.386 391.946 Z  M 761.023 390.011 L 764.087 390.011 L 768.772 400.572 L 765.945 400.572 L 765.074 398.485 L 760.345 398.485 L 759.557 400.572 L 756.768 400.572 L 761.023 390.011 L 761.023 390.011 Z  M 761.042 396.641 L 764.305 396.641 L 762.592 392.536 L 761.042 396.641 L 761.042 396.641 Z  M 772.619 398.636 L 778.039 398.636 L 778.039 400.572 L 769.989 400.572 L 769.989 390.011 L 772.619 390.011 L 772.619 398.636 L 772.619 398.636 Z  M 585.884 395.9 L 585.884 390.011 L 588.515 390.011 L 588.515 396.006 L 588.515 396.006 Q 588.515 398.319 587.147 399.513 L 587.147 399.513 L 587.147 399.513 Q 585.779 400.708 583.239 400.708 L 583.239 400.708 L 583.239 400.708 Q 580.729 400.708 579.342 399.498 L 579.342 399.498 L 579.342 399.498 Q 577.955 398.289 577.955 396.021 L 577.955 396.021 L 577.955 390.011 L 580.593 390.011 L 580.593 396.081 L 580.593 396.081 Q 580.593 397.185 581.315 397.85 L 581.315 397.85 L 581.315 397.85 Q 582.037 398.515 583.208 398.515 L 583.208 398.515 L 583.208 398.515 Q 584.425 398.515 585.155 397.835 L 585.155 397.835 L 585.155 397.835 Q 585.884 397.155 585.884 395.9 L 585.884 395.9 L 585.884 395.9 Z  M 598.864 390.011 L 601.494 390.011 L 601.494 400.572 L 599.283 400.572 L 593.444 393.806 L 593.444 400.572 L 590.813 400.572 L 590.813 390.011 L 593.224 390.011 L 598.864 396.467 L 598.864 390.011 L 598.864 390.011 Z  M 603.958 390.011 L 606.589 390.011 L 606.589 400.572 L 603.958 400.572 L 603.958 390.011 L 603.958 390.011 Z  M 616.146 390.011 L 618.98 390.011 L 614.101 400.708 L 612.959 400.708 L 607.842 390.011 L 610.707 390.011 L 613.502 396.027 L 616.146 390.011 L 616.146 390.011 Z  M 622.819 398.636 L 627.974 398.636 L 627.974 400.572 L 620.188 400.572 L 620.188 390.011 L 627.868 390.011 L 627.868 391.946 L 622.819 391.946 L 622.819 394.161 L 627.634 394.161 L 627.634 396.096 L 622.819 396.096 L 622.819 398.636 L 622.819 398.636 Z  M 629.985 400.572 L 629.985 390.011 L 634.702 390.011 L 634.702 390.011 Q 636.236 390.011 637.196 390.899 L 637.196 390.899 L 637.196 390.899 Q 638.156 391.787 638.156 393.048 L 638.156 393.048 L 638.156 393.048 Q 638.156 394.793 636.342 395.632 L 636.342 395.632 L 636.342 395.632 Q 637.143 395.991 637.858 397.578 L 637.858 397.578 L 637.858 397.578 Q 638.572 399.166 639.237 400.572 L 639.237 400.572 L 636.345 400.572 L 636.345 400.572 Q 636.088 400.05 635.448 398.583 L 635.448 398.583 L 635.448 398.583 Q 634.808 397.117 634.35 396.701 L 634.35 396.701 L 634.35 396.701 Q 633.893 396.285 633.371 396.285 L 633.371 396.285 L 632.615 396.285 L 632.615 400.572 L 629.985 400.572 L 629.985 400.572 Z  M 633.946 391.946 L 632.615 391.946 L 632.615 394.35 L 634.006 394.35 L 634.006 394.35 Q 634.671 394.35 635.061 394.037 L 635.061 394.037 L 635.061 394.037 Q 635.45 393.723 635.45 393.141 L 635.45 393.141 L 635.45 393.141 Q 635.45 391.946 633.946 391.946 L 633.946 391.946 L 633.946 391.946 Z  M 647.628 390.692 L 647.628 390.692 L 647.628 392.755 L 647.628 392.755 Q 645.526 391.81 644.279 391.81 L 644.279 391.81 L 644.279 391.81 Q 643.569 391.81 643.149 392.049 L 643.149 392.049 L 643.149 392.049 Q 642.73 392.287 642.73 392.68 L 642.73 392.68 L 642.73 392.68 Q 642.73 392.982 643.032 393.254 L 643.032 393.254 L 643.032 393.254 Q 643.334 393.526 644.506 393.957 L 644.506 393.957 L 644.506 393.957 Q 645.678 394.388 646.381 394.758 L 646.381 394.758 L 646.381 394.758 Q 647.084 395.129 647.594 395.802 L 647.594 395.802 L 647.594 395.802 Q 648.104 396.474 648.104 397.502 L 648.104 397.502 L 648.104 397.502 Q 648.104 398.969 646.989 399.838 L 646.989 399.838 L 646.989 399.838 Q 645.874 400.708 644.052 400.708 L 644.052 400.708 L 644.052 400.708 Q 642.087 400.708 640.243 399.687 L 640.243 399.687 L 640.243 397.412 L 640.243 397.412 Q 641.301 398.122 642.117 398.447 L 642.117 398.447 L 642.117 398.447 Q 642.934 398.772 643.848 398.772 L 643.848 398.772 L 643.848 398.772 Q 645.398 398.772 645.398 397.801 L 645.398 397.801 L 645.398 397.801 Q 645.398 397.47 645.088 397.176 L 645.088 397.176 L 645.088 397.176 Q 644.778 396.882 643.595 396.455 L 643.595 396.455 L 643.595 396.455 Q 642.412 396.028 641.72 395.666 L 641.72 395.666 L 641.72 395.666 Q 641.029 395.303 640.526 394.63 L 640.526 394.63 L 640.526 394.63 Q 640.023 393.957 640.023 392.906 L 640.023 392.906 L 640.023 392.906 Q 640.023 391.546 641.119 390.711 L 641.119 390.711 L 641.119 390.711 Q 642.216 389.875 644.052 389.875 L 644.052 389.875 L 644.052 389.875 Q 645.746 389.875 647.628 390.692 Z  M 649.903 390.011 L 652.534 390.011 L 652.534 400.572 L 649.903 400.572 L 649.903 390.011 L 649.903 390.011 Z  M 654.953 400.572 L 654.953 390.011 L 659.609 390.011 L 659.609 390.011 Q 662.308 390.011 663.876 391.489 L 663.876 391.489 L 663.876 391.489 Q 665.445 392.967 665.445 395.31 L 665.445 395.31 L 665.445 395.31 Q 665.445 397.767 663.854 399.169 L 663.854 399.169 L 663.854 399.169 Q 662.263 400.572 659.314 400.572 L 659.314 400.572 L 654.953 400.572 L 654.953 400.572 Z  M 659.269 391.946 L 657.583 391.946 L 657.583 398.636 L 659.299 398.636 L 659.299 398.636 Q 660.97 398.636 661.854 397.718 L 661.854 397.718 L 661.854 397.718 Q 662.739 396.799 662.739 395.295 L 662.739 395.295 L 662.739 395.295 Q 662.739 393.738 661.843 392.842 L 661.843 392.842 L 661.843 392.842 Q 660.947 391.946 659.269 391.946 L 659.269 391.946 L 659.269 391.946 Z  M 670.502 390.011 L 673.566 390.011 L 678.25 400.572 L 675.423 400.572 L 674.553 398.485 L 669.824 398.485 L 669.036 400.572 L 666.246 400.572 L 670.502 390.011 L 670.502 390.011 Z  M 670.52 396.641 L 673.783 396.641 L 672.071 392.536 L 670.52 396.641 L 670.52 396.641 Z  M 679.452 400.572 L 679.452 390.011 L 684.109 390.011 L 684.109 390.011 Q 686.807 390.011 688.376 391.489 L 688.376 391.489 L 688.376 391.489 Q 689.944 392.967 689.944 395.31 L 689.944 395.31 L 689.944 395.31 Q 689.944 397.767 688.353 399.169 L 688.353 399.169 L 688.353 399.169 Q 686.762 400.572 683.814 400.572 L 683.814 400.572 L 679.452 400.572 L 679.452 400.572 Z  M 683.768 391.946 L 682.083 391.946 L 682.083 398.636 L 683.799 398.636 L 683.799 398.636 Q 685.469 398.636 686.354 397.718 L 686.354 397.718 L 686.354 397.718 Q 687.238 396.799 687.238 395.295 L 687.238 395.295 L 687.238 395.295 Q 687.238 393.738 686.342 392.842 L 686.342 392.842 L 686.342 392.842 Q 685.447 391.946 683.768 391.946 L 683.768 391.946 L 683.768 391.946 Z  M 694.54 398.636 L 699.696 398.636 L 699.696 400.572 L 691.91 400.572 L 691.91 390.011 L 699.59 390.011 L 699.59 391.946 L 694.54 391.946 L 694.54 394.161 L 699.356 394.161 L 699.356 396.096 L 694.54 396.096 L 694.54 398.636 L 694.54 398.636 Z " fill-rule="evenodd" fill="rgb(245,245,245)"/></g><path d=" M 450.186 298.435 L 450.186 279.336 L 458.444 279.336 L 458.444 279.336 Q 461.397 279.336 463.085 280.756 L 463.085 280.756 L 463.085 280.756 Q 464.774 282.177 464.774 284.117 L 464.774 284.117 L 464.774 284.117 Q 464.774 286.603 462.162 287.928 L 462.162 287.928 L 462.162 287.928 Q 464.131 288.448 465.177 289.762 L 465.177 289.762 L 465.177 289.762 Q 466.223 291.075 466.223 292.826 L 466.223 292.826 L 466.223 292.826 Q 466.223 295.316 464.514 296.876 L 464.514 296.876 L 464.514 296.876 Q 462.805 298.435 459.483 298.435 L 459.483 298.435 L 450.186 298.435 L 450.186 298.435 Z  M 457.432 282.836 L 454.944 282.836 L 454.944 286.923 L 457.432 286.923 L 457.432 286.923 Q 458.58 286.923 459.223 286.336 L 459.223 286.336 L 459.223 286.336 Q 459.866 285.748 459.866 284.859 L 459.866 284.859 L 459.866 284.859 Q 459.866 283.984 459.223 283.41 L 459.223 283.41 L 459.223 283.41 Q 458.58 282.836 457.432 282.836 L 457.432 282.836 L 457.432 282.836 Z  M 458.28 290.423 L 454.944 290.423 L 454.944 294.935 L 457.623 294.935 L 457.623 294.935 Q 459.524 294.935 460.358 294.409 L 460.358 294.409 L 460.358 294.409 Q 461.192 293.882 461.192 292.584 L 461.192 292.584 L 461.192 292.584 Q 461.192 291.586 460.399 291.005 L 460.399 291.005 L 460.399 291.005 Q 459.606 290.423 458.28 290.423 L 458.28 290.423 L 458.28 290.423 Z  M 487.537 292.611 L 487.537 292.611 L 487.537 296.781 L 487.537 296.781 Q 483.955 298.681 480.032 298.681 L 480.032 298.681 L 480.032 298.681 Q 474.946 298.681 471.931 295.872 L 471.931 295.872 L 471.931 295.872 Q 468.916 293.062 468.916 288.947 L 468.916 288.947 L 468.916 288.947 Q 468.916 284.832 472.095 281.961 L 472.095 281.961 L 472.095 281.961 Q 475.274 279.09 480.401 279.09 L 480.401 279.09 L 480.401 279.09 Q 484.489 279.09 487.319 280.771 L 487.319 280.771 L 487.319 285.023 L 487.319 285.023 Q 483.846 283.068 480.742 283.068 L 480.742 283.068 L 480.742 283.068 Q 477.694 283.068 475.759 284.702 L 475.759 284.702 L 475.759 284.702 Q 473.825 286.336 473.825 288.865 L 473.825 288.865 L 473.825 288.865 Q 473.825 291.408 475.732 293.062 L 475.732 293.062 L 475.732 293.062 Q 477.639 294.716 480.619 294.716 L 480.619 294.716 L 480.619 294.716 Q 482.096 294.716 483.463 294.327 L 483.463 294.327 L 483.463 294.327 Q 484.83 293.937 487.537 292.611 Z  M 496.97 279.336 L 502.512 279.336 L 510.985 298.435 L 505.871 298.435 L 504.297 294.662 L 495.744 294.662 L 494.319 298.435 L 489.274 298.435 L 496.97 279.336 L 496.97 279.336 Z  M 497.004 291.326 L 502.905 291.326 L 499.808 283.902 L 497.004 291.326 L 497.004 291.326 Z " fill-rule="evenodd" fill="rgb(245,245,245)"/><path d=" M 425.138 329.118 L 429.097 329.118 L 435.149 342.76 L 431.496 342.76 L 430.372 340.065 L 424.262 340.065 L 423.244 342.76 L 419.641 342.76 L 425.138 329.118 L 425.138 329.118 Z  M 425.162 337.682 L 429.378 337.682 L 427.165 332.379 L 425.162 337.682 L 425.162 337.682 Z  M 436.477 333.541 L 439.377 333.541 L 439.377 336.173 L 439.416 336.173 L 439.416 336.173 Q 440.676 333.346 442.356 333.346 L 442.356 333.346 L 442.356 333.346 Q 443.157 333.346 444.28 334.186 L 444.28 334.186 L 443.479 336.754 L 443.479 336.754 Q 442.405 336.071 441.76 336.071 L 441.76 336.071 L 441.76 336.071 Q 440.754 336.071 440.066 337.318 L 440.066 337.318 L 440.066 337.318 Q 439.377 338.565 439.377 338.77 L 439.377 338.77 L 439.377 342.76 L 436.477 342.76 L 436.477 333.541 L 436.477 333.541 Z  M 454.778 340.485 L 454.778 340.485 L 454.778 342.096 L 454.778 342.096 Q 453.332 342.936 452.063 342.936 L 452.063 342.936 L 452.063 342.936 Q 450.696 342.936 450.442 341.901 L 450.442 341.901 L 450.442 341.901 Q 448.928 342.936 447.405 342.936 L 447.405 342.936 L 447.405 342.936 Q 446.33 342.936 445.578 342.256 L 445.578 342.256 L 445.578 342.256 Q 444.826 341.576 444.826 340.677 L 444.826 340.677 L 444.826 340.677 Q 444.826 339.473 445.603 338.735 L 445.603 338.735 L 445.603 338.735 Q 446.379 337.996 450.305 336.833 L 450.305 336.833 L 450.305 336.833 Q 450.403 335.29 448.703 335.29 L 448.703 335.29 L 448.703 335.29 Q 446.858 335.29 445.305 336.833 L 445.305 336.833 L 445.305 334.469 L 445.305 334.469 Q 447.121 333.346 449.299 333.346 L 449.299 333.346 L 449.299 333.346 Q 453.205 333.346 453.205 336.152 L 453.205 336.152 L 453.205 340.357 L 453.205 340.357 Q 453.205 341.002 453.684 341.002 L 453.684 341.002 L 453.684 341.002 Q 454.045 341.002 454.778 340.485 Z  M 450.305 340.522 L 450.305 340.522 L 450.305 338.288 L 450.305 338.288 Q 448.85 338.797 448.308 339.204 L 448.308 339.204 L 448.308 339.204 Q 447.766 339.61 447.766 340.237 L 447.766 340.237 L 447.766 340.237 Q 447.766 340.639 448.039 340.928 L 448.039 340.928 L 448.039 340.928 Q 448.313 341.217 448.703 341.217 L 448.703 341.217 L 448.703 341.217 Q 449.524 341.217 450.305 340.522 Z  M 455.92 333.541 L 458.821 333.541 L 458.821 334.338 L 458.821 334.338 Q 459.983 333.346 461.457 333.346 L 461.457 333.346 L 461.457 333.346 Q 463.254 333.346 464.494 334.705 L 464.494 334.705 L 464.494 334.705 Q 465.735 336.064 465.735 338.038 L 465.735 338.038 L 465.735 338.038 Q 465.735 340.258 464.49 341.597 L 464.49 341.597 L 464.49 341.597 Q 463.244 342.936 461.194 342.936 L 461.194 342.936 L 461.194 342.936 Q 459.924 342.936 458.821 342.301 L 458.821 342.301 L 458.821 347.36 L 455.92 347.36 L 455.92 333.541 L 455.92 333.541 Z  M 458.821 336.149 L 458.821 336.149 L 458.821 340.387 L 458.821 340.387 Q 459.641 340.993 460.5 340.993 L 460.5 340.993 L 460.5 340.993 Q 461.555 340.993 462.175 340.236 L 462.175 340.236 L 462.175 340.236 Q 462.795 339.479 462.795 338.19 L 462.795 338.19 L 462.795 338.19 Q 462.795 336.872 462.224 336.139 L 462.224 336.139 L 462.224 336.139 Q 461.653 335.407 460.617 335.407 L 460.617 335.407 L 460.617 335.407 Q 459.748 335.407 458.821 336.149 Z  M 467.541 330.543 L 467.541 330.543 L 467.541 330.543 Q 467.541 329.879 468.01 329.411 L 468.01 329.411 L 468.01 329.411 Q 468.479 328.942 469.133 328.942 L 469.133 328.942 L 469.133 328.942 Q 469.797 328.942 470.266 329.411 L 470.266 329.411 L 470.266 329.411 Q 470.735 329.879 470.735 330.543 L 470.735 330.543 L 470.735 330.543 Q 470.735 331.198 470.266 331.671 L 470.266 331.671 L 470.266 331.671 Q 469.797 332.145 469.133 332.145 L 469.133 332.145 L 469.133 332.145 Q 468.479 332.145 468.01 331.671 L 468.01 331.671 L 468.01 331.671 Q 467.541 331.198 467.541 330.543 Z  M 467.698 333.541 L 470.598 333.541 L 470.598 342.76 L 467.698 342.76 L 467.698 333.541 L 467.698 333.541 Z  M 473.137 333.541 L 476.037 333.541 L 476.037 336.173 L 476.076 336.173 L 476.076 336.173 Q 477.336 333.346 479.016 333.346 L 479.016 333.346 L 479.016 333.346 Q 479.817 333.346 480.94 334.186 L 480.94 334.186 L 480.139 336.754 L 480.139 336.754 Q 479.065 336.071 478.42 336.071 L 478.42 336.071 L 478.42 336.071 Q 477.414 336.071 476.726 337.318 L 476.726 337.318 L 476.726 337.318 Q 476.037 338.565 476.037 338.77 L 476.037 338.77 L 476.037 342.76 L 473.137 342.76 L 473.137 333.541 L 473.137 333.541 Z  M 491.438 340.485 L 491.438 340.485 L 491.438 342.096 L 491.438 342.096 Q 489.992 342.936 488.723 342.936 L 488.723 342.936 L 488.723 342.936 Q 487.356 342.936 487.102 341.901 L 487.102 341.901 L 487.102 341.901 Q 485.588 342.936 484.065 342.936 L 484.065 342.936 L 484.065 342.936 Q 482.991 342.936 482.239 342.256 L 482.239 342.256 L 482.239 342.256 Q 481.487 341.576 481.487 340.677 L 481.487 340.677 L 481.487 340.677 Q 481.487 339.473 482.263 338.735 L 482.263 338.735 L 482.263 338.735 Q 483.039 337.996 486.965 336.833 L 486.965 336.833 L 486.965 336.833 Q 487.063 335.29 485.364 335.29 L 485.364 335.29 L 485.364 335.29 Q 483.518 335.29 481.965 336.833 L 481.965 336.833 L 481.965 334.469 L 481.965 334.469 Q 483.782 333.346 485.959 333.346 L 485.959 333.346 L 485.959 333.346 Q 489.866 333.346 489.866 336.152 L 489.866 336.152 L 489.866 340.357 L 489.866 340.357 Q 489.866 341.002 490.344 341.002 L 490.344 341.002 L 490.344 341.002 Q 490.705 341.002 491.438 340.485 Z  M 486.965 340.522 L 486.965 340.522 L 486.965 338.288 L 486.965 338.288 Q 485.51 338.797 484.968 339.204 L 484.968 339.204 L 484.968 339.204 Q 484.426 339.61 484.426 340.237 L 484.426 340.237 L 484.426 340.237 Q 484.426 340.639 484.7 340.928 L 484.7 340.928 L 484.7 340.928 Q 484.973 341.217 485.364 341.217 L 485.364 341.217 L 485.364 341.217 Q 486.184 341.217 486.965 340.522 Z  M 500.696 340.241 L 500.696 340.241 L 500.696 342.321 L 500.696 342.321 Q 498.996 342.936 497.58 342.936 L 497.58 342.936 L 497.58 342.936 Q 495.149 342.936 493.694 341.631 L 493.694 341.631 L 493.694 341.631 Q 492.239 340.326 492.239 338.175 L 492.239 338.175 L 492.239 338.175 Q 492.239 336.074 493.708 334.71 L 493.708 334.71 L 493.708 334.71 Q 495.178 333.346 497.453 333.346 L 497.453 333.346 L 497.453 333.346 Q 498.918 333.346 500.559 333.952 L 500.559 333.952 L 500.559 336.11 L 500.559 336.11 Q 499.358 335.495 498.196 335.495 L 498.196 335.495 L 498.196 335.495 Q 496.897 335.495 496.116 336.219 L 496.116 336.219 L 496.116 336.219 Q 495.334 336.943 495.334 338.156 L 495.334 338.156 L 495.334 338.156 Q 495.334 339.379 496.096 340.127 L 496.096 340.127 L 496.096 340.127 Q 496.858 340.875 498.098 340.875 L 498.098 340.875 L 498.098 340.875 Q 499.016 340.875 500.696 340.241 Z  M 512.053 340.485 L 512.053 340.485 L 512.053 342.096 L 512.053 342.096 Q 510.608 342.936 509.338 342.936 L 509.338 342.936 L 509.338 342.936 Q 507.971 342.936 507.717 341.901 L 507.717 341.901 L 507.717 341.901 Q 506.203 342.936 504.68 342.936 L 504.68 342.936 L 504.68 342.936 Q 503.606 342.936 502.854 342.256 L 502.854 342.256 L 502.854 342.256 Q 502.102 341.576 502.102 340.677 L 502.102 340.677 L 502.102 340.677 Q 502.102 339.473 502.878 338.735 L 502.878 338.735 L 502.878 338.735 Q 503.655 337.996 507.58 336.833 L 507.58 336.833 L 507.58 336.833 Q 507.678 335.29 505.979 335.29 L 505.979 335.29 L 505.979 335.29 Q 504.133 335.29 502.58 336.833 L 502.58 336.833 L 502.58 334.469 L 502.58 334.469 Q 504.397 333.346 506.575 333.346 L 506.575 333.346 L 506.575 333.346 Q 510.481 333.346 510.481 336.152 L 510.481 336.152 L 510.481 340.357 L 510.481 340.357 Q 510.481 341.002 510.959 341.002 L 510.959 341.002 L 510.959 341.002 Q 511.321 341.002 512.053 340.485 Z  M 507.58 340.522 L 507.58 340.522 L 507.58 338.288 L 507.58 338.288 Q 506.125 338.797 505.583 339.204 L 505.583 339.204 L 505.583 339.204 Q 505.041 339.61 505.041 340.237 L 505.041 340.237 L 505.041 340.237 Q 505.041 340.639 505.315 340.928 L 505.315 340.928 L 505.315 340.928 Q 505.588 341.217 505.979 341.217 L 505.979 341.217 L 505.979 341.217 Q 506.799 341.217 507.58 340.522 Z  M 351.213 338.6 L 351.213 338.6 L 351.213 341.579 L 351.213 341.579 Q 348.655 342.936 345.852 342.936 L 345.852 342.936 L 345.852 342.936 Q 342.219 342.936 340.066 340.929 L 340.066 340.929 L 340.066 340.929 Q 337.912 338.922 337.912 335.983 L 337.912 335.983 L 337.912 335.983 Q 337.912 333.043 340.183 330.993 L 340.183 330.993 L 340.183 330.993 Q 342.453 328.942 346.116 328.942 L 346.116 328.942 L 346.116 328.942 Q 349.035 328.942 351.057 330.143 L 351.057 330.143 L 351.057 333.18 L 351.057 333.18 Q 348.576 331.784 346.36 331.784 L 346.36 331.784 L 346.36 331.784 Q 344.182 331.784 342.8 332.951 L 342.8 332.951 L 342.8 332.951 Q 341.418 334.118 341.418 335.924 L 341.418 335.924 L 341.418 335.924 Q 341.418 337.741 342.781 338.922 L 342.781 338.922 L 342.781 338.922 Q 344.143 340.104 346.272 340.104 L 346.272 340.104 L 346.272 340.104 Q 347.326 340.104 348.303 339.826 L 348.303 339.826 L 348.303 339.826 Q 349.28 339.547 351.213 338.6 Z  M 363.01 340.485 L 363.01 340.485 L 363.01 342.096 L 363.01 342.096 Q 361.565 342.936 360.295 342.936 L 360.295 342.936 L 360.295 342.936 Q 358.928 342.936 358.674 341.901 L 358.674 341.901 L 358.674 341.901 Q 357.16 342.936 355.637 342.936 L 355.637 342.936 L 355.637 342.936 Q 354.563 342.936 353.811 342.256 L 353.811 342.256 L 353.811 342.256 Q 353.059 341.576 353.059 340.677 L 353.059 340.677 L 353.059 340.677 Q 353.059 339.473 353.835 338.735 L 353.835 338.735 L 353.835 338.735 Q 354.612 337.996 358.537 336.833 L 358.537 336.833 L 358.537 336.833 Q 358.635 335.29 356.936 335.29 L 356.936 335.29 L 356.936 335.29 Q 355.09 335.29 353.537 336.833 L 353.537 336.833 L 353.537 334.469 L 353.537 334.469 Q 355.354 333.346 357.532 333.346 L 357.532 333.346 L 357.532 333.346 Q 361.438 333.346 361.438 336.152 L 361.438 336.152 L 361.438 340.357 L 361.438 340.357 Q 361.438 341.002 361.916 341.002 L 361.916 341.002 L 361.916 341.002 Q 362.278 341.002 363.01 340.485 Z  M 358.537 340.522 L 358.537 340.522 L 358.537 338.288 L 358.537 338.288 Q 357.082 338.797 356.54 339.204 L 356.54 339.204 L 356.54 339.204 Q 355.998 339.61 355.998 340.237 L 355.998 340.237 L 355.998 340.237 Q 355.998 340.639 356.272 340.928 L 356.272 340.928 L 356.272 340.928 Q 356.545 341.217 356.936 341.217 L 356.936 341.217 L 356.936 341.217 Q 357.756 341.217 358.537 340.522 Z  M 364.27 333.541 L 367.17 333.541 L 367.17 334.719 L 367.17 334.719 Q 368.646 333.346 370.376 333.346 L 370.376 333.346 L 370.376 333.346 Q 372.75 333.346 373.698 335.309 L 373.698 335.309 L 373.698 335.309 Q 375.369 333.346 377.334 333.346 L 377.334 333.346 L 377.334 333.346 Q 378.927 333.346 379.933 334.314 L 379.933 334.314 L 379.933 334.314 Q 380.94 335.282 380.94 336.836 L 380.94 336.836 L 380.94 342.76 L 378.039 342.76 L 378.039 337.353 L 378.039 337.353 Q 378.039 336.375 377.589 335.832 L 377.589 335.832 L 377.589 335.832 Q 377.139 335.29 376.336 335.29 L 376.336 335.29 L 376.336 335.29 Q 375.063 335.29 374.045 336.854 L 374.045 336.854 L 374.045 342.76 L 371.155 342.76 L 371.155 337.294 L 371.155 337.294 Q 371.155 336.326 370.671 335.808 L 370.671 335.808 L 370.671 335.808 Q 370.188 335.29 369.387 335.29 L 369.387 335.29 L 369.387 335.29 Q 368.244 335.29 367.17 336.571 L 367.17 336.571 L 367.17 342.76 L 364.27 342.76 L 364.27 333.541 L 364.27 333.541 Z  M 383.313 333.541 L 386.213 333.541 L 386.213 334.338 L 386.213 334.338 Q 387.375 333.346 388.85 333.346 L 388.85 333.346 L 388.85 333.346 Q 390.647 333.346 391.887 334.705 L 391.887 334.705 L 391.887 334.705 Q 393.127 336.064 393.127 338.038 L 393.127 338.038 L 393.127 338.038 Q 393.127 340.258 391.882 341.597 L 391.882 341.597 L 391.882 341.597 Q 390.637 342.936 388.586 342.936 L 388.586 342.936 L 388.586 342.936 Q 387.317 342.936 386.213 342.301 L 386.213 342.301 L 386.213 347.36 L 383.313 347.36 L 383.313 333.541 L 383.313 333.541 Z  M 386.213 336.149 L 386.213 336.149 L 386.213 340.387 L 386.213 340.387 Q 387.034 340.993 387.893 340.993 L 387.893 340.993 L 387.893 340.993 Q 388.948 340.993 389.568 340.236 L 389.568 340.236 L 389.568 340.236 Q 390.188 339.479 390.188 338.19 L 390.188 338.19 L 390.188 338.19 Q 390.188 336.872 389.617 336.139 L 389.617 336.139 L 389.617 336.139 Q 389.045 335.407 388.01 335.407 L 388.01 335.407 L 388.01 335.407 Q 387.141 335.407 386.213 336.149 Z  M 404.289 342.76 L 401.389 342.76 L 401.389 341.442 L 401.389 341.442 Q 400.11 342.936 398.41 342.936 L 398.41 342.936 L 398.41 342.936 Q 396.907 342.936 395.969 342.008 L 395.969 342.008 L 395.969 342.008 Q 395.032 341.081 395.032 339.44 L 395.032 339.44 L 395.032 333.541 L 397.932 333.541 L 397.932 339.237 L 397.932 339.237 Q 397.932 340.993 399.387 340.993 L 399.387 340.993 L 399.387 340.993 Q 400.207 340.993 400.788 340.354 L 400.788 340.354 L 400.788 340.354 Q 401.369 339.715 401.369 339.413 L 401.369 339.413 L 401.369 333.541 L 404.289 333.541 L 404.289 342.76 L 404.289 342.76 Z  M 413.03 334.03 L 413.03 334.03 L 413.03 336.09 L 413.03 336.09 Q 411.369 335.075 409.953 335.075 L 409.953 335.075 L 409.953 335.075 Q 408.909 335.075 408.909 335.791 L 408.909 335.791 L 408.909 335.791 Q 408.909 335.977 409.128 336.158 L 409.128 336.158 L 409.128 336.158 Q 409.348 336.34 410.813 336.92 L 410.813 336.92 L 410.813 336.92 Q 412.278 337.501 412.883 338.263 L 412.883 338.263 L 412.883 338.263 Q 413.489 339.026 413.489 339.935 L 413.489 339.935 L 413.489 339.935 Q 413.489 341.372 412.512 342.154 L 412.512 342.154 L 412.512 342.154 Q 411.535 342.936 409.729 342.936 L 409.729 342.936 L 409.729 342.936 Q 407.873 342.936 406.428 342.262 L 406.428 342.262 L 406.428 340.221 L 406.428 340.221 Q 408.205 341.002 409.407 341.002 L 409.407 341.002 L 409.407 341.002 Q 410.813 341.002 410.813 340.318 L 410.813 340.318 L 410.813 340.318 Q 410.813 340.054 410.554 339.82 L 410.554 339.82 L 410.554 339.82 Q 410.295 339.585 408.811 339.007 L 408.811 339.007 L 408.811 339.007 Q 407.326 338.429 406.78 337.735 L 406.78 337.735 L 406.78 337.735 Q 406.233 337.041 406.233 336.191 L 406.233 336.191 L 406.233 336.191 Q 406.233 334.93 407.283 334.138 L 407.283 334.138 L 407.283 334.138 Q 408.332 333.346 410.051 333.346 L 410.051 333.346 L 410.051 333.346 Q 411.701 333.346 413.03 334.03 Z  M 420.041 324.59 L 420.041 310.948 L 425.94 310.948 L 425.94 310.948 Q 428.049 310.948 429.255 311.962 L 429.255 311.962 L 429.255 311.962 Q 430.461 312.977 430.461 314.363 L 430.461 314.363 L 430.461 314.363 Q 430.461 316.139 428.596 317.085 L 428.596 317.085 L 428.596 317.085 Q 430.002 317.457 430.749 318.395 L 430.749 318.395 L 430.749 318.395 Q 431.496 319.333 431.496 320.584 L 431.496 320.584 L 431.496 320.584 Q 431.496 322.362 430.276 323.476 L 430.276 323.476 L 430.276 323.476 Q 429.055 324.59 426.682 324.59 L 426.682 324.59 L 420.041 324.59 L 420.041 324.59 Z  M 425.217 313.448 L 423.44 313.448 L 423.44 316.368 L 425.217 316.368 L 425.217 316.368 Q 426.037 316.368 426.496 315.948 L 426.496 315.948 L 426.496 315.948 Q 426.955 315.528 426.955 314.893 L 426.955 314.893 L 426.955 314.893 Q 426.955 314.268 426.496 313.858 L 426.496 313.858 L 426.496 313.858 Q 426.037 313.448 425.217 313.448 L 425.217 313.448 L 425.217 313.448 Z  M 425.823 318.868 L 423.44 318.868 L 423.44 322.09 L 425.354 322.09 L 425.354 322.09 Q 426.711 322.09 427.307 321.714 L 427.307 321.714 L 427.307 321.714 Q 427.903 321.338 427.903 320.41 L 427.903 320.41 L 427.903 320.41 Q 427.903 319.698 427.336 319.283 L 427.336 319.283 L 427.336 319.283 Q 426.77 318.868 425.823 318.868 L 425.823 318.868 L 425.823 318.868 Z  M 433.586 312.373 L 433.586 312.373 L 433.586 312.373 Q 433.586 311.709 434.055 311.241 L 434.055 311.241 L 434.055 311.241 Q 434.524 310.772 435.178 310.772 L 435.178 310.772 L 435.178 310.772 Q 435.842 310.772 436.311 311.241 L 436.311 311.241 L 436.311 311.241 Q 436.78 311.709 436.78 312.373 L 436.78 312.373 L 436.78 312.373 Q 436.78 313.028 436.311 313.501 L 436.311 313.501 L 436.311 313.501 Q 435.842 313.975 435.178 313.975 L 435.178 313.975 L 435.178 313.975 Q 434.524 313.975 434.055 313.501 L 434.055 313.501 L 434.055 313.501 Q 433.586 313.028 433.586 312.373 Z  M 433.742 315.371 L 436.643 315.371 L 436.643 324.59 L 433.742 324.59 L 433.742 315.371 L 433.742 315.371 Z  M 439.065 310.948 L 441.965 310.948 L 441.965 315.88 L 441.965 315.88 Q 443.108 315.176 444.338 315.176 L 444.338 315.176 L 444.338 315.176 Q 446.33 315.176 447.585 316.506 L 447.585 316.506 L 447.585 316.506 Q 448.84 317.835 448.84 319.947 L 448.84 319.947 L 448.84 319.947 Q 448.84 322.068 447.634 323.417 L 447.634 323.417 L 447.634 323.417 Q 446.428 324.766 444.543 324.766 L 444.543 324.766 L 444.543 324.766 Q 443.176 324.766 441.965 323.887 L 441.965 323.887 L 441.965 324.59 L 439.065 324.59 L 439.065 310.948 L 439.065 310.948 Z  M 441.965 317.764 L 441.965 317.764 L 441.965 322.041 L 441.965 322.041 Q 442.844 322.823 443.684 322.823 L 443.684 322.823 L 443.684 322.823 Q 444.719 322.823 445.31 322.046 L 445.31 322.046 L 445.31 322.046 Q 445.901 321.27 445.901 319.903 L 445.901 319.903 L 445.901 319.903 Q 445.901 318.575 445.281 317.847 L 445.281 317.847 L 445.281 317.847 Q 444.66 317.119 443.645 317.119 L 443.645 317.119 L 443.645 317.119 Q 442.854 317.119 441.965 317.764 Z  M 450.823 310.948 L 453.723 310.948 L 453.723 324.59 L 450.823 324.59 L 450.823 310.948 L 450.823 310.948 Z  M 456.086 312.373 L 456.086 312.373 L 456.086 312.373 Q 456.086 311.709 456.555 311.241 L 456.555 311.241 L 456.555 311.241 Q 457.024 310.772 457.678 310.772 L 457.678 310.772 L 457.678 310.772 Q 458.342 310.772 458.811 311.241 L 458.811 311.241 L 458.811 311.241 Q 459.28 311.709 459.28 312.373 L 459.28 312.373 L 459.28 312.373 Q 459.28 313.028 458.811 313.501 L 458.811 313.501 L 458.811 313.501 Q 458.342 313.975 457.678 313.975 L 457.678 313.975 L 457.678 313.975 Q 457.024 313.975 456.555 313.501 L 456.555 313.501 L 456.555 313.501 Q 456.086 313.028 456.086 312.373 Z  M 456.242 315.371 L 459.143 315.371 L 459.143 324.59 L 456.242 324.59 L 456.242 315.371 L 456.242 315.371 Z  M 466.36 315.176 L 466.36 315.176 L 466.36 315.176 Q 468.528 315.176 470.036 316.447 L 470.036 316.447 L 470.036 316.447 Q 471.545 317.718 471.545 319.986 L 471.545 319.986 L 471.545 319.986 Q 471.545 322.263 470.012 323.515 L 470.012 323.515 L 470.012 323.515 Q 468.479 324.766 466.36 324.766 L 466.36 324.766 L 466.36 324.766 Q 464.065 324.766 462.605 323.432 L 462.605 323.432 L 462.605 323.432 Q 461.145 322.097 461.145 319.966 L 461.145 319.966 L 461.145 319.966 Q 461.145 317.796 462.634 316.486 L 462.634 316.486 L 462.634 316.486 Q 464.123 315.176 466.36 315.176 Z  M 466.36 323.047 L 466.36 323.047 L 466.36 323.047 Q 468.44 323.047 468.44 319.907 L 468.44 319.907 L 468.44 319.907 Q 468.44 316.905 466.36 316.905 L 466.36 316.905 L 466.36 316.905 Q 465.364 316.905 464.802 317.697 L 464.802 317.697 L 464.802 317.697 Q 464.241 318.489 464.241 319.966 L 464.241 319.966 L 464.241 319.966 Q 464.241 323.047 466.36 323.047 Z  M 476.75 315.371 L 480.11 315.371 L 480.11 317.354 L 476.75 317.354 L 476.75 321.153 L 476.75 321.153 Q 476.75 321.836 477.126 322.232 L 477.126 322.232 L 477.126 322.232 Q 477.502 322.627 478.166 322.627 L 478.166 322.627 L 478.166 322.627 Q 479.065 322.627 480.11 322.09 L 480.11 322.09 L 480.11 324.19 L 480.11 324.19 Q 478.723 324.766 477.424 324.766 L 477.424 324.766 L 477.424 324.766 Q 475.725 324.766 474.787 323.887 L 474.787 323.887 L 474.787 323.887 Q 473.85 323.008 473.85 321.309 L 473.85 321.309 L 473.85 317.354 L 472.532 317.354 L 472.532 316.787 L 476.389 312.471 L 476.75 312.471 L 476.75 315.371 L 476.75 315.371 Z  M 490.598 321.729 L 490.598 321.729 L 490.598 323.555 L 490.598 323.555 Q 488.938 324.766 486.487 324.766 L 486.487 324.766 L 486.487 324.766 Q 484.055 324.766 482.6 323.461 L 482.6 323.461 L 482.6 323.461 Q 481.145 322.156 481.145 320.005 L 481.145 320.005 L 481.145 320.005 Q 481.145 317.894 482.512 316.535 L 482.512 316.535 L 482.512 316.535 Q 483.879 315.176 485.998 315.176 L 485.998 315.176 L 485.998 315.176 Q 488.127 315.176 489.49 316.607 L 489.49 316.607 L 489.49 316.607 Q 490.852 318.037 490.764 320.44 L 490.764 320.44 L 484.143 320.44 L 484.143 320.44 Q 484.231 321.694 485.032 322.371 L 485.032 322.371 L 485.032 322.371 Q 485.832 323.047 487.18 323.047 L 487.18 323.047 L 487.18 323.047 Q 488.811 323.047 490.598 321.729 Z  M 484.201 318.916 L 484.201 318.916 L 488.205 318.916 L 488.205 318.916 Q 487.971 316.905 486.203 316.905 L 486.203 316.905 L 486.203 316.905 Q 484.416 316.905 484.201 318.916 Z  M 500.696 322.071 L 500.696 322.071 L 500.696 324.151 L 500.696 324.151 Q 498.996 324.766 497.58 324.766 L 497.58 324.766 L 497.58 324.766 Q 495.149 324.766 493.694 323.461 L 493.694 323.461 L 493.694 323.461 Q 492.239 322.156 492.239 320.005 L 492.239 320.005 L 492.239 320.005 Q 492.239 317.903 493.708 316.54 L 493.708 316.54 L 493.708 316.54 Q 495.178 315.176 497.453 315.176 L 497.453 315.176 L 497.453 315.176 Q 498.918 315.176 500.559 315.782 L 500.559 315.782 L 500.559 317.94 L 500.559 317.94 Q 499.358 317.325 498.196 317.325 L 498.196 317.325 L 498.196 317.325 Q 496.897 317.325 496.116 318.049 L 496.116 318.049 L 496.116 318.049 Q 495.334 318.772 495.334 319.986 L 495.334 319.986 L 495.334 319.986 Q 495.334 321.209 496.096 321.957 L 496.096 321.957 L 496.096 321.957 Q 496.858 322.705 498.098 322.705 L 498.098 322.705 L 498.098 322.705 Q 499.016 322.705 500.696 322.071 Z  M 512.053 322.315 L 512.053 322.315 L 512.053 323.926 L 512.053 323.926 Q 510.608 324.766 509.338 324.766 L 509.338 324.766 L 509.338 324.766 Q 507.971 324.766 507.717 323.731 L 507.717 323.731 L 507.717 323.731 Q 506.203 324.766 504.68 324.766 L 504.68 324.766 L 504.68 324.766 Q 503.606 324.766 502.854 324.086 L 502.854 324.086 L 502.854 324.086 Q 502.102 323.406 502.102 322.506 L 502.102 322.506 L 502.102 322.506 Q 502.102 321.303 502.878 320.565 L 502.878 320.565 L 502.878 320.565 Q 503.655 319.826 507.58 318.662 L 507.58 318.662 L 507.58 318.662 Q 507.678 317.119 505.979 317.119 L 505.979 317.119 L 505.979 317.119 Q 504.133 317.119 502.58 318.662 L 502.58 318.662 L 502.58 316.299 L 502.58 316.299 Q 504.397 315.176 506.575 315.176 L 506.575 315.176 L 506.575 315.176 Q 510.481 315.176 510.481 317.982 L 510.481 317.982 L 510.481 322.187 L 510.481 322.187 Q 510.481 322.832 510.959 322.832 L 510.959 322.832 L 510.959 322.832 Q 511.321 322.832 512.053 322.315 Z  M 507.58 322.352 L 507.58 322.352 L 507.58 320.118 L 507.58 320.118 Q 506.125 320.627 505.583 321.034 L 505.583 321.034 L 505.583 321.034 Q 505.041 321.44 505.041 322.067 L 505.041 322.067 L 505.041 322.067 Q 505.041 322.469 505.315 322.758 L 505.315 322.758 L 505.315 322.758 Q 505.588 323.047 505.979 323.047 L 505.979 323.047 L 505.979 323.047 Q 506.799 323.047 507.58 322.352 Z " fill-rule="evenodd" fill="rgb(245,245,245)"/></g><g><g><g><g><radialGradient id="_rgradient_3" fx="0.4976635514018688" fy="0.4900702336056586" cx="0.5" cy="0.5" r="0.5" gradientTransform="matrix(57.447,-3.046,2.905,46.265,46.289,281.244)" gradientUnits="userSpaceOnUse"><stop offset="0%" stop-opacity="1" style="stop-color:rgb(255,255,255)"/><stop offset="100%" stop-opacity="1" style="stop-color:rgb(164,164,164)"/></radialGradient><circle vector-effect="non-scaling-stroke" cx="92.70863938051667" cy="299.2861455505532" r="19.473883230088674" fill="url(#_rgradient_3)"/><linearGradient id="_lgradient_6" x1="0.0022624434389139914" y1="0.6926359261960697" x2="0.9253393665158373" y2="0.2909551477302543" gradientTransform="matrix(71.333,0,0,62.677,62.906,280.996)" gradientUnits="userSpaceOnUse"><stop offset="0%" stop-opacity="1" style="stop-color:rgb(191,120,20)"/><stop offset="49.56521739130435%" stop-opacity="1" style="stop-color:rgb(253,191,0)"/><stop offset="100%" stop-opacity="1" style="stop-color:rgb(212,161,0)"/></linearGradient><path d=" M 62.906 294.66 Q 78.437 306.233 88.943 304.45 C 100.993 302.406 110.784 289.603 113.581 280.996 L 134.239 318.545 Q 131.334 337.158 116.917 342.215 Q 102.499 347.272 81.412 334.791 L 62.906 294.66 Z " fill="url(#_lgradient_6)"/><linearGradient id="_lgradient_7" x1="0.20154690618762464" y1="0.6984131693214242" x2="0.8809880239520955" y2="0.3572791793312508" gradientTransform="matrix(71.87,0,0,57.065,61.723,286.59)" gradientUnits="userSpaceOnUse"><stop offset="2.1739130434782608%" stop-opacity="1" style="stop-color:rgb(194,127,38)"/><stop offset="44.13296109479239%" stop-opacity="1" style="stop-color:rgb(219,189,148)"/><stop offset="58.78278853482464%" stop-opacity="1" style="stop-color:rgb(238,236,233)"/><stop offset="74.91628914713415%" stop-opacity="1" style="stop-color:rgb(246,217,131)"/><stop offset="100%" stop-opacity="1" style="stop-color:rgb(255,195,15)"/></linearGradient><path d=" M 61.723 298.856 C 62.691 301.868 81.412 308.431 93.892 306.925 C 105.644 305.507 112.075 297.35 113.796 286.59 L 133.593 320.159 Q 131.334 337.158 116.917 342.215 Q 102.499 347.272 80.981 334.576 L 61.723 298.856 Z " fill="url(#_lgradient_7)"/></g></g><path d=" M 155.711 314.336 L 155.711 303.234 L 160.511 303.234 L 160.511 303.234 Q 162.228 303.234 163.209 304.06 L 163.209 304.06 L 163.209 304.06 Q 164.191 304.886 164.191 306.013 L 164.191 306.013 L 164.191 306.013 Q 164.191 307.459 162.673 308.229 L 162.673 308.229 L 162.673 308.229 Q 163.817 308.531 164.425 309.294 L 164.425 309.294 L 164.425 309.294 Q 165.033 310.058 165.033 311.076 L 165.033 311.076 L 165.033 311.076 Q 165.033 312.523 164.04 313.43 L 164.04 313.43 L 164.04 313.43 Q 163.046 314.336 161.115 314.336 L 161.115 314.336 L 155.711 314.336 L 155.711 314.336 Z  M 159.923 305.269 L 158.477 305.269 L 158.477 307.645 L 159.923 307.645 L 159.923 307.645 Q 160.591 307.645 160.964 307.303 L 160.964 307.303 L 160.964 307.303 Q 161.338 306.961 161.338 306.445 L 161.338 306.445 L 161.338 306.445 Q 161.338 305.936 160.964 305.602 L 160.964 305.602 L 160.964 305.602 Q 160.591 305.269 159.923 305.269 L 159.923 305.269 L 159.923 305.269 Z  M 160.416 309.679 L 158.477 309.679 L 158.477 312.302 L 160.034 312.302 L 160.034 312.302 Q 161.139 312.302 161.624 311.996 L 161.624 311.996 L 161.624 311.996 Q 162.109 311.69 162.109 310.935 L 162.109 310.935 L 162.109 310.935 Q 162.109 310.355 161.648 310.017 L 161.648 310.017 L 161.648 310.017 Q 161.187 309.679 160.416 309.679 L 160.416 309.679 L 160.416 309.679 Z  M 167.171 303.234 L 169.937 303.234 L 169.937 314.336 L 167.171 314.336 L 167.171 303.234 L 167.171 303.234 Z  M 172.496 314.336 L 172.496 303.234 L 177.296 303.234 L 177.296 303.234 Q 179.012 303.234 179.994 304.06 L 179.994 304.06 L 179.994 304.06 Q 180.975 304.886 180.975 306.013 L 180.975 306.013 L 180.975 306.013 Q 180.975 307.459 179.457 308.229 L 179.457 308.229 L 179.457 308.229 Q 180.602 308.531 181.21 309.294 L 181.21 309.294 L 181.21 309.294 Q 181.818 310.058 181.818 311.076 L 181.818 311.076 L 181.818 311.076 Q 181.818 312.523 180.824 313.43 L 180.824 313.43 L 180.824 313.43 Q 179.831 314.336 177.9 314.336 L 177.9 314.336 L 172.496 314.336 L 172.496 314.336 Z  M 176.708 305.269 L 175.261 305.269 L 175.261 307.645 L 176.708 307.645 L 176.708 307.645 Q 177.375 307.645 177.749 307.303 L 177.749 307.303 L 177.749 307.303 Q 178.122 306.961 178.122 306.445 L 178.122 306.445 L 178.122 306.445 Q 178.122 305.936 177.749 305.602 L 177.749 305.602 L 177.749 305.602 Q 177.375 305.269 176.708 305.269 L 176.708 305.269 L 176.708 305.269 Z  M 177.2 309.679 L 175.261 309.679 L 175.261 312.302 L 176.819 312.302 L 176.819 312.302 Q 177.924 312.302 178.408 311.996 L 178.408 311.996 L 178.408 311.996 Q 178.893 311.69 178.893 310.935 L 178.893 310.935 L 178.893 310.935 Q 178.893 310.355 178.432 310.017 L 178.432 310.017 L 178.432 310.017 Q 177.971 309.679 177.2 309.679 L 177.2 309.679 L 177.2 309.679 Z  M 186.626 312.302 L 192.324 312.302 L 192.324 314.336 L 183.86 314.336 L 183.86 303.234 L 186.626 303.234 L 186.626 312.302 L 186.626 312.302 Z  M 193.969 303.234 L 196.735 303.234 L 196.735 314.336 L 193.969 314.336 L 193.969 303.234 L 193.969 303.234 Z  M 205.183 303.091 L 205.183 303.091 L 205.183 303.091 Q 208.02 303.091 209.776 304.804 L 209.776 304.804 L 209.776 304.804 Q 211.532 306.516 211.532 308.789 L 211.532 308.789 L 211.532 308.789 Q 211.532 311.094 209.752 312.787 L 209.752 312.787 L 209.752 312.787 Q 207.972 314.479 205.183 314.479 L 205.183 314.479 L 205.183 314.479 Q 202.361 314.479 200.589 312.795 L 200.589 312.795 L 200.589 312.795 Q 198.817 311.11 198.817 308.789 L 198.817 308.789 L 198.817 308.789 Q 198.817 306.508 200.577 304.8 L 200.577 304.8 L 200.577 304.8 Q 202.337 303.091 205.183 303.091 Z  M 205.183 312.175 L 205.183 312.175 L 205.183 312.175 Q 206.756 312.175 207.718 311.241 L 207.718 311.241 L 207.718 311.241 Q 208.679 310.307 208.679 308.789 L 208.679 308.789 L 208.679 308.789 Q 208.679 307.263 207.718 306.333 L 207.718 306.333 L 207.718 306.333 Q 206.756 305.404 205.183 305.404 L 205.183 305.404 L 205.183 305.404 Q 203.601 305.404 202.636 306.333 L 202.636 306.333 L 202.636 306.333 Q 201.67 307.263 201.67 308.789 L 201.67 308.789 L 201.67 308.789 Q 201.67 310.307 202.636 311.241 L 202.636 311.241 L 202.636 311.241 Q 203.601 312.175 205.183 312.175 Z  M 212.748 303.234 L 223.557 303.234 L 223.557 305.269 L 219.535 305.269 L 219.535 314.336 L 216.77 314.336 L 216.77 305.269 L 212.748 305.269 L 212.748 303.234 L 212.748 303.234 Z  M 228.039 312.302 L 233.459 312.302 L 233.459 314.336 L 225.273 314.336 L 225.273 303.234 L 233.348 303.234 L 233.348 305.269 L 228.039 305.269 L 228.039 307.597 L 233.101 307.597 L 233.101 309.632 L 228.039 309.632 L 228.039 312.302 L 228.039 312.302 Z  M 245.92 310.951 L 245.92 310.951 L 245.92 313.375 L 245.92 313.375 Q 243.838 314.479 241.557 314.479 L 241.557 314.479 L 241.557 314.479 Q 238.601 314.479 236.848 312.846 L 236.848 312.846 L 236.848 312.846 Q 235.096 311.213 235.096 308.821 L 235.096 308.821 L 235.096 308.821 Q 235.096 306.429 236.944 304.76 L 236.944 304.76 L 236.944 304.76 Q 238.792 303.091 241.772 303.091 L 241.772 303.091 L 241.772 303.091 Q 244.148 303.091 245.793 304.068 L 245.793 304.068 L 245.793 306.54 L 245.793 306.54 Q 243.774 305.404 241.97 305.404 L 241.97 305.404 L 241.97 305.404 Q 240.198 305.404 239.074 306.353 L 239.074 306.353 L 239.074 306.353 Q 237.949 307.303 237.949 308.773 L 237.949 308.773 L 237.949 308.773 Q 237.949 310.251 239.058 311.213 L 239.058 311.213 L 239.058 311.213 Q 240.166 312.175 241.899 312.175 L 241.899 312.175 L 241.899 312.175 Q 242.757 312.175 243.552 311.948 L 243.552 311.948 L 243.552 311.948 Q 244.347 311.722 245.92 310.951 Z  M 251.403 303.234 L 254.625 303.234 L 259.55 314.336 L 256.577 314.336 L 255.662 312.143 L 250.691 312.143 L 249.862 314.336 L 246.93 314.336 L 251.403 303.234 L 251.403 303.234 Z  M 251.423 310.204 L 254.853 310.204 L 253.053 305.888 L 251.423 310.204 L 251.423 310.204 Z  M 268.363 303.949 L 268.363 303.949 L 268.363 306.119 L 268.363 306.119 Q 266.154 305.125 264.843 305.125 L 264.843 305.125 L 264.843 305.125 Q 264.096 305.125 263.655 305.376 L 263.655 305.376 L 263.655 305.376 Q 263.213 305.626 263.213 306.039 L 263.213 306.039 L 263.213 306.039 Q 263.213 306.357 263.531 306.643 L 263.531 306.643 L 263.531 306.643 Q 263.849 306.929 265.081 307.382 L 265.081 307.382 L 265.081 307.382 Q 266.313 307.835 267.052 308.225 L 267.052 308.225 L 267.052 308.225 Q 267.791 308.614 268.327 309.322 L 268.327 309.322 L 268.327 309.322 Q 268.864 310.029 268.864 311.11 L 268.864 311.11 L 268.864 311.11 Q 268.864 312.652 267.692 313.565 L 267.692 313.565 L 267.692 313.565 Q 266.519 314.479 264.604 314.479 L 264.604 314.479 L 264.604 314.479 Q 262.538 314.479 260.599 313.406 L 260.599 313.406 L 260.599 311.014 L 260.599 311.014 Q 261.711 311.761 262.57 312.103 L 262.57 312.103 L 262.57 312.103 Q 263.428 312.445 264.39 312.445 L 264.39 312.445 L 264.39 312.445 Q 266.019 312.445 266.019 311.424 L 266.019 311.424 L 266.019 311.424 Q 266.019 311.075 265.693 310.767 L 265.693 310.767 L 265.693 310.767 Q 265.367 310.458 264.123 310.009 L 264.123 310.009 L 264.123 310.009 Q 262.88 309.56 262.152 309.179 L 262.152 309.179 L 262.152 309.179 Q 261.425 308.797 260.897 308.09 L 260.897 308.09 L 260.897 308.09 Q 260.368 307.382 260.368 306.278 L 260.368 306.278 L 260.368 306.278 Q 260.368 304.847 261.521 303.969 L 261.521 303.969 L 261.521 303.969 Q 262.673 303.091 264.604 303.091 L 264.604 303.091 L 264.604 303.091 Q 266.384 303.091 268.363 303.949 Z  M 247.263 294.936 L 247.263 283.834 L 252.159 283.834 L 252.159 283.834 Q 254.996 283.834 256.645 285.387 L 256.645 285.387 L 256.645 285.387 Q 258.294 286.941 258.294 289.405 L 258.294 289.405 L 258.294 289.405 Q 258.294 291.987 256.621 293.462 L 256.621 293.462 L 256.621 293.462 Q 254.948 294.936 251.849 294.936 L 251.849 294.936 L 247.263 294.936 L 247.263 294.936 Z  M 251.801 285.868 L 250.029 285.868 L 250.029 292.901 L 251.833 292.901 L 251.833 292.901 Q 253.589 292.901 254.519 291.936 L 254.519 291.936 L 254.519 291.936 Q 255.449 290.97 255.449 289.389 L 255.449 289.389 L 255.449 289.389 Q 255.449 287.752 254.507 286.81 L 254.507 286.81 L 254.507 286.81 Q 253.565 285.868 251.801 285.868 L 251.801 285.868 L 251.801 285.868 Z  M 263.126 292.901 L 268.546 292.901 L 268.546 294.936 L 260.36 294.936 L 260.36 283.834 L 268.435 283.834 L 268.435 285.868 L 263.126 285.868 L 263.126 288.197 L 268.188 288.197 L 268.188 290.231 L 263.126 290.231 L 263.126 292.901 L 263.126 292.901 Z  M 176.064 284.549 L 176.064 284.549 L 176.064 286.718 L 176.064 286.718 Q 173.855 285.725 172.543 285.725 L 172.543 285.725 L 172.543 285.725 Q 171.796 285.725 171.355 285.975 L 171.355 285.975 L 171.355 285.975 Q 170.914 286.226 170.914 286.639 L 170.914 286.639 L 170.914 286.639 Q 170.914 286.957 171.232 287.243 L 171.232 287.243 L 171.232 287.243 Q 171.55 287.529 172.782 287.982 L 172.782 287.982 L 172.782 287.982 Q 174.013 288.435 174.753 288.824 L 174.753 288.824 L 174.753 288.824 Q 175.492 289.214 176.028 289.921 L 176.028 289.921 L 176.028 289.921 Q 176.565 290.628 176.565 291.709 L 176.565 291.709 L 176.565 291.709 Q 176.565 293.251 175.392 294.165 L 175.392 294.165 L 175.392 294.165 Q 174.22 295.079 172.305 295.079 L 172.305 295.079 L 172.305 295.079 Q 170.239 295.079 168.299 294.006 L 168.299 294.006 L 168.299 291.614 L 168.299 291.614 Q 169.412 292.361 170.27 292.703 L 170.27 292.703 L 170.27 292.703 Q 171.129 293.044 172.09 293.044 L 172.09 293.044 L 172.09 293.044 Q 173.719 293.044 173.719 292.023 L 173.719 292.023 L 173.719 292.023 Q 173.719 291.675 173.394 291.366 L 173.394 291.366 L 173.394 291.366 Q 173.068 291.057 171.824 290.608 L 171.824 290.608 L 171.824 290.608 Q 170.58 290.16 169.853 289.778 L 169.853 289.778 L 169.853 289.778 Q 169.126 289.397 168.597 288.689 L 168.597 288.689 L 168.597 288.689 Q 168.069 287.982 168.069 286.877 L 168.069 286.877 L 168.069 286.877 Q 168.069 285.447 169.221 284.569 L 169.221 284.569 L 169.221 284.569 Q 170.374 283.691 172.305 283.691 L 172.305 283.691 L 172.305 283.691 Q 174.085 283.691 176.064 284.549 Z  M 178.456 283.834 L 181.222 283.834 L 181.222 294.936 L 178.456 294.936 L 178.456 283.834 L 178.456 283.834 Z  M 191.315 284.549 L 191.315 284.549 L 191.315 286.718 L 191.315 286.718 Q 189.105 285.725 187.794 285.725 L 187.794 285.725 L 187.794 285.725 Q 187.047 285.725 186.606 285.975 L 186.606 285.975 L 186.606 285.975 Q 186.165 286.226 186.165 286.639 L 186.165 286.639 L 186.165 286.639 Q 186.165 286.957 186.483 287.243 L 186.483 287.243 L 186.483 287.243 Q 186.801 287.529 188.032 287.982 L 188.032 287.982 L 188.032 287.982 Q 189.264 288.435 190.003 288.824 L 190.003 288.824 L 190.003 288.824 Q 190.742 289.214 191.279 289.921 L 191.279 289.921 L 191.279 289.921 Q 191.815 290.628 191.815 291.709 L 191.815 291.709 L 191.815 291.709 Q 191.815 293.251 190.643 294.165 L 190.643 294.165 L 190.643 294.165 Q 189.471 295.079 187.556 295.079 L 187.556 295.079 L 187.556 295.079 Q 185.489 295.079 183.55 294.006 L 183.55 294.006 L 183.55 291.614 L 183.55 291.614 Q 184.663 292.361 185.521 292.703 L 185.521 292.703 L 185.521 292.703 Q 186.379 293.044 187.341 293.044 L 187.341 293.044 L 187.341 293.044 Q 188.97 293.044 188.97 292.023 L 188.97 292.023 L 188.97 292.023 Q 188.97 291.675 188.644 291.366 L 188.644 291.366 L 188.644 291.366 Q 188.319 291.057 187.075 290.608 L 187.075 290.608 L 187.075 290.608 Q 185.831 290.16 185.104 289.778 L 185.104 289.778 L 185.104 289.778 Q 184.377 289.397 183.848 288.689 L 183.848 288.689 L 183.848 288.689 Q 183.32 287.982 183.32 286.877 L 183.32 286.877 L 183.32 286.877 Q 183.32 285.447 184.472 284.569 L 184.472 284.569 L 184.472 284.569 Q 185.624 283.691 187.556 283.691 L 187.556 283.691 L 187.556 283.691 Q 189.336 283.691 191.315 284.549 Z  M 192.825 283.834 L 203.633 283.834 L 203.633 285.868 L 199.612 285.868 L 199.612 294.936 L 196.846 294.936 L 196.846 285.868 L 192.825 285.868 L 192.825 283.834 L 192.825 283.834 Z  M 208.115 292.901 L 213.535 292.901 L 213.535 294.936 L 205.35 294.936 L 205.35 283.834 L 213.424 283.834 L 213.424 285.868 L 208.115 285.868 L 208.115 288.197 L 213.178 288.197 L 213.178 290.231 L 208.115 290.231 L 208.115 292.901 L 208.115 292.901 Z  M 218.057 283.834 L 221.622 287.95 L 225.181 283.834 L 227.594 283.834 L 227.594 294.936 L 224.828 294.936 L 224.828 288.006 L 221.836 291.487 L 221.418 291.487 L 218.415 288.006 L 218.415 294.936 L 215.649 294.936 L 215.649 283.834 L 218.057 283.834 L 218.057 283.834 Z  M 233.331 283.834 L 236.553 283.834 L 241.478 294.936 L 238.505 294.936 L 237.59 292.742 L 232.618 292.742 L 231.79 294.936 L 228.857 294.936 L 233.331 283.834 L 233.331 283.834 Z  M 233.351 290.803 L 236.781 290.803 L 234.981 286.488 L 233.351 290.803 L 233.351 290.803 Z " fill-rule="evenodd" fill="rgb(245,245,245)"/></g></g></g></svg>