<?xml version="1.0" standalone="no"?><!-- Generator: Gravit.io --><svg xmlns="http://www.w3.org/2000/svg" xmlns:xlink="http://www.w3.org/1999/xlink" style="isolation:isolate" viewBox="116.22 86 362.835 115.75" width="362.835" height="115.75"><g><g><g><radialGradient id="_rgradient_3" fx="0.4976635514018688" fy="0.4900702336056586" cx="0.5" cy="0.5" r="0.5" gradientTransform="matrix(103.618,-5.494,5.24,83.448,88.383,88.582)" gradientUnits="userSpaceOnUse"><stop offset="0%" stop-opacity="1" style="stop-color:rgb(255,255,255)"/><stop offset="100%" stop-opacity="1" style="stop-color:rgb(164,164,164)"/></radialGradient><circle vector-effect="non-scaling-stroke" cx="172.11001422996927" cy="121.12502452712982" r="35.12502452712985" fill="url(#_rgradient_3)"/><linearGradient id="_lgradient_6" x1="0.0022624434389139914" y1="0.6926359261960697" x2="0.9253393665158373" y2="0.2909551477302543" gradientTransform="matrix(128.662,0,0,113.051,118.355,88.135)" gradientUnits="userSpaceOnUse"><stop offset="0%" stop-opacity="1" style="stop-color:rgb(191,120,20)"/><stop offset="49.56521739130435%" stop-opacity="1" style="stop-color:rgb(253,191,0)"/><stop offset="100%" stop-opacity="1" style="stop-color:rgb(212,161,0)"/></linearGradient><path d=" M 118.355 112.78 Q 146.369 133.655 165.318 130.44 C 187.053 126.753 204.712 103.66 209.758 88.135 L 247.018 155.862 Q 241.778 189.434 215.774 198.555 Q 189.77 207.676 151.734 185.165 L 118.355 112.78 Z " fill="url(#_lgradient_6)"/><linearGradient id="_lgradient_7" x1="0.20154690618762464" y1="0.6984131693214242" x2="0.8809880239520955" y2="0.3572791793312508" gradientTransform="matrix(129.633,0,0,102.928,116.22,98.226)" gradientUnits="userSpaceOnUse"><stop offset="2.1739130434782608%" stop-opacity="1" style="stop-color:rgb(194,127,38)"/><stop offset="44.13296109479239%" stop-opacity="1" style="stop-color:rgb(219,189,148)"/><stop offset="58.78278853482464%" stop-opacity="1" style="stop-color:rgb(238,236,233)"/><stop offset="74.91628914713415%" stop-opacity="1" style="stop-color:rgb(246,217,131)"/><stop offset="100%" stop-opacity="1" style="stop-color:rgb(255,195,15)"/></linearGradient><path d=" M 116.22 120.349 C 117.967 125.782 151.734 137.62 174.245 134.903 C 195.442 132.345 207.041 117.632 210.146 98.226 L 245.853 158.773 Q 241.778 189.434 215.774 198.555 Q 189.77 207.676 150.957 184.777 L 116.22 120.349 Z " fill="url(#_lgradient_7)"/></g></g><path d=" M 302.532 135.884 L 302.532 135.884 Q 304.323 136.354 305.306 137.646 L 305.306 137.646 L 305.306 137.646 Q 306.289 138.938 306.289 140.875 L 306.289 140.875 L 306.289 140.875 Q 306.289 143.605 304.499 145.058 L 304.499 145.058 L 304.499 145.058 Q 302.708 146.512 299.42 146.512 L 299.42 146.512 L 292.022 146.512 L 292.022 146.512 Q 291.464 146.512 291.127 146.189 L 291.127 146.189 L 291.127 146.189 Q 290.789 145.866 290.789 145.337 L 290.789 145.337 L 290.789 126.989 L 290.789 126.989 Q 290.789 126.461 291.127 126.138 L 291.127 126.138 L 291.127 126.138 Q 291.464 125.815 292.022 125.815 L 292.022 125.815 L 299.097 125.815 L 299.097 125.815 Q 302.297 125.815 304.058 127.224 L 304.058 127.224 L 304.058 127.224 Q 305.82 128.633 305.82 131.217 L 305.82 131.217 L 305.82 131.217 Q 305.82 132.89 304.954 134.094 L 304.954 134.094 L 304.954 134.094 Q 304.088 135.297 302.532 135.884 L 302.532 135.884 L 302.532 135.884 Z  M 293.167 127.811 L 293.167 135.004 L 298.745 135.004 L 298.745 135.004 Q 301.064 135.004 302.253 134.064 L 302.253 134.064 L 302.253 134.064 Q 303.442 133.125 303.442 131.334 L 303.442 131.334 L 303.442 131.334 Q 303.442 127.811 298.745 127.811 L 298.745 127.811 L 293.167 127.811 L 293.167 127.811 Z  M 299.185 144.515 L 299.185 144.515 Q 301.622 144.515 302.781 143.62 L 302.781 143.62 L 302.781 143.62 Q 303.941 142.725 303.941 140.816 L 303.941 140.816 L 303.941 140.816 Q 303.941 137 299.185 137 L 299.185 137 L 293.167 137 L 293.167 144.515 L 299.185 144.515 L 299.185 144.515 Z  M 311.779 146.658 L 311.779 146.658 Q 311.221 146.658 310.899 146.321 L 310.899 146.321 L 310.899 146.321 Q 310.576 145.983 310.576 145.425 L 310.576 145.425 L 310.576 126.901 L 310.576 126.901 Q 310.576 126.343 310.899 126.006 L 310.899 126.006 L 310.899 126.006 Q 311.221 125.668 311.779 125.668 L 311.779 125.668 L 311.779 125.668 Q 312.337 125.668 312.66 126.006 L 312.66 126.006 L 312.66 126.006 Q 312.983 126.343 312.983 126.901 L 312.983 126.901 L 312.983 145.425 L 312.983 145.425 Q 312.983 145.983 312.66 146.321 L 312.66 146.321 L 312.66 146.321 Q 312.337 146.658 311.779 146.658 L 311.779 146.658 L 311.779 146.658 Z  M 329.834 135.884 L 329.834 135.884 Q 331.625 136.354 332.608 137.646 L 332.608 137.646 L 332.608 137.646 Q 333.591 138.938 333.591 140.875 L 333.591 140.875 L 333.591 140.875 Q 333.591 143.605 331.801 145.058 L 331.801 145.058 L 331.801 145.058 Q 330.01 146.512 326.722 146.512 L 326.722 146.512 L 319.324 146.512 L 319.324 146.512 Q 318.766 146.512 318.429 146.189 L 318.429 146.189 L 318.429 146.189 Q 318.091 145.866 318.091 145.337 L 318.091 145.337 L 318.091 126.989 L 318.091 126.989 Q 318.091 126.461 318.429 126.138 L 318.429 126.138 L 318.429 126.138 Q 318.766 125.815 319.324 125.815 L 319.324 125.815 L 326.399 125.815 L 326.399 125.815 Q 329.599 125.815 331.36 127.224 L 331.36 127.224 L 331.36 127.224 Q 333.122 128.633 333.122 131.217 L 333.122 131.217 L 333.122 131.217 Q 333.122 132.89 332.256 134.094 L 332.256 134.094 L 332.256 134.094 Q 331.39 135.297 329.834 135.884 L 329.834 135.884 L 329.834 135.884 Z  M 320.469 127.811 L 320.469 135.004 L 326.047 135.004 L 326.047 135.004 Q 328.366 135.004 329.555 134.064 L 329.555 134.064 L 329.555 134.064 Q 330.744 133.125 330.744 131.334 L 330.744 131.334 L 330.744 131.334 Q 330.744 127.811 326.047 127.811 L 326.047 127.811 L 320.469 127.811 L 320.469 127.811 Z  M 326.487 144.515 L 326.487 144.515 Q 328.924 144.515 330.083 143.62 L 330.083 143.62 L 330.083 143.62 Q 331.243 142.725 331.243 140.816 L 331.243 140.816 L 331.243 140.816 Q 331.243 137 326.487 137 L 326.487 137 L 320.469 137 L 320.469 144.515 L 326.487 144.515 L 326.487 144.515 Z  M 339.052 146.512 L 339.052 146.512 Q 338.553 146.512 338.215 146.203 L 338.215 146.203 L 338.215 146.203 Q 337.878 145.895 337.878 145.396 L 337.878 145.396 L 337.878 126.901 L 337.878 126.901 Q 337.878 126.343 338.2 126.006 L 338.2 126.006 L 338.2 126.006 Q 338.523 125.668 339.081 125.668 L 339.081 125.668 L 339.081 125.668 Q 339.639 125.668 339.962 126.006 L 339.962 126.006 L 339.962 126.006 Q 340.285 126.343 340.285 126.901 L 340.285 126.901 L 340.285 144.457 L 349.767 144.457 L 349.767 144.457 Q 350.296 144.457 350.589 144.721 L 350.589 144.721 L 350.589 144.721 Q 350.883 144.985 350.883 145.484 L 350.883 145.484 L 350.883 145.484 Q 350.883 145.983 350.589 146.247 L 350.589 146.247 L 350.589 146.247 Q 350.296 146.512 349.767 146.512 L 349.767 146.512 L 339.052 146.512 L 339.052 146.512 Z  M 354.934 146.658 L 354.934 146.658 Q 354.376 146.658 354.053 146.321 L 354.053 146.321 L 354.053 146.321 Q 353.73 145.983 353.73 145.425 L 353.73 145.425 L 353.73 126.901 L 353.73 126.901 Q 353.73 126.343 354.053 126.006 L 354.053 126.006 L 354.053 126.006 Q 354.376 125.668 354.934 125.668 L 354.934 125.668 L 354.934 125.668 Q 355.492 125.668 355.815 126.006 L 355.815 126.006 L 355.815 126.006 Q 356.138 126.343 356.138 126.901 L 356.138 126.901 L 356.138 145.425 L 356.138 145.425 Q 356.138 145.983 355.815 146.321 L 355.815 146.321 L 355.815 146.321 Q 355.492 146.658 354.934 146.658 L 354.934 146.658 L 354.934 146.658 Z  M 369.906 146.746 L 369.906 146.746 Q 367.029 146.746 364.901 145.455 L 364.901 145.455 L 364.901 145.455 Q 362.772 144.163 361.627 141.785 L 361.627 141.785 L 361.627 141.785 Q 360.482 139.407 360.482 136.178 L 360.482 136.178 L 360.482 136.178 Q 360.482 132.919 361.613 130.527 L 361.613 130.527 L 361.613 130.527 Q 362.743 128.134 364.871 126.857 L 364.871 126.857 L 364.871 126.857 Q 367 125.58 369.906 125.58 L 369.906 125.58 L 369.906 125.58 Q 372.812 125.58 374.941 126.857 L 374.941 126.857 L 374.941 126.857 Q 377.069 128.134 378.199 130.527 L 378.199 130.527 L 378.199 130.527 Q 379.33 132.919 379.33 136.149 L 379.33 136.149 L 379.33 136.149 Q 379.33 139.378 378.185 141.77 L 378.185 141.77 L 378.185 141.77 Q 377.04 144.163 374.911 145.455 L 374.911 145.455 L 374.911 145.455 Q 372.783 146.746 369.906 146.746 L 369.906 146.746 L 369.906 146.746 Z  M 369.906 144.691 L 369.906 144.691 Q 373.194 144.691 375.029 142.475 L 375.029 142.475 L 375.029 142.475 Q 376.864 140.259 376.864 136.149 L 376.864 136.149 L 376.864 136.149 Q 376.864 132.039 375.043 129.837 L 375.043 129.837 L 375.043 129.837 Q 373.223 127.635 369.906 127.635 L 369.906 127.635 L 369.906 127.635 Q 366.618 127.635 364.783 129.852 L 364.783 129.852 L 364.783 129.852 Q 362.948 132.068 362.948 136.149 L 362.948 136.149 L 362.948 136.149 Q 362.948 140.229 364.783 142.46 L 364.783 142.46 L 364.783 142.46 Q 366.618 144.691 369.906 144.691 L 369.906 144.691 L 369.906 144.691 Z  M 389.898 146.658 L 389.898 146.658 Q 389.34 146.658 389.003 146.321 L 389.003 146.321 L 389.003 146.321 Q 388.665 145.983 388.665 145.425 L 388.665 145.425 L 388.665 127.87 L 382.353 127.87 L 382.353 127.87 Q 381.825 127.87 381.531 127.606 L 381.531 127.606 L 381.531 127.606 Q 381.238 127.342 381.238 126.842 L 381.238 126.842 L 381.238 126.842 Q 381.238 126.343 381.531 126.079 L 381.531 126.079 L 381.531 126.079 Q 381.825 125.815 382.353 125.815 L 382.353 125.815 L 397.413 125.815 L 397.413 125.815 Q 397.942 125.815 398.235 126.079 L 398.235 126.079 L 398.235 126.079 Q 398.529 126.343 398.529 126.842 L 398.529 126.842 L 398.529 126.842 Q 398.529 127.342 398.235 127.606 L 398.235 127.606 L 398.235 127.606 Q 397.942 127.87 397.413 127.87 L 397.413 127.87 L 391.102 127.87 L 391.102 145.425 L 391.102 145.425 Q 391.102 145.983 390.779 146.321 L 390.779 146.321 L 390.779 146.321 Q 390.456 146.658 389.898 146.658 L 389.898 146.658 L 389.898 146.658 Z  M 402.463 146.512 L 402.463 146.512 Q 401.905 146.512 401.567 146.189 L 401.567 146.189 L 401.567 146.189 Q 401.23 145.866 401.23 145.337 L 401.23 145.337 L 401.23 126.989 L 401.23 126.989 Q 401.23 126.461 401.567 126.138 L 401.567 126.138 L 401.567 126.138 Q 401.905 125.815 402.463 125.815 L 402.463 125.815 L 413.442 125.815 L 413.442 125.815 Q 413.971 125.815 414.264 126.079 L 414.264 126.079 L 414.264 126.079 Q 414.558 126.343 414.558 126.813 L 414.558 126.813 L 414.558 126.813 Q 414.558 127.283 414.264 127.547 L 414.264 127.547 L 414.264 127.547 Q 413.971 127.811 413.442 127.811 L 413.442 127.811 L 403.608 127.811 L 403.608 135.004 L 412.855 135.004 L 412.855 135.004 Q 413.384 135.004 413.677 135.268 L 413.677 135.268 L 413.677 135.268 Q 413.971 135.532 413.971 136.002 L 413.971 136.002 L 413.971 136.002 Q 413.971 136.472 413.677 136.736 L 413.677 136.736 L 413.677 136.736 Q 413.384 137 412.855 137 L 412.855 137 L 403.608 137 L 403.608 144.515 L 413.442 144.515 L 413.442 144.515 Q 413.971 144.515 414.264 144.765 L 414.264 144.765 L 414.264 144.765 Q 414.558 145.014 414.558 145.513 L 414.558 145.513 L 414.558 145.513 Q 414.558 145.983 414.264 146.247 L 414.264 146.247 L 414.264 146.247 Q 413.971 146.512 413.442 146.512 L 413.442 146.512 L 402.463 146.512 L 402.463 146.512 Z  M 427.093 146.746 L 427.093 146.746 Q 424.158 146.746 422.015 145.469 L 422.015 145.469 L 422.015 145.469 Q 419.872 144.192 418.712 141.8 L 418.712 141.8 L 418.712 141.8 Q 417.552 139.407 417.552 136.149 L 417.552 136.149 L 417.552 136.149 Q 417.552 132.919 418.712 130.527 L 418.712 130.527 L 418.712 130.527 Q 419.872 128.134 422.015 126.857 L 422.015 126.857 L 422.015 126.857 Q 424.158 125.58 427.093 125.58 L 427.093 125.58 L 427.093 125.58 Q 429.06 125.58 430.807 126.211 L 430.807 126.211 L 430.807 126.211 Q 432.554 126.842 433.845 128.017 L 433.845 128.017 L 433.845 128.017 Q 434.315 128.457 434.315 129.044 L 434.315 129.044 L 434.315 129.044 Q 434.315 129.455 434.08 129.763 L 434.08 129.763 L 434.08 129.763 Q 433.845 130.072 433.522 130.072 L 433.522 130.072 L 433.522 130.072 Q 433.17 130.072 432.671 129.749 L 432.671 129.749 L 432.671 129.749 Q 431.174 128.575 429.956 128.105 L 429.956 128.105 L 429.956 128.105 Q 428.737 127.635 427.152 127.635 L 427.152 127.635 L 427.152 127.635 Q 423.747 127.635 421.912 129.852 L 421.912 129.852 L 421.912 129.852 Q 420.077 132.068 420.077 136.149 L 420.077 136.149 L 420.077 136.149 Q 420.077 140.259 421.912 142.475 L 421.912 142.475 L 421.912 142.475 Q 423.747 144.691 427.152 144.691 L 427.152 144.691 L 427.152 144.691 Q 428.708 144.691 429.941 144.222 L 429.941 144.222 L 429.941 144.222 Q 431.174 143.752 432.671 142.578 L 432.671 142.578 L 432.671 142.578 Q 433.17 142.255 433.522 142.255 L 433.522 142.255 L 433.522 142.255 Q 433.845 142.255 434.08 142.548 L 434.08 142.548 L 434.08 142.548 Q 434.315 142.842 434.315 143.282 L 434.315 143.282 L 434.315 143.282 Q 434.315 143.869 433.845 144.31 L 433.845 144.31 L 433.845 144.31 Q 432.554 145.484 430.807 146.115 L 430.807 146.115 L 430.807 146.115 Q 429.06 146.746 427.093 146.746 L 427.093 146.746 L 427.093 146.746 Z  M 456.01 145.132 L 456.01 145.132 Q 456.127 145.367 456.127 145.631 L 456.127 145.631 L 456.127 145.631 Q 456.127 146.071 455.79 146.365 L 455.79 146.365 L 455.79 146.365 Q 455.452 146.658 454.982 146.658 L 454.982 146.658 L 454.982 146.658 Q 454.248 146.658 453.955 145.954 L 453.955 145.954 L 451.871 141.198 L 440.803 141.198 L 438.689 145.954 L 438.689 145.954 Q 438.396 146.658 437.662 146.658 L 437.662 146.658 L 437.662 146.658 Q 437.192 146.658 436.84 146.35 L 436.84 146.35 L 436.84 146.35 Q 436.488 146.042 436.488 145.602 L 436.488 145.602 L 436.488 145.602 Q 436.488 145.367 436.605 145.132 L 436.605 145.132 L 445.001 126.461 L 445.001 126.461 Q 445.177 126.05 445.529 125.844 L 445.529 125.844 L 445.529 125.844 Q 445.882 125.639 446.293 125.639 L 446.293 125.639 L 446.293 125.639 Q 446.733 125.639 447.085 125.859 L 447.085 125.859 L 447.085 125.859 Q 447.438 126.079 447.614 126.461 L 447.614 126.461 L 456.01 145.132 L 456.01 145.132 Z  M 446.322 128.663 L 441.684 139.202 L 450.99 139.202 L 446.322 128.663 L 446.322 128.663 Z  M 466.138 146.746 L 466.138 146.746 Q 463.936 146.746 461.925 146.086 L 461.925 146.086 L 461.925 146.086 Q 459.914 145.425 458.711 144.31 L 458.711 144.31 L 458.711 144.31 Q 458.27 143.899 458.27 143.282 L 458.27 143.282 L 458.27 143.282 Q 458.27 142.871 458.505 142.563 L 458.505 142.563 L 458.505 142.563 Q 458.74 142.255 459.063 142.255 L 459.063 142.255 L 459.063 142.255 Q 459.445 142.255 459.885 142.578 L 459.885 142.578 L 459.885 142.578 Q 462.615 144.691 466.109 144.691 L 466.109 144.691 L 466.109 144.691 Q 468.633 144.691 469.984 143.723 L 469.984 143.723 L 469.984 143.723 Q 471.334 142.754 471.334 140.963 L 471.334 140.963 L 471.334 140.963 Q 471.334 139.936 470.688 139.304 L 470.688 139.304 L 470.688 139.304 Q 470.043 138.673 468.986 138.292 L 468.986 138.292 L 468.986 138.292 Q 467.929 137.91 466.138 137.499 L 466.138 137.499 L 466.138 137.499 Q 463.731 136.941 462.19 136.325 L 462.19 136.325 L 462.19 136.325 Q 460.648 135.708 459.694 134.563 L 459.694 134.563 L 459.694 134.563 Q 458.74 133.418 458.74 131.569 L 458.74 131.569 L 458.74 131.569 Q 458.74 129.808 459.694 128.442 L 459.694 128.442 L 459.694 128.442 Q 460.648 127.077 462.366 126.329 L 462.366 126.329 L 462.366 126.329 Q 464.083 125.58 466.285 125.58 L 466.285 125.58 L 466.285 125.58 Q 468.34 125.58 470.116 126.211 L 470.116 126.211 L 470.116 126.211 Q 471.892 126.842 473.096 128.017 L 473.096 128.017 L 473.096 128.017 Q 473.565 128.486 473.565 129.044 L 473.565 129.044 L 473.565 129.044 Q 473.565 129.455 473.331 129.763 L 473.331 129.763 L 473.331 129.763 Q 473.096 130.072 472.773 130.072 L 472.773 130.072 L 472.773 130.072 Q 472.45 130.072 471.921 129.749 L 471.921 129.749 L 471.921 129.749 Q 470.483 128.575 469.25 128.105 L 469.25 128.105 L 469.25 128.105 Q 468.017 127.635 466.285 127.635 L 466.285 127.635 L 466.285 127.635 Q 463.848 127.635 462.498 128.648 L 462.498 128.648 L 462.498 128.648 Q 461.147 129.661 461.147 131.481 L 461.147 131.481 L 461.147 131.481 Q 461.147 133.037 462.336 133.815 L 462.336 133.815 L 462.336 133.815 Q 463.525 134.593 465.991 135.18 L 465.991 135.18 L 465.991 135.18 Q 468.663 135.826 470.189 136.369 L 470.189 136.369 L 470.189 136.369 Q 471.716 136.912 472.729 137.998 L 472.729 137.998 L 472.729 137.998 Q 473.742 139.084 473.742 140.904 L 473.742 140.904 L 473.742 140.904 Q 473.742 142.636 472.787 143.958 L 472.787 143.958 L 472.787 143.958 Q 471.833 145.279 470.101 146.013 L 470.101 146.013 L 470.101 146.013 Q 468.369 146.746 466.138 146.746 L 466.138 146.746 L 466.138 146.746 Z  M 436.493 115.68 L 436.493 115.68 Q 435.936 115.68 435.598 115.357 L 435.598 115.357 L 435.598 115.357 Q 435.26 115.034 435.26 114.506 L 435.26 114.506 L 435.26 96.158 L 435.26 96.158 Q 435.26 95.629 435.598 95.306 L 435.598 95.306 L 435.598 95.306 Q 435.936 94.983 436.493 94.983 L 436.493 94.983 L 442.218 94.983 L 442.218 94.983 Q 447.179 94.983 449.895 97.669 L 449.895 97.669 L 449.895 97.669 Q 452.61 100.356 452.61 105.317 L 452.61 105.317 L 452.61 105.317 Q 452.61 110.278 449.88 112.979 L 449.88 112.979 L 449.88 112.979 Q 447.15 115.68 442.218 115.68 L 442.218 115.68 L 436.493 115.68 L 436.493 115.68 Z  M 437.668 113.625 L 442.071 113.625 L 442.071 113.625 Q 450.115 113.625 450.115 105.317 L 450.115 105.317 L 450.115 105.317 Q 450.115 97.038 442.071 97.038 L 442.071 97.038 L 437.668 97.038 L 437.668 113.625 L 437.668 113.625 Z  M 458.188 115.68 L 458.188 115.68 Q 457.63 115.68 457.293 115.357 L 457.293 115.357 L 457.293 115.357 Q 456.955 115.034 456.955 114.506 L 456.955 114.506 L 456.955 96.158 L 456.955 96.158 Q 456.955 95.629 457.293 95.306 L 457.293 95.306 L 457.293 95.306 Q 457.63 94.983 458.188 94.983 L 458.188 94.983 L 469.168 94.983 L 469.168 94.983 Q 469.696 94.983 469.99 95.247 L 469.99 95.247 L 469.99 95.247 Q 470.283 95.512 470.283 95.981 L 470.283 95.981 L 470.283 95.981 Q 470.283 96.451 469.99 96.715 L 469.99 96.715 L 469.99 96.715 Q 469.696 96.979 469.168 96.979 L 469.168 96.979 L 459.333 96.979 L 459.333 104.172 L 468.58 104.172 L 468.58 104.172 Q 469.109 104.172 469.402 104.436 L 469.402 104.436 L 469.402 104.436 Q 469.696 104.7 469.696 105.17 L 469.696 105.17 L 469.696 105.17 Q 469.696 105.64 469.402 105.904 L 469.402 105.904 L 469.402 105.904 Q 469.109 106.168 468.58 106.168 L 468.58 106.168 L 459.333 106.168 L 459.333 113.684 L 469.168 113.684 L 469.168 113.684 Q 469.696 113.684 469.99 113.933 L 469.99 113.933 L 469.99 113.933 Q 470.283 114.183 470.283 114.682 L 470.283 114.682 L 470.283 114.682 Q 470.283 115.151 469.99 115.416 L 469.99 115.416 L 469.99 115.416 Q 469.696 115.68 469.168 115.68 L 469.168 115.68 L 458.188 115.68 L 458.188 115.68 Z  M 297.394 115.915 L 297.394 115.915 Q 295.193 115.915 293.182 115.254 L 293.182 115.254 L 293.182 115.254 Q 291.171 114.594 289.967 113.478 L 289.967 113.478 L 289.967 113.478 Q 289.527 113.067 289.527 112.451 L 289.527 112.451 L 289.527 112.451 Q 289.527 112.04 289.762 111.731 L 289.762 111.731 L 289.762 111.731 Q 289.996 111.423 290.319 111.423 L 290.319 111.423 L 290.319 111.423 Q 290.701 111.423 291.141 111.746 L 291.141 111.746 L 291.141 111.746 Q 293.871 113.86 297.365 113.86 L 297.365 113.86 L 297.365 113.86 Q 299.89 113.86 301.24 112.891 L 301.24 112.891 L 301.24 112.891 Q 302.59 111.922 302.59 110.131 L 302.59 110.131 L 302.59 110.131 Q 302.59 109.104 301.945 108.473 L 301.945 108.473 L 301.945 108.473 Q 301.299 107.842 300.242 107.46 L 300.242 107.46 L 300.242 107.46 Q 299.185 107.078 297.394 106.667 L 297.394 106.667 L 297.394 106.667 Q 294.987 106.11 293.446 105.493 L 293.446 105.493 L 293.446 105.493 Q 291.905 104.877 290.95 103.732 L 290.95 103.732 L 290.95 103.732 Q 289.996 102.587 289.996 100.737 L 289.996 100.737 L 289.996 100.737 Q 289.996 98.976 290.95 97.611 L 290.95 97.611 L 290.95 97.611 Q 291.905 96.246 293.622 95.497 L 293.622 95.497 L 293.622 95.497 Q 295.339 94.748 297.541 94.748 L 297.541 94.748 L 297.541 94.748 Q 299.596 94.748 301.372 95.38 L 301.372 95.38 L 301.372 95.38 Q 303.148 96.011 304.352 97.185 L 304.352 97.185 L 304.352 97.185 Q 304.822 97.655 304.822 98.212 L 304.822 98.212 L 304.822 98.212 Q 304.822 98.623 304.587 98.932 L 304.587 98.932 L 304.587 98.932 Q 304.352 99.24 304.029 99.24 L 304.029 99.24 L 304.029 99.24 Q 303.706 99.24 303.178 98.917 L 303.178 98.917 L 303.178 98.917 Q 301.739 97.743 300.506 97.273 L 300.506 97.273 L 300.506 97.273 Q 299.273 96.803 297.541 96.803 L 297.541 96.803 L 297.541 96.803 Q 295.104 96.803 293.754 97.816 L 293.754 97.816 L 293.754 97.816 Q 292.404 98.829 292.404 100.649 L 292.404 100.649 L 292.404 100.649 Q 292.404 102.205 293.593 102.983 L 293.593 102.983 L 293.593 102.983 Q 294.782 103.761 297.248 104.348 L 297.248 104.348 L 297.248 104.348 Q 299.919 104.994 301.446 105.537 L 301.446 105.537 L 301.446 105.537 Q 302.972 106.08 303.985 107.166 L 303.985 107.166 L 303.985 107.166 Q 304.998 108.253 304.998 110.073 L 304.998 110.073 L 304.998 110.073 Q 304.998 111.805 304.044 113.126 L 304.044 113.126 L 304.044 113.126 Q 303.09 114.447 301.358 115.181 L 301.358 115.181 L 301.358 115.181 Q 299.625 115.915 297.394 115.915 L 297.394 115.915 L 297.394 115.915 Z  M 310.106 115.827 L 310.106 115.827 Q 309.548 115.827 309.225 115.489 L 309.225 115.489 L 309.225 115.489 Q 308.902 115.151 308.902 114.594 L 308.902 114.594 L 308.902 96.069 L 308.902 96.069 Q 308.902 95.512 309.225 95.174 L 309.225 95.174 L 309.225 95.174 Q 309.548 94.836 310.106 94.836 L 310.106 94.836 L 310.106 94.836 Q 310.664 94.836 310.987 95.174 L 310.987 95.174 L 310.987 95.174 Q 311.31 95.512 311.31 96.069 L 311.31 96.069 L 311.31 114.594 L 311.31 114.594 Q 311.31 115.151 310.987 115.489 L 310.987 115.489 L 310.987 115.489 Q 310.664 115.827 310.106 115.827 L 310.106 115.827 L 310.106 115.827 Z  M 323.023 115.915 L 323.023 115.915 Q 320.821 115.915 318.81 115.254 L 318.81 115.254 L 318.81 115.254 Q 316.799 114.594 315.596 113.478 L 315.596 113.478 L 315.596 113.478 Q 315.155 113.067 315.155 112.451 L 315.155 112.451 L 315.155 112.451 Q 315.155 112.04 315.39 111.731 L 315.39 111.731 L 315.39 111.731 Q 315.625 111.423 315.948 111.423 L 315.948 111.423 L 315.948 111.423 Q 316.33 111.423 316.77 111.746 L 316.77 111.746 L 316.77 111.746 Q 319.5 113.86 322.994 113.86 L 322.994 113.86 L 322.994 113.86 Q 325.518 113.86 326.869 112.891 L 326.869 112.891 L 326.869 112.891 Q 328.219 111.922 328.219 110.131 L 328.219 110.131 L 328.219 110.131 Q 328.219 109.104 327.573 108.473 L 327.573 108.473 L 327.573 108.473 Q 326.927 107.842 325.871 107.46 L 325.871 107.46 L 325.871 107.46 Q 324.814 107.078 323.023 106.667 L 323.023 106.667 L 323.023 106.667 Q 320.616 106.11 319.074 105.493 L 319.074 105.493 L 319.074 105.493 Q 317.533 104.877 316.579 103.732 L 316.579 103.732 L 316.579 103.732 Q 315.625 102.587 315.625 100.737 L 315.625 100.737 L 315.625 100.737 Q 315.625 98.976 316.579 97.611 L 316.579 97.611 L 316.579 97.611 Q 317.533 96.246 319.251 95.497 L 319.251 95.497 L 319.251 95.497 Q 320.968 94.748 323.17 94.748 L 323.17 94.748 L 323.17 94.748 Q 325.225 94.748 327.001 95.38 L 327.001 95.38 L 327.001 95.38 Q 328.777 96.011 329.981 97.185 L 329.981 97.185 L 329.981 97.185 Q 330.45 97.655 330.45 98.212 L 330.45 98.212 L 330.45 98.212 Q 330.45 98.623 330.215 98.932 L 330.215 98.932 L 330.215 98.932 Q 329.981 99.24 329.658 99.24 L 329.658 99.24 L 329.658 99.24 Q 329.335 99.24 328.806 98.917 L 328.806 98.917 L 328.806 98.917 Q 327.368 97.743 326.135 97.273 L 326.135 97.273 L 326.135 97.273 Q 324.902 96.803 323.17 96.803 L 323.17 96.803 L 323.17 96.803 Q 320.733 96.803 319.383 97.816 L 319.383 97.816 L 319.383 97.816 Q 318.032 98.829 318.032 100.649 L 318.032 100.649 L 318.032 100.649 Q 318.032 102.205 319.221 102.983 L 319.221 102.983 L 319.221 102.983 Q 320.41 103.761 322.876 104.348 L 322.876 104.348 L 322.876 104.348 Q 325.548 104.994 327.074 105.537 L 327.074 105.537 L 327.074 105.537 Q 328.601 106.08 329.614 107.166 L 329.614 107.166 L 329.614 107.166 Q 330.626 108.253 330.626 110.073 L 330.626 110.073 L 330.626 110.073 Q 330.626 111.805 329.672 113.126 L 329.672 113.126 L 329.672 113.126 Q 328.718 114.447 326.986 115.181 L 326.986 115.181 L 326.986 115.181 Q 325.254 115.915 323.023 115.915 L 323.023 115.915 L 323.023 115.915 Z  M 340.755 115.827 L 340.755 115.827 Q 340.197 115.827 339.859 115.489 L 339.859 115.489 L 339.859 115.489 Q 339.522 115.151 339.522 114.594 L 339.522 114.594 L 339.522 97.038 L 333.21 97.038 L 333.21 97.038 Q 332.681 97.038 332.388 96.774 L 332.388 96.774 L 332.388 96.774 Q 332.094 96.51 332.094 96.011 L 332.094 96.011 L 332.094 96.011 Q 332.094 95.512 332.388 95.247 L 332.388 95.247 L 332.388 95.247 Q 332.681 94.983 333.21 94.983 L 333.21 94.983 L 348.27 94.983 L 348.27 94.983 Q 348.798 94.983 349.092 95.247 L 349.092 95.247 L 349.092 95.247 Q 349.385 95.512 349.385 96.011 L 349.385 96.011 L 349.385 96.011 Q 349.385 96.51 349.092 96.774 L 349.092 96.774 L 349.092 96.774 Q 348.798 97.038 348.27 97.038 L 348.27 97.038 L 341.958 97.038 L 341.958 114.594 L 341.958 114.594 Q 341.958 115.151 341.635 115.489 L 341.635 115.489 L 341.635 115.489 Q 341.312 115.827 340.755 115.827 L 340.755 115.827 L 340.755 115.827 Z  M 353.319 115.68 L 353.319 115.68 Q 352.762 115.68 352.424 115.357 L 352.424 115.357 L 352.424 115.357 Q 352.086 115.034 352.086 114.506 L 352.086 114.506 L 352.086 96.158 L 352.086 96.158 Q 352.086 95.629 352.424 95.306 L 352.424 95.306 L 352.424 95.306 Q 352.762 94.983 353.319 94.983 L 353.319 94.983 L 364.299 94.983 L 364.299 94.983 Q 364.827 94.983 365.121 95.247 L 365.121 95.247 L 365.121 95.247 Q 365.414 95.512 365.414 95.981 L 365.414 95.981 L 365.414 95.981 Q 365.414 96.451 365.121 96.715 L 365.121 96.715 L 365.121 96.715 Q 364.827 96.979 364.299 96.979 L 364.299 96.979 L 354.464 96.979 L 354.464 104.172 L 363.712 104.172 L 363.712 104.172 Q 364.24 104.172 364.534 104.436 L 364.534 104.436 L 364.534 104.436 Q 364.827 104.7 364.827 105.17 L 364.827 105.17 L 364.827 105.17 Q 364.827 105.64 364.534 105.904 L 364.534 105.904 L 364.534 105.904 Q 364.24 106.168 363.712 106.168 L 363.712 106.168 L 354.464 106.168 L 354.464 113.684 L 364.299 113.684 L 364.299 113.684 Q 364.827 113.684 365.121 113.933 L 365.121 113.933 L 365.121 113.933 Q 365.414 114.183 365.414 114.682 L 365.414 114.682 L 365.414 114.682 Q 365.414 115.151 365.121 115.416 L 365.121 115.416 L 365.121 115.416 Q 364.827 115.68 364.299 115.68 L 364.299 115.68 L 353.319 115.68 L 353.319 115.68 Z  M 387.55 94.836 L 387.55 94.836 Q 388.107 94.836 388.416 95.174 L 388.416 95.174 L 388.416 95.174 Q 388.724 95.512 388.724 96.069 L 388.724 96.069 L 388.724 114.652 L 388.724 114.652 Q 388.724 115.181 388.43 115.504 L 388.43 115.504 L 388.43 115.504 Q 388.137 115.827 387.608 115.827 L 387.608 115.827 L 387.608 115.827 Q 387.08 115.827 386.816 115.504 L 386.816 115.504 L 386.816 115.504 Q 386.551 115.181 386.551 114.652 L 386.551 114.652 L 386.551 99.651 L 380.181 111.863 L 380.181 111.863 Q 379.77 112.715 378.977 112.715 L 378.977 112.715 L 378.977 112.715 Q 378.214 112.715 377.774 111.863 L 377.774 111.863 L 371.374 99.798 L 371.374 114.652 L 371.374 114.652 Q 371.374 115.181 371.095 115.504 L 371.095 115.504 L 371.095 115.504 Q 370.816 115.827 370.288 115.827 L 370.288 115.827 L 370.288 115.827 Q 369.759 115.827 369.466 115.504 L 369.466 115.504 L 369.466 115.504 Q 369.172 115.181 369.172 114.652 L 369.172 114.652 L 369.172 96.069 L 369.172 96.069 Q 369.172 95.512 369.495 95.174 L 369.495 95.174 L 369.495 95.174 Q 369.818 94.836 370.376 94.836 L 370.376 94.836 L 370.376 94.836 Q 371.11 94.836 371.55 95.688 L 371.55 95.688 L 379.007 109.985 L 386.375 95.688 L 386.375 95.688 Q 386.61 95.218 386.889 95.027 L 386.889 95.027 L 386.889 95.027 Q 387.168 94.836 387.55 94.836 L 387.55 94.836 L 387.55 94.836 Z  M 411.681 114.3 L 411.681 114.3 Q 411.798 114.535 411.798 114.799 L 411.798 114.799 L 411.798 114.799 Q 411.798 115.24 411.461 115.533 L 411.461 115.533 L 411.461 115.533 Q 411.123 115.827 410.653 115.827 L 410.653 115.827 L 410.653 115.827 Q 409.92 115.827 409.626 115.122 L 409.626 115.122 L 407.542 110.366 L 396.474 110.366 L 394.36 115.122 L 394.36 115.122 Q 394.067 115.827 393.333 115.827 L 393.333 115.827 L 393.333 115.827 Q 392.863 115.827 392.511 115.518 L 392.511 115.518 L 392.511 115.518 Q 392.159 115.21 392.159 114.77 L 392.159 114.77 L 392.159 114.77 Q 392.159 114.535 392.276 114.3 L 392.276 114.3 L 400.672 95.629 L 400.672 95.629 Q 400.848 95.218 401.2 95.013 L 401.2 95.013 L 401.2 95.013 Q 401.553 94.807 401.964 94.807 L 401.964 94.807 L 401.964 94.807 Q 402.404 94.807 402.756 95.027 L 402.756 95.027 L 402.756 95.027 Q 403.109 95.247 403.285 95.629 L 403.285 95.629 L 411.681 114.3 L 411.681 114.3 Z  M 401.993 97.831 L 397.355 108.37 L 406.661 108.37 L 401.993 97.831 L 401.993 97.831 Z " fill-rule="evenodd" fill="rgb(62,58,58)"/><path d=" M 328.271 193.968 L 328.271 193.968 Q 328.348 194.124 328.348 194.299 L 328.348 194.299 L 328.348 194.299 Q 328.348 194.591 328.125 194.785 L 328.125 194.785 L 328.125 194.785 Q 327.901 194.98 327.59 194.98 L 327.59 194.98 L 327.59 194.98 Q 327.103 194.98 326.909 194.513 L 326.909 194.513 L 325.527 191.361 L 318.193 191.361 L 316.792 194.513 L 316.792 194.513 Q 316.597 194.98 316.111 194.98 L 316.111 194.98 L 316.111 194.98 Q 315.8 194.98 315.566 194.775 L 315.566 194.775 L 315.566 194.775 Q 315.333 194.571 315.333 194.279 L 315.333 194.279 L 315.333 194.279 Q 315.333 194.124 315.411 193.968 L 315.411 193.968 L 320.975 181.594 L 320.975 181.594 Q 321.092 181.322 321.325 181.186 L 321.325 181.186 L 321.325 181.186 Q 321.558 181.05 321.831 181.05 L 321.831 181.05 L 321.831 181.05 Q 322.123 181.05 322.356 181.196 L 322.356 181.196 L 322.356 181.196 Q 322.59 181.342 322.706 181.594 L 322.706 181.594 L 328.271 193.968 L 328.271 193.968 Z  M 321.85 183.054 L 318.776 190.038 L 324.944 190.038 L 321.85 183.054 L 321.85 183.054 Z  M 331.169 194.98 L 331.169 194.98 Q 330.819 194.98 330.595 194.775 L 330.595 194.775 L 330.595 194.775 Q 330.372 194.571 330.372 194.201 L 330.372 194.201 L 330.372 181.847 L 330.372 181.847 Q 330.372 181.478 330.595 181.273 L 330.595 181.273 L 330.595 181.273 Q 330.819 181.069 331.169 181.069 L 331.169 181.069 L 331.169 181.069 Q 331.5 181.069 331.724 181.273 L 331.724 181.273 L 331.724 181.273 Q 331.948 181.478 331.948 181.847 L 331.948 181.847 L 331.948 194.201 L 331.948 194.201 Q 331.948 194.571 331.724 194.775 L 331.724 194.775 L 331.724 194.775 Q 331.5 194.98 331.169 194.98 L 331.169 194.98 L 331.169 194.98 Z  M 338.757 185.174 L 338.757 185.174 Q 342.317 185.174 342.317 188.91 L 342.317 188.91 L 342.317 194.201 L 342.317 194.201 Q 342.317 194.552 342.113 194.766 L 342.113 194.766 L 342.113 194.766 Q 341.909 194.98 341.558 194.98 L 341.558 194.98 L 341.558 194.98 Q 341.208 194.98 340.994 194.766 L 340.994 194.766 L 340.994 194.766 Q 340.78 194.552 340.78 194.201 L 340.78 194.201 L 340.78 193.268 L 340.78 193.268 Q 340.411 194.104 339.652 194.561 L 339.652 194.561 L 339.652 194.561 Q 338.893 195.019 337.901 195.019 L 337.901 195.019 L 337.901 195.019 Q 336.986 195.019 336.218 194.649 L 336.218 194.649 L 336.218 194.649 Q 335.45 194.279 335.002 193.618 L 335.002 193.618 L 335.002 193.618 Q 334.555 192.956 334.555 192.159 L 334.555 192.159 L 334.555 192.159 Q 334.555 191.089 335.099 190.495 L 335.099 190.495 L 335.099 190.495 Q 335.644 189.902 336.889 189.639 L 336.889 189.639 L 336.889 189.639 Q 338.134 189.377 340.352 189.377 L 340.352 189.377 L 340.78 189.377 L 340.78 188.734 L 340.78 188.734 Q 340.78 187.567 340.304 187.022 L 340.304 187.022 L 340.304 187.022 Q 339.827 186.478 338.757 186.478 L 338.757 186.478 L 338.757 186.478 Q 337.434 186.478 336.072 187.198 L 336.072 187.198 L 336.072 187.198 Q 335.547 187.528 335.333 187.528 L 335.333 187.528 L 335.333 187.528 Q 335.099 187.528 334.944 187.353 L 334.944 187.353 L 334.944 187.353 Q 334.788 187.178 334.788 186.906 L 334.788 186.906 L 334.788 186.906 Q 334.788 186.633 334.953 186.429 L 334.953 186.429 L 334.953 186.429 Q 335.119 186.225 335.488 186.011 L 335.488 186.011 L 335.488 186.011 Q 336.169 185.622 337.035 185.398 L 337.035 185.398 L 337.035 185.398 Q 337.901 185.174 338.757 185.174 L 338.757 185.174 L 338.757 185.174 Z  M 338.115 193.773 L 338.115 193.773 Q 339.282 193.773 340.031 192.985 L 340.031 192.985 L 340.031 192.985 Q 340.78 192.198 340.78 190.952 L 340.78 190.952 L 340.78 190.388 L 340.43 190.388 L 340.43 190.388 Q 338.718 190.388 337.823 190.534 L 337.823 190.534 L 337.823 190.534 Q 336.928 190.68 336.549 191.02 L 336.549 191.02 L 336.549 191.02 Q 336.169 191.361 336.169 192.022 L 336.169 192.022 L 336.169 192.022 Q 336.169 192.781 336.724 193.277 L 336.724 193.277 L 336.724 193.277 Q 337.278 193.773 338.115 193.773 L 338.115 193.773 L 338.115 193.773 Z  M 352.881 185.213 L 352.881 185.213 Q 353.251 185.213 353.465 185.427 L 353.465 185.427 L 353.465 185.427 Q 353.679 185.641 353.679 185.991 L 353.679 185.991 L 353.679 194.24 L 353.679 194.24 Q 353.679 196.361 352.59 197.441 L 352.59 197.441 L 352.59 197.441 Q 351.5 198.52 349.36 198.52 L 349.36 198.52 L 349.36 198.52 Q 347.278 198.52 345.897 197.703 L 345.897 197.703 L 345.897 197.703 Q 345.197 197.314 345.197 196.808 L 345.197 196.808 L 345.197 196.808 Q 345.197 196.536 345.343 196.361 L 345.343 196.361 L 345.343 196.361 Q 345.488 196.186 345.722 196.186 L 345.722 196.186 L 345.722 196.186 Q 345.916 196.186 346.422 196.458 L 346.422 196.458 L 346.422 196.458 Q 347.103 196.808 347.765 197.022 L 347.765 197.022 L 347.765 197.022 Q 348.426 197.236 349.341 197.236 L 349.341 197.236 L 349.341 197.236 Q 350.722 197.236 351.422 196.507 L 351.422 196.507 L 351.422 196.507 Q 352.123 195.777 352.123 194.377 L 352.123 194.377 L 352.123 192.703 L 352.123 192.703 Q 351.714 193.618 350.868 194.104 L 350.868 194.104 L 350.868 194.104 Q 350.021 194.591 348.874 194.591 L 348.874 194.591 L 348.874 194.591 Q 347.628 194.591 346.665 194.007 L 346.665 194.007 L 346.665 194.007 Q 345.702 193.423 345.167 192.353 L 345.167 192.353 L 345.167 192.353 Q 344.632 191.283 344.632 189.882 L 344.632 189.882 L 344.632 189.882 Q 344.632 188.482 345.167 187.412 L 345.167 187.412 L 345.167 187.412 Q 345.702 186.342 346.665 185.758 L 346.665 185.758 L 346.665 185.758 Q 347.628 185.174 348.874 185.174 L 348.874 185.174 L 348.874 185.174 Q 350.002 185.174 350.839 185.661 L 350.839 185.661 L 350.839 185.661 Q 351.675 186.147 352.103 187.042 L 352.103 187.042 L 352.103 185.991 L 352.103 185.991 Q 352.103 185.641 352.307 185.427 L 352.307 185.427 L 352.307 185.427 Q 352.512 185.213 352.881 185.213 L 352.881 185.213 L 352.881 185.213 Z  M 349.185 193.287 L 349.185 193.287 Q 350.547 193.287 351.325 192.382 L 351.325 192.382 L 351.325 192.382 Q 352.103 191.478 352.103 189.882 L 352.103 189.882 L 352.103 189.882 Q 352.103 188.306 351.335 187.402 L 351.335 187.402 L 351.335 187.402 Q 350.566 186.497 349.185 186.497 L 349.185 186.497 L 349.185 186.497 Q 347.804 186.497 347.016 187.402 L 347.016 187.402 L 347.016 187.402 Q 346.228 188.306 346.228 189.882 L 346.228 189.882 L 346.228 189.882 Q 346.228 191.478 347.016 192.382 L 347.016 192.382 L 347.016 192.382 Q 347.804 193.287 349.185 193.287 L 349.185 193.287 L 349.185 193.287 Z  M 360.527 195.019 L 360.527 195.019 Q 359.185 195.019 358.164 194.415 L 358.164 194.415 L 358.164 194.415 Q 357.142 193.812 356.588 192.694 L 356.588 192.694 L 356.588 192.694 Q 356.033 191.575 356.033 190.096 L 356.033 190.096 L 356.033 190.096 Q 356.033 188.618 356.588 187.499 L 356.588 187.499 L 356.588 187.499 Q 357.142 186.38 358.164 185.777 L 358.164 185.777 L 358.164 185.777 Q 359.185 185.174 360.527 185.174 L 360.527 185.174 L 360.527 185.174 Q 361.87 185.174 362.901 185.777 L 362.901 185.777 L 362.901 185.777 Q 363.932 186.38 364.486 187.499 L 364.486 187.499 L 364.486 187.499 Q 365.041 188.618 365.041 190.096 L 365.041 190.096 L 365.041 190.096 Q 365.041 191.575 364.486 192.694 L 364.486 192.694 L 364.486 192.694 Q 363.932 193.812 362.901 194.415 L 362.901 194.415 L 362.901 194.415 Q 361.87 195.019 360.527 195.019 L 360.527 195.019 L 360.527 195.019 Z  M 360.527 193.715 L 360.527 193.715 Q 361.928 193.715 362.677 192.791 L 362.677 192.791 L 362.677 192.791 Q 363.426 191.867 363.426 190.096 L 363.426 190.096 L 363.426 190.096 Q 363.426 188.365 362.667 187.421 L 362.667 187.421 L 362.667 187.421 Q 361.909 186.478 360.527 186.478 L 360.527 186.478 L 360.527 186.478 Q 359.146 186.478 358.387 187.421 L 358.387 187.421 L 358.387 187.421 Q 357.628 188.365 357.628 190.096 L 357.628 190.096 L 357.628 190.096 Q 357.628 191.847 358.378 192.781 L 358.378 192.781 L 358.378 192.781 Q 359.127 193.715 360.527 193.715 L 360.527 193.715 L 360.527 193.715 Z  M 371.267 185.174 L 371.267 185.174 Q 374.827 185.174 374.827 188.91 L 374.827 188.91 L 374.827 194.201 L 374.827 194.201 Q 374.827 194.552 374.623 194.766 L 374.623 194.766 L 374.623 194.766 Q 374.418 194.98 374.068 194.98 L 374.068 194.98 L 374.068 194.98 Q 373.718 194.98 373.504 194.766 L 373.504 194.766 L 373.504 194.766 Q 373.29 194.552 373.29 194.201 L 373.29 194.201 L 373.29 193.268 L 373.29 193.268 Q 372.92 194.104 372.162 194.561 L 372.162 194.561 L 372.162 194.561 Q 371.403 195.019 370.411 195.019 L 370.411 195.019 L 370.411 195.019 Q 369.496 195.019 368.728 194.649 L 368.728 194.649 L 368.728 194.649 Q 367.959 194.279 367.512 193.618 L 367.512 193.618 L 367.512 193.618 Q 367.064 192.956 367.064 192.159 L 367.064 192.159 L 367.064 192.159 Q 367.064 191.089 367.609 190.495 L 367.609 190.495 L 367.609 190.495 Q 368.154 189.902 369.399 189.639 L 369.399 189.639 L 369.399 189.639 Q 370.644 189.377 372.862 189.377 L 372.862 189.377 L 373.29 189.377 L 373.29 188.734 L 373.29 188.734 Q 373.29 187.567 372.813 187.022 L 372.813 187.022 L 372.813 187.022 Q 372.337 186.478 371.267 186.478 L 371.267 186.478 L 371.267 186.478 Q 369.944 186.478 368.582 187.198 L 368.582 187.198 L 368.582 187.198 Q 368.056 187.528 367.842 187.528 L 367.842 187.528 L 367.842 187.528 Q 367.609 187.528 367.453 187.353 L 367.453 187.353 L 367.453 187.353 Q 367.298 187.178 367.298 186.906 L 367.298 186.906 L 367.298 186.906 Q 367.298 186.633 367.463 186.429 L 367.463 186.429 L 367.463 186.429 Q 367.628 186.225 367.998 186.011 L 367.998 186.011 L 367.998 186.011 Q 368.679 185.622 369.545 185.398 L 369.545 185.398 L 369.545 185.398 Q 370.411 185.174 371.267 185.174 L 371.267 185.174 L 371.267 185.174 Z  M 370.625 193.773 L 370.625 193.773 Q 371.792 193.773 372.541 192.985 L 372.541 192.985 L 372.541 192.985 Q 373.29 192.198 373.29 190.952 L 373.29 190.952 L 373.29 190.388 L 372.94 190.388 L 372.94 190.388 Q 371.228 190.388 370.333 190.534 L 370.333 190.534 L 370.333 190.534 Q 369.438 190.68 369.058 191.02 L 369.058 191.02 L 369.058 191.02 Q 368.679 191.361 368.679 192.022 L 368.679 192.022 L 368.679 192.022 Q 368.679 192.781 369.234 193.277 L 369.234 193.277 L 369.234 193.277 Q 369.788 193.773 370.625 193.773 L 370.625 193.773 L 370.625 193.773 Z  M 380.897 195.019 L 380.897 195.019 Q 380.002 195.019 379.195 194.805 L 379.195 194.805 L 379.195 194.805 Q 378.387 194.591 377.765 194.201 L 377.765 194.201 L 377.765 194.201 Q 377.414 193.968 377.269 193.764 L 377.269 193.764 L 377.269 193.764 Q 377.123 193.559 377.123 193.268 L 377.123 193.268 L 377.123 193.268 Q 377.123 193.015 377.269 192.849 L 377.269 192.849 L 377.269 192.849 Q 377.414 192.684 377.648 192.684 L 377.648 192.684 L 377.648 192.684 Q 377.881 192.684 378.329 192.976 L 378.329 192.976 L 378.329 192.976 Q 378.913 193.326 379.486 193.53 L 379.486 193.53 L 379.486 193.53 Q 380.06 193.734 380.916 193.734 L 380.916 193.734 L 380.916 193.734 Q 381.967 193.734 382.551 193.365 L 382.551 193.365 L 382.551 193.365 Q 383.134 192.995 383.134 192.295 L 383.134 192.295 L 383.134 192.295 Q 383.134 191.867 382.92 191.604 L 382.92 191.604 L 382.92 191.604 Q 382.706 191.341 382.181 191.137 L 382.181 191.137 L 382.181 191.137 Q 381.656 190.933 380.644 190.719 L 380.644 190.719 L 380.644 190.719 Q 378.932 190.349 378.193 189.727 L 378.193 189.727 L 378.193 189.727 Q 377.453 189.104 377.453 188.034 L 377.453 188.034 L 377.453 188.034 Q 377.453 187.198 377.92 186.556 L 377.92 186.556 L 377.92 186.556 Q 378.387 185.913 379.214 185.544 L 379.214 185.544 L 379.214 185.544 Q 380.041 185.174 381.091 185.174 L 381.091 185.174 L 381.091 185.174 Q 381.85 185.174 382.56 185.378 L 382.56 185.378 L 382.56 185.378 Q 383.27 185.583 383.815 185.952 L 383.815 185.952 L 383.815 185.952 Q 384.477 186.419 384.477 186.925 L 384.477 186.925 L 384.477 186.925 Q 384.477 187.178 384.321 187.353 L 384.321 187.353 L 384.321 187.353 Q 384.165 187.528 383.951 187.528 L 383.951 187.528 L 383.951 187.528 Q 383.718 187.528 383.251 187.198 L 383.251 187.198 L 383.251 187.198 Q 382.706 186.847 382.22 186.653 L 382.22 186.653 L 382.22 186.653 Q 381.734 186.458 381.014 186.458 L 381.014 186.458 L 381.014 186.458 Q 380.099 186.458 379.545 186.867 L 379.545 186.867 L 379.545 186.867 Q 378.99 187.275 378.99 187.956 L 378.99 187.956 L 378.99 187.956 Q 378.99 188.384 379.195 188.647 L 379.195 188.647 L 379.195 188.647 Q 379.399 188.91 379.876 189.114 L 379.876 189.114 L 379.876 189.114 Q 380.352 189.318 381.247 189.513 L 381.247 189.513 L 381.247 189.513 Q 382.57 189.805 383.3 190.155 L 383.3 190.155 L 383.3 190.155 Q 384.029 190.505 384.341 191.011 L 384.341 191.011 L 384.341 191.011 Q 384.652 191.517 384.652 192.295 L 384.652 192.295 L 384.652 192.295 Q 384.652 193.52 383.621 194.27 L 383.621 194.27 L 383.621 194.27 Q 382.59 195.019 380.897 195.019 L 380.897 195.019 L 380.897 195.019 Z  M 297.239 181.069 L 297.239 181.069 Q 297.609 181.069 297.823 181.283 L 297.823 181.283 L 297.823 181.283 Q 298.037 181.497 298.037 181.828 L 298.037 181.828 L 298.037 194.201 L 298.037 194.201 Q 298.037 194.552 297.823 194.766 L 297.823 194.766 L 297.823 194.766 Q 297.609 194.98 297.239 194.98 L 297.239 194.98 L 297.239 194.98 Q 296.87 194.98 296.666 194.766 L 296.666 194.766 L 296.666 194.766 Q 296.461 194.552 296.461 194.201 L 296.461 194.201 L 296.461 193.151 L 296.461 193.151 Q 296.033 194.046 295.206 194.532 L 295.206 194.532 L 295.206 194.532 Q 294.38 195.019 293.271 195.019 L 293.271 195.019 L 293.271 195.019 Q 292.025 195.019 291.072 194.396 L 291.072 194.396 L 291.072 194.396 Q 290.119 193.773 289.594 192.655 L 289.594 192.655 L 289.594 192.655 Q 289.068 191.536 289.068 190.057 L 289.068 190.057 L 289.068 190.057 Q 289.068 188.598 289.594 187.489 L 289.594 187.489 L 289.594 187.489 Q 290.119 186.38 291.072 185.777 L 291.072 185.777 L 291.072 185.777 Q 292.025 185.174 293.271 185.174 L 293.271 185.174 L 293.271 185.174 Q 294.38 185.174 295.206 185.661 L 295.206 185.661 L 295.206 185.661 Q 296.033 186.147 296.461 187.042 L 296.461 187.042 L 296.461 181.828 L 296.461 181.828 Q 296.461 181.478 296.666 181.273 L 296.666 181.273 L 296.666 181.273 Q 296.87 181.069 297.239 181.069 L 297.239 181.069 L 297.239 181.069 Z  M 293.582 193.715 L 293.582 193.715 Q 294.963 193.715 295.712 192.771 L 295.712 192.771 L 295.712 192.771 Q 296.461 191.828 296.461 190.096 L 296.461 190.096 L 296.461 190.096 Q 296.461 188.365 295.712 187.431 L 295.712 187.431 L 295.712 187.431 Q 294.963 186.497 293.582 186.497 L 293.582 186.497 L 293.582 186.497 Q 292.201 186.497 291.432 187.431 L 291.432 187.431 L 291.432 187.431 Q 290.664 188.365 290.664 190.057 L 290.664 190.057 L 290.664 190.057 Q 290.664 191.789 291.432 192.752 L 291.432 192.752 L 291.432 192.752 Q 292.201 193.715 293.582 193.715 L 293.582 193.715 L 293.582 193.715 Z  M 308.29 192.684 L 308.29 192.684 Q 308.504 192.684 308.66 192.859 L 308.66 192.859 L 308.66 192.859 Q 308.815 193.034 308.815 193.306 L 308.815 193.306 L 308.815 193.306 Q 308.815 193.793 308.134 194.201 L 308.134 194.201 L 308.134 194.201 Q 307.434 194.61 306.656 194.814 L 306.656 194.814 L 306.656 194.814 Q 305.878 195.019 305.138 195.019 L 305.138 195.019 L 305.138 195.019 Q 302.94 195.019 301.666 193.715 L 301.666 193.715 L 301.666 193.715 Q 300.391 192.412 300.391 190.116 L 300.391 190.116 L 300.391 190.116 Q 300.391 188.657 300.955 187.538 L 300.955 187.538 L 300.955 187.538 Q 301.52 186.419 302.541 185.797 L 302.541 185.797 L 302.541 185.797 Q 303.562 185.174 304.866 185.174 L 304.866 185.174 L 304.866 185.174 Q 306.714 185.174 307.804 186.38 L 307.804 186.38 L 307.804 186.38 Q 308.893 187.587 308.893 189.649 L 308.893 189.649 L 308.893 189.649 Q 308.893 190.038 308.737 190.213 L 308.737 190.213 L 308.737 190.213 Q 308.582 190.388 308.232 190.388 L 308.232 190.388 L 301.967 190.388 L 301.967 190.388 Q 302.142 193.734 305.138 193.734 L 305.138 193.734 L 305.138 193.734 Q 305.897 193.734 306.442 193.53 L 306.442 193.53 L 306.442 193.53 Q 306.987 193.326 307.609 192.976 L 307.609 192.976 L 307.609 192.976 Q 308.115 192.684 308.29 192.684 L 308.29 192.684 L 308.29 192.684 Z  M 304.885 186.4 L 304.885 186.4 Q 303.64 186.4 302.891 187.178 L 302.891 187.178 L 302.891 187.178 Q 302.142 187.956 302.006 189.377 L 302.006 189.377 L 307.512 189.377 L 307.512 189.377 Q 307.473 187.937 306.792 187.168 L 306.792 187.168 L 306.792 187.168 Q 306.111 186.4 304.885 186.4 L 304.885 186.4 L 304.885 186.4 Z  M 409.516 176.138 L 409.516 176.138 Q 409.146 176.138 408.932 175.915 L 408.932 175.915 L 408.932 175.915 Q 408.718 175.691 408.718 175.321 L 408.718 175.321 L 408.718 163.103 L 408.718 163.103 Q 408.718 162.753 408.942 162.539 L 408.942 162.539 L 408.942 162.539 Q 409.165 162.325 409.535 162.325 L 409.535 162.325 L 416.617 162.325 L 416.617 162.325 Q 416.967 162.325 417.161 162.5 L 417.161 162.5 L 417.161 162.5 Q 417.356 162.675 417.356 163.006 L 417.356 163.006 L 417.356 163.006 Q 417.356 163.317 417.161 163.493 L 417.161 163.493 L 417.161 163.493 Q 416.967 163.668 416.617 163.668 L 416.617 163.668 L 410.294 163.668 L 410.294 168.395 L 416.228 168.395 L 416.228 168.395 Q 416.578 168.395 416.772 168.57 L 416.772 168.57 L 416.772 168.57 Q 416.967 168.745 416.967 169.076 L 416.967 169.076 L 416.967 169.076 Q 416.967 169.387 416.772 169.563 L 416.772 169.563 L 416.772 169.563 Q 416.578 169.738 416.228 169.738 L 416.228 169.738 L 410.294 169.738 L 410.294 175.321 L 410.294 175.321 Q 410.294 175.691 410.09 175.915 L 410.09 175.915 L 410.09 175.915 Q 409.885 176.138 409.516 176.138 L 409.516 176.138 L 409.516 176.138 Z  M 426.656 173.843 L 426.656 173.843 Q 426.87 173.843 427.025 174.018 L 427.025 174.018 L 427.025 174.018 Q 427.181 174.193 427.181 174.465 L 427.181 174.465 L 427.181 174.465 Q 427.181 174.952 426.5 175.36 L 426.5 175.36 L 426.5 175.36 Q 425.8 175.769 425.021 175.973 L 425.021 175.973 L 425.021 175.973 Q 424.243 176.177 423.504 176.177 L 423.504 176.177 L 423.504 176.177 Q 421.305 176.177 420.031 174.874 L 420.031 174.874 L 420.031 174.874 Q 418.757 173.57 418.757 171.275 L 418.757 171.275 L 418.757 171.275 Q 418.757 169.815 419.321 168.697 L 419.321 168.697 L 419.321 168.697 Q 419.885 167.578 420.907 166.956 L 420.907 166.956 L 420.907 166.956 Q 421.928 166.333 423.232 166.333 L 423.232 166.333 L 423.232 166.333 Q 425.08 166.333 426.169 167.539 L 426.169 167.539 L 426.169 167.539 Q 427.259 168.745 427.259 170.808 L 427.259 170.808 L 427.259 170.808 Q 427.259 171.197 427.103 171.372 L 427.103 171.372 L 427.103 171.372 Q 426.947 171.547 426.597 171.547 L 426.597 171.547 L 420.333 171.547 L 420.333 171.547 Q 420.508 174.893 423.504 174.893 L 423.504 174.893 L 423.504 174.893 Q 424.263 174.893 424.807 174.689 L 424.807 174.689 L 424.807 174.689 Q 425.352 174.485 425.975 174.135 L 425.975 174.135 L 425.975 174.135 Q 426.481 173.843 426.656 173.843 L 426.656 173.843 L 426.656 173.843 Z  M 423.251 167.559 L 423.251 167.559 Q 422.006 167.559 421.257 168.337 L 421.257 168.337 L 421.257 168.337 Q 420.508 169.115 420.372 170.535 L 420.372 170.535 L 425.877 170.535 L 425.877 170.535 Q 425.839 169.096 425.158 168.327 L 425.158 168.327 L 425.158 168.327 Q 424.477 167.559 423.251 167.559 L 423.251 167.559 L 423.251 167.559 Z  M 437.181 162.228 L 437.181 162.228 Q 437.551 162.228 437.765 162.442 L 437.765 162.442 L 437.765 162.442 Q 437.979 162.656 437.979 162.987 L 437.979 162.987 L 437.979 175.36 L 437.979 175.36 Q 437.979 175.71 437.765 175.924 L 437.765 175.924 L 437.765 175.924 Q 437.551 176.138 437.181 176.138 L 437.181 176.138 L 437.181 176.138 Q 436.811 176.138 436.607 175.924 L 436.607 175.924 L 436.607 175.924 Q 436.403 175.71 436.403 175.36 L 436.403 175.36 L 436.403 174.31 L 436.403 174.31 Q 435.975 175.205 435.148 175.691 L 435.148 175.691 L 435.148 175.691 Q 434.321 176.177 433.212 176.177 L 433.212 176.177 L 433.212 176.177 Q 431.967 176.177 431.014 175.555 L 431.014 175.555 L 431.014 175.555 Q 430.06 174.932 429.535 173.814 L 429.535 173.814 L 429.535 173.814 Q 429.01 172.695 429.01 171.216 L 429.01 171.216 L 429.01 171.216 Q 429.01 169.757 429.535 168.648 L 429.535 168.648 L 429.535 168.648 Q 430.06 167.539 431.014 166.936 L 431.014 166.936 L 431.014 166.936 Q 431.967 166.333 433.212 166.333 L 433.212 166.333 L 433.212 166.333 Q 434.321 166.333 435.148 166.819 L 435.148 166.819 L 435.148 166.819 Q 435.975 167.306 436.403 168.201 L 436.403 168.201 L 436.403 162.987 L 436.403 162.987 Q 436.403 162.636 436.607 162.432 L 436.607 162.432 L 436.607 162.432 Q 436.811 162.228 437.181 162.228 L 437.181 162.228 L 437.181 162.228 Z  M 433.523 174.874 L 433.523 174.874 Q 434.905 174.874 435.654 173.93 L 435.654 173.93 L 435.654 173.93 Q 436.403 172.987 436.403 171.255 L 436.403 171.255 L 436.403 171.255 Q 436.403 169.524 435.654 168.59 L 435.654 168.59 L 435.654 168.59 Q 434.905 167.656 433.523 167.656 L 433.523 167.656 L 433.523 167.656 Q 432.142 167.656 431.374 168.59 L 431.374 168.59 L 431.374 168.59 Q 430.605 169.524 430.605 171.216 L 430.605 171.216 L 430.605 171.216 Q 430.605 172.948 431.374 173.911 L 431.374 173.911 L 431.374 173.911 Q 432.142 174.874 433.523 174.874 L 433.523 174.874 L 433.523 174.874 Z  M 448.232 173.843 L 448.232 173.843 Q 448.446 173.843 448.601 174.018 L 448.601 174.018 L 448.601 174.018 Q 448.757 174.193 448.757 174.465 L 448.757 174.465 L 448.757 174.465 Q 448.757 174.952 448.076 175.36 L 448.076 175.36 L 448.076 175.36 Q 447.375 175.769 446.597 175.973 L 446.597 175.973 L 446.597 175.973 Q 445.819 176.177 445.08 176.177 L 445.08 176.177 L 445.08 176.177 Q 442.881 176.177 441.607 174.874 L 441.607 174.874 L 441.607 174.874 Q 440.333 173.57 440.333 171.275 L 440.333 171.275 L 440.333 171.275 Q 440.333 169.815 440.897 168.697 L 440.897 168.697 L 440.897 168.697 Q 441.461 167.578 442.482 166.956 L 442.482 166.956 L 442.482 166.956 Q 443.504 166.333 444.807 166.333 L 444.807 166.333 L 444.807 166.333 Q 446.656 166.333 447.745 167.539 L 447.745 167.539 L 447.745 167.539 Q 448.835 168.745 448.835 170.808 L 448.835 170.808 L 448.835 170.808 Q 448.835 171.197 448.679 171.372 L 448.679 171.372 L 448.679 171.372 Q 448.523 171.547 448.173 171.547 L 448.173 171.547 L 441.909 171.547 L 441.909 171.547 Q 442.084 174.893 445.08 174.893 L 445.08 174.893 L 445.08 174.893 Q 445.839 174.893 446.383 174.689 L 446.383 174.689 L 446.383 174.689 Q 446.928 174.485 447.551 174.135 L 447.551 174.135 L 447.551 174.135 Q 448.056 173.843 448.232 173.843 L 448.232 173.843 L 448.232 173.843 Z  M 444.827 167.559 L 444.827 167.559 Q 443.582 167.559 442.833 168.337 L 442.833 168.337 L 442.833 168.337 Q 442.084 169.115 441.947 170.535 L 441.947 170.535 L 447.453 170.535 L 447.453 170.535 Q 447.414 169.096 446.733 168.327 L 446.733 168.327 L 446.733 168.327 Q 446.053 167.559 444.827 167.559 L 444.827 167.559 L 444.827 167.559 Z  M 455.838 166.372 L 455.838 166.372 Q 456.656 166.314 456.656 167.033 L 456.656 167.033 L 456.656 167.033 Q 456.656 167.345 456.481 167.529 L 456.481 167.529 L 456.481 167.529 Q 456.305 167.714 455.877 167.753 L 455.877 167.753 L 455.294 167.812 L 455.294 167.812 Q 453.99 167.928 453.358 168.736 L 453.358 168.736 L 453.358 168.736 Q 452.726 169.543 452.726 170.633 L 452.726 170.633 L 452.726 175.36 L 452.726 175.36 Q 452.726 175.749 452.512 175.944 L 452.512 175.944 L 452.512 175.944 Q 452.298 176.138 451.947 176.138 L 451.947 176.138 L 451.947 176.138 Q 451.597 176.138 451.374 175.934 L 451.374 175.934 L 451.374 175.934 Q 451.15 175.73 451.15 175.36 L 451.15 175.36 L 451.15 167.15 L 451.15 167.15 Q 451.15 166.78 451.383 166.576 L 451.383 166.576 L 451.383 166.576 Q 451.617 166.372 451.947 166.372 L 451.947 166.372 L 451.947 166.372 Q 452.259 166.372 452.473 166.576 L 452.473 166.576 L 452.473 166.576 Q 452.687 166.78 452.687 167.131 L 452.687 167.131 L 452.687 168.22 L 452.687 168.22 Q 453.095 167.364 453.844 166.917 L 453.844 166.917 L 453.844 166.917 Q 454.593 166.469 455.566 166.391 L 455.566 166.391 L 455.838 166.372 L 455.838 166.372 Z  M 461.889 166.333 L 461.889 166.333 Q 465.449 166.333 465.449 170.068 L 465.449 170.068 L 465.449 175.36 L 465.449 175.36 Q 465.449 175.71 465.245 175.924 L 465.245 175.924 L 465.245 175.924 Q 465.041 176.138 464.691 176.138 L 464.691 176.138 L 464.691 176.138 Q 464.34 176.138 464.126 175.924 L 464.126 175.924 L 464.126 175.924 Q 463.912 175.71 463.912 175.36 L 463.912 175.36 L 463.912 174.426 L 463.912 174.426 Q 463.543 175.263 462.784 175.72 L 462.784 175.72 L 462.784 175.72 Q 462.025 176.177 461.033 176.177 L 461.033 176.177 L 461.033 176.177 Q 460.119 176.177 459.35 175.808 L 459.35 175.808 L 459.35 175.808 Q 458.582 175.438 458.134 174.777 L 458.134 174.777 L 458.134 174.777 Q 457.687 174.115 457.687 173.317 L 457.687 173.317 L 457.687 173.317 Q 457.687 172.247 458.231 171.654 L 458.231 171.654 L 458.231 171.654 Q 458.776 171.061 460.021 170.798 L 460.021 170.798 L 460.021 170.798 Q 461.267 170.535 463.484 170.535 L 463.484 170.535 L 463.912 170.535 L 463.912 169.893 L 463.912 169.893 Q 463.912 168.726 463.436 168.181 L 463.436 168.181 L 463.436 168.181 Q 462.959 167.636 461.889 167.636 L 461.889 167.636 L 461.889 167.636 Q 460.566 167.636 459.204 168.356 L 459.204 168.356 L 459.204 168.356 Q 458.679 168.687 458.465 168.687 L 458.465 168.687 L 458.465 168.687 Q 458.231 168.687 458.076 168.512 L 458.076 168.512 L 458.076 168.512 Q 457.92 168.337 457.92 168.064 L 457.92 168.064 L 457.92 168.064 Q 457.92 167.792 458.086 167.588 L 458.086 167.588 L 458.086 167.588 Q 458.251 167.384 458.621 167.17 L 458.621 167.17 L 458.621 167.17 Q 459.302 166.78 460.167 166.557 L 460.167 166.557 L 460.167 166.557 Q 461.033 166.333 461.889 166.333 L 461.889 166.333 L 461.889 166.333 Z  M 461.247 174.932 L 461.247 174.932 Q 462.414 174.932 463.163 174.144 L 463.163 174.144 L 463.163 174.144 Q 463.912 173.356 463.912 172.111 L 463.912 172.111 L 463.912 171.547 L 463.562 171.547 L 463.562 171.547 Q 461.85 171.547 460.955 171.693 L 460.955 171.693 L 460.955 171.693 Q 460.06 171.839 459.681 172.179 L 459.681 172.179 L 459.681 172.179 Q 459.302 172.52 459.302 173.181 L 459.302 173.181 L 459.302 173.181 Q 459.302 173.94 459.856 174.436 L 459.856 174.436 L 459.856 174.436 Q 460.41 174.932 461.247 174.932 L 461.247 174.932 L 461.247 174.932 Z  M 469.126 176.138 L 469.126 176.138 Q 468.776 176.138 468.552 175.934 L 468.552 175.934 L 468.552 175.934 Q 468.329 175.73 468.329 175.36 L 468.329 175.36 L 468.329 163.006 L 468.329 163.006 Q 468.329 162.636 468.552 162.432 L 468.552 162.432 L 468.552 162.432 Q 468.776 162.228 469.126 162.228 L 469.126 162.228 L 469.126 162.228 Q 469.457 162.228 469.681 162.432 L 469.681 162.432 L 469.681 162.432 Q 469.905 162.636 469.905 163.006 L 469.905 163.006 L 469.905 175.36 L 469.905 175.36 Q 469.905 175.73 469.681 175.934 L 469.681 175.934 L 469.681 175.934 Q 469.457 176.138 469.126 176.138 L 469.126 176.138 L 469.126 176.138 Z  M 295.216 176.197 L 295.216 176.197 Q 292.531 176.197 291.15 174.796 L 291.15 174.796 L 291.15 174.796 Q 289.769 173.395 289.769 170.671 L 289.769 170.671 L 289.769 163.045 L 289.769 163.045 Q 289.769 162.675 289.983 162.452 L 289.983 162.452 L 289.983 162.452 Q 290.197 162.228 290.566 162.228 L 290.566 162.228 L 290.566 162.228 Q 290.916 162.228 291.131 162.452 L 291.131 162.452 L 291.131 162.452 Q 291.345 162.675 291.345 163.045 L 291.345 163.045 L 291.345 170.808 L 291.345 170.808 Q 291.345 172.812 292.327 173.823 L 292.327 173.823 L 292.327 173.823 Q 293.309 174.835 295.216 174.835 L 295.216 174.835 L 295.216 174.835 Q 297.123 174.835 298.095 173.823 L 298.095 173.823 L 298.095 173.823 Q 299.068 172.812 299.068 170.808 L 299.068 170.808 L 299.068 163.045 L 299.068 163.045 Q 299.068 162.675 299.292 162.452 L 299.292 162.452 L 299.292 162.452 Q 299.516 162.228 299.866 162.228 L 299.866 162.228 L 299.866 162.228 Q 300.236 162.228 300.45 162.452 L 300.45 162.452 L 300.45 162.452 Q 300.664 162.675 300.664 163.045 L 300.664 163.045 L 300.664 170.671 L 300.664 170.671 Q 300.664 173.376 299.273 174.786 L 299.273 174.786 L 299.273 174.786 Q 297.881 176.197 295.216 176.197 L 295.216 176.197 L 295.216 176.197 Z  M 308.485 166.333 L 308.485 166.333 Q 311.889 166.333 311.889 170.088 L 311.889 170.088 L 311.889 175.36 L 311.889 175.36 Q 311.889 175.73 311.685 175.934 L 311.685 175.934 L 311.685 175.934 Q 311.481 176.138 311.111 176.138 L 311.111 176.138 L 311.111 176.138 Q 310.741 176.138 310.527 175.934 L 310.527 175.934 L 310.527 175.934 Q 310.313 175.73 310.313 175.36 L 310.313 175.36 L 310.313 170.185 L 310.313 170.185 Q 310.313 168.862 309.798 168.259 L 309.798 168.259 L 309.798 168.259 Q 309.282 167.656 308.154 167.656 L 308.154 167.656 L 308.154 167.656 Q 306.85 167.656 306.072 168.454 L 306.072 168.454 L 306.072 168.454 Q 305.294 169.251 305.294 170.613 L 305.294 170.613 L 305.294 175.36 L 305.294 175.36 Q 305.294 175.73 305.09 175.934 L 305.09 175.934 L 305.09 175.934 Q 304.885 176.138 304.516 176.138 L 304.516 176.138 L 304.516 176.138 Q 304.146 176.138 303.932 175.934 L 303.932 175.934 L 303.932 175.934 Q 303.718 175.73 303.718 175.36 L 303.718 175.36 L 303.718 167.15 L 303.718 167.15 Q 303.718 166.8 303.932 166.586 L 303.932 166.586 L 303.932 166.586 Q 304.146 166.372 304.516 166.372 L 304.516 166.372 L 304.516 166.372 Q 304.866 166.372 305.07 166.586 L 305.07 166.586 L 305.07 166.586 Q 305.274 166.8 305.274 167.131 L 305.274 167.131 L 305.274 168.123 L 305.274 168.123 Q 305.741 167.247 306.578 166.79 L 306.578 166.79 L 306.578 166.79 Q 307.415 166.333 308.485 166.333 L 308.485 166.333 L 308.485 166.333 Z  M 315.566 176.138 L 315.566 176.138 Q 315.216 176.138 314.992 175.934 L 314.992 175.934 L 314.992 175.934 Q 314.769 175.73 314.769 175.36 L 314.769 175.36 L 314.769 167.15 L 314.769 167.15 Q 314.769 166.78 314.992 166.576 L 314.992 166.576 L 314.992 166.576 Q 315.216 166.372 315.566 166.372 L 315.566 166.372 L 315.566 166.372 Q 315.916 166.372 316.13 166.576 L 316.13 166.576 L 316.13 166.576 Q 316.344 166.78 316.344 167.15 L 316.344 167.15 L 316.344 175.36 L 316.344 175.36 Q 316.344 175.749 316.13 175.944 L 316.13 175.944 L 316.13 175.944 Q 315.916 176.138 315.566 176.138 L 315.566 176.138 L 315.566 176.138 Z  M 315.566 164.329 L 315.566 164.329 Q 315.099 164.329 314.808 164.057 L 314.808 164.057 L 314.808 164.057 Q 314.516 163.784 314.516 163.337 L 314.516 163.337 L 314.516 163.337 Q 314.516 162.909 314.808 162.636 L 314.808 162.636 L 314.808 162.636 Q 315.099 162.364 315.566 162.364 L 315.566 162.364 L 315.566 162.364 Q 316.033 162.364 316.325 162.636 L 316.325 162.636 L 316.325 162.636 Q 316.617 162.909 316.617 163.337 L 316.617 163.337 L 316.617 163.337 Q 316.617 163.784 316.325 164.057 L 316.325 164.057 L 316.325 164.057 Q 316.033 164.329 315.566 164.329 L 315.566 164.329 L 315.566 164.329 Z  M 326.111 166.858 L 326.111 166.858 Q 326.325 166.391 326.792 166.391 L 326.792 166.391 L 326.792 166.391 Q 327.084 166.391 327.317 166.586 L 327.317 166.586 L 327.317 166.586 Q 327.551 166.78 327.551 167.072 L 327.551 167.072 L 327.551 167.072 Q 327.551 167.247 327.473 167.384 L 327.473 167.384 L 323.679 175.555 L 323.679 175.555 Q 323.562 175.808 323.329 175.954 L 323.329 175.954 L 323.329 175.954 Q 323.095 176.099 322.823 176.099 L 322.823 176.099 L 322.823 176.099 Q 322.57 176.099 322.337 175.954 L 322.337 175.954 L 322.337 175.954 Q 322.103 175.808 321.967 175.555 L 321.967 175.555 L 318.193 167.384 L 318.193 167.384 Q 318.115 167.247 318.115 167.092 L 318.115 167.092 L 318.115 167.092 Q 318.115 166.8 318.378 166.586 L 318.378 166.586 L 318.378 166.586 Q 318.64 166.372 318.951 166.372 L 318.951 166.372 L 318.951 166.372 Q 319.146 166.372 319.331 166.489 L 319.331 166.489 L 319.331 166.489 Q 319.516 166.605 319.613 166.819 L 319.613 166.819 L 322.862 174.115 L 326.111 166.858 L 326.111 166.858 Z  M 336.617 173.843 L 336.617 173.843 Q 336.831 173.843 336.986 174.018 L 336.986 174.018 L 336.986 174.018 Q 337.142 174.193 337.142 174.465 L 337.142 174.465 L 337.142 174.465 Q 337.142 174.952 336.461 175.36 L 336.461 175.36 L 336.461 175.36 Q 335.761 175.769 334.983 175.973 L 334.983 175.973 L 334.983 175.973 Q 334.204 176.177 333.465 176.177 L 333.465 176.177 L 333.465 176.177 Q 331.267 176.177 329.992 174.874 L 329.992 174.874 L 329.992 174.874 Q 328.718 173.57 328.718 171.275 L 328.718 171.275 L 328.718 171.275 Q 328.718 169.815 329.282 168.697 L 329.282 168.697 L 329.282 168.697 Q 329.846 167.578 330.868 166.956 L 330.868 166.956 L 330.868 166.956 Q 331.889 166.333 333.193 166.333 L 333.193 166.333 L 333.193 166.333 Q 335.041 166.333 336.13 167.539 L 336.13 167.539 L 336.13 167.539 Q 337.22 168.745 337.22 170.808 L 337.22 170.808 L 337.22 170.808 Q 337.22 171.197 337.064 171.372 L 337.064 171.372 L 337.064 171.372 Q 336.909 171.547 336.558 171.547 L 336.558 171.547 L 330.294 171.547 L 330.294 171.547 Q 330.469 174.893 333.465 174.893 L 333.465 174.893 L 333.465 174.893 Q 334.224 174.893 334.769 174.689 L 334.769 174.689 L 334.769 174.689 Q 335.313 174.485 335.936 174.135 L 335.936 174.135 L 335.936 174.135 Q 336.442 173.843 336.617 173.843 L 336.617 173.843 L 336.617 173.843 Z  M 333.212 167.559 L 333.212 167.559 Q 331.967 167.559 331.218 168.337 L 331.218 168.337 L 331.218 168.337 Q 330.469 169.115 330.333 170.535 L 330.333 170.535 L 335.839 170.535 L 335.839 170.535 Q 335.8 169.096 335.119 168.327 L 335.119 168.327 L 335.119 168.327 Q 334.438 167.559 333.212 167.559 L 333.212 167.559 L 333.212 167.559 Z  M 344.224 166.372 L 344.224 166.372 Q 345.041 166.314 345.041 167.033 L 345.041 167.033 L 345.041 167.033 Q 345.041 167.345 344.866 167.529 L 344.866 167.529 L 344.866 167.529 Q 344.691 167.714 344.263 167.753 L 344.263 167.753 L 343.679 167.812 L 343.679 167.812 Q 342.376 167.928 341.743 168.736 L 341.743 168.736 L 341.743 168.736 Q 341.111 169.543 341.111 170.633 L 341.111 170.633 L 341.111 175.36 L 341.111 175.36 Q 341.111 175.749 340.897 175.944 L 340.897 175.944 L 340.897 175.944 Q 340.683 176.138 340.333 176.138 L 340.333 176.138 L 340.333 176.138 Q 339.983 176.138 339.759 175.934 L 339.759 175.934 L 339.759 175.934 Q 339.535 175.73 339.535 175.36 L 339.535 175.36 L 339.535 167.15 L 339.535 167.15 Q 339.535 166.78 339.769 166.576 L 339.769 166.576 L 339.769 166.576 Q 340.002 166.372 340.333 166.372 L 340.333 166.372 L 340.333 166.372 Q 340.644 166.372 340.858 166.576 L 340.858 166.576 L 340.858 166.576 Q 341.072 166.78 341.072 167.131 L 341.072 167.131 L 341.072 168.22 L 341.072 168.22 Q 341.481 167.364 342.23 166.917 L 342.23 166.917 L 342.23 166.917 Q 342.979 166.469 343.951 166.391 L 343.951 166.391 L 344.224 166.372 L 344.224 166.372 Z  M 349.593 176.177 L 349.593 176.177 Q 348.699 176.177 347.891 175.963 L 347.891 175.963 L 347.891 175.963 Q 347.084 175.749 346.461 175.36 L 346.461 175.36 L 346.461 175.36 Q 346.111 175.127 345.965 174.922 L 345.965 174.922 L 345.965 174.922 Q 345.819 174.718 345.819 174.426 L 345.819 174.426 L 345.819 174.426 Q 345.819 174.173 345.965 174.008 L 345.965 174.008 L 345.965 174.008 Q 346.111 173.843 346.344 173.843 L 346.344 173.843 L 346.344 173.843 Q 346.578 173.843 347.025 174.135 L 347.025 174.135 L 347.025 174.135 Q 347.609 174.485 348.183 174.689 L 348.183 174.689 L 348.183 174.689 Q 348.757 174.893 349.613 174.893 L 349.613 174.893 L 349.613 174.893 Q 350.664 174.893 351.247 174.524 L 351.247 174.524 L 351.247 174.524 Q 351.831 174.154 351.831 173.454 L 351.831 173.454 L 351.831 173.454 Q 351.831 173.026 351.617 172.763 L 351.617 172.763 L 351.617 172.763 Q 351.403 172.5 350.878 172.296 L 350.878 172.296 L 350.878 172.296 Q 350.352 172.092 349.341 171.878 L 349.341 171.878 L 349.341 171.878 Q 347.628 171.508 346.889 170.885 L 346.889 170.885 L 346.889 170.885 Q 346.15 170.263 346.15 169.193 L 346.15 169.193 L 346.15 169.193 Q 346.15 168.356 346.617 167.714 L 346.617 167.714 L 346.617 167.714 Q 347.084 167.072 347.911 166.703 L 347.911 166.703 L 347.911 166.703 Q 348.737 166.333 349.788 166.333 L 349.788 166.333 L 349.788 166.333 Q 350.547 166.333 351.257 166.537 L 351.257 166.537 L 351.257 166.537 Q 351.967 166.742 352.512 167.111 L 352.512 167.111 L 352.512 167.111 Q 353.173 167.578 353.173 168.084 L 353.173 168.084 L 353.173 168.084 Q 353.173 168.337 353.018 168.512 L 353.018 168.512 L 353.018 168.512 Q 352.862 168.687 352.648 168.687 L 352.648 168.687 L 352.648 168.687 Q 352.414 168.687 351.948 168.356 L 351.948 168.356 L 351.948 168.356 Q 351.403 168.006 350.916 167.812 L 350.916 167.812 L 350.916 167.812 Q 350.43 167.617 349.71 167.617 L 349.71 167.617 L 349.71 167.617 Q 348.796 167.617 348.241 168.026 L 348.241 168.026 L 348.241 168.026 Q 347.687 168.434 347.687 169.115 L 347.687 169.115 L 347.687 169.115 Q 347.687 169.543 347.891 169.806 L 347.891 169.806 L 347.891 169.806 Q 348.095 170.068 348.572 170.273 L 348.572 170.273 L 348.572 170.273 Q 349.049 170.477 349.944 170.671 L 349.944 170.671 L 349.944 170.671 Q 351.267 170.963 351.996 171.314 L 351.996 171.314 L 351.996 171.314 Q 352.726 171.664 353.037 172.17 L 353.037 172.17 L 353.037 172.17 Q 353.348 172.675 353.348 173.454 L 353.348 173.454 L 353.348 173.454 Q 353.348 174.679 352.317 175.428 L 352.317 175.428 L 352.317 175.428 Q 351.286 176.177 349.593 176.177 L 349.593 176.177 L 349.593 176.177 Z  M 356.539 176.138 L 356.539 176.138 Q 356.189 176.138 355.965 175.934 L 355.965 175.934 L 355.965 175.934 Q 355.741 175.73 355.741 175.36 L 355.741 175.36 L 355.741 167.15 L 355.741 167.15 Q 355.741 166.78 355.965 166.576 L 355.965 166.576 L 355.965 166.576 Q 356.189 166.372 356.539 166.372 L 356.539 166.372 L 356.539 166.372 Q 356.889 166.372 357.103 166.576 L 357.103 166.576 L 357.103 166.576 Q 357.317 166.78 357.317 167.15 L 357.317 167.15 L 357.317 175.36 L 357.317 175.36 Q 357.317 175.749 357.103 175.944 L 357.103 175.944 L 357.103 175.944 Q 356.889 176.138 356.539 176.138 L 356.539 176.138 L 356.539 176.138 Z  M 356.539 164.329 L 356.539 164.329 Q 356.072 164.329 355.78 164.057 L 355.78 164.057 L 355.78 164.057 Q 355.488 163.784 355.488 163.337 L 355.488 163.337 L 355.488 163.337 Q 355.488 162.909 355.78 162.636 L 355.78 162.636 L 355.78 162.636 Q 356.072 162.364 356.539 162.364 L 356.539 162.364 L 356.539 162.364 Q 357.006 162.364 357.298 162.636 L 357.298 162.636 L 357.298 162.636 Q 357.59 162.909 357.59 163.337 L 357.59 163.337 L 357.59 163.337 Q 357.59 163.784 357.298 164.057 L 357.298 164.057 L 357.298 164.057 Q 357.006 164.329 356.539 164.329 L 356.539 164.329 L 356.539 164.329 Z  M 367.862 162.228 L 367.862 162.228 Q 368.232 162.228 368.446 162.442 L 368.446 162.442 L 368.446 162.442 Q 368.66 162.656 368.66 162.987 L 368.66 162.987 L 368.66 175.36 L 368.66 175.36 Q 368.66 175.71 368.446 175.924 L 368.446 175.924 L 368.446 175.924 Q 368.232 176.138 367.862 176.138 L 367.862 176.138 L 367.862 176.138 Q 367.492 176.138 367.288 175.924 L 367.288 175.924 L 367.288 175.924 Q 367.084 175.71 367.084 175.36 L 367.084 175.36 L 367.084 174.31 L 367.084 174.31 Q 366.656 175.205 365.829 175.691 L 365.829 175.691 L 365.829 175.691 Q 365.002 176.177 363.893 176.177 L 363.893 176.177 L 363.893 176.177 Q 362.648 176.177 361.695 175.555 L 361.695 175.555 L 361.695 175.555 Q 360.741 174.932 360.216 173.814 L 360.216 173.814 L 360.216 173.814 Q 359.691 172.695 359.691 171.216 L 359.691 171.216 L 359.691 171.216 Q 359.691 169.757 360.216 168.648 L 360.216 168.648 L 360.216 168.648 Q 360.741 167.539 361.695 166.936 L 361.695 166.936 L 361.695 166.936 Q 362.648 166.333 363.893 166.333 L 363.893 166.333 L 363.893 166.333 Q 365.002 166.333 365.829 166.819 L 365.829 166.819 L 365.829 166.819 Q 366.656 167.306 367.084 168.201 L 367.084 168.201 L 367.084 162.987 L 367.084 162.987 Q 367.084 162.636 367.288 162.432 L 367.288 162.432 L 367.288 162.432 Q 367.492 162.228 367.862 162.228 L 367.862 162.228 L 367.862 162.228 Z  M 364.204 174.874 L 364.204 174.874 Q 365.586 174.874 366.335 173.93 L 366.335 173.93 L 366.335 173.93 Q 367.084 172.987 367.084 171.255 L 367.084 171.255 L 367.084 171.255 Q 367.084 169.524 366.335 168.59 L 366.335 168.59 L 366.335 168.59 Q 365.586 167.656 364.204 167.656 L 364.204 167.656 L 364.204 167.656 Q 362.823 167.656 362.055 168.59 L 362.055 168.59 L 362.055 168.59 Q 361.286 169.524 361.286 171.216 L 361.286 171.216 L 361.286 171.216 Q 361.286 172.948 362.055 173.911 L 362.055 173.911 L 362.055 173.911 Q 362.823 174.874 364.204 174.874 L 364.204 174.874 L 364.204 174.874 Z  M 375.449 166.333 L 375.449 166.333 Q 379.01 166.333 379.01 170.068 L 379.01 170.068 L 379.01 175.36 L 379.01 175.36 Q 379.01 175.71 378.806 175.924 L 378.806 175.924 L 378.806 175.924 Q 378.601 176.138 378.251 176.138 L 378.251 176.138 L 378.251 176.138 Q 377.901 176.138 377.687 175.924 L 377.687 175.924 L 377.687 175.924 Q 377.473 175.71 377.473 175.36 L 377.473 175.36 L 377.473 174.426 L 377.473 174.426 Q 377.103 175.263 376.344 175.72 L 376.344 175.72 L 376.344 175.72 Q 375.586 176.177 374.593 176.177 L 374.593 176.177 L 374.593 176.177 Q 373.679 176.177 372.911 175.808 L 372.911 175.808 L 372.911 175.808 Q 372.142 175.438 371.695 174.777 L 371.695 174.777 L 371.695 174.777 Q 371.247 174.115 371.247 173.317 L 371.247 173.317 L 371.247 173.317 Q 371.247 172.247 371.792 171.654 L 371.792 171.654 L 371.792 171.654 Q 372.337 171.061 373.582 170.798 L 373.582 170.798 L 373.582 170.798 Q 374.827 170.535 377.045 170.535 L 377.045 170.535 L 377.473 170.535 L 377.473 169.893 L 377.473 169.893 Q 377.473 168.726 376.996 168.181 L 376.996 168.181 L 376.996 168.181 Q 376.52 167.636 375.449 167.636 L 375.449 167.636 L 375.449 167.636 Q 374.127 167.636 372.765 168.356 L 372.765 168.356 L 372.765 168.356 Q 372.239 168.687 372.025 168.687 L 372.025 168.687 L 372.025 168.687 Q 371.792 168.687 371.636 168.512 L 371.636 168.512 L 371.636 168.512 Q 371.481 168.337 371.481 168.064 L 371.481 168.064 L 371.481 168.064 Q 371.481 167.792 371.646 167.588 L 371.646 167.588 L 371.646 167.588 Q 371.811 167.384 372.181 167.17 L 372.181 167.17 L 372.181 167.17 Q 372.862 166.78 373.728 166.557 L 373.728 166.557 L 373.728 166.557 Q 374.593 166.333 375.449 166.333 L 375.449 166.333 L 375.449 166.333 Z  M 374.807 174.932 L 374.807 174.932 Q 375.975 174.932 376.724 174.144 L 376.724 174.144 L 376.724 174.144 Q 377.473 173.356 377.473 172.111 L 377.473 172.111 L 377.473 171.547 L 377.123 171.547 L 377.123 171.547 Q 375.411 171.547 374.516 171.693 L 374.516 171.693 L 374.516 171.693 Q 373.621 171.839 373.241 172.179 L 373.241 172.179 L 373.241 172.179 Q 372.862 172.52 372.862 173.181 L 372.862 173.181 L 372.862 173.181 Q 372.862 173.94 373.416 174.436 L 373.416 174.436 L 373.416 174.436 Q 373.971 174.932 374.807 174.932 L 374.807 174.932 L 374.807 174.932 Z  M 389.496 162.228 L 389.496 162.228 Q 389.866 162.228 390.08 162.442 L 390.08 162.442 L 390.08 162.442 Q 390.294 162.656 390.294 162.987 L 390.294 162.987 L 390.294 175.36 L 390.294 175.36 Q 390.294 175.71 390.08 175.924 L 390.08 175.924 L 390.08 175.924 Q 389.866 176.138 389.496 176.138 L 389.496 176.138 L 389.496 176.138 Q 389.127 176.138 388.922 175.924 L 388.922 175.924 L 388.922 175.924 Q 388.718 175.71 388.718 175.36 L 388.718 175.36 L 388.718 174.31 L 388.718 174.31 Q 388.29 175.205 387.463 175.691 L 387.463 175.691 L 387.463 175.691 Q 386.636 176.177 385.527 176.177 L 385.527 176.177 L 385.527 176.177 Q 384.282 176.177 383.329 175.555 L 383.329 175.555 L 383.329 175.555 Q 382.376 174.932 381.85 173.814 L 381.85 173.814 L 381.85 173.814 Q 381.325 172.695 381.325 171.216 L 381.325 171.216 L 381.325 171.216 Q 381.325 169.757 381.85 168.648 L 381.85 168.648 L 381.85 168.648 Q 382.376 167.539 383.329 166.936 L 383.329 166.936 L 383.329 166.936 Q 384.282 166.333 385.527 166.333 L 385.527 166.333 L 385.527 166.333 Q 386.636 166.333 387.463 166.819 L 387.463 166.819 L 387.463 166.819 Q 388.29 167.306 388.718 168.201 L 388.718 168.201 L 388.718 162.987 L 388.718 162.987 Q 388.718 162.636 388.922 162.432 L 388.922 162.432 L 388.922 162.432 Q 389.127 162.228 389.496 162.228 L 389.496 162.228 L 389.496 162.228 Z  M 385.839 174.874 L 385.839 174.874 Q 387.22 174.874 387.969 173.93 L 387.969 173.93 L 387.969 173.93 Q 388.718 172.987 388.718 171.255 L 388.718 171.255 L 388.718 171.255 Q 388.718 169.524 387.969 168.59 L 387.969 168.59 L 387.969 168.59 Q 387.22 167.656 385.839 167.656 L 385.839 167.656 L 385.839 167.656 Q 384.457 167.656 383.689 168.59 L 383.689 168.59 L 383.689 168.59 Q 382.92 169.524 382.92 171.216 L 382.92 171.216 L 382.92 171.216 Q 382.92 172.948 383.689 173.911 L 383.689 173.911 L 383.689 173.911 Q 384.457 174.874 385.839 174.874 L 385.839 174.874 L 385.839 174.874 Z  M 400.547 173.843 L 400.547 173.843 Q 400.761 173.843 400.916 174.018 L 400.916 174.018 L 400.916 174.018 Q 401.072 174.193 401.072 174.465 L 401.072 174.465 L 401.072 174.465 Q 401.072 174.952 400.391 175.36 L 400.391 175.36 L 400.391 175.36 Q 399.691 175.769 398.912 175.973 L 398.912 175.973 L 398.912 175.973 Q 398.134 176.177 397.395 176.177 L 397.395 176.177 L 397.395 176.177 Q 395.197 176.177 393.922 174.874 L 393.922 174.874 L 393.922 174.874 Q 392.648 173.57 392.648 171.275 L 392.648 171.275 L 392.648 171.275 Q 392.648 169.815 393.212 168.697 L 393.212 168.697 L 393.212 168.697 Q 393.776 167.578 394.798 166.956 L 394.798 166.956 L 394.798 166.956 Q 395.819 166.333 397.123 166.333 L 397.123 166.333 L 397.123 166.333 Q 398.971 166.333 400.06 167.539 L 400.06 167.539 L 400.06 167.539 Q 401.15 168.745 401.15 170.808 L 401.15 170.808 L 401.15 170.808 Q 401.15 171.197 400.994 171.372 L 400.994 171.372 L 400.994 171.372 Q 400.839 171.547 400.488 171.547 L 400.488 171.547 L 394.224 171.547 L 394.224 171.547 Q 394.399 174.893 397.395 174.893 L 397.395 174.893 L 397.395 174.893 Q 398.154 174.893 398.698 174.689 L 398.698 174.689 L 398.698 174.689 Q 399.243 174.485 399.866 174.135 L 399.866 174.135 L 399.866 174.135 Q 400.372 173.843 400.547 173.843 L 400.547 173.843 L 400.547 173.843 Z  M 397.142 167.559 L 397.142 167.559 Q 395.897 167.559 395.148 168.337 L 395.148 168.337 L 395.148 168.337 Q 394.399 169.115 394.263 170.535 L 394.263 170.535 L 399.769 170.535 L 399.769 170.535 Q 399.73 169.096 399.049 168.327 L 399.049 168.327 L 399.049 168.327 Q 398.368 167.559 397.142 167.559 L 397.142 167.559 L 397.142 167.559 Z " fill-rule="evenodd" fill="rgb(102,100,100)"/></g></svg>