<?xml version="1.0" standalone="no"?><!-- Generator: Gravit.io --><svg xmlns="http://www.w3.org/2000/svg" xmlns:xlink="http://www.w3.org/1999/xlink" style="isolation:isolate" viewBox="116.22 245.75 362.835 115.185" width="362.835" height="115.185"><g><g><g><radialGradient id="_rgradient_1" fx="0.4976635514018688" fy="0.4900702336056586" cx="0.5" cy="0.5" r="0.5" gradientTransform="matrix(103.618,-5.494,5.24,83.448,88.383,248.332)" gradientUnits="userSpaceOnUse"><stop offset="0%" stop-opacity="1" style="stop-color:rgb(255,255,255)"/><stop offset="100%" stop-opacity="1" style="stop-color:rgb(164,164,164)"/></radialGradient><circle vector-effect="non-scaling-stroke" cx="172.11001422996927" cy="280.8750245271299" r="35.12502452712985" fill="url(#_rgradient_1)"/><linearGradient id="_lgradient_2" x1="0.0022624434389139914" y1="0.6926359261960697" x2="0.9253393665158373" y2="0.2909551477302543" gradientTransform="matrix(128.662,0,0,113.051,118.355,247.885)" gradientUnits="userSpaceOnUse"><stop offset="0%" stop-opacity="1" style="stop-color:rgb(191,120,20)"/><stop offset="49.56521739130435%" stop-opacity="1" style="stop-color:rgb(253,191,0)"/><stop offset="100%" stop-opacity="1" style="stop-color:rgb(212,161,0)"/></linearGradient><path d=" M 118.355 272.53 Q 146.369 293.405 165.318 290.19 C 187.053 286.503 204.712 263.41 209.758 247.885 L 247.018 315.612 Q 241.778 349.184 215.774 358.305 Q 189.77 367.426 151.734 344.915 L 118.355 272.53 Z " fill="url(#_lgradient_2)"/><linearGradient id="_lgradient_3" x1="0.20154690618762464" y1="0.6984131693214242" x2="0.8809880239520955" y2="0.3572791793312508" gradientTransform="matrix(129.633,0,0,102.928,116.22,257.976)" gradientUnits="userSpaceOnUse"><stop offset="2.1739130434782608%" stop-opacity="1" style="stop-color:rgb(194,127,38)"/><stop offset="44.13296109479239%" stop-opacity="1" style="stop-color:rgb(219,189,148)"/><stop offset="58.78278853482464%" stop-opacity="1" style="stop-color:rgb(238,236,233)"/><stop offset="74.91628914713415%" stop-opacity="1" style="stop-color:rgb(246,217,131)"/><stop offset="100%" stop-opacity="1" style="stop-color:rgb(255,195,15)"/></linearGradient><path d=" M 116.22 280.099 C 117.967 285.532 151.734 297.37 174.245 294.653 C 195.442 292.095 207.041 277.382 210.146 257.976 L 245.853 318.523 Q 241.778 349.184 215.774 358.305 Q 189.77 367.426 150.957 344.527 L 116.22 280.099 Z " fill="url(#_lgradient_3)"/></g></g><path d=" M 298.862 337.328 L 298.862 337.328 Q 294.811 337.328 292.727 335.214 L 292.727 335.214 L 292.727 335.214 Q 290.642 333.101 290.642 328.991 L 290.642 328.991 L 290.642 317.483 L 290.642 317.483 Q 290.642 316.925 290.965 316.588 L 290.965 316.588 L 290.965 316.588 Q 291.288 316.25 291.846 316.25 L 291.846 316.25 L 291.846 316.25 Q 292.374 316.25 292.697 316.588 L 292.697 316.588 L 292.697 316.588 Q 293.02 316.925 293.02 317.483 L 293.02 317.483 L 293.02 329.196 L 293.02 329.196 Q 293.02 332.22 294.503 333.747 L 294.503 333.747 L 294.503 333.747 Q 295.985 335.273 298.862 335.273 L 298.862 335.273 L 298.862 335.273 Q 301.739 335.273 303.207 333.747 L 303.207 333.747 L 303.207 333.747 Q 304.675 332.22 304.675 329.196 L 304.675 329.196 L 304.675 317.483 L 304.675 317.483 Q 304.675 316.925 305.012 316.588 L 305.012 316.588 L 305.012 316.588 Q 305.35 316.25 305.878 316.25 L 305.878 316.25 L 305.878 316.25 Q 306.436 316.25 306.759 316.588 L 306.759 316.588 L 306.759 316.588 Q 307.082 316.925 307.082 317.483 L 307.082 317.483 L 307.082 328.991 L 307.082 328.991 Q 307.082 333.071 304.983 335.2 L 304.983 335.2 L 304.983 335.2 Q 302.884 337.328 298.862 337.328 L 298.862 337.328 L 298.862 337.328 Z  M 313.247 337.24 L 313.247 337.24 Q 312.689 337.24 312.366 336.903 L 312.366 336.903 L 312.366 336.903 Q 312.043 336.565 312.043 336.007 L 312.043 336.007 L 312.043 317.571 L 312.043 317.571 Q 312.043 317.043 312.381 316.72 L 312.381 316.72 L 312.381 316.72 Q 312.719 316.397 313.276 316.397 L 313.276 316.397 L 323.962 316.397 L 323.962 316.397 Q 324.491 316.397 324.784 316.661 L 324.784 316.661 L 324.784 316.661 Q 325.078 316.925 325.078 317.424 L 325.078 317.424 L 325.078 317.424 Q 325.078 317.894 324.784 318.158 L 324.784 318.158 L 324.784 318.158 Q 324.491 318.422 323.962 318.422 L 323.962 318.422 L 314.421 318.422 L 314.421 325.556 L 323.375 325.556 L 323.375 325.556 Q 323.904 325.556 324.197 325.82 L 324.197 325.82 L 324.197 325.82 Q 324.491 326.084 324.491 326.584 L 324.491 326.584 L 324.491 326.584 Q 324.491 327.053 324.197 327.317 L 324.197 327.317 L 324.197 327.317 Q 323.904 327.582 323.375 327.582 L 323.375 327.582 L 314.421 327.582 L 314.421 336.007 L 314.421 336.007 Q 314.421 336.565 314.113 336.903 L 314.113 336.903 L 314.113 336.903 Q 313.805 337.24 313.247 337.24 L 313.247 337.24 L 313.247 337.24 Z  M 346.215 335.714 L 346.215 335.714 Q 346.332 335.948 346.332 336.213 L 346.332 336.213 L 346.332 336.213 Q 346.332 336.653 345.995 336.947 L 345.995 336.947 L 345.995 336.947 Q 345.657 337.24 345.187 337.24 L 345.187 337.24 L 345.187 337.24 Q 344.454 337.24 344.16 336.536 L 344.16 336.536 L 342.076 331.78 L 331.008 331.78 L 328.894 336.536 L 328.894 336.536 Q 328.601 337.24 327.867 337.24 L 327.867 337.24 L 327.867 337.24 Q 327.397 337.24 327.045 336.932 L 327.045 336.932 L 327.045 336.932 Q 326.693 336.624 326.693 336.183 L 326.693 336.183 L 326.693 336.183 Q 326.693 335.948 326.81 335.714 L 326.81 335.714 L 335.206 317.043 L 335.206 317.043 Q 335.382 316.632 335.734 316.426 L 335.734 316.426 L 335.734 316.426 Q 336.087 316.221 336.498 316.221 L 336.498 316.221 L 336.498 316.221 Q 336.938 316.221 337.29 316.441 L 337.29 316.441 L 337.29 316.441 Q 337.643 316.661 337.819 317.043 L 337.819 317.043 L 346.215 335.714 L 346.215 335.714 Z  M 336.527 319.244 L 331.889 329.783 L 341.195 329.783 L 336.527 319.244 L 336.527 319.244 Z  M 350.912 337.093 L 350.912 337.093 Q 350.413 337.093 350.075 336.785 L 350.075 336.785 L 350.075 336.785 Q 349.738 336.477 349.738 335.978 L 349.738 335.978 L 349.738 317.483 L 349.738 317.483 Q 349.738 316.925 350.061 316.588 L 350.061 316.588 L 350.061 316.588 Q 350.384 316.25 350.941 316.25 L 350.941 316.25 L 350.941 316.25 Q 351.499 316.25 351.822 316.588 L 351.822 316.588 L 351.822 316.588 Q 352.145 316.925 352.145 317.483 L 352.145 317.483 L 352.145 335.038 L 361.627 335.038 L 361.627 335.038 Q 362.156 335.038 362.449 335.303 L 362.449 335.303 L 362.449 335.303 Q 362.743 335.567 362.743 336.066 L 362.743 336.066 L 362.743 336.066 Q 362.743 336.565 362.449 336.829 L 362.449 336.829 L 362.449 336.829 Q 362.156 337.093 361.627 337.093 L 361.627 337.093 L 350.912 337.093 L 350.912 337.093 Z  M 302.532 295.634 L 302.532 295.634 Q 304.323 296.104 305.306 297.396 L 305.306 297.396 L 305.306 297.396 Q 306.289 298.688 306.289 300.625 L 306.289 300.625 L 306.289 300.625 Q 306.289 303.355 304.499 304.808 L 304.499 304.808 L 304.499 304.808 Q 302.708 306.262 299.42 306.262 L 299.42 306.262 L 292.022 306.262 L 292.022 306.262 Q 291.464 306.262 291.127 305.939 L 291.127 305.939 L 291.127 305.939 Q 290.789 305.616 290.789 305.087 L 290.789 305.087 L 290.789 286.739 L 290.789 286.739 Q 290.789 286.211 291.127 285.888 L 291.127 285.888 L 291.127 285.888 Q 291.464 285.565 292.022 285.565 L 292.022 285.565 L 299.097 285.565 L 299.097 285.565 Q 302.297 285.565 304.058 286.974 L 304.058 286.974 L 304.058 286.974 Q 305.82 288.383 305.82 290.967 L 305.82 290.967 L 305.82 290.967 Q 305.82 292.64 304.954 293.844 L 304.954 293.844 L 304.954 293.844 Q 304.088 295.047 302.532 295.634 L 302.532 295.634 L 302.532 295.634 Z  M 293.167 287.561 L 293.167 294.754 L 298.745 294.754 L 298.745 294.754 Q 301.064 294.754 302.253 293.814 L 302.253 293.814 L 302.253 293.814 Q 303.442 292.875 303.442 291.084 L 303.442 291.084 L 303.442 291.084 Q 303.442 287.561 298.745 287.561 L 298.745 287.561 L 293.167 287.561 L 293.167 287.561 Z  M 299.185 304.265 L 299.185 304.265 Q 301.622 304.265 302.781 303.37 L 302.781 303.37 L 302.781 303.37 Q 303.941 302.475 303.941 300.566 L 303.941 300.566 L 303.941 300.566 Q 303.941 296.75 299.185 296.75 L 299.185 296.75 L 293.167 296.75 L 293.167 304.265 L 299.185 304.265 L 299.185 304.265 Z  M 311.779 306.408 L 311.779 306.408 Q 311.221 306.408 310.899 306.071 L 310.899 306.071 L 310.899 306.071 Q 310.576 305.733 310.576 305.175 L 310.576 305.175 L 310.576 286.651 L 310.576 286.651 Q 310.576 286.093 310.899 285.756 L 310.899 285.756 L 310.899 285.756 Q 311.221 285.418 311.779 285.418 L 311.779 285.418 L 311.779 285.418 Q 312.337 285.418 312.66 285.756 L 312.66 285.756 L 312.66 285.756 Q 312.983 286.093 312.983 286.651 L 312.983 286.651 L 312.983 305.175 L 312.983 305.175 Q 312.983 305.733 312.66 306.071 L 312.66 306.071 L 312.66 306.071 Q 312.337 306.408 311.779 306.408 L 311.779 306.408 L 311.779 306.408 Z  M 329.834 295.634 L 329.834 295.634 Q 331.625 296.104 332.608 297.396 L 332.608 297.396 L 332.608 297.396 Q 333.591 298.688 333.591 300.625 L 333.591 300.625 L 333.591 300.625 Q 333.591 303.355 331.801 304.808 L 331.801 304.808 L 331.801 304.808 Q 330.01 306.262 326.722 306.262 L 326.722 306.262 L 319.324 306.262 L 319.324 306.262 Q 318.766 306.262 318.429 305.939 L 318.429 305.939 L 318.429 305.939 Q 318.091 305.616 318.091 305.087 L 318.091 305.087 L 318.091 286.739 L 318.091 286.739 Q 318.091 286.211 318.429 285.888 L 318.429 285.888 L 318.429 285.888 Q 318.766 285.565 319.324 285.565 L 319.324 285.565 L 326.399 285.565 L 326.399 285.565 Q 329.599 285.565 331.36 286.974 L 331.36 286.974 L 331.36 286.974 Q 333.122 288.383 333.122 290.967 L 333.122 290.967 L 333.122 290.967 Q 333.122 292.64 332.256 293.844 L 332.256 293.844 L 332.256 293.844 Q 331.39 295.047 329.834 295.634 L 329.834 295.634 L 329.834 295.634 Z  M 320.469 287.561 L 320.469 294.754 L 326.047 294.754 L 326.047 294.754 Q 328.366 294.754 329.555 293.814 L 329.555 293.814 L 329.555 293.814 Q 330.744 292.875 330.744 291.084 L 330.744 291.084 L 330.744 291.084 Q 330.744 287.561 326.047 287.561 L 326.047 287.561 L 320.469 287.561 L 320.469 287.561 Z  M 326.487 304.265 L 326.487 304.265 Q 328.924 304.265 330.083 303.37 L 330.083 303.37 L 330.083 303.37 Q 331.243 302.475 331.243 300.566 L 331.243 300.566 L 331.243 300.566 Q 331.243 296.75 326.487 296.75 L 326.487 296.75 L 320.469 296.75 L 320.469 304.265 L 326.487 304.265 L 326.487 304.265 Z  M 339.052 306.262 L 339.052 306.262 Q 338.553 306.262 338.215 305.953 L 338.215 305.953 L 338.215 305.953 Q 337.878 305.645 337.878 305.146 L 337.878 305.146 L 337.878 286.651 L 337.878 286.651 Q 337.878 286.093 338.2 285.756 L 338.2 285.756 L 338.2 285.756 Q 338.523 285.418 339.081 285.418 L 339.081 285.418 L 339.081 285.418 Q 339.639 285.418 339.962 285.756 L 339.962 285.756 L 339.962 285.756 Q 340.285 286.093 340.285 286.651 L 340.285 286.651 L 340.285 304.207 L 349.767 304.207 L 349.767 304.207 Q 350.296 304.207 350.589 304.471 L 350.589 304.471 L 350.589 304.471 Q 350.883 304.735 350.883 305.234 L 350.883 305.234 L 350.883 305.234 Q 350.883 305.733 350.589 305.997 L 350.589 305.997 L 350.589 305.997 Q 350.296 306.262 349.767 306.262 L 349.767 306.262 L 339.052 306.262 L 339.052 306.262 Z  M 354.934 306.408 L 354.934 306.408 Q 354.376 306.408 354.053 306.071 L 354.053 306.071 L 354.053 306.071 Q 353.73 305.733 353.73 305.175 L 353.73 305.175 L 353.73 286.651 L 353.73 286.651 Q 353.73 286.093 354.053 285.756 L 354.053 285.756 L 354.053 285.756 Q 354.376 285.418 354.934 285.418 L 354.934 285.418 L 354.934 285.418 Q 355.492 285.418 355.815 285.756 L 355.815 285.756 L 355.815 285.756 Q 356.138 286.093 356.138 286.651 L 356.138 286.651 L 356.138 305.175 L 356.138 305.175 Q 356.138 305.733 355.815 306.071 L 355.815 306.071 L 355.815 306.071 Q 355.492 306.408 354.934 306.408 L 354.934 306.408 L 354.934 306.408 Z  M 369.906 306.496 L 369.906 306.496 Q 367.029 306.496 364.901 305.205 L 364.901 305.205 L 364.901 305.205 Q 362.772 303.913 361.627 301.535 L 361.627 301.535 L 361.627 301.535 Q 360.482 299.157 360.482 295.928 L 360.482 295.928 L 360.482 295.928 Q 360.482 292.669 361.613 290.277 L 361.613 290.277 L 361.613 290.277 Q 362.743 287.884 364.871 286.607 L 364.871 286.607 L 364.871 286.607 Q 367 285.33 369.906 285.33 L 369.906 285.33 L 369.906 285.33 Q 372.812 285.33 374.941 286.607 L 374.941 286.607 L 374.941 286.607 Q 377.069 287.884 378.199 290.277 L 378.199 290.277 L 378.199 290.277 Q 379.33 292.669 379.33 295.899 L 379.33 295.899 L 379.33 295.899 Q 379.33 299.128 378.185 301.52 L 378.185 301.52 L 378.185 301.52 Q 377.04 303.913 374.911 305.205 L 374.911 305.205 L 374.911 305.205 Q 372.783 306.496 369.906 306.496 L 369.906 306.496 L 369.906 306.496 Z  M 369.906 304.441 L 369.906 304.441 Q 373.194 304.441 375.029 302.225 L 375.029 302.225 L 375.029 302.225 Q 376.864 300.009 376.864 295.899 L 376.864 295.899 L 376.864 295.899 Q 376.864 291.789 375.043 289.587 L 375.043 289.587 L 375.043 289.587 Q 373.223 287.385 369.906 287.385 L 369.906 287.385 L 369.906 287.385 Q 366.618 287.385 364.783 289.602 L 364.783 289.602 L 364.783 289.602 Q 362.948 291.818 362.948 295.899 L 362.948 295.899 L 362.948 295.899 Q 362.948 299.979 364.783 302.21 L 364.783 302.21 L 364.783 302.21 Q 366.618 304.441 369.906 304.441 L 369.906 304.441 L 369.906 304.441 Z  M 389.898 306.408 L 389.898 306.408 Q 389.34 306.408 389.003 306.071 L 389.003 306.071 L 389.003 306.071 Q 388.665 305.733 388.665 305.175 L 388.665 305.175 L 388.665 287.62 L 382.353 287.62 L 382.353 287.62 Q 381.825 287.62 381.531 287.356 L 381.531 287.356 L 381.531 287.356 Q 381.238 287.092 381.238 286.592 L 381.238 286.592 L 381.238 286.592 Q 381.238 286.093 381.531 285.829 L 381.531 285.829 L 381.531 285.829 Q 381.825 285.565 382.353 285.565 L 382.353 285.565 L 397.413 285.565 L 397.413 285.565 Q 397.942 285.565 398.235 285.829 L 398.235 285.829 L 398.235 285.829 Q 398.529 286.093 398.529 286.592 L 398.529 286.592 L 398.529 286.592 Q 398.529 287.092 398.235 287.356 L 398.235 287.356 L 398.235 287.356 Q 397.942 287.62 397.413 287.62 L 397.413 287.62 L 391.102 287.62 L 391.102 305.175 L 391.102 305.175 Q 391.102 305.733 390.779 306.071 L 390.779 306.071 L 390.779 306.071 Q 390.456 306.408 389.898 306.408 L 389.898 306.408 L 389.898 306.408 Z  M 402.463 306.262 L 402.463 306.262 Q 401.905 306.262 401.567 305.939 L 401.567 305.939 L 401.567 305.939 Q 401.23 305.616 401.23 305.087 L 401.23 305.087 L 401.23 286.739 L 401.23 286.739 Q 401.23 286.211 401.567 285.888 L 401.567 285.888 L 401.567 285.888 Q 401.905 285.565 402.463 285.565 L 402.463 285.565 L 413.442 285.565 L 413.442 285.565 Q 413.971 285.565 414.264 285.829 L 414.264 285.829 L 414.264 285.829 Q 414.558 286.093 414.558 286.563 L 414.558 286.563 L 414.558 286.563 Q 414.558 287.033 414.264 287.297 L 414.264 287.297 L 414.264 287.297 Q 413.971 287.561 413.442 287.561 L 413.442 287.561 L 403.608 287.561 L 403.608 294.754 L 412.855 294.754 L 412.855 294.754 Q 413.384 294.754 413.677 295.018 L 413.677 295.018 L 413.677 295.018 Q 413.971 295.282 413.971 295.752 L 413.971 295.752 L 413.971 295.752 Q 413.971 296.222 413.677 296.486 L 413.677 296.486 L 413.677 296.486 Q 413.384 296.75 412.855 296.75 L 412.855 296.75 L 403.608 296.75 L 403.608 304.265 L 413.442 304.265 L 413.442 304.265 Q 413.971 304.265 414.264 304.515 L 414.264 304.515 L 414.264 304.515 Q 414.558 304.764 414.558 305.263 L 414.558 305.263 L 414.558 305.263 Q 414.558 305.733 414.264 305.997 L 414.264 305.997 L 414.264 305.997 Q 413.971 306.262 413.442 306.262 L 413.442 306.262 L 402.463 306.262 L 402.463 306.262 Z  M 427.093 306.496 L 427.093 306.496 Q 424.158 306.496 422.015 305.219 L 422.015 305.219 L 422.015 305.219 Q 419.872 303.942 418.712 301.55 L 418.712 301.55 L 418.712 301.55 Q 417.552 299.157 417.552 295.899 L 417.552 295.899 L 417.552 295.899 Q 417.552 292.669 418.712 290.277 L 418.712 290.277 L 418.712 290.277 Q 419.872 287.884 422.015 286.607 L 422.015 286.607 L 422.015 286.607 Q 424.158 285.33 427.093 285.33 L 427.093 285.33 L 427.093 285.33 Q 429.06 285.33 430.807 285.961 L 430.807 285.961 L 430.807 285.961 Q 432.554 286.592 433.845 287.767 L 433.845 287.767 L 433.845 287.767 Q 434.315 288.207 434.315 288.794 L 434.315 288.794 L 434.315 288.794 Q 434.315 289.205 434.08 289.513 L 434.08 289.513 L 434.08 289.513 Q 433.845 289.822 433.522 289.822 L 433.522 289.822 L 433.522 289.822 Q 433.17 289.822 432.671 289.499 L 432.671 289.499 L 432.671 289.499 Q 431.174 288.325 429.956 287.855 L 429.956 287.855 L 429.956 287.855 Q 428.737 287.385 427.152 287.385 L 427.152 287.385 L 427.152 287.385 Q 423.747 287.385 421.912 289.602 L 421.912 289.602 L 421.912 289.602 Q 420.077 291.818 420.077 295.899 L 420.077 295.899 L 420.077 295.899 Q 420.077 300.009 421.912 302.225 L 421.912 302.225 L 421.912 302.225 Q 423.747 304.441 427.152 304.441 L 427.152 304.441 L 427.152 304.441 Q 428.708 304.441 429.941 303.972 L 429.941 303.972 L 429.941 303.972 Q 431.174 303.502 432.671 302.328 L 432.671 302.328 L 432.671 302.328 Q 433.17 302.005 433.522 302.005 L 433.522 302.005 L 433.522 302.005 Q 433.845 302.005 434.08 302.298 L 434.08 302.298 L 434.08 302.298 Q 434.315 302.592 434.315 303.032 L 434.315 303.032 L 434.315 303.032 Q 434.315 303.619 433.845 304.06 L 433.845 304.06 L 433.845 304.06 Q 432.554 305.234 430.807 305.865 L 430.807 305.865 L 430.807 305.865 Q 429.06 306.496 427.093 306.496 L 427.093 306.496 L 427.093 306.496 Z  M 456.01 304.882 L 456.01 304.882 Q 456.127 305.117 456.127 305.381 L 456.127 305.381 L 456.127 305.381 Q 456.127 305.821 455.79 306.115 L 455.79 306.115 L 455.79 306.115 Q 455.452 306.408 454.982 306.408 L 454.982 306.408 L 454.982 306.408 Q 454.248 306.408 453.955 305.704 L 453.955 305.704 L 451.871 300.948 L 440.803 300.948 L 438.689 305.704 L 438.689 305.704 Q 438.396 306.408 437.662 306.408 L 437.662 306.408 L 437.662 306.408 Q 437.192 306.408 436.84 306.1 L 436.84 306.1 L 436.84 306.1 Q 436.488 305.792 436.488 305.352 L 436.488 305.352 L 436.488 305.352 Q 436.488 305.117 436.605 304.882 L 436.605 304.882 L 445.001 286.211 L 445.001 286.211 Q 445.177 285.8 445.529 285.594 L 445.529 285.594 L 445.529 285.594 Q 445.882 285.389 446.293 285.389 L 446.293 285.389 L 446.293 285.389 Q 446.733 285.389 447.085 285.609 L 447.085 285.609 L 447.085 285.609 Q 447.438 285.829 447.614 286.211 L 447.614 286.211 L 456.01 304.882 L 456.01 304.882 Z  M 446.322 288.413 L 441.684 298.952 L 450.99 298.952 L 446.322 288.413 L 446.322 288.413 Z  M 466.138 306.496 L 466.138 306.496 Q 463.936 306.496 461.925 305.836 L 461.925 305.836 L 461.925 305.836 Q 459.914 305.175 458.711 304.06 L 458.711 304.06 L 458.711 304.06 Q 458.27 303.649 458.27 303.032 L 458.27 303.032 L 458.27 303.032 Q 458.27 302.621 458.505 302.313 L 458.505 302.313 L 458.505 302.313 Q 458.74 302.005 459.063 302.005 L 459.063 302.005 L 459.063 302.005 Q 459.445 302.005 459.885 302.328 L 459.885 302.328 L 459.885 302.328 Q 462.615 304.441 466.109 304.441 L 466.109 304.441 L 466.109 304.441 Q 468.633 304.441 469.984 303.473 L 469.984 303.473 L 469.984 303.473 Q 471.334 302.504 471.334 300.713 L 471.334 300.713 L 471.334 300.713 Q 471.334 299.686 470.688 299.054 L 470.688 299.054 L 470.688 299.054 Q 470.043 298.423 468.986 298.042 L 468.986 298.042 L 468.986 298.042 Q 467.929 297.66 466.138 297.249 L 466.138 297.249 L 466.138 297.249 Q 463.731 296.691 462.19 296.075 L 462.19 296.075 L 462.19 296.075 Q 460.648 295.458 459.694 294.313 L 459.694 294.313 L 459.694 294.313 Q 458.74 293.168 458.74 291.319 L 458.74 291.319 L 458.74 291.319 Q 458.74 289.558 459.694 288.192 L 459.694 288.192 L 459.694 288.192 Q 460.648 286.827 462.366 286.079 L 462.366 286.079 L 462.366 286.079 Q 464.083 285.33 466.285 285.33 L 466.285 285.33 L 466.285 285.33 Q 468.34 285.33 470.116 285.961 L 470.116 285.961 L 470.116 285.961 Q 471.892 286.592 473.096 287.767 L 473.096 287.767 L 473.096 287.767 Q 473.565 288.236 473.565 288.794 L 473.565 288.794 L 473.565 288.794 Q 473.565 289.205 473.331 289.513 L 473.331 289.513 L 473.331 289.513 Q 473.096 289.822 472.773 289.822 L 472.773 289.822 L 472.773 289.822 Q 472.45 289.822 471.921 289.499 L 471.921 289.499 L 471.921 289.499 Q 470.483 288.325 469.25 287.855 L 469.25 287.855 L 469.25 287.855 Q 468.017 287.385 466.285 287.385 L 466.285 287.385 L 466.285 287.385 Q 463.848 287.385 462.498 288.398 L 462.498 288.398 L 462.498 288.398 Q 461.147 289.411 461.147 291.231 L 461.147 291.231 L 461.147 291.231 Q 461.147 292.787 462.336 293.565 L 462.336 293.565 L 462.336 293.565 Q 463.525 294.343 465.991 294.93 L 465.991 294.93 L 465.991 294.93 Q 468.663 295.576 470.189 296.119 L 470.189 296.119 L 470.189 296.119 Q 471.716 296.662 472.729 297.748 L 472.729 297.748 L 472.729 297.748 Q 473.742 298.834 473.742 300.654 L 473.742 300.654 L 473.742 300.654 Q 473.742 302.386 472.787 303.708 L 472.787 303.708 L 472.787 303.708 Q 471.833 305.029 470.101 305.763 L 470.101 305.763 L 470.101 305.763 Q 468.369 306.496 466.138 306.496 L 466.138 306.496 L 466.138 306.496 Z  M 436.493 275.43 L 436.493 275.43 Q 435.936 275.43 435.598 275.107 L 435.598 275.107 L 435.598 275.107 Q 435.26 274.784 435.26 274.256 L 435.26 274.256 L 435.26 255.908 L 435.26 255.908 Q 435.26 255.379 435.598 255.056 L 435.598 255.056 L 435.598 255.056 Q 435.936 254.733 436.493 254.733 L 436.493 254.733 L 442.218 254.733 L 442.218 254.733 Q 447.179 254.733 449.895 257.419 L 449.895 257.419 L 449.895 257.419 Q 452.61 260.106 452.61 265.067 L 452.61 265.067 L 452.61 265.067 Q 452.61 270.028 449.88 272.729 L 449.88 272.729 L 449.88 272.729 Q 447.15 275.43 442.218 275.43 L 442.218 275.43 L 436.493 275.43 L 436.493 275.43 Z  M 437.668 273.375 L 442.071 273.375 L 442.071 273.375 Q 450.115 273.375 450.115 265.067 L 450.115 265.067 L 450.115 265.067 Q 450.115 256.788 442.071 256.788 L 442.071 256.788 L 437.668 256.788 L 437.668 273.375 L 437.668 273.375 Z  M 458.188 275.43 L 458.188 275.43 Q 457.63 275.43 457.293 275.107 L 457.293 275.107 L 457.293 275.107 Q 456.955 274.784 456.955 274.256 L 456.955 274.256 L 456.955 255.908 L 456.955 255.908 Q 456.955 255.379 457.293 255.056 L 457.293 255.056 L 457.293 255.056 Q 457.63 254.733 458.188 254.733 L 458.188 254.733 L 469.168 254.733 L 469.168 254.733 Q 469.696 254.733 469.99 254.997 L 469.99 254.997 L 469.99 254.997 Q 470.283 255.262 470.283 255.731 L 470.283 255.731 L 470.283 255.731 Q 470.283 256.201 469.99 256.465 L 469.99 256.465 L 469.99 256.465 Q 469.696 256.729 469.168 256.729 L 469.168 256.729 L 459.333 256.729 L 459.333 263.922 L 468.58 263.922 L 468.58 263.922 Q 469.109 263.922 469.402 264.186 L 469.402 264.186 L 469.402 264.186 Q 469.696 264.45 469.696 264.92 L 469.696 264.92 L 469.696 264.92 Q 469.696 265.39 469.402 265.654 L 469.402 265.654 L 469.402 265.654 Q 469.109 265.918 468.58 265.918 L 468.58 265.918 L 459.333 265.918 L 459.333 273.434 L 469.168 273.434 L 469.168 273.434 Q 469.696 273.434 469.99 273.683 L 469.99 273.683 L 469.99 273.683 Q 470.283 273.933 470.283 274.432 L 470.283 274.432 L 470.283 274.432 Q 470.283 274.901 469.99 275.166 L 469.99 275.166 L 469.99 275.166 Q 469.696 275.43 469.168 275.43 L 469.168 275.43 L 458.188 275.43 L 458.188 275.43 Z  M 297.394 275.665 L 297.394 275.665 Q 295.193 275.665 293.182 275.004 L 293.182 275.004 L 293.182 275.004 Q 291.171 274.344 289.967 273.228 L 289.967 273.228 L 289.967 273.228 Q 289.527 272.817 289.527 272.201 L 289.527 272.201 L 289.527 272.201 Q 289.527 271.79 289.762 271.481 L 289.762 271.481 L 289.762 271.481 Q 289.996 271.173 290.319 271.173 L 290.319 271.173 L 290.319 271.173 Q 290.701 271.173 291.141 271.496 L 291.141 271.496 L 291.141 271.496 Q 293.871 273.61 297.365 273.61 L 297.365 273.61 L 297.365 273.61 Q 299.89 273.61 301.24 272.641 L 301.24 272.641 L 301.24 272.641 Q 302.59 271.672 302.59 269.881 L 302.59 269.881 L 302.59 269.881 Q 302.59 268.854 301.945 268.223 L 301.945 268.223 L 301.945 268.223 Q 301.299 267.592 300.242 267.21 L 300.242 267.21 L 300.242 267.21 Q 299.185 266.828 297.394 266.417 L 297.394 266.417 L 297.394 266.417 Q 294.987 265.86 293.446 265.243 L 293.446 265.243 L 293.446 265.243 Q 291.905 264.627 290.95 263.482 L 290.95 263.482 L 290.95 263.482 Q 289.996 262.337 289.996 260.487 L 289.996 260.487 L 289.996 260.487 Q 289.996 258.726 290.95 257.361 L 290.95 257.361 L 290.95 257.361 Q 291.905 255.996 293.622 255.247 L 293.622 255.247 L 293.622 255.247 Q 295.339 254.498 297.541 254.498 L 297.541 254.498 L 297.541 254.498 Q 299.596 254.498 301.372 255.13 L 301.372 255.13 L 301.372 255.13 Q 303.148 255.761 304.352 256.935 L 304.352 256.935 L 304.352 256.935 Q 304.822 257.405 304.822 257.962 L 304.822 257.962 L 304.822 257.962 Q 304.822 258.373 304.587 258.682 L 304.587 258.682 L 304.587 258.682 Q 304.352 258.99 304.029 258.99 L 304.029 258.99 L 304.029 258.99 Q 303.706 258.99 303.178 258.667 L 303.178 258.667 L 303.178 258.667 Q 301.739 257.493 300.506 257.023 L 300.506 257.023 L 300.506 257.023 Q 299.273 256.553 297.541 256.553 L 297.541 256.553 L 297.541 256.553 Q 295.104 256.553 293.754 257.566 L 293.754 257.566 L 293.754 257.566 Q 292.404 258.579 292.404 260.399 L 292.404 260.399 L 292.404 260.399 Q 292.404 261.955 293.593 262.733 L 293.593 262.733 L 293.593 262.733 Q 294.782 263.511 297.248 264.098 L 297.248 264.098 L 297.248 264.098 Q 299.919 264.744 301.446 265.287 L 301.446 265.287 L 301.446 265.287 Q 302.972 265.83 303.985 266.916 L 303.985 266.916 L 303.985 266.916 Q 304.998 268.003 304.998 269.823 L 304.998 269.823 L 304.998 269.823 Q 304.998 271.555 304.044 272.876 L 304.044 272.876 L 304.044 272.876 Q 303.09 274.197 301.358 274.931 L 301.358 274.931 L 301.358 274.931 Q 299.625 275.665 297.394 275.665 L 297.394 275.665 L 297.394 275.665 Z  M 310.106 275.577 L 310.106 275.577 Q 309.548 275.577 309.225 275.239 L 309.225 275.239 L 309.225 275.239 Q 308.902 274.901 308.902 274.344 L 308.902 274.344 L 308.902 255.819 L 308.902 255.819 Q 308.902 255.262 309.225 254.924 L 309.225 254.924 L 309.225 254.924 Q 309.548 254.586 310.106 254.586 L 310.106 254.586 L 310.106 254.586 Q 310.664 254.586 310.987 254.924 L 310.987 254.924 L 310.987 254.924 Q 311.31 255.262 311.31 255.819 L 311.31 255.819 L 311.31 274.344 L 311.31 274.344 Q 311.31 274.901 310.987 275.239 L 310.987 275.239 L 310.987 275.239 Q 310.664 275.577 310.106 275.577 L 310.106 275.577 L 310.106 275.577 Z  M 323.023 275.665 L 323.023 275.665 Q 320.821 275.665 318.81 275.004 L 318.81 275.004 L 318.81 275.004 Q 316.799 274.344 315.596 273.228 L 315.596 273.228 L 315.596 273.228 Q 315.155 272.817 315.155 272.201 L 315.155 272.201 L 315.155 272.201 Q 315.155 271.79 315.39 271.481 L 315.39 271.481 L 315.39 271.481 Q 315.625 271.173 315.948 271.173 L 315.948 271.173 L 315.948 271.173 Q 316.33 271.173 316.77 271.496 L 316.77 271.496 L 316.77 271.496 Q 319.5 273.61 322.994 273.61 L 322.994 273.61 L 322.994 273.61 Q 325.518 273.61 326.869 272.641 L 326.869 272.641 L 326.869 272.641 Q 328.219 271.672 328.219 269.881 L 328.219 269.881 L 328.219 269.881 Q 328.219 268.854 327.573 268.223 L 327.573 268.223 L 327.573 268.223 Q 326.927 267.592 325.871 267.21 L 325.871 267.21 L 325.871 267.21 Q 324.814 266.828 323.023 266.417 L 323.023 266.417 L 323.023 266.417 Q 320.616 265.86 319.074 265.243 L 319.074 265.243 L 319.074 265.243 Q 317.533 264.627 316.579 263.482 L 316.579 263.482 L 316.579 263.482 Q 315.625 262.337 315.625 260.487 L 315.625 260.487 L 315.625 260.487 Q 315.625 258.726 316.579 257.361 L 316.579 257.361 L 316.579 257.361 Q 317.533 255.996 319.251 255.247 L 319.251 255.247 L 319.251 255.247 Q 320.968 254.498 323.17 254.498 L 323.17 254.498 L 323.17 254.498 Q 325.225 254.498 327.001 255.13 L 327.001 255.13 L 327.001 255.13 Q 328.777 255.761 329.981 256.935 L 329.981 256.935 L 329.981 256.935 Q 330.45 257.405 330.45 257.962 L 330.45 257.962 L 330.45 257.962 Q 330.45 258.373 330.215 258.682 L 330.215 258.682 L 330.215 258.682 Q 329.981 258.99 329.658 258.99 L 329.658 258.99 L 329.658 258.99 Q 329.335 258.99 328.806 258.667 L 328.806 258.667 L 328.806 258.667 Q 327.368 257.493 326.135 257.023 L 326.135 257.023 L 326.135 257.023 Q 324.902 256.553 323.17 256.553 L 323.17 256.553 L 323.17 256.553 Q 320.733 256.553 319.383 257.566 L 319.383 257.566 L 319.383 257.566 Q 318.032 258.579 318.032 260.399 L 318.032 260.399 L 318.032 260.399 Q 318.032 261.955 319.221 262.733 L 319.221 262.733 L 319.221 262.733 Q 320.41 263.511 322.876 264.098 L 322.876 264.098 L 322.876 264.098 Q 325.548 264.744 327.074 265.287 L 327.074 265.287 L 327.074 265.287 Q 328.601 265.83 329.614 266.916 L 329.614 266.916 L 329.614 266.916 Q 330.626 268.003 330.626 269.823 L 330.626 269.823 L 330.626 269.823 Q 330.626 271.555 329.672 272.876 L 329.672 272.876 L 329.672 272.876 Q 328.718 274.197 326.986 274.931 L 326.986 274.931 L 326.986 274.931 Q 325.254 275.665 323.023 275.665 L 323.023 275.665 L 323.023 275.665 Z  M 340.755 275.577 L 340.755 275.577 Q 340.197 275.577 339.859 275.239 L 339.859 275.239 L 339.859 275.239 Q 339.522 274.901 339.522 274.344 L 339.522 274.344 L 339.522 256.788 L 333.21 256.788 L 333.21 256.788 Q 332.681 256.788 332.388 256.524 L 332.388 256.524 L 332.388 256.524 Q 332.094 256.26 332.094 255.761 L 332.094 255.761 L 332.094 255.761 Q 332.094 255.262 332.388 254.997 L 332.388 254.997 L 332.388 254.997 Q 332.681 254.733 333.21 254.733 L 333.21 254.733 L 348.27 254.733 L 348.27 254.733 Q 348.798 254.733 349.092 254.997 L 349.092 254.997 L 349.092 254.997 Q 349.385 255.262 349.385 255.761 L 349.385 255.761 L 349.385 255.761 Q 349.385 256.26 349.092 256.524 L 349.092 256.524 L 349.092 256.524 Q 348.798 256.788 348.27 256.788 L 348.27 256.788 L 341.958 256.788 L 341.958 274.344 L 341.958 274.344 Q 341.958 274.901 341.635 275.239 L 341.635 275.239 L 341.635 275.239 Q 341.312 275.577 340.755 275.577 L 340.755 275.577 L 340.755 275.577 Z  M 353.319 275.43 L 353.319 275.43 Q 352.762 275.43 352.424 275.107 L 352.424 275.107 L 352.424 275.107 Q 352.086 274.784 352.086 274.256 L 352.086 274.256 L 352.086 255.908 L 352.086 255.908 Q 352.086 255.379 352.424 255.056 L 352.424 255.056 L 352.424 255.056 Q 352.762 254.733 353.319 254.733 L 353.319 254.733 L 364.299 254.733 L 364.299 254.733 Q 364.827 254.733 365.121 254.997 L 365.121 254.997 L 365.121 254.997 Q 365.414 255.262 365.414 255.731 L 365.414 255.731 L 365.414 255.731 Q 365.414 256.201 365.121 256.465 L 365.121 256.465 L 365.121 256.465 Q 364.827 256.729 364.299 256.729 L 364.299 256.729 L 354.464 256.729 L 354.464 263.922 L 363.712 263.922 L 363.712 263.922 Q 364.24 263.922 364.534 264.186 L 364.534 264.186 L 364.534 264.186 Q 364.827 264.45 364.827 264.92 L 364.827 264.92 L 364.827 264.92 Q 364.827 265.39 364.534 265.654 L 364.534 265.654 L 364.534 265.654 Q 364.24 265.918 363.712 265.918 L 363.712 265.918 L 354.464 265.918 L 354.464 273.434 L 364.299 273.434 L 364.299 273.434 Q 364.827 273.434 365.121 273.683 L 365.121 273.683 L 365.121 273.683 Q 365.414 273.933 365.414 274.432 L 365.414 274.432 L 365.414 274.432 Q 365.414 274.901 365.121 275.166 L 365.121 275.166 L 365.121 275.166 Q 364.827 275.43 364.299 275.43 L 364.299 275.43 L 353.319 275.43 L 353.319 275.43 Z  M 387.55 254.586 L 387.55 254.586 Q 388.107 254.586 388.416 254.924 L 388.416 254.924 L 388.416 254.924 Q 388.724 255.262 388.724 255.819 L 388.724 255.819 L 388.724 274.402 L 388.724 274.402 Q 388.724 274.931 388.43 275.254 L 388.43 275.254 L 388.43 275.254 Q 388.137 275.577 387.608 275.577 L 387.608 275.577 L 387.608 275.577 Q 387.08 275.577 386.816 275.254 L 386.816 275.254 L 386.816 275.254 Q 386.551 274.931 386.551 274.402 L 386.551 274.402 L 386.551 259.401 L 380.181 271.613 L 380.181 271.613 Q 379.77 272.465 378.977 272.465 L 378.977 272.465 L 378.977 272.465 Q 378.214 272.465 377.774 271.613 L 377.774 271.613 L 371.374 259.548 L 371.374 274.402 L 371.374 274.402 Q 371.374 274.931 371.095 275.254 L 371.095 275.254 L 371.095 275.254 Q 370.816 275.577 370.288 275.577 L 370.288 275.577 L 370.288 275.577 Q 369.759 275.577 369.466 275.254 L 369.466 275.254 L 369.466 275.254 Q 369.172 274.931 369.172 274.402 L 369.172 274.402 L 369.172 255.819 L 369.172 255.819 Q 369.172 255.262 369.495 254.924 L 369.495 254.924 L 369.495 254.924 Q 369.818 254.586 370.376 254.586 L 370.376 254.586 L 370.376 254.586 Q 371.11 254.586 371.55 255.438 L 371.55 255.438 L 379.007 269.735 L 386.375 255.438 L 386.375 255.438 Q 386.61 254.968 386.889 254.777 L 386.889 254.777 L 386.889 254.777 Q 387.168 254.586 387.55 254.586 L 387.55 254.586 L 387.55 254.586 Z  M 411.681 274.05 L 411.681 274.05 Q 411.798 274.285 411.798 274.549 L 411.798 274.549 L 411.798 274.549 Q 411.798 274.99 411.461 275.283 L 411.461 275.283 L 411.461 275.283 Q 411.123 275.577 410.653 275.577 L 410.653 275.577 L 410.653 275.577 Q 409.92 275.577 409.626 274.872 L 409.626 274.872 L 407.542 270.116 L 396.474 270.116 L 394.36 274.872 L 394.36 274.872 Q 394.067 275.577 393.333 275.577 L 393.333 275.577 L 393.333 275.577 Q 392.863 275.577 392.511 275.268 L 392.511 275.268 L 392.511 275.268 Q 392.159 274.96 392.159 274.52 L 392.159 274.52 L 392.159 274.52 Q 392.159 274.285 392.276 274.05 L 392.276 274.05 L 400.672 255.379 L 400.672 255.379 Q 400.848 254.968 401.2 254.763 L 401.2 254.763 L 401.2 254.763 Q 401.553 254.557 401.964 254.557 L 401.964 254.557 L 401.964 254.557 Q 402.404 254.557 402.756 254.777 L 402.756 254.777 L 402.756 254.777 Q 403.109 254.997 403.285 255.379 L 403.285 255.379 L 411.681 274.05 L 411.681 274.05 Z  M 401.993 257.581 L 397.355 268.12 L 406.661 268.12 L 401.993 257.581 L 401.993 257.581 Z " fill-rule="evenodd" fill="rgb(62,58,58)"/></g></svg>