<svg xmlns="http://www.w3.org/2000/svg" xmlns:xlink="http://www.w3.org/1999/xlink" style="isolation:isolate" viewBox="287.465 561.947 130.797 115.185"><g><g><radialGradient id="_rgradient_5" fx="0.4976635514018688" fy="0.4900702336056586" cx="0.5" cy="0.5" r="0.5" gradientTransform="matrix(103.618,-5.494,5.24,83.448,259.628,564.529)" gradientUnits="userSpaceOnUse"><stop offset="0%" stop-opacity="1" style="stop-color:rgb(255,255,255)"/><stop offset="100%" stop-opacity="1" style="stop-color:rgb(164,164,164)"/></radialGradient><circle vector-effect="non-scaling-stroke" cx="343.3546518231426" cy="597.0719942240997" r="35.12502452712988" fill="url(#_rgradient_5)"/><linearGradient id="_lgradient_10" x1="0.0022624434389139914" y1="0.6926359261960697" x2="0.9253393665158373" y2="0.2909551477302543" gradientTransform="matrix(128.662,0,0,113.051,289.6,564.082)" gradientUnits="userSpaceOnUse"><stop offset="0%" stop-opacity="1" style="stop-color:rgb(191,120,20)"/><stop offset="49.56521739130435%" stop-opacity="1" style="stop-color:rgb(253,191,0)"/><stop offset="100%" stop-opacity="1" style="stop-color:rgb(212,161,0)"/></linearGradient><path d=" M 289.6 588.727 Q 317.613 609.602 336.563 606.387 C 358.297 602.7 375.957 579.607 381.002 564.082 L 418.262 631.809 Q 413.023 665.381 387.018 674.502 Q 361.014 683.623 322.978 661.112 L 289.6 588.727 Z " fill="url(#_lgradient_10)"/><linearGradient id="_lgradient_11" x1="0.20154690618762464" y1="0.6984131693214242" x2="0.8809880239520955" y2="0.3572791793312508" gradientTransform="matrix(129.633,0,0,102.928,287.465,574.173)" gradientUnits="userSpaceOnUse"><stop offset="2.1739130434782608%" stop-opacity="1" style="stop-color:rgb(194,127,38)"/><stop offset="44.13296109479239%" stop-opacity="1" style="stop-color:rgb(219,189,148)"/><stop offset="58.78278853482464%" stop-opacity="1" style="stop-color:rgb(238,236,233)"/><stop offset="74.91628914713415%" stop-opacity="1" style="stop-color:rgb(246,217,131)"/><stop offset="100%" stop-opacity="1" style="stop-color:rgb(255,195,15)"/></linearGradient><path d=" M 287.465 596.296 C 289.212 601.729 322.978 613.567 345.489 610.85 C 366.687 608.292 378.286 593.579 381.391 574.173 L 417.098 634.72 Q 413.023 665.381 387.018 674.502 Q 361.014 683.623 322.202 660.724 L 287.465 596.296 Z " fill="url(#_lgradient_11)"/></g></g></svg>
