<?xml version="1.0" standalone="no"?><!-- Generator: Gravit.io --><svg xmlns="http://www.w3.org/2000/svg" xmlns:xlink="http://www.w3.org/1999/xlink" style="isolation:isolate" viewBox="331.496 276.579 583.009 389.993" width="583.009" height="389.993"><path d=" M 513.798 600.936 L 497.606 595.909 C 497.413 595.85 497.19 595.953 497.125 596.162 C 497.065 596.355 497.168 596.579 497.378 596.644 L 513.57 601.67 C 513.762 601.73 513.986 601.627 514.051 601.417 C 514.099 601.202 513.99 600.995 513.798 600.936 L 513.798 600.936 L 513.798 600.936 L 513.798 600.936 L 513.798 600.936 Z  M 512.316 625.782 L 512.679 624.61 L 536.531 632.014 L 535.52 632.985 L 512.316 625.782 L 512.316 625.782 L 512.316 625.782 L 512.316 625.782 L 512.316 625.782 Z  M 857.331 561.791 L 854.099 562.553 L 853.72 560.946 C 852.673 556.484 855.433 552.016 859.891 550.955 L 885.74 544.86 L 887.264 551.322 L 859.8 557.798 C 858.018 558.219 856.95 560.176 857.331 561.791 L 857.331 561.791 L 857.331 561.791 L 857.331 561.791 L 857.331 561.791 L 857.331 561.791 L 857.331 561.791 L 857.331 561.791 L 857.331 561.791 L 857.331 561.791 L 857.331 561.791 L 857.331 561.791 Z  M 831.467 538.898 L 825.005 540.422 L 823.481 533.96 L 829.944 532.436 L 831.467 538.898 L 831.467 538.898 L 831.467 538.898 L 831.467 538.898 L 831.467 538.898 L 831.467 538.898 L 831.467 538.898 L 831.467 538.898 Z  M 843.644 561.608 L 816.179 568.084 L 814.656 561.622 L 840.505 555.527 C 844.959 554.476 849.439 557.254 850.489 561.708 L 850.868 563.315 L 847.637 564.077 C 847.256 562.462 845.426 561.188 843.644 561.608 L 843.644 561.608 L 843.644 561.608 L 843.644 561.608 L 843.644 561.608 L 843.644 561.608 L 843.644 561.608 L 843.644 561.608 L 843.644 561.608 L 843.644 561.608 L 843.644 561.608 L 843.644 561.608 Z  M 539.004 613.362 L 528.215 610.012 C 528.023 609.953 527.799 610.056 527.734 610.266 C 527.669 610.475 527.778 610.682 527.987 610.747 L 538.776 614.096 C 538.969 614.156 539.192 614.053 539.258 613.843 C 539.323 613.633 539.214 613.427 539.004 613.362 L 539.004 613.362 L 539.004 613.362 L 539.004 613.362 L 539.004 613.362 Z  M 535.091 625.969 L 518.898 620.943 C 518.706 620.883 518.482 620.986 518.417 621.196 C 518.357 621.388 518.461 621.612 518.67 621.677 L 534.863 626.704 C 535.055 626.763 535.279 626.66 535.344 626.45 C 535.409 626.241 535.3 626.034 535.091 625.969 L 535.091 625.969 L 535.091 625.969 L 535.091 625.969 L 535.091 625.969 Z  M 540.307 609.165 L 524.115 604.138 C 523.923 604.079 523.699 604.182 523.634 604.392 C 523.574 604.584 523.677 604.808 523.887 604.873 L 540.079 609.899 C 540.271 609.959 540.495 609.856 540.56 609.646 C 540.625 609.436 540.517 609.23 540.307 609.165 L 540.307 609.165 L 540.307 609.165 L 540.307 609.165 L 540.307 609.165 Z  M 493.452 609.228 L 504.241 612.577 C 504.433 612.637 504.657 612.534 504.722 612.324 C 504.782 612.132 504.679 611.908 504.469 611.843 L 493.68 608.494 C 493.488 608.434 493.264 608.537 493.199 608.747 C 493.151 608.962 493.26 609.169 493.452 609.228 L 493.452 609.228 L 493.452 609.228 L 493.452 609.228 L 493.452 609.228 Z  M 494.755 605.032 L 505.544 608.381 C 505.736 608.441 505.96 608.337 506.025 608.128 C 506.085 607.935 505.982 607.712 505.772 607.646 L 494.983 604.297 C 494.79 604.237 494.567 604.341 494.502 604.55 C 494.459 604.748 494.562 604.972 494.755 605.032 L 494.755 605.032 L 494.755 605.032 L 494.755 605.032 L 494.755 605.032 Z  M 508.582 617.74 L 492.389 612.713 C 492.197 612.654 491.973 612.757 491.908 612.967 C 491.848 613.159 491.951 613.383 492.161 613.448 L 508.354 618.474 C 508.546 618.534 508.77 618.431 508.835 618.221 C 508.882 618.006 508.774 617.8 508.582 617.74 L 508.582 617.74 L 508.582 617.74 L 508.582 617.74 L 508.582 617.74 Z  M 537.702 617.558 L 526.913 614.209 C 526.72 614.149 526.496 614.253 526.431 614.462 C 526.372 614.655 526.475 614.878 526.685 614.944 L 537.474 618.293 C 537.666 618.352 537.89 618.249 537.955 618.04 C 538.014 617.847 537.911 617.623 537.702 617.558 L 537.702 617.558 L 537.702 617.558 L 537.702 617.558 L 537.702 617.558 Z  M 536.393 621.773 L 525.604 618.423 C 525.412 618.364 525.188 618.467 525.123 618.677 C 525.063 618.869 525.167 619.093 525.376 619.158 L 536.165 622.507 C 536.358 622.567 536.581 622.464 536.647 622.254 C 536.712 622.044 536.603 621.838 536.393 621.773 L 536.393 621.773 L 536.393 621.773 L 536.393 621.773 L 536.393 621.773 Z  M 493.836 584.214 L 495.025 584.583 L 485.472 615.359 C 485.444 615.446 485.44 615.522 485.448 615.62 C 485.443 615.637 485.455 615.66 485.444 615.695 C 485.438 615.713 485.451 615.736 485.445 615.753 L 485.836 617.581 L 483.668 616.908 L 493.836 584.214 L 493.836 584.214 L 493.836 584.214 L 493.836 584.214 L 493.836 584.214 L 493.836 584.214 Z  M 487.307 616.734 L 511.158 624.138 L 510.794 625.309 L 487.608 618.112 L 487.307 616.734 L 487.307 616.734 L 487.307 616.734 L 487.307 616.734 L 487.307 616.734 L 487.307 616.734 Z  M 840.399 533.381 L 839.637 530.15 L 850.946 527.484 L 851.708 530.715 L 840.399 533.381 L 840.399 533.381 L 840.399 533.381 L 840.399 533.381 L 840.399 533.381 L 840.399 533.381 L 840.399 533.381 L 840.399 533.381 L 840.399 533.381 L 840.399 533.381 Z  M 539.419 634.195 L 537.251 633.522 L 538.608 632.238 C 538.631 632.225 538.637 632.208 538.642 632.19 C 538.665 632.178 538.671 632.161 538.676 632.143 C 538.738 632.067 538.777 632.002 538.804 631.915 L 548.358 601.139 L 549.547 601.508 L 539.402 634.19 L 539.419 634.195 L 539.419 634.195 L 539.419 634.195 L 539.419 634.195 L 539.419 634.195 L 539.419 634.195 Z  M 516.409 592.525 L 500.217 587.498 C 500.024 587.439 499.801 587.542 499.736 587.752 C 499.676 587.944 499.779 588.168 499.989 588.233 L 516.181 593.259 C 516.373 593.319 516.597 593.216 516.662 593.006 C 516.71 592.791 516.601 592.585 516.409 592.525 L 516.409 592.525 L 516.409 592.525 L 516.409 592.525 L 516.409 592.525 Z  M 515.106 596.722 L 498.914 591.695 C 498.722 591.635 498.498 591.738 498.433 591.948 C 498.373 592.141 498.476 592.364 498.686 592.429 L 514.878 597.456 C 515.071 597.516 515.294 597.413 515.359 597.203 C 515.407 596.988 515.299 596.781 515.106 596.722 L 515.106 596.722 L 515.106 596.722 L 515.106 596.722 L 515.106 596.722 Z  M 868.625 530.136 L 862.163 531.66 L 860.639 525.198 L 867.102 523.674 L 868.625 530.136 L 868.625 530.136 L 868.625 530.136 L 868.625 530.136 L 868.625 530.136 L 868.625 530.136 L 868.625 530.136 L 868.625 530.136 L 868.625 530.136 Z  M 540.446 607.483 L 524.971 602.679 L 527.012 596.104 L 542.487 600.908 L 540.446 607.483 L 540.446 607.483 L 540.446 607.483 L 540.446 607.483 L 540.446 607.483 Z  M 496.063 600.817 L 506.852 604.167 C 507.044 604.226 507.268 604.123 507.333 603.913 C 507.398 603.704 507.29 603.497 507.08 603.432 L 496.291 600.083 C 496.099 600.023 495.875 600.126 495.81 600.336 C 495.745 600.546 495.871 600.758 496.063 600.817 L 496.063 600.817 L 496.063 600.817 L 496.063 600.817 L 496.063 600.817 Z  M 804.18 532.71 C 805.375 533.018 806.638 532.934 807.782 532.471 L 813.132 555.16 L 816.363 554.398 L 810.654 530.189 L 835.489 503.051 C 836.864 501.541 839.026 501.031 840.93 501.768 L 875.276 514.949 L 880.986 539.159 L 884.217 538.397 L 878.869 515.718 C 880.1 515.619 881.266 515.126 882.195 514.313 C 883.812 512.903 884.514 510.713 884.018 508.625 C 883.58 506.762 882.248 505.236 880.461 504.549 L 839.831 488.955 C 836.654 487.719 833.044 488.57 830.753 491.096 L 801.371 523.199 C 800.077 524.611 799.567 526.572 800.008 528.435 C 800.497 530.524 802.104 532.17 804.18 532.71 L 804.18 532.71 L 804.18 532.71 L 804.18 532.71 L 804.18 532.71 L 804.18 532.71 L 804.18 532.71 L 804.18 532.71 L 804.18 532.71 L 804.18 532.71 L 804.18 532.71 L 804.18 532.71 Z  M 374.917 404.609 L 378.892 404.161 L 379.116 406.148 L 375.141 406.597 L 374.917 404.609 L 374.917 404.609 L 374.917 404.609 L 374.917 404.609 L 374.917 404.609 Z  M 374.468 400.635 L 378.443 400.186 L 378.667 402.173 L 374.693 402.622 L 374.468 400.635 L 374.468 400.635 L 374.468 400.635 L 374.468 400.635 L 374.468 400.635 L 374.468 400.635 Z  M 374.02 396.66 L 377.995 396.211 L 378.219 398.199 L 374.244 398.647 L 374.02 396.66 L 374.02 396.66 L 374.02 396.66 L 374.02 396.66 L 374.02 396.66 L 374.02 396.66 L 374.02 396.66 Z  M 380.879 403.937 L 394.791 402.367 L 395.015 404.354 L 381.103 405.924 L 380.879 403.937 L 380.879 403.937 L 380.879 403.937 L 380.879 403.937 L 380.879 403.937 L 380.879 403.937 L 380.879 403.937 L 380.879 403.937 Z  M 380.431 399.962 L 398.317 397.943 L 398.541 399.931 L 380.655 401.949 L 380.431 399.962 L 380.431 399.962 L 380.431 399.962 L 380.431 399.962 L 380.431 399.962 L 380.431 399.962 L 380.431 399.962 L 380.431 399.962 L 380.431 399.962 Z  M 402.694 374.303 C 403.243 374.241 403.738 374.636 403.8 375.185 L 404.697 383.134 L 402.709 383.359 L 401.7 374.416 L 402.694 374.303 L 402.694 374.303 L 402.694 374.303 L 402.694 374.303 L 402.694 374.303 L 402.694 374.303 L 402.694 374.303 L 402.694 374.303 L 402.694 374.303 L 402.694 374.303 L 402.694 374.303 L 402.694 374.303 L 402.694 374.303 Z  M 379.982 395.987 L 397.869 393.969 L 398.093 395.956 L 380.206 397.974 L 379.982 395.987 L 379.982 395.987 L 379.982 395.987 L 379.982 395.987 L 379.982 395.987 L 379.982 395.987 L 379.982 395.987 L 379.982 395.987 L 379.982 395.987 L 379.982 395.987 Z  M 373.204 371.593 L 377.179 371.145 L 377.964 378.101 L 373.989 378.549 L 373.204 371.593 L 373.204 371.593 L 373.204 371.593 L 373.204 371.593 L 373.204 371.593 L 373.204 371.593 L 373.204 371.593 L 373.204 371.593 L 373.204 371.593 L 373.204 371.593 L 373.204 371.593 L 373.204 371.593 L 373.204 371.593 Z  M 406.042 395.059 L 404.055 395.283 L 403.606 391.308 L 405.594 391.084 L 406.042 395.059 L 406.042 395.059 L 406.042 395.059 L 406.042 395.059 L 406.042 395.059 L 406.042 395.059 L 406.042 395.059 L 406.042 395.059 L 406.042 395.059 L 406.042 395.059 L 406.042 395.059 L 406.042 395.059 L 406.042 395.059 Z  M 408.285 414.933 C 408.347 415.481 407.952 415.977 407.404 416.038 L 406.227 416.171 C 406.303 415.847 406.337 415.508 406.298 415.157 L 404.952 403.233 L 406.939 403.008 L 408.285 414.933 L 408.285 414.933 L 408.285 414.933 L 408.285 414.933 L 408.285 414.933 L 408.285 414.933 L 408.285 414.933 L 408.285 414.933 L 408.285 414.933 L 408.285 414.933 L 408.285 414.933 L 408.285 414.933 L 408.285 414.933 Z  M 365.494 383.533 C 364.945 383.595 364.45 383.2 364.388 382.652 C 364.326 382.103 364.721 381.608 365.27 381.546 L 366.264 381.434 L 366.488 383.421 L 365.494 383.533 L 365.494 383.533 L 365.494 383.533 L 365.494 383.533 L 365.494 383.533 L 365.494 383.533 L 365.494 383.533 L 365.494 383.533 L 365.494 383.533 L 365.494 383.533 L 365.494 383.533 L 365.494 383.533 L 365.494 383.533 Z  M 367.737 403.407 C 367.188 403.469 366.693 403.074 366.631 402.525 C 366.569 401.977 366.964 401.481 367.513 401.42 L 368.506 401.307 L 368.731 403.295 L 367.737 403.407 L 367.737 403.407 L 367.737 403.407 L 367.737 403.407 L 367.737 403.407 L 367.737 403.407 L 367.737 403.407 L 367.737 403.407 L 367.737 403.407 L 367.737 403.407 L 367.737 403.407 L 367.737 403.407 L 367.737 403.407 Z  M 366.615 393.47 C 366.067 393.532 365.572 393.137 365.51 392.588 C 365.448 392.04 365.842 391.545 366.391 391.483 L 367.385 391.37 L 367.609 393.358 L 366.615 393.47 L 366.615 393.47 L 366.615 393.47 L 366.615 393.47 L 366.615 393.47 L 366.615 393.47 L 366.615 393.47 L 366.615 393.47 L 366.615 393.47 L 366.615 393.47 L 366.615 393.47 L 366.615 393.47 L 366.615 393.47 Z  M 368.858 413.344 C 368.309 413.406 367.814 413.011 367.752 412.462 C 367.69 411.914 368.085 411.418 368.634 411.356 L 369.628 411.244 L 369.852 413.232 L 368.858 413.344 L 368.858 413.344 L 368.858 413.344 L 368.858 413.344 L 368.858 413.344 L 368.858 413.344 L 368.858 413.344 L 368.858 413.344 L 368.858 413.344 L 368.858 413.344 L 368.858 413.344 L 368.858 413.344 L 368.858 413.344 Z  M 395.433 390.218 L 375.559 392.461 L 374.662 384.511 L 394.535 382.268 L 395.433 390.218 L 395.433 390.218 L 395.433 390.218 L 395.433 390.218 L 395.433 390.218 L 395.433 390.218 L 395.433 390.218 L 395.433 390.218 L 395.433 390.218 L 395.433 390.218 L 395.433 390.218 L 395.433 390.218 Z  M 870.333 522.912 C 869.912 521.127 868.124 520.022 866.34 520.443 L 859.877 521.967 C 858.093 522.387 856.987 524.175 857.408 525.96 L 858.932 532.422 C 859.353 534.206 861.141 535.312 862.925 534.891 L 869.387 533.367 C 871.172 532.947 872.277 531.159 871.857 529.374 L 870.333 522.912 L 870.333 522.912 L 870.333 522.912 L 870.333 522.912 L 870.333 522.912 L 870.333 522.912 L 870.333 522.912 L 870.333 522.912 L 870.333 522.912 Z  M 858.368 544.493 L 854.179 526.73 C 853.757 524.944 851.971 523.837 850.184 524.252 L 838.875 526.919 C 837.093 527.339 835.988 529.138 836.408 530.92 L 840.596 548.683 L 843.828 547.921 L 841.161 536.613 L 852.47 533.946 L 855.136 545.255 L 858.368 544.493 L 858.368 544.493 L 858.368 544.493 L 858.368 544.493 L 858.368 544.493 L 858.368 544.493 L 858.368 544.493 L 858.368 544.493 L 858.368 544.493 L 858.368 544.493 Z  M 833.175 531.674 C 832.754 529.89 830.966 528.784 829.182 529.205 L 822.719 530.729 C 820.935 531.15 819.829 532.937 820.25 534.722 L 821.774 541.184 C 822.195 542.969 823.983 544.074 825.767 543.653 L 832.229 542.129 C 834.014 541.709 835.119 539.921 834.699 538.136 L 833.175 531.674 L 833.175 531.674 L 833.175 531.674 L 833.175 531.674 L 833.175 531.674 L 833.175 531.674 L 833.175 531.674 L 833.175 531.674 Z  M 543.065 600.282 L 526.872 595.255 C 526.68 595.196 526.456 595.299 526.391 595.509 L 524.122 602.818 C 524.063 603.01 524.166 603.234 524.375 603.299 L 540.568 608.326 C 540.76 608.385 540.984 608.282 541.049 608.072 L 543.318 600.763 C 543.378 600.571 543.274 600.347 543.065 600.282 L 543.065 600.282 L 543.065 600.282 L 543.065 600.282 L 543.065 600.282 Z  M 394.311 380.281 L 374.437 382.524 C 373.341 382.648 372.551 383.639 372.674 384.736 L 373.571 392.685 C 373.695 393.781 374.687 394.572 375.783 394.448 L 395.657 392.205 C 396.753 392.082 397.544 391.09 397.42 389.994 L 396.523 382.044 C 396.399 380.948 395.407 380.157 394.311 380.281 L 394.311 380.281 L 394.311 380.281 L 394.311 380.281 L 394.311 380.281 L 394.311 380.281 L 394.311 380.281 L 394.311 380.281 L 394.311 380.281 L 394.311 380.281 L 394.311 380.281 L 394.311 380.281 Z  M 888.974 544.106 C 888.552 542.321 886.765 541.213 884.979 541.629 L 859.13 547.724 C 855.013 548.695 851.938 551.761 850.737 555.525 C 847.98 552.695 843.859 551.325 839.743 552.296 L 813.894 558.391 C 812.112 558.811 811.006 560.61 811.426 562.392 L 812.948 568.846 L 809.717 569.608 L 810.479 572.839 L 844.406 564.839 C 844.787 566.455 846.617 567.728 848.399 567.308 L 858.092 565.023 C 859.874 564.602 860.943 562.645 860.562 561.029 L 894.489 553.029 L 893.727 549.798 L 890.495 550.56 L 888.974 544.106 L 888.974 544.106 L 888.974 544.106 L 888.974 544.106 L 888.974 544.106 L 888.974 544.106 L 888.974 544.106 L 888.974 544.106 L 888.974 544.106 L 888.974 544.106 L 888.974 544.106 L 888.974 544.106 Z  M 498.062 580.235 L 516.65 586.005 C 519.85 586.998 521.629 590.407 520.641 593.59 L 511.63 622.617 L 487.255 615.05 L 498.062 580.235 L 498.062 580.235 L 498.062 580.235 L 498.062 580.235 L 498.062 580.235 Z  M 522.163 594.062 C 523.156 590.862 526.565 589.083 529.747 590.071 L 548.335 595.841 L 537.527 630.656 L 513.152 623.089 L 522.163 594.062 L 522.163 594.062 L 522.163 594.062 L 522.163 594.062 L 522.163 594.062 Z  M 396.473 417.272 L 373.618 419.851 C 373.069 419.913 372.574 419.518 372.512 418.97 L 367.578 375.247 C 367.516 374.698 367.911 374.203 368.46 374.141 L 371.441 373.805 L 372.001 378.773 C 372.125 379.869 373.117 380.66 374.213 380.536 L 378.188 380.088 C 379.284 379.964 380.075 378.972 379.951 377.876 L 379.39 372.908 L 398.27 370.777 C 398.819 370.715 399.314 371.11 399.376 371.659 L 404.31 415.381 C 404.372 415.93 403.978 416.425 403.429 416.487 L 396.473 417.272 L 396.473 417.272 L 396.473 417.272 L 396.473 417.272 L 396.473 417.272 L 396.473 417.272 L 396.473 417.272 L 396.473 417.272 L 396.473 417.272 L 396.473 417.272 L 396.473 417.272 L 396.473 417.272 L 396.473 417.272 Z  M 775.591 543.546 C 766.675 505.733 790.135 467.795 827.947 458.879 C 827.968 458.874 827.988 458.869 828.009 458.864 C 865.801 449.988 903.702 473.443 912.613 511.235 C 921.53 549.047 898.07 586.985 860.258 595.901 C 822.445 604.818 784.508 581.358 775.591 543.546 L 775.591 543.546 L 775.591 543.546 L 775.591 543.546 L 775.591 543.546 L 775.591 543.546 L 775.591 543.546 L 775.591 543.546 L 775.591 543.546 L 775.591 543.546 L 775.591 543.546 L 775.591 543.546 Z  M 409.344 388.648 L 408.896 384.673 C 408.772 383.577 407.78 382.787 406.684 382.91 L 405.787 374.961 C 405.601 373.317 404.113 372.131 402.469 372.316 L 401.476 372.428 L 401.364 371.434 C 401.178 369.791 399.69 368.604 398.046 368.79 L 379.166 370.92 C 379.042 369.824 378.05 369.034 376.954 369.157 L 372.98 369.606 C 371.884 369.73 371.093 370.721 371.216 371.817 L 368.235 372.154 C 366.592 372.339 365.405 373.828 365.591 375.471 L 366.039 379.446 L 365.046 379.558 C 363.402 379.744 362.215 381.232 362.401 382.876 C 362.586 384.519 364.075 385.706 365.718 385.52 L 366.712 385.408 L 367.161 389.383 L 366.167 389.495 C 364.523 389.681 363.337 391.169 363.522 392.813 C 363.708 394.456 365.196 395.643 366.84 395.457 L 367.833 395.345 L 368.282 399.32 L 367.288 399.432 C 365.645 399.618 364.458 401.106 364.644 402.75 C 364.829 404.393 366.318 405.58 367.961 405.394 L 368.955 405.282 L 369.403 409.257 L 368.41 409.369 C 366.766 409.555 365.58 411.043 365.765 412.687 C 365.951 414.33 367.439 415.517 369.083 415.331 L 370.076 415.219 L 370.525 419.194 C 370.71 420.837 372.199 422.024 373.842 421.839 L 407.628 418.026 C 409.271 417.84 410.458 416.352 410.272 414.708 L 408.927 402.784 C 410.023 402.66 410.814 401.668 410.69 400.572 L 410.241 396.598 C 410.118 395.502 409.126 394.711 408.03 394.835 L 407.581 390.86 C 408.677 390.736 409.468 389.744 409.344 388.648 L 409.344 388.648 L 409.344 388.648 L 409.344 388.648 L 409.344 388.648 L 409.344 388.648 L 409.344 388.648 L 409.344 388.648 L 409.344 388.648 L 409.344 388.648 L 409.344 388.648 L 409.344 388.648 L 409.344 388.648 Z  M 331.849 400.412 C 328.425 370.07 350.279 342.656 380.622 339.232 C 406.778 336.28 430.758 352.112 439.07 375.973 C 440.401 379.793 441.33 383.818 441.803 388.004 C 445.227 418.347 423.372 445.761 393.03 449.185 C 362.687 452.609 335.273 430.755 331.849 400.412 L 331.849 400.412 L 331.849 400.412 L 331.849 400.412 L 331.849 400.412 L 331.849 400.412 L 331.849 400.412 L 331.849 400.412 L 331.849 400.412 L 331.849 400.412 L 331.849 400.412 L 331.849 400.412 Z  M 550.789 600.226 L 548.83 599.618 L 550.095 595.544 C 550.225 595.124 549.996 594.689 549.577 594.558 L 530.22 588.549 C 527.352 587.659 524.33 588.562 522.392 590.605 C 521.952 587.823 519.99 585.374 517.105 584.478 L 497.765 578.474 C 497.346 578.344 496.91 578.573 496.78 578.993 L 495.515 583.067 L 493.557 582.459 C 493.137 582.329 492.702 582.558 492.571 582.978 L 481.954 617.181 C 481.823 617.6 482.052 618.036 482.472 618.166 L 539.687 635.927 C 540.107 636.058 540.542 635.828 540.672 635.409 L 551.29 601.206 C 551.438 600.792 551.209 600.356 550.789 600.226 L 550.789 600.226 L 550.789 600.226 L 550.789 600.226 L 550.789 600.226 L 550.789 600.226 Z  M 460.279 589.057 C 470.06 557.547 503.584 539.906 535.094 549.688 C 540.016 551.216 544.6 553.323 548.793 555.911 C 571.447 569.893 582.718 597.915 574.464 624.504 C 564.682 656.014 531.158 673.655 499.648 663.873 C 468.138 654.091 450.497 620.567 460.279 589.057 L 460.279 589.057 L 460.279 589.057 L 460.279 589.057 Z  M 803.075 327.15 C 802.528 327.09 802.031 327.488 801.971 328.035 C 801.911 328.581 802.309 329.078 802.856 329.138 C 803.402 329.198 803.899 328.8 803.959 328.253 C 804.019 327.707 803.621 327.21 803.075 327.15 L 803.075 327.15 L 803.075 327.15 Z  M 817.665 340.829 L 817.446 342.817 L 822.416 343.364 L 822.635 341.376 L 817.665 340.829 L 817.665 340.829 L 817.665 340.829 Z  M 808.574 304.616 L 808.355 306.604 L 815.313 307.37 L 815.532 305.383 L 808.574 304.616 L 808.574 304.616 L 808.574 304.616 Z  M 776.373 350.367 C 775.827 350.307 775.33 350.705 775.27 351.252 C 775.21 351.799 775.608 352.295 776.155 352.355 C 776.701 352.416 777.198 352.018 777.258 351.471 C 777.318 350.924 776.92 350.428 776.373 350.367 L 776.373 350.367 L 776.373 350.367 Z  M 796.983 309.377 L 796.764 311.365 L 801.734 311.912 L 801.953 309.924 L 796.983 309.377 L 796.983 309.377 L 796.983 309.377 Z  M 804.826 311.246 C 804.279 311.186 803.782 311.584 803.722 312.131 C 803.662 312.677 804.06 313.174 804.607 313.234 C 805.153 313.294 805.65 312.896 805.71 312.35 C 805.77 311.803 805.372 311.306 804.826 311.246 L 804.826 311.246 L 804.826 311.246 Z  M 787.176 311.677 L 786.434 313.528 L 789.234 314.658 L 789.984 312.803 L 787.176 311.677 L 787.176 311.677 L 787.176 311.677 Z  M 804.388 315.222 C 803.841 315.162 803.345 315.56 803.284 316.107 C 803.224 316.653 803.622 317.15 804.169 317.21 C 804.716 317.27 805.212 316.872 805.272 316.326 C 805.333 315.779 804.935 315.282 804.388 315.222 L 804.388 315.222 L 804.388 315.222 Z  M 803.95 319.198 C 803.403 319.138 802.907 319.536 802.847 320.083 C 802.786 320.629 803.185 321.126 803.731 321.186 C 804.278 321.246 804.774 320.848 804.835 320.301 C 804.895 319.755 804.497 319.258 803.95 319.198 L 803.95 319.198 L 803.95 319.198 Z  M 816.872 320.621 C 816.325 320.561 815.829 320.959 815.769 321.505 C 815.708 322.052 816.106 322.549 816.653 322.609 C 817.2 322.669 817.696 322.271 817.757 321.724 C 817.817 321.177 817.419 320.681 816.872 320.621 L 816.872 320.621 L 816.872 320.621 Z  M 819.854 320.949 L 819.635 322.937 L 824.605 323.484 L 824.824 321.496 L 819.854 320.949 L 819.854 320.949 L 819.854 320.949 Z  M 791.925 318.766 L 789.396 341.741 C 789.357 342.091 789.394 342.429 789.473 342.755 L 782.696 342.009 C 782.713 341.964 782.745 341.928 782.761 341.878 L 791.925 318.766 L 791.925 318.766 L 791.925 318.766 Z  M 803.512 323.174 C 802.966 323.114 802.469 323.512 802.409 324.059 C 802.349 324.605 802.747 325.102 803.293 325.162 C 803.84 325.222 804.337 324.824 804.397 324.277 C 804.457 323.731 804.059 323.234 803.512 323.174 L 803.512 323.174 L 803.512 323.174 Z  M 816.434 324.597 C 815.888 324.537 815.391 324.935 815.331 325.481 C 815.271 326.028 815.669 326.524 816.215 326.585 C 816.762 326.645 817.259 326.247 817.319 325.7 C 817.379 325.153 816.981 324.657 816.434 324.597 L 816.434 324.597 L 816.434 324.597 Z  M 818.121 354.964 C 817.574 354.904 817.078 355.302 817.018 355.848 C 816.958 356.395 817.356 356.891 817.902 356.952 C 818.449 357.012 818.946 356.614 819.006 356.067 C 819.066 355.52 818.668 355.024 818.121 354.964 L 818.121 354.964 L 818.121 354.964 Z  M 815.997 328.573 C 815.45 328.512 814.953 328.911 814.893 329.457 C 814.833 330.004 815.231 330.5 815.778 330.561 C 816.324 330.621 816.821 330.223 816.881 329.676 C 816.941 329.129 816.543 328.633 815.997 328.573 L 815.997 328.573 L 815.997 328.573 Z  M 802.637 331.126 C 802.09 331.066 801.594 331.464 801.533 332.011 C 801.473 332.557 801.871 333.054 802.418 333.114 C 802.965 333.174 803.461 332.776 803.521 332.229 C 803.582 331.683 803.184 331.186 802.637 331.126 L 802.637 331.126 L 802.637 331.126 Z  M 815.559 332.549 C 815.012 332.488 814.516 332.887 814.455 333.433 C 814.395 333.98 814.793 334.476 815.34 334.537 C 815.887 334.597 816.383 334.199 816.443 333.652 C 816.504 333.105 816.105 332.609 815.559 332.549 L 815.559 332.549 L 815.559 332.549 Z  M 802.199 335.102 C 801.652 335.042 801.156 335.44 801.096 335.987 C 801.036 336.533 801.434 337.03 801.98 337.09 C 802.527 337.15 803.023 336.752 803.084 336.205 C 803.144 335.659 802.746 335.162 802.199 335.102 L 802.199 335.102 L 802.199 335.102 Z  M 815.121 336.525 C 814.574 336.464 814.078 336.862 814.018 337.409 C 813.957 337.956 814.355 338.452 814.902 338.513 C 815.449 338.573 815.945 338.175 816.006 337.628 C 816.066 337.081 815.668 336.585 815.121 336.525 L 815.121 336.525 L 815.121 336.525 Z  M 777.777 335.482 L 777.026 337.341 L 779.826 338.467 L 780.576 336.616 L 777.777 335.482 L 777.777 335.482 L 777.777 335.482 Z  M 793.809 338.202 L 793.591 340.19 L 798.561 340.738 L 798.779 338.75 L 793.809 338.202 L 793.809 338.202 L 793.809 338.202 Z  M 801.761 339.078 C 801.215 339.018 800.718 339.416 800.658 339.962 C 800.598 340.509 800.996 341.006 801.543 341.066 C 802.089 341.126 802.586 340.728 802.646 340.181 C 802.706 339.635 802.308 339.138 801.761 339.078 L 801.761 339.078 L 801.761 339.078 Z  M 804.743 339.406 L 804.524 341.394 L 811.482 342.16 L 811.701 340.172 L 804.743 339.406 L 804.743 339.406 L 804.743 339.406 Z  M 814.683 340.501 C 814.137 340.44 813.64 340.838 813.58 341.385 C 813.52 341.932 813.918 342.428 814.464 342.489 C 815.011 342.549 815.508 342.151 815.568 341.604 C 815.628 341.057 815.23 340.561 814.683 340.501 L 814.683 340.501 L 814.683 340.501 Z  M 766.206 342.206 L 779.078 343.623 C 779.457 343.743 779.842 343.781 780.223 343.749 L 829.821 349.21 L 829.055 356.167 L 820.109 355.183 L 819.234 363.135 C 819.111 364.245 818.137 365.026 817.027 364.904 C 815.917 364.781 815.135 363.807 815.258 362.697 L 816.133 354.745 L 778.361 350.586 L 777.486 358.538 C 777.364 359.648 776.389 360.43 775.279 360.307 C 774.169 360.185 773.388 359.211 773.51 358.1 L 774.385 350.149 L 765.439 349.164 L 766.206 342.206 L 766.206 342.206 L 766.206 342.206 Z  M 787.089 308.182 C 787.223 308.18 787.355 308.203 787.486 308.253 L 792.137 310.097 C 792.386 310.191 792.586 310.382 792.691 310.626 C 792.796 310.871 792.797 311.147 792.694 311.392 L 780.907 341.144 C 780.784 341.446 780.519 341.668 780.2 341.734 L 779.483 341.655 L 774.955 339.864 C 774.707 339.768 774.508 339.577 774.402 339.332 C 774.297 339.088 774.294 338.811 774.395 338.565 L 786.187 308.817 C 786.329 308.44 786.687 308.188 787.089 308.182 L 787.089 308.182 L 787.089 308.182 Z  M 807.908 301.525 L 816.854 302.51 C 817.416 302.572 817.8 303.051 817.738 303.613 L 816.097 318.523 L 818.085 318.742 C 818.147 318.18 818.626 317.796 819.188 317.858 L 826.146 318.624 C 826.709 318.686 827.093 319.164 827.031 319.727 L 824.185 345.571 C 824.124 346.134 823.645 346.517 823.082 346.455 L 816.124 345.689 C 815.562 345.627 815.178 345.149 815.24 344.586 L 813.252 344.367 C 813.19 344.93 812.711 345.314 812.148 345.252 L 803.202 344.267 C 802.64 344.205 802.256 343.726 802.318 343.163 L 800.33 342.944 C 800.268 343.507 799.789 343.891 799.226 343.829 L 792.268 343.063 C 791.706 343.001 791.322 342.522 791.384 341.96 L 795.105 308.164 C 795.166 307.601 795.645 307.217 796.208 307.279 L 803.166 308.045 C 803.729 308.107 804.112 308.586 804.05 309.149 L 806.038 309.368 L 806.805 302.41 C 806.866 301.847 807.345 301.463 807.908 301.525 L 807.908 301.525 L 807.908 301.525 Z  M 808.127 299.537 C 806.492 299.357 804.997 300.556 804.817 302.191 L 804.333 306.582 C 804.006 306.405 803.769 306.1 803.385 306.057 L 796.427 305.291 C 794.792 305.111 793.297 306.31 793.117 307.945 L 793.073 308.344 C 793.006 308.31 792.943 308.268 792.873 308.236 L 788.226 306.396 C 786.686 305.791 784.946 306.542 784.33 308.078 L 772.536 337.826 C 772.121 338.898 772.353 340.113 773.134 340.956 L 766.424 340.218 C 765.337 340.098 764.337 340.899 764.218 341.987 L 763.452 348.945 C 763.332 350.032 764.133 351.032 765.221 351.152 L 772.179 351.918 L 771.522 357.882 C 771.281 360.068 772.873 362.055 775.06 362.295 C 777.247 362.536 779.233 360.944 779.474 358.757 L 780.131 352.793 L 813.926 356.514 L 813.27 362.478 C 813.029 364.665 814.621 366.651 816.808 366.892 C 818.995 367.132 820.981 365.54 821.222 363.353 L 821.878 357.389 L 828.836 358.155 C 829.924 358.275 830.923 357.474 831.043 356.386 L 831.809 349.428 C 831.929 348.341 831.127 347.341 830.04 347.222 L 825.877 346.763 C 826.032 346.458 826.132 346.129 826.173 345.79 L 829.019 319.946 C 829.199 318.311 828 316.816 826.365 316.636 L 819.407 315.87 C 819.023 315.827 818.725 316.073 818.367 316.176 L 819.726 303.832 C 819.906 302.197 818.708 300.702 817.073 300.522 L 808.127 299.537 L 808.127 299.537 L 808.127 299.537 Z  M 744.669 325.75 C 748.003 295.463 775.3 273.58 805.587 276.915 C 835.875 280.249 857.757 307.546 854.422 337.833 C 851.088 368.121 823.791 390.003 793.504 386.668 C 763.216 383.334 741.334 356.037 744.669 325.75 L 744.669 325.75 Z " fill-rule="evenodd" fill="rgb(235,235,235)"/></svg>