<?xml version="1.0" standalone="no"?><!-- Generator: Gravit.io --><svg xmlns="http://www.w3.org/2000/svg" xmlns:xlink="http://www.w3.org/1999/xlink" style="isolation:isolate" viewBox="-4.308 401.354 204.094 65.39" width="204.094" height="65.39"><g><g><g><radialGradient id="_rgradient_2" fx="0.4976635514018688" fy="0.4900702336056586" cx="0.5" cy="0.5" r="0.5" gradientTransform="matrix(55.953,-2.967,2.829,45.061,-19.339,405.938)" gradientUnits="userSpaceOnUse"><stop offset="0%" stop-opacity="1" style="stop-color:rgb(255,255,255)"/><stop offset="100%" stop-opacity="1" style="stop-color:rgb(164,164,164)"/></radialGradient><circle vector-effect="non-scaling-stroke" cx="25.872624816880176" cy="423.511250515994" r="18.967385586442106" fill="url(#_rgradient_2)"/><linearGradient id="_lgradient_4" x1="0.0022624434389139914" y1="0.6926359261960697" x2="0.9253393665158373" y2="0.2909551477302543" gradientTransform="matrix(69.477,0,0,61.047,-3.155,405.697)" gradientUnits="userSpaceOnUse"><stop offset="0%" stop-opacity="1" style="stop-color:rgb(191,120,20)"/><stop offset="49.56521739130435%" stop-opacity="1" style="stop-color:rgb(253,191,0)"/><stop offset="100%" stop-opacity="1" style="stop-color:rgb(212,161,0)"/></linearGradient><path d=" M -3.155 419.005 Q 11.972 430.277 22.205 428.541 C 33.942 426.55 43.478 414.08 46.202 405.697 L 66.322 442.269 Q 63.493 460.398 49.451 465.323 Q 35.409 470.249 14.869 458.093 L -3.155 419.005 Z " fill="url(#_lgradient_4)"/><linearGradient id="_lgradient_5" x1="0.20154690618762464" y1="0.6984131693214242" x2="0.8809880239520955" y2="0.3572791793312508" gradientTransform="matrix(70.001,0,0,55.581,-4.308,411.146)" gradientUnits="userSpaceOnUse"><stop offset="2.1739130434782608%" stop-opacity="1" style="stop-color:rgb(194,127,38)"/><stop offset="44.13296109479239%" stop-opacity="1" style="stop-color:rgb(219,189,148)"/><stop offset="58.78278853482464%" stop-opacity="1" style="stop-color:rgb(238,236,233)"/><stop offset="74.91628914713415%" stop-opacity="1" style="stop-color:rgb(246,217,131)"/><stop offset="100%" stop-opacity="1" style="stop-color:rgb(255,195,15)"/></linearGradient><path d=" M -4.308 423.092 C -3.364 426.026 14.869 432.419 27.025 430.951 C 38.472 429.57 44.735 421.625 46.412 411.146 L 65.694 443.841 Q 63.493 460.398 49.451 465.323 Q 35.409 470.249 14.45 457.883 L -4.308 423.092 Z " fill="url(#_lgradient_5)"/></g></g><path d=" M 94.699 428.259 L 94.699 428.259 Q 95.666 428.529 96.197 429.242 L 96.197 429.242 L 96.197 429.242 Q 96.728 429.955 96.728 430.986 L 96.728 430.986 L 96.728 430.986 Q 96.728 432.413 95.706 433.221 L 95.706 433.221 L 95.706 433.221 Q 94.683 434.03 92.892 434.03 L 92.892 434.03 L 87.819 434.03 L 87.819 422.854 L 92.733 422.854 L 92.733 422.854 Q 94.477 422.854 95.468 423.622 L 95.468 423.622 L 95.468 423.622 Q 96.459 424.391 96.459 425.77 L 96.459 425.77 L 96.459 425.77 Q 96.459 426.658 95.991 427.308 L 95.991 427.308 L 95.991 427.308 Q 95.523 427.958 94.699 428.259 L 94.699 428.259 L 94.699 428.259 Z  M 89.816 424.439 L 89.816 427.562 L 92.4 427.562 L 92.4 427.562 Q 94.509 427.562 94.509 425.992 L 94.509 425.992 L 94.509 425.992 Q 94.509 425.2 93.986 424.819 L 93.986 424.819 L 93.986 424.819 Q 93.462 424.439 92.4 424.439 L 92.4 424.439 L 89.816 424.439 L 89.816 424.439 Z  M 92.67 432.444 L 92.67 432.444 Q 93.779 432.444 94.287 432.048 L 94.287 432.048 L 94.287 432.048 Q 94.794 431.652 94.794 430.812 L 94.794 430.812 L 94.794 430.812 Q 94.794 429.971 94.279 429.559 L 94.279 429.559 L 94.279 429.559 Q 93.764 429.147 92.67 429.147 L 92.67 429.147 L 89.816 429.147 L 89.816 432.444 L 92.67 432.444 L 92.67 432.444 Z  M 100.691 434.03 L 98.646 434.03 L 98.646 422.854 L 100.691 422.854 L 100.691 434.03 L 100.691 434.03 Z  M 109.981 428.259 L 109.981 428.259 Q 110.948 428.529 111.479 429.242 L 111.479 429.242 L 111.479 429.242 Q 112.01 429.955 112.01 430.986 L 112.01 430.986 L 112.01 430.986 Q 112.01 432.413 110.987 433.221 L 110.987 433.221 L 110.987 433.221 Q 109.965 434.03 108.174 434.03 L 108.174 434.03 L 103.101 434.03 L 103.101 422.854 L 108.015 422.854 L 108.015 422.854 Q 109.759 422.854 110.75 423.622 L 110.75 423.622 L 110.75 423.622 Q 111.74 424.391 111.74 425.77 L 111.74 425.77 L 111.74 425.77 Q 111.74 426.658 111.273 427.308 L 111.273 427.308 L 111.273 427.308 Q 110.805 427.958 109.981 428.259 L 109.981 428.259 L 109.981 428.259 Z  M 105.098 424.439 L 105.098 427.562 L 107.682 427.562 L 107.682 427.562 Q 109.791 427.562 109.791 425.992 L 109.791 425.992 L 109.791 425.992 Q 109.791 425.2 109.267 424.819 L 109.267 424.819 L 109.267 424.819 Q 108.744 424.439 107.682 424.439 L 107.682 424.439 L 105.098 424.439 L 105.098 424.439 Z  M 107.952 432.444 L 107.952 432.444 Q 109.061 432.444 109.569 432.048 L 109.569 432.048 L 109.569 432.048 Q 110.076 431.652 110.076 430.812 L 110.076 430.812 L 110.076 430.812 Q 110.076 429.971 109.561 429.559 L 109.561 429.559 L 109.561 429.559 Q 109.046 429.147 107.952 429.147 L 107.952 429.147 L 105.098 429.147 L 105.098 432.444 L 107.952 432.444 L 107.952 432.444 Z  M 121.189 434.03 L 113.928 434.03 L 113.928 422.854 L 115.973 422.854 L 115.973 432.349 L 121.189 432.349 L 121.189 434.03 L 121.189 434.03 Z  M 124.771 434.03 L 122.726 434.03 L 122.726 422.854 L 124.771 422.854 L 124.771 434.03 L 124.771 434.03 Z  M 132.159 434.172 L 132.159 434.172 Q 130.526 434.172 129.329 433.475 L 129.329 433.475 L 129.329 433.475 Q 128.132 432.777 127.482 431.477 L 127.482 431.477 L 127.482 431.477 Q 126.832 430.177 126.832 428.434 L 126.832 428.434 L 126.832 428.434 Q 126.832 426.69 127.474 425.398 L 127.474 425.398 L 127.474 425.398 Q 128.116 424.106 129.321 423.408 L 129.321 423.408 L 129.321 423.408 Q 130.526 422.711 132.159 422.711 L 132.159 422.711 L 132.159 422.711 Q 133.792 422.711 134.988 423.408 L 134.988 423.408 L 134.988 423.408 Q 136.185 424.106 136.827 425.398 L 136.827 425.398 L 136.827 425.398 Q 137.469 426.69 137.469 428.434 L 137.469 428.434 L 137.469 428.434 Q 137.469 430.177 136.819 431.477 L 136.819 431.477 L 136.819 431.477 Q 136.169 432.777 134.973 433.475 L 134.973 433.475 L 134.973 433.475 Q 133.776 434.172 132.159 434.172 L 132.159 434.172 L 132.159 434.172 Z  M 132.159 432.539 L 132.159 432.539 Q 133.696 432.539 134.56 431.477 L 134.56 431.477 L 134.56 431.477 Q 135.424 430.415 135.424 428.434 L 135.424 428.434 L 135.424 428.434 Q 135.424 426.452 134.56 425.398 L 134.56 425.398 L 134.56 425.398 Q 133.696 424.344 132.159 424.344 L 132.159 424.344 L 132.159 424.344 Q 130.605 424.344 129.741 425.398 L 129.741 425.398 L 129.741 425.398 Q 128.877 426.452 128.877 428.434 L 128.877 428.434 L 128.877 428.434 Q 128.877 430.415 129.741 431.477 L 129.741 431.477 L 129.741 431.477 Q 130.605 432.539 132.159 432.539 L 132.159 432.539 L 132.159 432.539 Z  M 144.207 434.03 L 142.162 434.03 L 142.162 424.534 L 138.516 424.534 L 138.516 422.854 L 147.853 422.854 L 147.853 424.534 L 144.207 424.534 L 144.207 434.03 L 144.207 434.03 Z  M 156.73 434.03 L 149.248 434.03 L 149.248 422.854 L 156.73 422.854 L 156.73 424.47 L 151.245 424.47 L 151.245 427.546 L 156.413 427.546 L 156.413 429.147 L 151.245 429.147 L 151.245 432.413 L 156.73 432.413 L 156.73 434.03 L 156.73 434.03 Z  M 163.658 434.172 L 163.658 434.172 Q 162.009 434.172 160.781 433.467 L 160.781 433.467 L 160.781 433.467 Q 159.552 432.761 158.894 431.461 L 158.894 431.461 L 158.894 431.461 Q 158.236 430.162 158.236 428.434 L 158.236 428.434 L 158.236 428.434 Q 158.236 426.706 158.894 425.414 L 158.894 425.414 L 158.894 425.414 Q 159.552 424.122 160.781 423.416 L 160.781 423.416 L 160.781 423.416 Q 162.009 422.711 163.658 422.711 L 163.658 422.711 L 163.658 422.711 Q 164.783 422.711 165.782 423.06 L 165.782 423.06 L 165.782 423.06 Q 166.781 423.408 167.463 424.042 L 167.463 424.042 L 166.781 425.533 L 166.781 425.533 Q 166.02 424.93 165.275 424.653 L 165.275 424.653 L 165.275 424.653 Q 164.53 424.375 163.69 424.375 L 163.69 424.375 L 163.69 424.375 Q 162.073 424.375 161.193 425.422 L 161.193 425.422 L 161.193 425.422 Q 160.313 426.468 160.313 428.434 L 160.313 428.434 L 160.313 428.434 Q 160.313 430.415 161.193 431.461 L 161.193 431.461 L 161.193 431.461 Q 162.073 432.508 163.69 432.508 L 163.69 432.508 L 163.69 432.508 Q 164.53 432.508 165.275 432.23 L 165.275 432.23 L 165.275 432.23 Q 166.02 431.953 166.781 431.351 L 166.781 431.351 L 167.463 432.841 L 167.463 432.841 Q 166.781 433.475 165.782 433.824 L 165.782 433.824 L 165.782 433.824 Q 164.783 434.172 163.658 434.172 L 163.658 434.172 L 163.658 434.172 Z  M 179.907 434.03 L 177.878 434.03 L 176.752 431.414 L 171.315 431.414 L 170.189 434.03 L 168.128 434.03 L 173.185 422.854 L 174.85 422.854 L 179.907 434.03 L 179.907 434.03 Z  M 174.026 425.073 L 171.981 429.829 L 176.071 429.829 L 174.026 425.073 L 174.026 425.073 Z  M 184.885 434.172 L 184.885 434.172 Q 183.601 434.172 182.475 433.824 L 182.475 433.824 L 182.475 433.824 Q 181.349 433.475 180.573 432.841 L 180.573 432.841 L 181.254 431.351 L 181.254 431.351 Q 182.063 431.969 182.958 432.254 L 182.958 432.254 L 182.958 432.254 Q 183.854 432.539 184.9 432.539 L 184.9 432.539 L 184.9 432.539 Q 186.058 432.539 186.684 432.135 L 186.684 432.135 L 186.684 432.135 Q 187.31 431.731 187.31 431.002 L 187.31 431.002 L 187.31 431.002 Q 187.31 430.368 186.731 430.035 L 186.731 430.035 L 186.731 430.035 Q 186.153 429.702 184.805 429.401 L 184.805 429.401 L 184.805 429.401 Q 183.41 429.099 182.538 428.703 L 182.538 428.703 L 182.538 428.703 Q 181.666 428.307 181.223 427.689 L 181.223 427.689 L 181.223 427.689 Q 180.779 427.07 180.779 426.119 L 180.779 426.119 L 180.779 426.119 Q 180.779 425.136 181.318 424.36 L 181.318 424.36 L 181.318 424.36 Q 181.857 423.583 182.84 423.147 L 182.84 423.147 L 182.84 423.147 Q 183.822 422.711 185.107 422.711 L 185.107 422.711 L 185.107 422.711 Q 186.28 422.711 187.342 423.068 L 187.342 423.068 L 187.342 423.068 Q 188.404 423.424 189.086 424.042 L 189.086 424.042 L 188.404 425.533 L 188.404 425.533 Q 186.914 424.344 185.107 424.344 L 185.107 424.344 L 185.107 424.344 Q 184.029 424.344 183.402 424.78 L 183.402 424.78 L 183.402 424.78 Q 182.776 425.216 182.776 425.992 L 182.776 425.992 L 182.776 425.992 Q 182.776 426.642 183.331 426.991 L 183.331 426.991 L 183.331 426.991 Q 183.886 427.34 185.217 427.641 L 185.217 427.641 L 185.217 427.641 Q 186.628 427.958 187.508 428.346 L 187.508 428.346 L 187.508 428.346 Q 188.388 428.735 188.856 429.337 L 188.856 429.337 L 188.856 429.337 Q 189.323 429.94 189.323 430.859 L 189.323 430.859 L 189.323 430.859 Q 189.323 431.858 188.792 432.611 L 188.792 432.611 L 188.792 432.611 Q 188.261 433.364 187.255 433.768 L 187.255 433.768 L 187.255 433.768 Q 186.248 434.172 184.885 434.172 L 184.885 434.172 L 184.885 434.172 Z  M 168.804 417.381 L 168.804 406.204 L 172.925 406.204 L 172.925 406.204 Q 175.668 406.204 177.182 407.671 L 177.182 407.671 L 177.182 407.671 Q 178.696 409.137 178.696 411.785 L 178.696 411.785 L 178.696 411.785 Q 178.696 414.432 177.182 415.906 L 177.182 415.906 L 177.182 415.906 Q 175.668 417.381 172.925 417.381 L 172.925 417.381 L 168.804 417.381 L 168.804 417.381 Z  M 170.849 415.716 L 172.798 415.716 L 172.798 415.716 Q 176.651 415.716 176.651 411.785 L 176.651 411.785 L 176.651 411.785 Q 176.651 407.869 172.798 407.869 L 172.798 407.869 L 170.849 407.869 L 170.849 415.716 L 170.849 415.716 Z  M 188.239 417.381 L 180.757 417.381 L 180.757 406.204 L 188.239 406.204 L 188.239 407.821 L 182.754 407.821 L 182.754 410.897 L 187.922 410.897 L 187.922 412.498 L 182.754 412.498 L 182.754 415.764 L 188.239 415.764 L 188.239 417.381 L 188.239 417.381 Z  M 92.724 417.523 L 92.724 417.523 Q 91.44 417.523 90.314 417.175 L 90.314 417.175 L 90.314 417.175 Q 89.189 416.826 88.412 416.192 L 88.412 416.192 L 89.093 414.702 L 89.093 414.702 Q 89.902 415.32 90.798 415.605 L 90.798 415.605 L 90.798 415.605 Q 91.693 415.89 92.74 415.89 L 92.74 415.89 L 92.74 415.89 Q 93.897 415.89 94.523 415.486 L 94.523 415.486 L 94.523 415.486 Q 95.149 415.082 95.149 414.353 L 95.149 414.353 L 95.149 414.353 Q 95.149 413.719 94.57 413.386 L 94.57 413.386 L 94.57 413.386 Q 93.992 413.053 92.644 412.752 L 92.644 412.752 L 92.644 412.752 Q 91.249 412.45 90.377 412.054 L 90.377 412.054 L 90.377 412.054 Q 89.506 411.658 89.062 411.04 L 89.062 411.04 L 89.062 411.04 Q 88.618 410.421 88.618 409.47 L 88.618 409.47 L 88.618 409.47 Q 88.618 408.487 89.157 407.71 L 89.157 407.71 L 89.157 407.71 Q 89.696 406.934 90.679 406.498 L 90.679 406.498 L 90.679 406.498 Q 91.662 406.062 92.946 406.062 L 92.946 406.062 L 92.946 406.062 Q 94.119 406.062 95.181 406.418 L 95.181 406.418 L 95.181 406.418 Q 96.243 406.775 96.925 407.393 L 96.925 407.393 L 96.243 408.884 L 96.243 408.884 Q 94.753 407.695 92.946 407.695 L 92.946 407.695 L 92.946 407.695 Q 91.868 407.695 91.241 408.131 L 91.241 408.131 L 91.241 408.131 Q 90.615 408.567 90.615 409.343 L 90.615 409.343 L 90.615 409.343 Q 90.615 409.993 91.17 410.342 L 91.17 410.342 L 91.17 410.342 Q 91.725 410.691 93.057 410.992 L 93.057 410.992 L 93.057 410.992 Q 94.467 411.309 95.347 411.697 L 95.347 411.697 L 95.347 411.697 Q 96.227 412.086 96.695 412.688 L 96.695 412.688 L 96.695 412.688 Q 97.162 413.291 97.162 414.21 L 97.162 414.21 L 97.162 414.21 Q 97.162 415.209 96.631 415.962 L 96.631 415.962 L 96.631 415.962 Q 96.1 416.715 95.094 417.119 L 95.094 417.119 L 95.094 417.119 Q 94.087 417.523 92.724 417.523 L 92.724 417.523 L 92.724 417.523 Z  M 101.094 417.381 L 99.049 417.381 L 99.049 406.204 L 101.094 406.204 L 101.094 417.381 L 101.094 417.381 Z  M 107.292 417.523 L 107.292 417.523 Q 106.008 417.523 104.883 417.175 L 104.883 417.175 L 104.883 417.175 Q 103.757 416.826 102.98 416.192 L 102.98 416.192 L 103.662 414.702 L 103.662 414.702 Q 104.47 415.32 105.366 415.605 L 105.366 415.605 L 105.366 415.605 Q 106.262 415.89 107.308 415.89 L 107.308 415.89 L 107.308 415.89 Q 108.465 415.89 109.092 415.486 L 109.092 415.486 L 109.092 415.486 Q 109.718 415.082 109.718 414.353 L 109.718 414.353 L 109.718 414.353 Q 109.718 413.719 109.139 413.386 L 109.139 413.386 L 109.139 413.386 Q 108.56 413.053 107.213 412.752 L 107.213 412.752 L 107.213 412.752 Q 105.818 412.45 104.946 412.054 L 104.946 412.054 L 104.946 412.054 Q 104.074 411.658 103.63 411.04 L 103.63 411.04 L 103.63 411.04 Q 103.186 410.421 103.186 409.47 L 103.186 409.47 L 103.186 409.47 Q 103.186 408.487 103.725 407.71 L 103.725 407.71 L 103.725 407.71 Q 104.264 406.934 105.247 406.498 L 105.247 406.498 L 105.247 406.498 Q 106.23 406.062 107.514 406.062 L 107.514 406.062 L 107.514 406.062 Q 108.687 406.062 109.749 406.418 L 109.749 406.418 L 109.749 406.418 Q 110.812 406.775 111.493 407.393 L 111.493 407.393 L 110.812 408.884 L 110.812 408.884 Q 109.321 407.695 107.514 407.695 L 107.514 407.695 L 107.514 407.695 Q 106.436 407.695 105.81 408.131 L 105.81 408.131 L 105.81 408.131 Q 105.184 408.567 105.184 409.343 L 105.184 409.343 L 105.184 409.343 Q 105.184 409.993 105.739 410.342 L 105.739 410.342 L 105.739 410.342 Q 106.294 410.691 107.625 410.992 L 107.625 410.992 L 107.625 410.992 Q 109.036 411.309 109.916 411.697 L 109.916 411.697 L 109.916 411.697 Q 110.796 412.086 111.263 412.688 L 111.263 412.688 L 111.263 412.688 Q 111.731 413.291 111.731 414.21 L 111.731 414.21 L 111.731 414.21 Q 111.731 415.209 111.2 415.962 L 111.2 415.962 L 111.2 415.962 Q 110.669 416.715 109.662 417.119 L 109.662 417.119 L 109.662 417.119 Q 108.656 417.523 107.292 417.523 L 107.292 417.523 L 107.292 417.523 Z  M 118.294 417.381 L 116.249 417.381 L 116.249 407.885 L 112.603 407.885 L 112.603 406.204 L 121.94 406.204 L 121.94 407.885 L 118.294 407.885 L 118.294 417.381 L 118.294 417.381 Z  M 130.818 417.381 L 123.335 417.381 L 123.335 406.204 L 130.818 406.204 L 130.818 407.821 L 125.333 407.821 L 125.333 410.897 L 130.501 410.897 L 130.501 412.498 L 125.333 412.498 L 125.333 415.764 L 130.818 415.764 L 130.818 417.381 L 130.818 417.381 Z  M 138.157 413.513 L 141.978 406.204 L 143.579 406.204 L 143.579 417.381 L 141.772 417.381 L 141.772 409.993 L 138.823 415.573 L 137.46 415.573 L 134.495 410.073 L 134.511 417.381 L 132.704 417.381 L 132.704 406.204 L 134.321 406.204 L 138.157 413.513 L 138.157 413.513 Z  M 156.578 417.381 L 154.549 417.381 L 153.423 414.765 L 147.986 414.765 L 146.86 417.381 L 144.8 417.381 L 149.857 406.204 L 151.521 406.204 L 156.578 417.381 L 156.578 417.381 Z  M 150.697 408.424 L 148.652 413.18 L 152.742 413.18 L 150.697 408.424 L 150.697 408.424 Z " fill-rule="evenodd" fill="rgb(245,245,245)"/></g></svg>