<?xml version="1.0" encoding="UTF-8" standalone="no"?>
<!-- Created with Inkscape (http://www.inkscape.org/) -->

<svg
   xmlns:dc="http://purl.org/dc/elements/1.1/"
   xmlns:cc="http://creativecommons.org/ns#"
   xmlns:rdf="http://www.w3.org/1999/02/22-rdf-syntax-ns#"
   xmlns:svg="http://www.w3.org/2000/svg"
   xmlns="http://www.w3.org/2000/svg"
   xmlns:sodipodi="http://sodipodi.sourceforge.net/DTD/sodipodi-0.dtd"
   xmlns:inkscape="http://www.inkscape.org/namespaces/inkscape"
   width="219mm"
   height="316mm"
   viewBox="0 0 775.98428 1119.6849"
   id="svg17253"
   version="1.1"
   inkscape:version="0.91 r13725"
   sodipodi:docname="ufal-brasao.svg">
  <defs
     id="defs17255" />
  <sodipodi:namedview
     id="base"
     pagecolor="#ffffff"
     bordercolor="#666666"
     borderopacity="1.0"
     inkscape:pageopacity="0"
     inkscape:pageshadow="2"
     inkscape:zoom="0.21213203"
     inkscape:cx="418.22006"
     inkscape:cy="260.69719"
     inkscape:document-units="px"
     inkscape:current-layer="layer1"
     showgrid="false"
     inkscape:window-width="1024"
     inkscape:window-height="705"
     inkscape:window-x="-8"
     inkscape:window-y="-8"
     inkscape:window-maximized="1"
     inkscape:snap-bbox="true"
     inkscape:snap-bbox-edge-midpoints="false"
     inkscape:snap-bbox-midpoints="true" />
  <metadata
     id="metadata17258">
    <rdf:RDF>
      <cc:Work
         rdf:about="">
        <dc:format>image/svg+xml</dc:format>
        <dc:type
           rdf:resource="http://purl.org/dc/dcmitype/StillImage" />
        <dc:title></dc:title>
      </cc:Work>
    </rdf:RDF>
  </metadata>
  <g
     inkscape:label="Camada 1"
     inkscape:groupmode="layer"
     id="layer1"
     transform="translate(0,67.322833)">
    <path
       inkscape:connector-curvature="0"
       d="m 619.00874,229.67229 -36.31208,791.46411 c -8.36355,20.4392 -17.33455,21.8945 -27.41444,3.7487 l -47.83311,-795.21281 111.55963,0 z"
       style="fill:#0095da;fill-rule:evenodd;stroke:#ffffff;stroke-width:3.35520792;stroke-linecap:butt;stroke-linejoin:miter;stroke-dasharray:none"
       id="path6498-6"
       inkscape:export-xdpi="90"
       inkscape:export-ydpi="90" />
    <path
       inkscape:connector-curvature="0"
       d="m 444.93543,229.67229 -36.31208,791.46411 c -8.36356,20.4392 -17.33455,21.8945 -27.41445,3.7487 l -47.83312,-795.21281 111.55965,0 z"
       style="fill:#0095da;fill-rule:evenodd;stroke:#ffffff;stroke-width:3.35520792;stroke-linecap:butt;stroke-linejoin:miter;stroke-dasharray:none"
       id="path6500-5"
       inkscape:export-xdpi="90"
       inkscape:export-ydpi="90" />
    <path
       inkscape:connector-curvature="0"
       d="m 270.12419,229.67229 -36.31205,791.46411 c -8.36357,20.4392 -17.33457,21.8945 -27.41446,3.7487 l -47.83311,-795.21281 111.55962,0 z"
       style="fill:#0095da;fill-rule:evenodd;stroke:#ffffff;stroke-width:3.35520792;stroke-linecap:butt;stroke-linejoin:miter;stroke-dasharray:none"
       id="path6502-7"
       inkscape:export-xdpi="90"
       inkscape:export-ydpi="90" />
    <path
       inkscape:connector-curvature="0"
       d="m 192.879,805.10676 -9.73743,-2.14237 -7.09568,-1.24752 -6.96725,-0.92339 -6.82866,-0.61964 -6.66759,-0.34657 -6.5127,-0.0815 -6.32515,0.16307 -6.1417,0.38116 -5.92768,0.58506 -5.72382,0.76443 -5.48942,0.92946 -5.25296,1.07628 -4.99611,1.19653 -4.7393,1.3128 -4.46205,1.39425 -14.513419,5.10005 14.896639,4.51505 4.21541,1.39628 4.12368,1.46973 4.02992,1.55329 3.95247,1.64294 3.86684,1.72652 3.7955,1.8141 3.72212,1.90997 3.66301,1.9916 3.59167,2.09748 3.5407,2.19538 3.48362,2.29933 3.44694,2.39711 3.39394,2.50522 3.3552,2.6133 1.40242,1.14957 -0.44641,1.25978 -1.53492,3.35312 -1.87939,3.32261 -2.25448,3.41635 -2.66012,3.60386 -3.09224,3.89947 -3.5244,4.2786 -14.36665,17.14089 18.1968,-8.44911 3.46324,-1.49214 3.46121,-1.3902 3.44489,-1.29433 3.4449,-1.21897 3.43472,-1.14562 3.44285,-1.09056 3.43674,-1.04562 3.44897,-1.02328 3.45305,-0.99883 3.47141,-0.99884 3.46936,-1.00085 3.49381,-1.03146 3.4979,-1.05177 3.51828,-1.10683 6.19469,-2.02211 -4.21337,-54.73518 z"
       style="fill:#231f20;fill-rule:evenodd;stroke:#ffffff;stroke-width:3.35520792;stroke-linecap:butt;stroke-linejoin:miter;stroke-dasharray:none"
       id="path6504-3"
       inkscape:export-xdpi="90"
       inkscape:export-ydpi="90" />
    <path
       inkscape:connector-curvature="0"
       d="m 189.49322,808.05222 c -37.91018,-9.17277 -71.55805,-3.37965 -92.40886,4.34585 23.69437,6.91836 43.1244,17.21838 61.13163,32.34534 -3.15748,10.4591 -9.63348,18.02354 -20.85079,31.37923 19.11409,-9.17083 37.2803,-12.55052 55.91945,-18.82669 l -3.79143,-49.24373 z"
       style="fill:#ed1c24;fill-rule:evenodd"
       id="path6506-0"
       inkscape:export-xdpi="90"
       inkscape:export-ydpi="90" />
    <path
       inkscape:connector-curvature="0"
       d="m 600.5449,798.94468 5.44458,-0.28129 5.52813,-0.16308 5.60969,-0.007 5.71567,0.20387 5.81963,0.45043 5.95417,0.71959 6.08667,1.05997 6.23547,1.42076 6.3863,1.83046 6.5657,2.27078 6.74303,2.76412 6.93463,3.27571 15.14737,8.15157 -12.89493,3.34907 -3.89946,1.09864 -3.81589,1.15988 -3.74453,1.23725 -3.66302,1.29038 -3.58962,1.36162 -3.51216,1.43506 -3.45306,1.50637 -3.36744,1.56751 -3.30017,1.63893 -3.22679,1.70812 -3.15951,1.78773 -3.08818,1.85695 -3.02906,1.93442 -2.95772,2.00171 -1.06405,0.76445 0.30984,1.56336 0.99269,3.53466 1.24955,3.42858 1.49619,3.37353 1.74486,3.3512 1.96298,3.38777 2.17702,3.44899 8.53071,12.80924 -13.68379,-5.07145 -3.25941,-1.18634 -3.22474,-1.15996 -3.20436,-1.12713 -3.17788,-1.11097 -3.16564,-1.0743 -3.14117,-1.05177 -3.15137,-1.01914 -3.14117,-1.00288 -3.14322,-0.97034 -3.14933,-0.94378 -3.17174,-0.91528 -3.184,-0.89275 -3.2064,-0.86225 -3.23697,-0.83983 -6.02959,-1.48799 0,-60.14096 8.66728,-0.6564 5.34264,-0.40363 5.39157,-0.36687 z"
       style="fill:#231f20;fill-rule:evenodd;stroke:#ffffff;stroke-width:3.35520792;stroke-linecap:butt;stroke-linejoin:miter;stroke-dasharray:none"
       id="path6508-2"
       inkscape:export-xdpi="90"
       inkscape:export-ydpi="90" />
    <path
       inkscape:connector-curvature="0"
       d="m 584.74526,803.7125 c 28.43773,-2.06286 56.32102,-5.81153 94.17616,15.74252 -21.7905,5.43437 -40.25638,13.68174 -55.95207,25.30061 1.66334,10.87088 6.64927,19.49123 13.29649,29.23892 -17.72797,-6.56166 -33.79261,-11.99599 -51.52058,-16.30521 l 0,-53.97684 z"
       style="fill:#ed1c24;fill-rule:evenodd"
       id="path6510-3"
       inkscape:export-xdpi="90"
       inkscape:export-ydpi="90" />
    <path
       inkscape:connector-curvature="0"
       d="m 634.69016,206.81571 -3.42248,10.77703 -10.2185,7.98645 0,-0.47903 -119.68674,0 -9.05458,-6.60441 -1.76118,-11.68004 144.14348,0 z"
       style="fill:#0095da;fill-rule:evenodd;stroke:#ffffff;stroke-width:3.35520792;stroke-linecap:round;stroke-linejoin:round;stroke-dasharray:none"
       id="path6512-6"
       inkscape:export-xdpi="90"
       inkscape:export-ydpi="90" />
    <path
       inkscape:connector-curvature="0"
       d="m 641.58607,178.86108 0.55241,0.57891 -0.0815,17.57508 -2.82522,3.59983 -154.00933,0 -3.50197,-3.89947 0.0407,-16.67004 1.39019,-1.18431 158.42042,0 z"
       style="fill:#0095da;fill-rule:evenodd;stroke:#ffffff;stroke-width:3.35520792;stroke-linecap:round;stroke-linejoin:round;stroke-dasharray:none"
       id="path6514-7"
       inkscape:export-xdpi="90"
       inkscape:export-ydpi="90" />
    <path
       inkscape:connector-curvature="0"
       d="m 491.5088,151.91139 141.45279,0 3.28182,20.75092 -147.21941,0 2.4848,-20.75092 z"
       style="fill:#0095da;fill-rule:evenodd;stroke:#ffffff;stroke-width:3.35520792;stroke-linecap:round;stroke-linejoin:round;stroke-dasharray:none"
       id="path6516-9"
       inkscape:export-xdpi="90"
       inkscape:export-ydpi="90" />
    <path
       inkscape:connector-curvature="0"
       d="m 467.51276,178.86108 0.55239,0.57891 -0.0815,17.57508 -2.82523,3.59983 -154.00935,0 -3.50196,-3.89947 0.0407,-16.67004 1.39021,-1.18431 158.42043,0 z"
       style="fill:#0095da;fill-rule:evenodd;stroke:#ffffff;stroke-width:3.35520792;stroke-linecap:round;stroke-linejoin:round;stroke-dasharray:none"
       id="path6518-3"
       inkscape:export-xdpi="90"
       inkscape:export-ydpi="90" />
    <path
       inkscape:connector-curvature="0"
       d="m 317.43548,151.91139 141.45281,0 3.28385,20.75092 -147.22146,0 2.4848,-20.75092 z"
       style="fill:#0095da;fill-rule:evenodd;stroke:#ffffff;stroke-width:3.35520792;stroke-linecap:round;stroke-linejoin:round;stroke-dasharray:none"
       id="path6520-8"
       inkscape:export-xdpi="90"
       inkscape:export-ydpi="90" />
    <path
       inkscape:connector-curvature="0"
       d="m 417.13775,244.8808 -6.47192,171.42952 -6.46378,171.41932 c -0.0407,5.40176 7.48094,6.23342 7.93347,-0.75013 l 22.08607,-342.00494 c -1.69595,-8.30037 -12.4791,-8.98323 -17.08384,-0.10192 z"
       style="fill:#ffffff;fill-rule:evenodd"
       id="path6522-3"
       inkscape:export-xdpi="90"
       inkscape:export-ydpi="90" />
    <path
       inkscape:connector-curvature="0"
       d="m 380.6463,249.7057 7.03044,161.3272 7.03656,161.33535 c 0.35876,5.0695 6.74507,5.22238 6.61258,-1.36166 L 395.01294,248.3685 c -2.02618,-7.64603 -11.14393,-7.38716 -14.36664,1.3372 z"
       style="fill:#ffffff;fill-rule:evenodd"
       id="path6524-2"
       inkscape:export-xdpi="90"
       inkscape:export-ydpi="90" />
    <path
       inkscape:connector-curvature="0"
       d="m 348.51498,248.1504 15.38178,152.33173 15.37565,152.32563 c 0.62375,4.78413 7.01007,4.60474 6.53104,-1.62256 L 362.79398,246.17111 c -2.41957,-7.13645 -11.50676,-6.4393 -14.279,1.97929 z"
       style="fill:#ffffff;fill-rule:evenodd"
       id="path6526-1"
       inkscape:export-xdpi="90"
       inkscape:export-ydpi="90" />
    <path
       inkscape:connector-curvature="0"
       d="m 460.61684,206.81571 -3.42247,10.77703 -10.21851,7.98645 0,-0.47903 -119.68674,0 -9.05457,-6.60441 -1.7612,-11.68004 144.14349,0 z"
       style="fill:#0095da;fill-rule:evenodd;stroke:#ffffff;stroke-width:3.35520792;stroke-linecap:round;stroke-linejoin:round;stroke-dasharray:none"
       id="path6528-8"
       inkscape:export-xdpi="90"
       inkscape:export-ydpi="90" />
    <path
       inkscape:connector-curvature="0"
       d="m 554.37921,258.63593 7.03656,339.95839 7.02839,339.9522 c 0.36488,10.6853 6.7512,11.00948 6.6187,-2.8782 l -6.31905,-679.83111 c -2.02616,-16.11968 -11.14189,-15.5795 -14.3646,2.79872 z"
       style="fill:#ffffff;fill-rule:evenodd"
       id="path6530-1"
       inkscape:export-xdpi="90"
       inkscape:export-ydpi="90" />
    <path
       inkscape:connector-curvature="0"
       d="m 522.24586,258.56867 15.38176,343.24224 15.37566,343.2402 c 0.62375,10.77087 7.01007,10.37949 6.53716,-3.65286 L 536.52485,254.11068 c -2.41957,-16.08094 -11.50881,-14.51138 -14.27899,4.45799 z"
       style="fill:#ffffff;fill-rule:evenodd"
       id="path6532-8"
       inkscape:export-xdpi="90"
       inkscape:export-ydpi="90" />
    <path
       inkscape:connector-curvature="0"
       d="m 241.39497,255.84537 -6.4658,343.9251 -6.47192,343.93124 c -0.0407,10.83816 7.48909,12.49941 7.93345,-1.51456 l 22.08608,-686.15629 c -1.69391,-16.65781 -12.47706,-18.02558 -17.08181,-0.18347 z"
       style="fill:#ffffff;fill-rule:evenodd"
       id="path6534-4"
       inkscape:export-xdpi="90"
       inkscape:export-ydpi="90" />
    <path
       inkscape:connector-curvature="0"
       d="m 204.90352,261.91776 7.03657,344.80977 7.03044,344.80775 c 0.36488,10.83815 6.74914,11.16427 6.61666,-2.91698 l -6.31904,-689.53799 c -2.02617,-16.34594 -11.14191,-15.80168 -14.36463,2.83745 z"
       style="fill:#ffffff;fill-rule:evenodd"
       id="path6536-3"
       inkscape:export-xdpi="90"
       inkscape:export-ydpi="90" />
    <path
       inkscape:connector-curvature="0"
       d="m 172.77834,261.53862 15.37362,342.60423 15.37565,342.60214 c 0.62375,10.75865 7.01006,10.36526 6.53715,-3.64669 L 187.04918,257.09287 c -2.41755,-16.05241 -11.50882,-14.48285 -14.27084,4.44575 z"
       style="fill:#ffffff;fill-rule:evenodd"
       id="path6538-3"
       inkscape:export-xdpi="90"
       inkscape:export-ydpi="90" />
    <path
       inkscape:connector-curvature="0"
       d="m 590.86861,252.79592 -6.46581,343.1872 -6.46987,343.18713 c -0.0407,10.81784 7.48704,12.47303 7.93345,-1.50629 l 22.08607,-684.6846 c -1.69391,-16.62315 -12.47909,-17.99091 -17.08384,-0.18344 z"
       style="fill:#ffffff;fill-rule:evenodd"
       id="path6540-4"
       inkscape:export-xdpi="90"
       inkscape:export-ydpi="90" />
    <path
       inkscape:connector-curvature="0"
       d="m 285.80562,206.81571 -3.42247,10.77703 -10.21851,7.98645 0,-0.47903 -119.68471,0 -9.05661,-6.60441 -1.76117,-11.68004 144.14347,0 z"
       style="fill:#0095da;fill-rule:evenodd;stroke:#ffffff;stroke-width:3.35520792;stroke-linecap:round;stroke-linejoin:round;stroke-dasharray:none"
       id="path6542-9"
       inkscape:export-xdpi="90"
       inkscape:export-ydpi="90" />
    <path
       inkscape:connector-curvature="0"
       d="m 292.70356,178.86108 0.55037,0.57891 -0.0815,17.57508 -2.82318,3.59983 -154.01137,0 -3.49995,-3.89947 0.0407,-16.67004 1.39018,-1.18431 158.42248,0 z"
       style="fill:#0095da;fill-rule:evenodd;stroke:#ffffff;stroke-width:3.35520792;stroke-linecap:round;stroke-linejoin:round;stroke-dasharray:none"
       id="path6544-3"
       inkscape:export-xdpi="90"
       inkscape:export-ydpi="90" />
    <path
       inkscape:connector-curvature="0"
       d="m 142.62631,151.91139 141.45074,0 3.28387,20.75092 -147.22146,0 2.48685,-20.75092 z"
       style="fill:#0095da;fill-rule:evenodd;stroke:#ffffff;stroke-width:3.35520792;stroke-linecap:round;stroke-linejoin:round;stroke-dasharray:none"
       id="path6546-6"
       inkscape:export-xdpi="90"
       inkscape:export-ydpi="90" />
    <path
       inkscape:connector-curvature="0"
       d="m 699.55411,929.71007 -1.76321,-7.65213 -1.92426,-5.39159 -2.48685,-5.11438 -3.02091,-4.82899 -3.47954,-4.57007 -3.92189,-4.30305 -4.30715,-4.06454 -4.6557,-3.82207 -4.95943,-3.61406 -5.24481,-3.40615 -5.47718,-3.21856 -5.69121,-3.03115 -5.85633,-2.87416 -5.99697,-2.711 -6.0989,-2.56239 -6.17227,-2.42561 -6.19674,-2.30751 -6.19879,-2.179 -6.16206,-2.08334 -6.09891,-1.971 -5.98271,-1.88967 -5.84817,-1.79784 -5.66472,-1.73065 -5.45679,-1.6653 -5.202,-1.61447 -4.91866,-1.55528 -4.58845,-1.51861 -4.22356,-1.47375 -3.81384,-1.45142 -3.36541,-1.41658 -2.86191,-1.37797 -4.53951,-2.60109 -23.89823,18.16417 -0.20383,5.26935 0.0611,3.85461 0.25072,3.97897 0.43213,4.08494 0.60338,4.11959 0.74606,4.13192 0.8867,4.09504 1.01308,4.02585 1.13336,3.89541 1.23323,3.74045 1.33311,3.53668 1.42483,3.30826 1.51251,3.02095 1.60421,2.72322 1.72246,2.38298 2.47666,2.67432 8.4512,1.52882 6.95298,1.40444 6.70227,1.50032 6.47397,1.59609 6.27011,1.68975 6.09074,1.79793 5.9399,1.89978 5.80944,2.00786 5.71568,2.11173 5.6321,2.22387 5.58726,2.33802 5.55668,2.46652 5.55871,2.57249 5.57911,2.7111 5.62803,2.83132 6.52084,3.4 5.85225,-0.10193 4.79635,-0.21609 4.60271,-0.35864 4.41518,-0.49745 4.23783,-0.64212 4.05846,-0.77455 3.89334,-0.90913 3.71397,-1.04773 3.56517,-1.18026 3.39597,-1.3106 3.23902,-1.44527 3.08207,-1.56143 2.94141,-1.69601 2.78444,-1.8142 2.64179,-1.92826 4.15629,-3.3898 z"
       style="fill:#231f20;fill-rule:evenodd;stroke:#ffffff;stroke-width:3.35520792;stroke-linecap:butt;stroke-linejoin:miter;stroke-dasharray:none"
       id="path6548-9"
       inkscape:export-xdpi="90"
       inkscape:export-ydpi="90" />
    <path
       inkscape:connector-curvature="0"
       d="M 695.5405,928.33421 C 685.75414,870.9043 572.39866,857.68116 547.65452,841.80004 l -20.64288,15.68745 c -1.29031,17.91151 6.40058,46.28597 14.52564,53.6732 39.70192,6.83272 66.65978,17.54237 97.49874,33.79252 26.58892,0 44.31688,-6.09473 56.50448,-16.619 z"
       style="fill:#ed1c24;fill-rule:evenodd"
       id="path6550-8"
       inkscape:export-xdpi="90"
       inkscape:export-ydpi="90" />
    <path
       inkscape:connector-curvature="0"
       d="m 71.42089,938.00846 0.26703,-7.69093 1.064044,-5.71154 1.850867,-5.47726 2.574497,-5.2346 3.234948,-4.99002 3.822004,-4.74737 4.366254,-4.51924 4.833041,-4.28872 5.281499,-4.09514 5.656566,-3.88117 6.00921,-3.70165 6.29661,-3.49799 6.55142,-3.32453 6.75119,-3.14116 6.90813,-2.96589 7.02433,-2.78657 7.10383,-2.62745 7.11403,-2.45017 7.09567,-2.28911 7.02024,-2.11173 6.91019,-1.95695 6.74914,-1.79178 6.5392,-1.63267 6.28031,-1.46566 5.98678,-1.31685 5.64026,-1.15573 5.24684,-1.00287 4.80858,-0.83983 4.33568,-0.69101 3.80162,-0.54017 3.25533,-0.38936 3.95246,-0.35469 20.85081,15.57743 -0.20385,4.49671 -0.16308,2.67444 -0.18345,2.72938 -0.23442,2.79668 -0.28741,2.85385 -0.3608,2.92911 -0.43214,2.99236 -0.52998,3.06378 -0.61764,3.12076 -0.73382,3.19209 -0.8439,3.2635 -0.98047,3.32867 -1.10889,3.39191 -1.26584,3.46738 -1.41669,3.53253 -2.18109,4.95133 -7.76223,2.84759 -6.60646,2.12607 -6.73895,1.94664 -6.8368,1.8224 -6.86533,1.75905 -6.85515,1.74489 -6.78584,1.77955 -6.67576,1.87532 -6.49434,2.00374 -6.27013,2.19334 -5.99085,2.42158 -5.66065,2.70493 -5.26926,3.00873 -4.84732,3.37362 -4.37848,3.77298 -5.05727,5.5098 -4.7617,0.18355 -3.58555,0.0818 -3.85257,0.0202 -4.10127,-0.0404 -4.30715,-0.16306 -4.48244,-0.28126 -4.63532,-0.43622 -4.74948,-0.61353 -4.83712,-0.81739 -4.89013,-1.04167 -4.916619,-1.29846 -4.912546,-1.56338 -4.867702,-1.88148 -4.80451,-2.20557 -4.692395,-2.5622 -6.160051,-3.96886 z"
       style="fill:#231f20;fill-rule:evenodd;stroke:#ffffff;stroke-width:3.35520792;stroke-linecap:butt;stroke-linejoin:round;stroke-dasharray:none"
       id="path6552-2"
       inkscape:export-xdpi="90"
       inkscape:export-ydpi="90" />
    <path
       inkscape:connector-curvature="0"
       d="M 75.094085,936.08828 C 72.737699,877.79198 211.20015,850.69559 234.70087,849.0506 l 18.21515,13.61038 c -0.58501,13.61653 -1.88348,29.35702 -10.52222,48.18573 -32.68577,12.92553 -77.21667,14.47677 -98.0532,40.19931 -16.44786,0.70122 -46.638613,0.92752 -69.246515,-14.95774 z"
       style="fill:#ed1c24;fill-rule:evenodd"
       id="path6554-5"
       inkscape:export-xdpi="90"
       inkscape:export-ydpi="90" />
    <path
       inkscape:connector-curvature="0"
       d="m 119.96744,300.5312 537.07989,0 -0.007,356.98511 -0.48718,11.0971 -1.25361,11.1439 -1.97522,11.07464 -2.68457,11.00329 -3.35316,10.90543 -4.00342,10.80555 -4.62107,10.68126 -5.21829,10.55893 -5.77276,10.41622 -6.32516,10.27149 -6.83679,10.11044 -7.33416,9.94536 -7.79485,9.75989 -8.24737,9.57639 -8.66321,9.37056 -9.06476,9.16059 -9.42353,8.93424 -9.78228,8.70814 -10.10844,8.46134 -10.40807,8.20453 -10.68733,7.93965 -10.95234,7.65819 -11.17858,7.36885 -11.3967,7.07529 -11.58016,6.7532 -11.74934,6.43326 -11.88795,6.09888 -12.01637,5.75226 -12.102,5.38351 -12.18147,5.02467 -12.24061,4.63734 -14.37479,4.9676 -18.47403,-5.58728 -15.89139,-5.42625 -15.39602,-5.89298 -14.92315,-6.31496 -14.42372,-6.73483 -13.93043,-7.108 -13.43102,-7.46463 -12.93976,-7.7866 -12.41794,-8.10674 -11.92669,-8.37172 -11.40282,-8.63057 -10.89933,-8.84875 -10.37954,-9.05658 -9.85974,-9.2259 -9.33791,-9.3786 -8.81609,-9.49283 -8.27794,-9.60492 -7.75204,-9.67221 -7.21187,-9.72321 -6.68595,-9.74358 -6.1417,-9.75166 -5.59337,-9.71706 -5.04504,-9.66818 -4.50894,-9.59877 -3.93412,-9.50713 -3.38782,-9.37662 -2.81911,-9.24418 -2.2565,-9.07498 -1.66742,-8.89557 -1.09665,-8.68153 -0.4933,-8.45532 0.10191,-7.86415 -0.14268,-360.26081 z"
       style="fill:#231f20;fill-rule:evenodd;stroke:#ffffff;stroke-width:3.35520792;stroke-linecap:butt;stroke-linejoin:miter;stroke-dasharray:none"
       id="path6556-5"
       inkscape:export-xdpi="90"
       inkscape:export-ydpi="90" />
    <path
       inkscape:connector-curvature="0"
       d="m 127.17727,307.73897 522.66229,0 -0.006,349.61636 C 648.73067,771.57916 519.89966,882.89616 391.18687,925.22154 216.67121,875.93908 123.17589,740.88081 127.32404,660.83484 l -0.1427,-353.09587 z"
       style="fill:#ffffff;fill-rule:evenodd"
       id="path6558-2"
       inkscape:export-xdpi="90"
       inkscape:export-ydpi="90" />
    <path
       inkscape:connector-curvature="0"
       d="m 119.96337,300.5312 537.08396,0 -0.007,155.55647 -1.03143,4.034 -2.49705,3.7323 -3.03924,3.08207 -3.54479,2.82931 -4.03806,2.72737 -4.5008,2.654 -4.89011,2.58061 -5.21628,2.47055 -5.44048,2.35028 -5.61988,2.18108 -5.69121,1.97929 -5.68306,1.71837 -5.5995,1.44523 -5.45679,1.10685 -5.25093,0.7277 -5.10823,0.28131 -5.06542,-0.39749 -4.98593,-1.11704 -4.76782,-1.65316 -4.59454,-2.06896 -4.43354,-2.35843 -4.32751,-2.5684 -4.21338,-2.67845 -4.1298,-2.70699 -4.02992,-2.64177 -3.9545,-2.50724 -3.84034,-2.28505 -3.72417,-1.98336 -3.56312,-1.60218 -3.40209,-1.1782 -3.19418,-0.71751 -2.98014,-0.24257 -2.95975,0.25684 -3.16971,0.74197 -3.38171,1.22509 -3.57128,1.66129 -3.716,2.04655 -3.8485,2.36251 -3.94635,2.59081 -4.04419,2.7233 -4.12369,2.79465 -4.22357,2.75592 -4.32139,2.64177 -4.45392,2.42977 -4.59863,2.12197 -4.80043,1.69799 -5.01447,1.13539 -5.13881,0.39342 -5.12454,-0.35673 -5.00631,-1.09258 -4.78209,-1.64092 -4.60272,-2.06082 -4.44371,-2.35638 -4.33159,-2.57451 -4.21745,-2.68457 -4.1339,-2.71718 -4.02787,-2.65604 -3.95449,-2.51947 -3.84443,-2.29523 -3.72416,-1.99356 -3.56719,-1.61442 -3.39191,-1.18634 -3.18602,-0.71548 -3.00461,-0.24665 -2.9781,0.23848 -3.15748,0.71752 -3.3654,1.20674 -3.56516,1.64704 -3.70377,2.04044 -3.85054,2.36045 -3.94228,2.58674 -4.03602,2.73349 -4.12369,2.80281 -4.22357,2.76813 -4.31733,2.65198 -4.45187,2.43995 -4.60067,2.14237 -4.80451,1.70818 -5.02058,1.14149 -5.1755,0.39749 -5.14696,-0.4036 -4.9839,-1.11907 -4.76373,-1.64907 -4.5966,-2.06898 -4.43556,-2.35843 -4.32956,-2.56838 -4.21133,-2.67847 -4.13185,-2.70699 -4.02788,-2.64177 -3.95449,-2.50724 -3.84239,-2.28504 -3.72212,-1.98336 -3.56516,-1.60219 -3.40209,-1.18024 -3.18806,-0.71546 -2.98422,-0.24258 -2.96994,0.25684 -3.18195,0.73382 -3.38782,1.20878 -3.57333,1.6348 -3.71397,2.02616 -3.85053,2.33193 -3.93819,2.5582 -4.04011,2.70087 -4.11553,2.76612 -4.21745,2.74369 -4.31122,2.63157 -4.43556,2.43181 -4.57417,2.13829 -4.7719,1.73264 -4.97982,1.19654 -5.08988,0.47903 -5.29779,-0.23035 -5.35489,-0.61967 -5.53222,-0.95804 -5.66268,-1.26178 -5.70753,-1.5288 -5.70141,-1.77749 -5.60151,-1.98132 -5.43438,-2.16886 -5.17958,-2.32581 -4.86566,-2.47463 -4.47837,-2.61323 -4.04419,-2.76814 -3.54681,-2.96587 -3.02703,-3.32055 -2.35639,-3.99527 -0.9132,-4.16445 -0.14269,-158.90761 z"
       style="fill:#231f20;fill-rule:evenodd"
       id="path6560-4"
       inkscape:export-xdpi="90"
       inkscape:export-ydpi="90" />
    <path
       inkscape:connector-curvature="0"
       d="m 127.17727,307.73897 522.66229,0 -0.006,147.44162 c -0.0815,9.85974 -43.54432,29.47323 -65.31444,29.5833 -21.77216,-0.0204 -43.54228,-28.6966 -65.3124,-28.71496 -21.77421,0.10193 -43.54432,29.67301 -65.31444,29.58332 -21.77216,0.18347 -43.54433,-28.69661 -65.31444,-28.71291 -21.77216,-0.0815 -43.54433,29.67301 -65.31444,29.58331 -21.77216,-0.0184 -43.54227,-28.69661 -65.31241,-28.71495 -21.77216,0.10192 -43.54431,29.21436 -65.31444,29.58536 -23.12769,-0.0816 -65.23494,-16.87593 -65.31239,-28.71496 l -0.14241,-150.91913 z"
       style="fill:#0095da;fill-rule:evenodd"
       id="path6562-7"
       inkscape:export-xdpi="90"
       inkscape:export-ydpi="90" />
    <path
       inkscape:connector-curvature="0"
       d="m 461.1774,429.67815 c -5.57503,-4.8942 -12.15702,-6.94483 -20.05583,-5.24684 7.01618,-7.35252 20.5104,-16.75158 37.83069,-21.76197 10.9564,-5.39564 16.01163,-17.28565 47.55181,-12.77671 -4.8412,2.7009 -9.22784,6.61666 -9.50098,11.75343 20.32285,1.26789 45.66629,8.16992 60.04924,13.85297 8.81201,-9.07496 9.70686,-16.01978 33.14033,-16.10948 -6.18452,5.60765 -14.49507,10.9136 -16.71896,18.96121 6.17227,7.67254 9.7619,17.47928 18.52497,23.02578 -18.84908,1.0783 -23.99605,-11.54755 -35.99407,-17.31827 -11.17655,2.80486 -11.08686,6.52493 -36.72587,10.39585 3.51421,3.15952 7.48704,6.32312 11.91649,9.02605 -1.88959,-0.0408 -3.57536,0.10191 -5.2081,0.25275 -6.30682,-0.78478 -12.35068,-4.25209 -18.28447,-8.68154 2.63158,4.72909 6.09074,7.92937 10.34489,9.2258 -4.52322,-0.12231 -10.16347,-1.26789 -19.09166,-5.46292 -21.44398,5.70752 -45.51139,5.17958 -77.07195,-11.81049 4.68221,-1.25362 11.57609,0.20792 19.29347,2.67438 z m -0.47291,-13.48198 c 1.24343,0 2.25651,1.02939 2.25651,2.29523 0,1.26381 -1.01308,2.29932 -2.25651,2.29932 -1.24341,0 -2.25854,-1.03551 -2.25854,-2.29932 0,-1.26584 1.01513,-2.29523 2.25854,-2.29523 z"
       style="fill:#ffffff;fill-rule:evenodd"
       id="path6564-0"
       inkscape:export-xdpi="90"
       inkscape:export-ydpi="90" />
    <path
       inkscape:connector-curvature="0"
       d="m 340.01078,373.68328 c -4.64349,-4.77598 -11.02978,-6.98967 -19.96002,-5.46904 7.27301,-7.21186 21.65393,-15.85671 38.68681,-20.78354 10.95844,-5.39564 13.85704,-16.36223 45.39519,-12.15904 -4.84325,2.69884 -8.30446,5.38341 -8.57352,10.51611 20.31878,2.81095 47.20937,8.7855 62.51571,13.23737 8.80998,-9.07497 11.55774,-16.63743 33.75389,-20.43089 -6.18043,5.61171 -14.8049,15.5428 -17.02473,23.59041 6.17432,7.67458 20.25151,9.46226 29.3224,12.846 -19.46877,8.17399 -31.70937,-0.44029 -44.01723,-8.06187 -11.17451,2.80279 -16.63539,7.75407 -42.27847,11.62907 3.5142,3.16156 7.48704,6.32108 11.91648,9.02401 -2.79667,-0.0407 -5.15511,0.24868 -7.52577,0.49737 -4.93497,-0.70936 -9.98408,-4.01361 -15.04748,-7.84173 2.54394,4.19503 5.03485,7.30155 7.42385,8.02723 -4.18687,-0.37916 -9.40517,-1.73876 -17.08587,-5.34878 -21.52754,5.72996 -45.69074,5.17551 -77.41845,-11.99394 5.64025,-1.22916 12.64011,0.4464 19.91721,2.72126 z m -0.75421,-13.34745 c 1.24342,0 2.26059,1.03143 2.26059,2.29728 0,1.26789 -1.01717,2.29932 -2.26059,2.29932 -1.24343,0 -2.25651,-1.03143 -2.25651,-2.29932 0,-1.26585 1.01308,-2.29728 2.25651,-2.29728 z"
       style="fill:#ffffff;fill-rule:evenodd"
       id="path6566-1"
       inkscape:export-xdpi="90"
       inkscape:export-ydpi="90" />
    <path
       inkscape:connector-curvature="0"
       d="m 203.91897,430.91138 c -5.55463,-4.5599 -11.83494,-7.12217 -19.70929,-5.31411 6.7247,-7.3627 18.74717,-16.25012 36.4996,-21.38487 10.9605,-5.39564 16.01777,-17.2897 47.5559,-12.77668 -4.84324,2.69883 -9.22581,6.61664 -9.50099,11.7534 20.32286,1.2679 45.6663,8.16992 60.0513,13.85299 8.812,-9.07497 13.40656,-17.56286 36.84001,-17.65256 -6.18451,5.60765 -16.34797,13.38209 -20.42069,20.50428 6.17431,7.67253 15.62434,15.32062 24.38539,20.86304 -18.8491,1.08034 -28.00764,-8.76921 -40.00566,-14.53993 -11.17451,2.80484 -12.93365,5.90729 -38.57674,9.77821 3.51829,3.16157 7.48501,6.32517 11.91445,9.02808 -2.94752,-0.0612 -5.40583,0.28131 -7.90696,0.53814 -3.62223,-0.45457 -8.865,-3.41432 -15.73236,-8.87724 2.54799,4.70259 5.81758,7.84988 9.95554,9.11778 -4.43964,-0.18346 -9.9474,-1.40244 -18.54944,-5.44459 -21.32169,5.67492 -43.4791,4.3092 -74.67275,-12.43424 5.21627,-0.57278 11.40689,0.91525 17.87269,2.9883 z M 208.326,414.6531 c 1.24343,0 2.2565,1.02939 2.2565,2.29524 0,1.26584 -1.01307,2.29931 -2.2565,2.29931 -1.24342,0 -2.25854,-1.03347 -2.25854,-2.29931 0,-1.26585 1.01512,-2.29524 2.25854,-2.29524 z"
       style="fill:#ffffff;fill-rule:evenodd"
       id="path6568-5"
       inkscape:export-xdpi="90"
       inkscape:export-ydpi="90" />
    <path
       inkscape:connector-curvature="0"
       d="m 72.678579,929.65097 9.882163,5.87461 5.326354,2.58886 5.681023,2.22386 6.017355,1.88148 6.372036,1.53488 6.71245,1.21492 7.05288,0.91114 7.3729,0.61969 7.71942,0.33227 8.02722,0.0818 8.34725,-0.16305 8.64486,-0.38531 8.95672,-0.59514 9.24416,-0.78688 9.53564,-0.95802 9.81489,-1.10683 10.10436,-1.25361 10.37343,-1.36171 10.63841,-1.45951 10.89524,-1.53902 11.15822,-1.60831 11.40689,-1.64287 11.65557,-1.67358 11.89203,-1.66731 12.13461,-1.66136 12.36494,-1.62872 12.58916,-1.57973 12.80931,-1.50638 13.0315,-1.42273 13.23737,-1.30877 13.44733,-1.18837 13.79183,-1.05388 10.01669,0.20387 10.26335,0.4444 10.61395,0.64828 10.90952,0.83972 11.17655,0.99883 11.39875,1.13744 11.58423,1.25564 11.71876,1.34737 11.83293,1.40242 11.88591,1.44729 11.91446,1.46162 11.8859,1.46143 11.82885,1.42485 11.7208,1.3698 11.57812,1.29039 11.39058,1.18422 11.16433,1.05389 10.89117,0.90306 10.58948,0.72152 10.21646,0.52998 9.82918,0.2956 9.37664,0.0616 8.89559,-0.21812 8.35336,-0.50956 7.7765,-0.82761 7.14868,-1.14966 6.46173,-1.50022 5.73401,-1.84481 4.9472,-2.19941 4.13389,-2.53573 3.30424,-2.85991 6.97745,-8.9302 3.00256,9.70678 0.80721,3.28189 0.61967,3.35321 0.40768,3.40808 0.18346,3.45718 -0.0611,3.50606 -0.29557,3.53668 -0.57687,3.65276 -2.99848,10.49981 -3.58963,9.32574 -4.19707,8.2819 -4.80858,7.2813 -5.38749,6.3028 -5.96436,5.367 -6.49436,4.45803 -6.9917,3.6039 -7.44017,2.7906 -7.86618,2.0506 -8.27184,1.376 -8.65709,0.7786 -9.03215,0.2263 -9.40315,-0.2447 -9.75579,-0.6665 -10.10231,-1.0273 -10.43253,-1.3414 -10.75868,-1.5878 -11.07055,-1.7776 -11.38243,-1.9181 -11.66577,-2.0058 -11.94299,-2.0343 -12.21003,-2.00583 -12.46685,-1.9283 -12.69313,-1.8019 -12.9255,-1.6083 -13.12934,-1.3739 -13.33317,-1.0702 -13.51256,-0.7318 -13.68379,-0.3159 -13.83666,0.1223 -14.21377,0.6564 -12.33234,-0.5117 -12.19371,0.082 -12.27117,0.5911 -12.33232,1.0477 -12.35475,1.4391 -12.36494,1.7755 -12.3364,2.0546 -12.29767,2.27083 -12.21818,2.4175 -12.12645,2.5176 -12.0021,2.5439 -11.85738,2.5296 -11.68411,2.4256 -11.49251,2.2809 -11.27643,2.0692 -11.04609,1.8019 -10.76888,1.4513 -10.49572,1.0641 -10.18793,0.5952 -9.87197,0.062 -9.52138,-0.532 -9.16259,-1.1945 -8.76514,-1.9344 -8.34929,-2.7498 -7.8825,-3.6407 -7.3729,-4.5863 -6.812327,-5.5975 -6.217121,-6.64323 -5.564835,-7.7417 -4.904394,-8.861 -4.213373,-10.04122 -3.477518,-11.15001 -0.803128,-2.77636 -0.711397,-2.86183 -0.582985,-2.89659 -0.458632,-2.90881 -0.287426,-2.90063 -0.101914,-2.86193 0.101914,-2.80687 0.968243,-8.03128 z"
       style="fill:#231f20;fill-rule:evenodd;stroke:#ffffff;stroke-width:3.35520792;stroke-linecap:butt;stroke-linejoin:miter;stroke-dasharray:none"
       id="path6570-6"
       inkscape:export-xdpi="90"
       inkscape:export-ydpi="90" />
    <path
       inkscape:connector-curvature="0"
       d="m 75.5935,935.57457 c 54.16438,35.674 167.26302,-2.33195 313.4245,-12.60346 102.23193,0.81133 279.12232,45.93945 306.01494,2.94144 2.69069,7.97834 3.69358,16.6395 1.97928,25.47392 -27.81806,114.31553 -155.3506,27.0088 -306.70187,36.8625 -130.31089,-8.6591 -279.48106,92.20083 -312.293202,-31.59324 -2.195351,-7.02638 -3.495854,-14.90076 -2.423648,-21.08116 z"
       style="fill:#ed1c24;fill-rule:evenodd"
       id="path6572-0"
       inkscape:export-xdpi="90"
       inkscape:export-ydpi="90" />
    <path
       inkscape:connector-curvature="0"
       d="m 134.92523,992.37657 6.99579,-2.8373 c 0.41991,1.5206 0.93563,2.6193 1.54511,3.2981 0.98863,1.0885 2.2076,1.4044 3.63039,0.9519 1.06608,-0.3301 1.8264,-0.9294 2.28913,-1.7876 0.45659,-0.8643 0.60947,-1.7449 0.46271,-2.6378 -0.1427,-0.8541 -0.54425,-1.5329 -1.21285,-2.0322 -0.66248,-0.5015 -2.0384,-0.7399 -4.14203,-0.7012 -3.44286,0.02 -5.99697,-0.5708 -7.67254,-1.7959 -1.68372,-1.2168 -2.74368,-3.1086 -3.1799,-5.681 -0.28741,-1.6898 -0.20384,-3.4021 0.26091,-5.1306 0.46884,-1.7306 1.34942,-3.24729 2.64177,-4.56809 1.3005,-1.3107 3.20844,-2.35852 5.71975,-3.1534 3.08207,-0.9662 5.57299,-0.92346 7.45443,0.12225 1.88145,1.05389 3.26755,3.23906 4.15222,6.55144 l -6.93667,2.7662 c -0.43418,-1.4187 -1.01105,-2.3749 -1.72856,-2.8599 -0.70733,-0.4791 -1.58793,-0.5546 -2.64177,-0.2223 -0.87041,0.2712 -1.47987,0.7237 -1.83253,1.3638 -0.35264,0.6359 -0.46679,1.3168 -0.34857,2.0384 0.0815,0.5218 0.34857,0.9316 0.77868,1.2413 0.43011,0.3202 1.327,0.4608 2.71311,0.4179 3.41839,-0.062 5.91951,0.163 7.49112,0.7074 1.57568,0.5381 2.81095,1.4227 3.69766,2.6743 0.88466,1.2496 1.48804,2.7662 1.7938,4.566 0.35874,2.1037 0.25479,4.1869 -0.29965,6.2315 -0.55445,2.0546 -1.52269,3.777 -2.90269,5.1816 -1.38203,1.4023 -3.24105,2.4665 -5.5791,3.20643 -4.1033,1.2882 -7.12625,1.1089 -9.07292,-0.55443 -1.94667,-1.6532 -3.30628,-4.1055 -4.0768,-7.3608 z m 41.95437,-14.3747 6.95909,1.1354 c -0.1223,2.6275 -0.54424,4.8983 -1.27806,6.8246 -0.73384,1.9242 -1.76119,3.4836 -3.0617,4.6863 -1.30456,1.2067 -3.04945,2.0648 -5.23053,2.5867 -2.65196,0.6359 -4.88605,0.6319 -6.69614,-0.011 -1.82234,-0.6482 -3.51216,-2.1485 -5.07766,-4.5028 -1.5553,-2.3524 -2.6112,-5.5872 -3.14321,-9.709 -0.71141,-5.5016 -0.18346,-9.99218 1.5818,-13.45542 1.76118,-3.47343 4.61086,-5.68102 8.53478,-6.62682 3.07187,-0.74 5.59542,-0.4729 7.57469,0.79901 1.97726,1.272 3.62021,3.56113 4.9309,6.8613 l -6.39855,3.61407 c -0.36486,-0.956 -0.70324,-1.64086 -1.01716,-2.05474 -0.52183,-0.67879 -1.12112,-1.15775 -1.7836,-1.43507 -0.66859,-0.27711 -1.37592,-0.32611 -2.13216,-0.14264 -1.70002,0.40773 -2.89045,1.65721 -3.55905,3.75064 -0.50755,1.55527 -0.57279,3.82197 -0.18346,6.80227 0.47903,3.6894 1.21693,6.1151 2.21167,7.2831 1.00086,1.1762 2.24632,1.5778 3.72415,1.2251 1.44727,-0.3486 2.46443,-1.1598 3.05557,-2.4481 0.59929,-1.2719 0.92544,-3.0005 0.99066,-5.1858 z m 8.51848,-21.51333 7.57265,-1.63681 3.87705,33.33194 -7.57878,1.6369 -3.87092,-33.33203 z m 14.02011,-2.80485 20.35547,-3.40818 0.64211,7.15478 -12.74409,2.13021 0.4831,5.3222 11.82068,-1.97313 0.61356,6.82858 -11.81864,1.97932 0.59317,6.6004 13.11711,-2.1974 0.68082,7.589 -20.72442,3.4693 -3.01887,-33.49508 z m 25.13959,-3.78935 7.112,-1.01712 10.70974,17.23464 -1.43502,-18.56574 7.17516,-1.02742 2.58878,33.56447 -7.1711,1.0293 -10.65676,-17.1104 1.42484,18.4314 -7.15886,1.0212 -2.58878,-33.56033 z m 27.91183,-3.58355 23.20924,-2.21164 0.42398,8.31667 -7.78465,0.74607 1.29845,25.34548 -7.63788,0.7278 -1.30049,-25.34964 -7.78465,0.74405 -0.424,-8.31879 z m 27.02513,-2.54997 7.65419,-0.72778 1.72448,33.66433 -7.65012,0.7277 -1.72855,-33.66425 z m 29.90129,26.16282 -8.71008,0.61968 -0.98251,5.64855 -7.80708,0.5585 7.99664,-34.36339 8.33503,-0.59938 10.59561,33.03847 -7.99665,0.5707 -1.43096,-5.47313 z m -1.88144,-7.17712 -3.20233,-11.91649 -2.25039,12.30776 5.45272,-0.39127 z m 40.42149,5.70741 -8.71416,0.4138 -1.0559,5.62814 -7.81727,0.369 8.43695,-34.16986 8.34113,-0.39743 10.17163,33.28499 -8.00276,0.3792 -1.35962,-5.50784 z m -1.78767,-7.21793 -3.0515,-11.99398 -2.40735,12.25492 5.45885,-0.26094 z m 13.28628,-21.11783 11.36817,-0.27116 c 2.24021,-0.0616 4.05641,0.32005 5.44661,1.11502 1.39223,0.7991 2.55005,1.95695 3.46936,3.48363 0.91931,1.53497 1.59199,3.31655 2.0282,5.36715 0.43011,2.04858 0.66248,4.21951 0.69102,6.51883 0.0407,3.61002 -0.2181,6.41488 -0.80109,8.41447 -0.57076,2.00171 -1.38612,3.6875 -2.43997,5.05114 -1.05385,1.36576 -2.18516,2.28912 -3.4082,2.76822 -1.67557,0.6522 -3.19213,0.9948 -4.55176,1.0273 l -11.37223,0.2671 -0.43011,-33.7417 z m 7.74797,7.46048 0.23849,18.43541 1.87125,-0.0414 c 1.60218,-0.0405 2.73962,-0.29965 3.40821,-0.80517 0.66248,-0.49523 1.18432,-1.35343 1.55529,-2.56634 0.36896,-1.21078 0.53203,-3.16975 0.49331,-5.87055 -0.0407,-3.57739 -0.49942,-6.00724 -1.36981,-7.30774 -0.87449,-1.29837 -2.30543,-1.93028 -4.28881,-1.88138 l -1.90793,0.0404 z m 29.84627,14.73771 7.29135,-0.44441 c 0.14269,1.61438 0.44031,2.84769 0.91321,3.70791 0.76643,1.37991 1.89164,2.08728 3.35317,2.11991 1.09259,0.0202 1.93648,-0.29964 2.53984,-0.98458 0.59727,-0.68486 0.90303,-1.49002 0.9132,-2.40935 0.0102,-0.86841 -0.2548,-1.66337 -0.81127,-2.36449 -0.55444,-0.70535 -1.85291,-1.39232 -3.89743,-2.04867 -3.34298,-1.10885 -5.71363,-2.52755 -7.12625,-4.26841 -1.41872,-1.73874 -2.10975,-3.92593 -2.07713,-6.56167 0.0204,-1.73459 0.41176,-3.3714 1.168,-4.89414 0.76237,-1.52064 1.88145,-2.7009 3.3756,-3.55497 1.49006,-0.84184 3.52847,-1.23928 6.10705,-1.18028 3.1636,0.0819 5.57095,0.93569 7.20778,2.57866 1.64296,1.64701 2.59896,4.22355 2.87007,7.72548 l -7.2241,0.40157 c -0.16306,-1.52265 -0.56056,-2.63766 -1.16392,-3.34292 -0.60337,-0.70131 -1.44523,-1.06611 -2.52762,-1.09267 -0.89282,-0.0163 -1.56549,0.21609 -2.0221,0.72162 -0.45659,0.50148 -0.69101,1.12521 -0.69712,1.86512 -0.0102,0.53209 0.16307,1.01722 0.53407,1.45748 0.35874,0.45663 1.20671,0.8867 2.55411,1.29847 3.33279,1.06602 5.71363,2.12203 7.14867,3.15956 1.43708,1.03752 2.47461,2.30549 3.11059,3.81581 0.6421,1.50032 0.95194,3.16975 0.92951,5.01861 -0.0204,2.1587 -0.4994,4.14818 -1.3963,5.94805 -0.90302,1.81006 -2.14847,3.16362 -3.74046,4.06662 -1.58179,0.9071 -3.5774,1.331 -5.98067,1.272 -4.20727,-0.102 -7.11198,-1.2659 -8.70398,-3.5224 -1.59811,-2.24629 -2.47869,-5.07367 -2.64787,-8.48791 z m 41.5528,6.41083 -8.7162,-0.41389 -1.34128,5.51397 -7.81318,-0.3752 10.1655,-33.28501 8.34114,0.39753 8.44306,34.16968 -8.00277,-0.3811 -1.07627,-5.62598 z m -1.41466,-7.36693 -2.42977,-12.25482 -3.02906,11.99397 5.45883,0.26085 z m 14.22193,-20.48997 12.70535,0.9071 c 2.76203,0.20387 4.80044,1.23938 6.11113,3.13713 1.30457,1.88553 1.89776,4.49672 1.77341,7.79478 -0.1223,3.41029 -0.98455,6.0134 -2.56227,7.82347 -1.57569,1.80602 -3.90762,2.59896 -6.98561,2.38287 l -4.18075,-0.29964 -0.4831,12.50357 -7.67663,-0.5484 1.29847,-33.70088 z m 7.12217,14.91713 1.87125,0.14256 c 1.47785,0.10202 2.52151,-0.16306 3.1473,-0.82751 0.61967,-0.65231 0.95193,-1.52678 0.99473,-2.60916 0.0407,-1.06005 -0.18344,-1.97928 -0.6747,-2.74576 -0.48311,-0.77668 -1.44523,-1.21281 -2.87006,-1.31474 l -2.17906,-0.16305 -0.28946,7.51969 z m 18.1968,-13.00513 7.66644,0.54433 -1.30051,33.70295 -7.66031,-0.5442 1.29438,-33.70308 z m 13.57984,0.54433 20.45942,1.94664 -0.37098,7.18742 -12.80319,-1.21897 -0.27724,5.35492 11.87981,1.13128 -0.34856,6.86737 -11.88389,-1.13128 -0.33633,6.6329 13.17825,1.25573 -0.39137,7.62154 -20.83448,-1.9833 1.72856,-33.66425 z m 25.48205,2.47459 7.12217,0.848 8.09449,19.70117 1.19654,-18.59838 7.1874,0.85811 -2.15867,33.62136 -7.1874,-0.8581 -8.06187,-19.56254 -1.18636,18.46394 -7.16497,-0.8602 2.15867,-33.61336 z m 27.55305,3.24523 23.09509,3.8647 -0.74605,8.27596 -7.75204,-1.3005 -2.27282,25.22117 -7.59916,-1.268 2.27689,-25.22516 -7.74592,-1.29434 0.74401,-8.27383 z m 27.43891,4.25608 7.5951,1.45132 -3.44694,33.41973 -7.59508,-1.4514 3.44692,-33.41965 z m 25.4046,33.52355 -8.61225,-1.859 -1.8264,5.2448 -7.71942,-1.6633 13.06411,-31.35266 8.24737,1.77753 5.32225,35.32133 -7.9151,-1.7061 -0.56056,-5.7626 z m -0.74402,-7.5522 -1.31068,-12.56889 -4.08292,11.40499 5.3936,1.1639 z m 16.66801,-17.86461 9.84546,2.85375 0.6686,21.18106 6.92038,-18.98367 9.81897,2.84355 -5.15307,33.00995 -6.11725,-1.7713 3.93209,-25.17223 -8.67137,23.7961 -5.53629,-1.6041 -0.79905,-26.53594 -3.93005,25.17234 -6.1315,-1.7776 5.15308,-33.01191 z"
       style="fill:#ffffff;fill-rule:evenodd"
       id="path6574-7"
       inkscape:export-xdpi="90"
       inkscape:export-ydpi="90" />
    <path
       inkscape:connector-curvature="0"
       d="m 296.10566,123.2107 1.54306,-5.11435 0.84391,-5.13473 0.18345,-5.14289 -0.39953,-5.13269 -0.93765,-5.130646 -1.40855,-5.12862 -1.82437,-5.14289 -2.17292,-5.17346 -2.49501,-5.21831 -2.74572,-5.27129 -2.9618,-5.352848 -3.11876,-5.43438 -3.24309,-5.544448 -3.31648,-5.64637 -3.35113,-5.776836 -3.32667,-5.907278 -3.2757,-6.058128 -3.16157,-6.206928 -3.01887,-6.372043 -2.81503,-6.533077 -2.5847,-6.7287617 -2.30135,-6.91222197 -1.98337,-7.11809203 -1.60626,-7.3280513 -1.20877,-7.556347 -0.74604,-7.788735 -0.68084,-21.519399 -6.9224,12.8195 -0.49737,1.934444 -0.35468,2.205556 -0.31597,2.627495 -0.28536,3.067792 -0.27722,3.440826 -0.26703,3.777149 -0.26703,4.036034 -0.25889,4.254147 -0.26703,4.3784793 -0.27314,4.447802 -0.29557,4.44371103 -0.30576,4.38663097 -0.33635,4.243954 -0.12229,1.355541 -1.13335,-1.26177 -2.15052,-3.214561 -1.88143,-3.656888 -1.62257,-4.015658 -1.40242,-4.307135 -1.21285,-4.5089423 -1.06813,-4.637365 -0.94784,-4.678128 -0.90099,-4.65367 -0.88262,-4.547666 -0.92952,-4.38257 -1.02327,-4.144062 -1.19654,-3.864807 -1.44115,-3.524398 -8.45937,-14.664259 0.1427,21.98008 -0.73383,7.784644 -1.45746,7.44221 -2.12198,7.132366 -2.71311,6.8673683 -3.25532,6.608492 -3.72211,6.380195 -4.14204,6.162093 -4.47633,5.9827027 -4.75763,5.803334 -4.96554,5.64637 -5.11027,5.507746 -5.17959,5.395658 -5.1816,5.289652 -5.11435,5.22238 -4.98797,5.167342 -4.76781,5.151036 -4.50283,5.138811 -4.15018,5.179577 -3.74659,5.228505 -3.24309,5.33448 -2.67439,5.45681 -2.00374,5.61579 -1.24343,5.78295 -0.37099,5.968416 0.57279,6.10502 1.59404,6.23955 2.65195,6.33943 3.75473,6.46784 4.90237,6.60646 6.10907,6.7838 8.32484,7.8988 125.67149,0 6.44746,-5.70752 4.67201,-4.9207 3.84035,-4.95535 3.04537,-5.00836 2.28913,-5.06134 z"
       style="fill:#231f20;fill-rule:evenodd;stroke:#ffffff;stroke-width:3.35520792;stroke-linecap:butt;stroke-linejoin:round;stroke-dasharray:none"
       id="path6576-7"
       inkscape:export-xdpi="90"
       inkscape:export-ydpi="90" />
    <path
       inkscape:connector-curvature="0"
       d="m 151.57897,145.26211 122.86867,0 c 61.39052,-50.342376 -33.80483,-94.273995 -33.63361,-183.955474 -2.07101,1.624602 -2.72738,35.2235663 -4.90642,54.794256 l -0.83779,-0.122301 C 216.24315,3.5749193 219.15806,-34.72256 210.39702,-47.175147 215.63775,45.698463 67.835336,71.062293 151.57897,145.27027 Z"
       style="fill:#ed1c24;fill-rule:evenodd"
       id="path6578-1"
       inkscape:export-xdpi="90"
       inkscape:export-ydpi="90" />
    <path
       inkscape:connector-curvature="0"
       d="m 235.48566,18.353322 -0.0815,2.266705 -0.0407,2.126049 -0.007,2.04044 0.0102,1.999666 -0.008,2.007829 -0.0407,2.060827 -0.10192,2.154588 -0.16309,2.307469 -0.26294,2.49297 -0.38118,2.735531 -0.52591,3.006632 -0.68082,3.345024 -0.86632,3.716009 -1.07017,4.135907 -1.29438,4.610867 -3.13506,10.039124 -3.64669,8.797745 -4.06255,7.60526 -4.39886,6.48619 -4.64756,5.44254 -4.8147,4.453896 -4.90031,3.54682 -4.90644,2.70088 -4.80654,1.93445 -4.64552,1.23527 -4.39072,0.61355 -4.0503,0.0407 -3.63242,-0.42807 -3.15341,-0.85816 -2.58061,-1.2149 -1.96503,-1.56752 -2.10362,-3.59369 -1.21082,-4.00751 -0.34041,-4.119596 0.53406,-3.91781 1.46358,-3.37559 2.47257,-2.46239 3.46936,-1.02328 4.16037,0.78275 6.57793,2.21574 5.84409,1.35758 5.25908,0.61355 4.70259,-0.0815 4.20725,-0.67063 3.7364,-1.21081 3.33482,-1.67964 2.96179,-2.09344 2.65196,-2.43997 2.36455,-2.73145 2.11993,-2.95568 1.89164,-3.12895 1.72245,-3.210482 1.57161,-3.247172 1.47376,-3.208439 1.36574,-3.041293 0.80311,-2.743694 0.77256,-3.094291 0.71956,-3.353167 0.67879,-3.528476 0.63394,-3.638542 0.59113,-3.69154 0.5361,-3.675245 0.48719,-3.593697 0.4464,-3.444898 0.38934,-3.226784 0.34653,-2.947533 0.52998,-4.806551 0.18345,-1.730597 0.1427,-1.204701 3.53866,-26.0609527 -1.79584,28.1238107 z"
       style="fill:#231f20;fill-rule:evenodd"
       id="path6580-7"
       inkscape:export-xdpi="90"
       inkscape:export-ydpi="90" />
    <path
       inkscape:connector-curvature="0"
       d="M 414.16372,634.56393 397.86875,852.8155 c -3.75473,9.17285 -7.77854,9.82507 -12.30175,1.68166 l -21.46641,-219.93323 50.06313,0 z"
       style="fill:#0095da;fill-rule:evenodd"
       id="path6582-8"
       inkscape:export-xdpi="90"
       inkscape:export-ydpi="90" />
    <path
       inkscape:connector-curvature="0"
       d="m 424.29661,611.76238 0.24665,0.25888 -0.0407,7.88658 -1.26789,1.61645 -69.11401,0 -1.56957,-1.75099 0.0203,-7.48093 0.62375,-0.52999 71.09331,0 z"
       style="fill:#0095da;fill-rule:evenodd"
       id="path6584-8"
       inkscape:export-xdpi="90"
       inkscape:export-ydpi="90" />
    <path
       inkscape:connector-curvature="0"
       d="m 356.94786,599.66652 63.47783,0 1.47376,9.31345 -66.06661,0 1.11502,-9.31345 z"
       style="fill:#0095da;fill-rule:evenodd"
       id="path6586-2"
       inkscape:export-xdpi="90"
       inkscape:export-ydpi="90" />
    <path
       inkscape:connector-curvature="0"
       d="m 401.68871,641.39052 -2.90268,76.93333 -2.90269,76.92928 c -0.0163,2.42366 3.35929,2.79668 3.56109,-0.33633 l 9.9107,-153.48548 c -0.76032,-3.72418 -5.59948,-4.03198 -7.66642,-0.0412 z"
       style="fill:#ffffff;fill-rule:evenodd"
       id="path6588-3"
       inkscape:export-xdpi="90"
       inkscape:export-ydpi="90" />
    <path
       inkscape:connector-curvature="0"
       d="m 385.31424,643.55529 3.15543,72.39992 3.1575,72.40403 c 0.16307,2.27483 3.02498,2.34416 2.96586,-0.61154 l -2.83337,-144.79169 c -0.90913,-3.43264 -5.00021,-3.31644 -6.44542,0.59928 z"
       style="fill:#ffffff;fill-rule:evenodd"
       id="path6590-5"
       inkscape:export-xdpi="90"
       inkscape:export-ydpi="90" />
    <path
       inkscape:connector-curvature="0"
       d="m 370.89458,642.85613 6.90203,68.36389 6.89999,68.35984 c 0.27926,2.14643 3.14525,2.06691 2.93122,-0.72775 L 377.30129,641.9674 c -1.08444,-3.20233 -5.16328,-2.88839 -6.40671,0.88873 z"
       style="fill:#ffffff;fill-rule:evenodd"
       id="path6592-4"
       inkscape:export-xdpi="90"
       inkscape:export-ydpi="90" />
    <path
       inkscape:connector-curvature="0"
       d="m 421.20027,624.3067 -1.5349,4.83712 -4.58641,3.58352 0,-0.21404 -53.70982,0 -4.06458,-2.96383 -0.78885,-5.24277 64.68456,0 z"
       style="fill:#0095da;fill-rule:evenodd"
       id="path6594-2"
       inkscape:export-xdpi="90"
       inkscape:export-ydpi="90" />
    <path
       inkscape:connector-curvature="0"
       d="m 422.01157,595.22483 3.11875,-4.50486 1.73671,-4.60678 0.4607,-4.65164 -0.60542,-4.64551 -1.45949,-4.63532 -2.1016,-4.68222 -2.56839,-4.77596 -2.85783,-4.93294 -2.99237,-5.12861 -2.95773,-5.36304 -2.76814,-5.63209 -2.41551,-5.93991 -1.92017,-6.28234 -1.25769,-6.65539 -1.09259,-17.18372 -3.27978,10.87895 -0.31799,2.31358 -0.25889,2.94549 -0.23033,3.46324 -0.22014,3.76698 -0.24462,3.88111 -0.27315,3.77715 -0.0122,0.10192 -0.22014,-0.20995 -1.78768,-3.04129 -1.34331,-3.70582 -1.02327,-4.08291 -0.82963,-4.18687 -0.81333,-4.01974 -1.00697,-3.63242 -4.4539,-9.13204 -0.60949,14.39722 -1.60014,6.51268 -2.66215,6.01533 -3.51828,5.6158 -4.12981,5.2713 -4.51709,5.0002 -4.64755,4.79229 -4.53748,4.67201 -4.17057,4.62309 -3.55701,4.68832 -2.6703,4.87382 -1.47784,5.16326 0.10192,5.46495 1.92017,5.69326 3.91169,5.89914 6.5188,6.6676 56.62271,0 5.02669,-4.83916 z"
       style="fill:#231f20;fill-rule:evenodd"
       id="path6596-5"
       inkscape:export-xdpi="90"
       inkscape:export-ydpi="90" />
    <path
       inkscape:connector-curvature="0"
       d="m 361.11841,598.26408 55.13875,0 c 27.55103,-22.59158 -15.16978,-42.307 -15.09231,-82.55523 -1.03959,1.63072 -1.22509,15.80781 -2.20148,24.59127 l -0.3771,-0.0611 c -8.44918,-5.56688 -7.14052,-22.75264 -11.07057,-28.34193 2.35027,41.67918 -63.97724,53.06161 -26.39729,86.36501 z"
       style="fill:#ed1c24;fill-rule:evenodd"
       id="path6598-9"
       inkscape:export-xdpi="90"
       inkscape:export-ydpi="90" />
    <path
       inkscape:connector-curvature="0"
       d="m 400.00907,524.61463 -0.371,17.95219 -0.16306,2.38085 -0.25277,2.4257 -0.34653,2.46851 -0.41787,2.48684 -0.48921,2.50521 -0.55852,2.49703 -0.62375,2.53169 -3.05964,8.51646 -3.85666,6.41687 -4.32956,4.52321 -4.50487,2.87618 -4.35606,1.45747 -3.92188,0.30984 -3.20437,-0.60542 -2.21167,-1.33719 -1.04978,-1.80601 -0.57685,-1.91 -0.16308,-1.96092 0.24868,-1.8733 0.72567,-1.67352 1.26789,-1.2577 1.79379,-0.53406 2.00171,0.3873 5.55057,1.5879 4.33772,0.23239 3.42044,-0.81536 2.70699,-1.61442 2.17294,-2.24632 1.75913,-2.65807 1.45949,-2.86598 1.24751,-2.74574 0.70936,-2.58061 0.66249,-3.05761 0.60336,-3.26347 0.51775,-3.23699 0.43622,-2.97402 0.33634,-2.47869 0.23442,-1.75506 2.25446,-16.30518 z"
       style="fill:#231f20;fill-rule:evenodd"
       id="path6600-0"
       inkscape:export-xdpi="90"
       inkscape:export-ydpi="90" />
    <path
       inkscape:connector-curvature="0"
       d="m 473.01643,123.2107 1.54308,-5.11435 0.84186,-5.13473 0.18345,-5.14289 -0.40157,-5.13269 -0.93562,-5.130646 -1.41057,-5.12862 -1.82233,-5.14289 -2.17295,-5.17346 -2.49498,-5.21831 -2.74574,-5.27129 -2.96384,-5.352848 -3.11671,-5.43438 -3.24309,-5.544448 -3.31648,-5.64637 -3.35114,-5.776836 -3.32667,-5.907278 -3.27572,-6.058128 -3.16154,-6.206928 -3.01888,-6.372043 -2.81502,-6.533077 -2.5847,-6.7287617 -2.30339,-6.91222197 -1.98132,-7.11809203 -1.60831,-7.3280513 -1.20673,-7.556347 -0.74606,-7.788735 -0.68082,-21.519399 -6.92444,12.8195 -0.49738,1.934444 -0.35265,2.205556 -0.31799,2.627495 -0.28333,3.067792 -0.27723,3.440826 -0.26702,3.777149 -0.26704,4.036034 -0.25888,4.254147 -0.26702,4.3784793 -0.27519,4.447802 -0.29353,4.44371103 -0.30779,4.38663097 -0.3343,4.243954 -0.12231,1.355541 -1.1313,-1.26177 -2.15053,-3.214561 -1.88144,-3.656888 -1.62256,-4.015658 -1.40242,-4.307135 -1.2149,-4.5089423 -1.06608,-4.637365 -0.94784,-4.678128 -0.90098,-4.65367 -0.88263,-4.547666 -0.92951,-4.38257 -1.02328,-4.144062 -1.19655,-3.864807 -1.44318,-3.524398 -8.45732,-14.664259 0.14268,21.98008 -0.73586,7.784644 -1.45542,7.44221 -2.12197,7.132366 -2.71515,6.8673683 -3.25329,6.608492 -3.72416,6.380195 -4.13998,6.162093 -4.47634,5.9827027 -4.75764,5.803334 -4.96552,5.64637 -5.11028,5.507746 -5.17959,5.395658 -5.18364,5.289652 -5.11435,5.22238 -4.98796,5.167342 -4.76783,5.151036 -4.50078,5.138811 -4.15223,5.179577 -3.74453,5.228505 -3.2431,5.33448 -2.67439,5.45681 -2.00374,5.61579 -1.24343,5.78295 -0.371,5.968416 0.5728,6.10502 1.59404,6.23955 2.65195,6.33943 3.75473,6.46784 4.90236,6.60646 6.1091,6.7838 8.32482,7.8988 125.67149,0 6.44746,-5.70752 4.66997,-4.9207 3.8424,-4.95535 3.04536,-5.00836 2.28913,-5.06134 z"
       style="fill:#231f20;fill-rule:evenodd;stroke:#ffffff;stroke-width:3.35520792;stroke-linecap:butt;stroke-linejoin:round;stroke-dasharray:none"
       id="path6602-6"
       inkscape:export-xdpi="90"
       inkscape:export-ydpi="90" />
    <path
       inkscape:connector-curvature="0"
       d="m 328.48973,145.26211 122.86666,0 c 61.39256,-50.342376 -33.80281,-94.273995 -33.63158,-183.955474 -2.07102,1.624602 -2.72738,35.2235663 -4.90847,54.794256 L 411.9806,15.978591 C 393.15189,3.5749193 396.06883,-34.72256 387.30778,-47.175147 392.54852,45.698463 244.74611,71.062293 328.48973,145.27027 Z"
       style="fill:#ed1c24;fill-rule:evenodd"
       id="path6604-0"
       inkscape:export-xdpi="90"
       inkscape:export-ydpi="90" />
    <path
       inkscape:connector-curvature="0"
       d="m 412.39643,18.353322 -0.0815,2.266705 -0.0407,2.126049 -0.008,2.04044 0.0122,1.999666 -0.008,2.007829 -0.0407,2.060827 -0.1019,2.154588 -0.16308,2.307469 -0.26295,2.49297 -0.38119,2.735531 -0.52795,3.006632 -0.68082,3.345024 -0.86427,3.716009 -1.07017,4.135907 -1.29439,4.610867 -3.13505,10.039124 -3.64671,8.797745 -4.06253,7.60526 -4.4009,6.48619 -4.64552,5.44254 -4.81471,4.453896 -4.90031,3.54682 -4.90642,2.70088 -4.80656,1.93445 -4.64552,1.23527 -4.39071,0.61355 -4.0503,0.0407 -3.63243,-0.42807 -3.15341,-0.85816 -2.58062,-1.2149 -1.96501,-1.56752 -2.10568,-3.59369 -1.2108,-4.00751 -0.33838,-4.119596 0.53407,-3.91781 1.46356,-3.37559 2.47258,-2.46239 3.46937,-1.02328 4.16037,0.78275 6.57588,2.21574 5.84614,1.35758 5.25908,0.61355 4.70258,-0.0815 4.20522,-0.67063 3.73842,-1.21081 3.33279,-1.67964 2.96384,-2.09344 2.65196,-2.43997 2.36454,-2.73145 2.1179,-2.95568 1.89368,-3.12895 1.72244,-3.210482 1.57161,-3.247172 1.47377,-3.208439 1.36573,-3.041293 0.80313,-2.743694 0.77051,-3.094291 0.7216,-3.353167 0.67674,-3.528476 0.63599,-3.638542 0.59114,-3.69154 0.53609,-3.675245 0.48718,-3.593697 0.44642,-3.444898 0.38932,-3.226784 0.34653,-2.947533 0.52998,-4.806551 0.18346,-1.730597 0.14269,-1.204701 3.54071,-26.0609527 -1.79585,28.1238107 z"
       style="fill:#231f20;fill-rule:evenodd"
       id="path6606-7"
       inkscape:export-xdpi="90"
       inkscape:export-ydpi="90" />
    <path
       inkscape:connector-curvature="0"
       d="m 647.14682,123.2107 1.54307,-5.11435 0.84391,-5.13473 0.18344,-5.14289 -0.39952,-5.13269 -0.93766,-5.130646 -1.40853,-5.12862 -1.82437,-5.14289 -2.17294,-5.17346 -2.49297,-5.21831 -2.74776,-5.27129 -2.9618,-5.352848 -3.11671,-5.43438 -3.24513,-5.544448 -3.31445,-5.64637 -3.35317,-5.776836 -3.32667,-5.907278 -3.27571,-6.058128 -3.15952,-6.206928 -3.02091,-6.372043 -2.81503,-6.533077 -2.58265,-6.7287617 -2.3034,-6.91222197 -1.98336,-7.11809203 -1.60626,-7.3280513 -1.20877,-7.556347 -0.74606,-7.788735 -0.68083,-21.519399 -6.9224,12.8195 -0.49736,1.934444 -0.35266,2.205556 -0.31798,2.627495 -0.28537,3.067792 -0.27724,3.440826 -0.26703,3.777149 -0.26498,4.036034 -0.26092,4.254147 -0.26703,4.3784793 -0.27315,4.447802 -0.29557,4.44371103 -0.30575,4.38663097 -0.33634,4.243954 -0.12231,1.355541 -1.13131,-1.26177 -2.15254,-3.214561 -1.88146,-3.656888 -1.62051,-4.015658 -1.40242,-4.307135 -1.2149,-4.5089423 -1.06608,-4.637365 -0.94785,-4.678128 -0.90098,-4.65367 -0.88466,-4.547666 -0.92951,-4.38257 -1.02329,-4.144062 -1.19654,-3.864807 -1.44114,-3.524398 -8.45936,-14.664259 0.14267,21.98008 -0.73382,7.784644 -1.45745,7.44221 -2.12197,7.132366 -2.71311,6.8673683 -3.25533,6.608492 -3.72212,6.380195 -4.14204,6.162093 -4.47632,5.9827027 -4.75559,5.803334 -4.96758,5.64637 -5.11027,5.507746 -5.17958,5.395658 -5.18162,5.289652 -5.11434,5.22238 -4.98797,5.167342 -4.76782,5.151036 -4.50079,5.138811 -4.15222,5.179577 -3.74455,5.228505 -3.24513,5.33448 -2.67234,5.45681 -2.00375,5.61579 -1.24342,5.78295 -0.37304,5.968416 0.57485,6.10502 1.59198,6.23955 2.65196,6.33943 3.75676,6.46784 4.90033,6.60646 6.10909,6.7838 8.32482,7.8988 125.67352,0 6.44747,-5.70752 4.66997,-4.9207 3.84238,-4.95535 3.04538,-5.00836 2.28708,-5.06134 z"
       style="fill:#231f20;fill-rule:evenodd;stroke:#ffffff;stroke-width:3.35520792;stroke-linecap:butt;stroke-linejoin:round;stroke-dasharray:none"
       id="path6608-4"
       inkscape:export-xdpi="90"
       inkscape:export-ydpi="90" />
    <path
       inkscape:connector-curvature="0"
       d="m 502.62012,145.26211 122.86869,0 c 61.39053,-50.342376 -33.80484,-94.273995 -33.63157,-183.955474 -2.07305,1.624602 -2.72942,35.2235663 -4.90847,54.794256 l -0.83778,-0.122301 C 567.28432,3.5749193 570.20127,-34.72256 561.44022,-47.175147 566.6789,45.698463 418.87855,71.062293 502.62012,145.27027 Z"
       style="fill:#ed1c24;fill-rule:evenodd"
       id="path6610-0"
       inkscape:export-xdpi="90"
       inkscape:export-ydpi="90" />
    <path
       inkscape:connector-curvature="0"
       d="m 586.52886,18.353322 -0.0815,2.266705 -0.0407,2.126049 -0.006,2.04044 0.0102,1.999666 -0.007,2.007829 -0.0407,2.060827 -0.10192,2.154588 -0.16307,2.307469 -0.26296,2.49297 -0.38322,2.735531 -0.5259,3.006632 -0.68083,3.345024 -0.86632,3.716009 -1.07015,4.135907 -1.29234,4.610867 -3.13711,10.039124 -3.6467,8.797745 -4.0605,7.60526 -4.40091,6.48619 -4.64551,5.44254 -4.81471,4.453896 -4.90234,3.54682 -4.90439,2.70088 -4.8086,1.93445 -4.64552,1.23527 -4.38867,0.61355 -4.05234,0.0407 -3.63243,-0.42807 -3.1534,-0.85816 -2.58062,-1.2149 -1.96298,-1.56752 -2.10567,-3.59369 -1.21081,-4.00751 -0.33838,-4.119596 0.53203,-3.91781 1.46358,-3.37559 2.47257,-2.46239 3.47141,-1.02328 4.15833,0.78275 6.57791,2.21574 5.84614,1.35758 5.25704,0.61355 4.70258,-0.0815 4.20727,-0.67063 3.73639,-1.21081 3.33482,-1.67964 2.9618,-2.09344 2.65196,-2.43997 2.36454,-2.73145 2.11993,-2.95568 1.89164,-3.12895 1.72246,-3.210482 1.5716,-3.247172 1.47376,-3.208439 1.36574,-3.041293 0.80516,-2.743694 0.77051,-3.094291 0.7216,-3.353167 0.67675,-3.528476 0.63394,-3.638542 0.59114,-3.69154 0.53813,-3.675245 0.48513,-3.593697 0.44642,-3.444898 0.38933,-3.226784 0.34653,-2.947533 0.52998,-4.806551 0.18346,-1.730597 0.14269,-1.204701 3.53867,-26.0609527 -1.79381,28.1238107 z"
       style="fill:#231f20;fill-rule:evenodd"
       id="path6612-4"
       inkscape:export-xdpi="90"
       inkscape:export-ydpi="90" />
  </g>
</svg>
