<?xml version="1.0" standalone="no"?><!-- Generator: Gravit.io --><svg xmlns="http://www.w3.org/2000/svg" xmlns:xlink="http://www.w3.org/1999/xlink" style="isolation:isolate" viewBox="115.274 562.657 182.364 249.941" width="182.364" height="249.941"><g><g><g><radialGradient id="_rgradient_9" fx="0.4976635514018688" fy="0.4900702336056586" cx="0.5" cy="0.5" r="0.5" gradientTransform="matrix(103.618,-5.494,5.24,83.448,113.22,565.239)" gradientUnits="userSpaceOnUse"><stop offset="0%" stop-opacity="1" style="stop-color:rgb(255,255,255)"/><stop offset="100%" stop-opacity="1" style="stop-color:rgb(164,164,164)"/></radialGradient><circle vector-effect="non-scaling-stroke" cx="196.9468915144925" cy="597.7823899141199" r="35.12502452712985" fill="url(#_rgradient_9)"/><linearGradient id="_lgradient_18" x1="0.0022624434389139914" y1="0.6926359261960697" x2="0.9253393665158373" y2="0.2909551477302543" gradientTransform="matrix(128.662,0,0,113.051,143.192,564.792)" gradientUnits="userSpaceOnUse"><stop offset="0%" stop-opacity="1" style="stop-color:rgb(191,120,20)"/><stop offset="49.56521739130435%" stop-opacity="1" style="stop-color:rgb(253,191,0)"/><stop offset="100%" stop-opacity="1" style="stop-color:rgb(212,161,0)"/></linearGradient><path d=" M 143.192 589.438 Q 171.206 610.312 190.155 607.097 C 211.89 603.41 229.549 580.317 234.595 564.792 L 271.854 632.519 Q 266.615 666.092 240.611 675.213 Q 214.606 684.334 176.57 661.822 L 143.192 589.438 Z " fill="url(#_lgradient_18)"/><linearGradient id="_lgradient_19" x1="0.20154690618762464" y1="0.6984131693214242" x2="0.8809880239520955" y2="0.3572791793312508" gradientTransform="matrix(129.633,0,0,102.928,141.057,574.883)" gradientUnits="userSpaceOnUse"><stop offset="2.1739130434782608%" stop-opacity="1" style="stop-color:rgb(194,127,38)"/><stop offset="44.13296109479239%" stop-opacity="1" style="stop-color:rgb(219,189,148)"/><stop offset="58.78278853482464%" stop-opacity="1" style="stop-color:rgb(238,236,233)"/><stop offset="74.91628914713415%" stop-opacity="1" style="stop-color:rgb(246,217,131)"/><stop offset="100%" stop-opacity="1" style="stop-color:rgb(255,195,15)"/></linearGradient><path d=" M 141.057 597.006 C 142.804 602.44 176.57 614.278 199.082 611.561 C 220.279 609.002 231.878 594.289 234.983 574.883 L 270.69 635.43 Q 266.615 666.092 240.611 675.213 Q 214.606 684.334 175.794 661.434 L 141.057 597.006 Z " fill="url(#_lgradient_19)"/></g></g><g><path d=" M 196.34 805.893 L 196.34 805.893 Q 196.407 806.027 196.407 806.178 L 196.407 806.178 L 196.407 806.178 Q 196.407 806.429 196.214 806.597 L 196.214 806.597 L 196.214 806.597 Q 196.021 806.764 195.753 806.764 L 195.753 806.764 L 195.753 806.764 Q 195.334 806.764 195.166 806.362 L 195.166 806.362 L 193.976 803.646 L 187.656 803.646 L 186.449 806.362 L 186.449 806.362 Q 186.281 806.764 185.862 806.764 L 185.862 806.764 L 185.862 806.764 Q 185.594 806.764 185.392 806.588 L 185.392 806.588 L 185.392 806.588 Q 185.191 806.412 185.191 806.161 L 185.191 806.161 L 185.191 806.161 Q 185.191 806.027 185.258 805.893 L 185.258 805.893 L 190.053 795.23 L 190.053 795.23 Q 190.153 794.996 190.355 794.878 L 190.355 794.878 L 190.355 794.878 Q 190.556 794.761 190.791 794.761 L 190.791 794.761 L 190.791 794.761 Q 191.042 794.761 191.243 794.887 L 191.243 794.887 L 191.243 794.887 Q 191.444 795.012 191.545 795.23 L 191.545 795.23 L 196.34 805.893 L 196.34 805.893 Z  M 190.807 796.488 L 188.158 802.506 L 193.473 802.506 L 190.807 796.488 L 190.807 796.488 Z  M 198.838 806.764 L 198.838 806.764 Q 198.536 806.764 198.343 806.588 L 198.343 806.588 L 198.343 806.588 Q 198.15 806.412 198.15 806.094 L 198.15 806.094 L 198.15 795.448 L 198.15 795.448 Q 198.15 795.13 198.343 794.954 L 198.343 794.954 L 198.343 794.954 Q 198.536 794.778 198.838 794.778 L 198.838 794.778 L 198.838 794.778 Q 199.123 794.778 199.315 794.954 L 199.315 794.954 L 199.315 794.954 Q 199.508 795.13 199.508 795.448 L 199.508 795.448 L 199.508 806.094 L 199.508 806.094 Q 199.508 806.412 199.315 806.588 L 199.315 806.588 L 199.315 806.588 Q 199.123 806.764 198.838 806.764 L 198.838 806.764 L 198.838 806.764 Z  M 205.376 798.315 L 205.376 798.315 Q 208.444 798.315 208.444 801.534 L 208.444 801.534 L 208.444 806.094 L 208.444 806.094 Q 208.444 806.396 208.268 806.58 L 208.268 806.58 L 208.268 806.58 Q 208.092 806.764 207.79 806.764 L 207.79 806.764 L 207.79 806.764 Q 207.488 806.764 207.304 806.58 L 207.304 806.58 L 207.304 806.58 Q 207.119 806.396 207.119 806.094 L 207.119 806.094 L 207.119 805.289 L 207.119 805.289 Q 206.801 806.01 206.147 806.404 L 206.147 806.404 L 206.147 806.404 Q 205.493 806.798 204.638 806.798 L 204.638 806.798 L 204.638 806.798 Q 203.85 806.798 203.188 806.479 L 203.188 806.479 L 203.188 806.479 Q 202.526 806.161 202.14 805.591 L 202.14 805.591 L 202.14 805.591 Q 201.755 805.021 201.755 804.333 L 201.755 804.333 L 201.755 804.333 Q 201.755 803.411 202.224 802.9 L 202.224 802.9 L 202.224 802.9 Q 202.693 802.389 203.766 802.162 L 203.766 802.162 L 203.766 802.162 Q 204.839 801.936 206.75 801.936 L 206.75 801.936 L 207.119 801.936 L 207.119 801.383 L 207.119 801.383 Q 207.119 800.377 206.709 799.908 L 206.709 799.908 L 206.709 799.908 Q 206.298 799.438 205.376 799.438 L 205.376 799.438 L 205.376 799.438 Q 204.236 799.438 203.062 800.058 L 203.062 800.058 L 203.062 800.058 Q 202.61 800.343 202.425 800.343 L 202.425 800.343 L 202.425 800.343 Q 202.224 800.343 202.09 800.193 L 202.09 800.193 L 202.09 800.193 Q 201.956 800.042 201.956 799.807 L 201.956 799.807 L 201.956 799.807 Q 201.956 799.572 202.098 799.396 L 202.098 799.396 L 202.098 799.396 Q 202.241 799.22 202.559 799.036 L 202.559 799.036 L 202.559 799.036 Q 203.146 798.701 203.892 798.508 L 203.892 798.508 L 203.892 798.508 Q 204.638 798.315 205.376 798.315 L 205.376 798.315 L 205.376 798.315 Z  M 204.823 805.725 L 204.823 805.725 Q 205.828 805.725 206.474 805.046 L 206.474 805.046 L 206.474 805.046 Q 207.119 804.367 207.119 803.294 L 207.119 803.294 L 207.119 802.808 L 206.818 802.808 L 206.818 802.808 Q 205.342 802.808 204.571 802.934 L 204.571 802.934 L 204.571 802.934 Q 203.8 803.059 203.473 803.353 L 203.473 803.353 L 203.473 803.353 Q 203.146 803.646 203.146 804.216 L 203.146 804.216 L 203.146 804.216 Q 203.146 804.87 203.624 805.297 L 203.624 805.297 L 203.624 805.297 Q 204.102 805.725 204.823 805.725 L 204.823 805.725 L 204.823 805.725 Z  M 217.547 798.349 L 217.547 798.349 Q 217.865 798.349 218.05 798.533 L 218.05 798.533 L 218.05 798.533 Q 218.234 798.717 218.234 799.019 L 218.234 799.019 L 218.234 806.127 L 218.234 806.127 Q 218.234 807.955 217.295 808.885 L 217.295 808.885 L 217.295 808.885 Q 216.357 809.816 214.512 809.816 L 214.512 809.816 L 214.512 809.816 Q 212.719 809.816 211.528 809.111 L 211.528 809.111 L 211.528 809.111 Q 210.925 808.776 210.925 808.34 L 210.925 808.34 L 210.925 808.34 Q 210.925 808.106 211.051 807.955 L 211.051 807.955 L 211.051 807.955 Q 211.176 807.804 211.377 807.804 L 211.377 807.804 L 211.377 807.804 Q 211.545 807.804 211.981 808.038 L 211.981 808.038 L 211.981 808.038 Q 212.568 808.34 213.138 808.525 L 213.138 808.525 L 213.138 808.525 Q 213.708 808.709 214.496 808.709 L 214.496 808.709 L 214.496 808.709 Q 215.686 808.709 216.29 808.08 L 216.29 808.08 L 216.29 808.08 Q 216.893 807.452 216.893 806.245 L 216.893 806.245 L 216.893 804.803 L 216.893 804.803 Q 216.541 805.591 215.812 806.01 L 215.812 806.01 L 215.812 806.01 Q 215.082 806.429 214.093 806.429 L 214.093 806.429 L 214.093 806.429 Q 213.02 806.429 212.191 805.926 L 212.191 805.926 L 212.191 805.926 Q 211.361 805.423 210.9 804.501 L 210.9 804.501 L 210.9 804.501 Q 210.439 803.579 210.439 802.372 L 210.439 802.372 L 210.439 802.372 Q 210.439 801.165 210.9 800.243 L 210.9 800.243 L 210.9 800.243 Q 211.361 799.321 212.191 798.818 L 212.191 798.818 L 212.191 798.818 Q 213.02 798.315 214.093 798.315 L 214.093 798.315 L 214.093 798.315 Q 215.066 798.315 215.787 798.734 L 215.787 798.734 L 215.787 798.734 Q 216.507 799.153 216.876 799.924 L 216.876 799.924 L 216.876 799.019 L 216.876 799.019 Q 216.876 798.717 217.052 798.533 L 217.052 798.533 L 217.052 798.533 Q 217.228 798.349 217.547 798.349 L 217.547 798.349 L 217.547 798.349 Z  M 214.362 805.306 L 214.362 805.306 Q 215.535 805.306 216.206 804.526 L 216.206 804.526 L 216.206 804.526 Q 216.876 803.747 216.876 802.372 L 216.876 802.372 L 216.876 802.372 Q 216.876 801.014 216.214 800.235 L 216.214 800.235 L 216.214 800.235 Q 215.552 799.455 214.362 799.455 L 214.362 799.455 L 214.362 799.455 Q 213.171 799.455 212.492 800.235 L 212.492 800.235 L 212.492 800.235 Q 211.813 801.014 211.813 802.372 L 211.813 802.372 L 211.813 802.372 Q 211.813 803.747 212.492 804.526 L 212.492 804.526 L 212.492 804.526 Q 213.171 805.306 214.362 805.306 L 214.362 805.306 L 214.362 805.306 Z  M 224.135 806.798 L 224.135 806.798 Q 222.979 806.798 222.098 806.278 L 222.098 806.278 L 222.098 806.278 Q 221.218 805.758 220.741 804.794 L 220.741 804.794 L 220.741 804.794 Q 220.263 803.831 220.263 802.556 L 220.263 802.556 L 220.263 802.556 Q 220.263 801.282 220.741 800.318 L 220.741 800.318 L 220.741 800.318 Q 221.218 799.354 222.098 798.835 L 222.098 798.835 L 222.098 798.835 Q 222.979 798.315 224.135 798.315 L 224.135 798.315 L 224.135 798.315 Q 225.292 798.315 226.181 798.835 L 226.181 798.835 L 226.181 798.835 Q 227.069 799.354 227.547 800.318 L 227.547 800.318 L 227.547 800.318 Q 228.025 801.282 228.025 802.556 L 228.025 802.556 L 228.025 802.556 Q 228.025 803.831 227.547 804.794 L 227.547 804.794 L 227.547 804.794 Q 227.069 805.758 226.181 806.278 L 226.181 806.278 L 226.181 806.278 Q 225.292 806.798 224.135 806.798 L 224.135 806.798 L 224.135 806.798 Z  M 224.135 805.675 L 224.135 805.675 Q 225.342 805.675 225.988 804.878 L 225.988 804.878 L 225.988 804.878 Q 226.633 804.082 226.633 802.556 L 226.633 802.556 L 226.633 802.556 Q 226.633 801.064 225.979 800.251 L 225.979 800.251 L 225.979 800.251 Q 225.326 799.438 224.135 799.438 L 224.135 799.438 L 224.135 799.438 Q 222.945 799.438 222.291 800.251 L 222.291 800.251 L 222.291 800.251 Q 221.637 801.064 221.637 802.556 L 221.637 802.556 L 221.637 802.556 Q 221.637 804.065 222.283 804.87 L 222.283 804.87 L 222.283 804.87 Q 222.928 805.675 224.135 805.675 L 224.135 805.675 L 224.135 805.675 Z  M 233.389 798.315 L 233.389 798.315 Q 236.457 798.315 236.457 801.534 L 236.457 801.534 L 236.457 806.094 L 236.457 806.094 Q 236.457 806.396 236.281 806.58 L 236.281 806.58 L 236.281 806.58 Q 236.105 806.764 235.804 806.764 L 235.804 806.764 L 235.804 806.764 Q 235.502 806.764 235.317 806.58 L 235.317 806.58 L 235.317 806.58 Q 235.133 806.396 235.133 806.094 L 235.133 806.094 L 235.133 805.289 L 235.133 805.289 Q 234.814 806.01 234.161 806.404 L 234.161 806.404 L 234.161 806.404 Q 233.507 806.798 232.652 806.798 L 232.652 806.798 L 232.652 806.798 Q 231.864 806.798 231.202 806.479 L 231.202 806.479 L 231.202 806.479 Q 230.539 806.161 230.154 805.591 L 230.154 805.591 L 230.154 805.591 Q 229.768 805.021 229.768 804.333 L 229.768 804.333 L 229.768 804.333 Q 229.768 803.411 230.238 802.9 L 230.238 802.9 L 230.238 802.9 Q 230.707 802.389 231.78 802.162 L 231.78 802.162 L 231.78 802.162 Q 232.853 801.936 234.764 801.936 L 234.764 801.936 L 235.133 801.936 L 235.133 801.383 L 235.133 801.383 Q 235.133 800.377 234.722 799.908 L 234.722 799.908 L 234.722 799.908 Q 234.311 799.438 233.389 799.438 L 233.389 799.438 L 233.389 799.438 Q 232.249 799.438 231.076 800.058 L 231.076 800.058 L 231.076 800.058 Q 230.623 800.343 230.439 800.343 L 230.439 800.343 L 230.439 800.343 Q 230.238 800.343 230.104 800.193 L 230.104 800.193 L 230.104 800.193 Q 229.969 800.042 229.969 799.807 L 229.969 799.807 L 229.969 799.807 Q 229.969 799.572 230.112 799.396 L 230.112 799.396 L 230.112 799.396 Q 230.254 799.22 230.573 799.036 L 230.573 799.036 L 230.573 799.036 Q 231.16 798.701 231.906 798.508 L 231.906 798.508 L 231.906 798.508 Q 232.652 798.315 233.389 798.315 L 233.389 798.315 L 233.389 798.315 Z  M 232.836 805.725 L 232.836 805.725 Q 233.842 805.725 234.488 805.046 L 234.488 805.046 L 234.488 805.046 Q 235.133 804.367 235.133 803.294 L 235.133 803.294 L 235.133 802.808 L 234.831 802.808 L 234.831 802.808 Q 233.356 802.808 232.585 802.934 L 232.585 802.934 L 232.585 802.934 Q 231.814 803.059 231.487 803.353 L 231.487 803.353 L 231.487 803.353 Q 231.16 803.646 231.16 804.216 L 231.16 804.216 L 231.16 804.216 Q 231.16 804.87 231.638 805.297 L 231.638 805.297 L 231.638 805.297 Q 232.115 805.725 232.836 805.725 L 232.836 805.725 L 232.836 805.725 Z  M 241.688 806.798 L 241.688 806.798 Q 240.917 806.798 240.221 806.613 L 240.221 806.613 L 240.221 806.613 Q 239.525 806.429 238.989 806.094 L 238.989 806.094 L 238.989 806.094 Q 238.687 805.893 238.561 805.717 L 238.561 805.717 L 238.561 805.717 Q 238.436 805.541 238.436 805.289 L 238.436 805.289 L 238.436 805.289 Q 238.436 805.071 238.561 804.929 L 238.561 804.929 L 238.561 804.929 Q 238.687 804.786 238.888 804.786 L 238.888 804.786 L 238.888 804.786 Q 239.089 804.786 239.475 805.038 L 239.475 805.038 L 239.475 805.038 Q 239.978 805.339 240.472 805.515 L 240.472 805.515 L 240.472 805.515 Q 240.967 805.691 241.705 805.691 L 241.705 805.691 L 241.705 805.691 Q 242.61 805.691 243.113 805.373 L 243.113 805.373 L 243.113 805.373 Q 243.616 805.054 243.616 804.451 L 243.616 804.451 L 243.616 804.451 Q 243.616 804.082 243.431 803.856 L 243.431 803.856 L 243.431 803.856 Q 243.247 803.629 242.794 803.453 L 242.794 803.453 L 242.794 803.453 Q 242.342 803.277 241.47 803.093 L 241.47 803.093 L 241.47 803.093 Q 239.995 802.774 239.358 802.238 L 239.358 802.238 L 239.358 802.238 Q 238.721 801.701 238.721 800.779 L 238.721 800.779 L 238.721 800.779 Q 238.721 800.058 239.123 799.505 L 239.123 799.505 L 239.123 799.505 Q 239.525 798.952 240.238 798.634 L 240.238 798.634 L 240.238 798.634 Q 240.95 798.315 241.856 798.315 L 241.856 798.315 L 241.856 798.315 Q 242.509 798.315 243.121 798.491 L 243.121 798.491 L 243.121 798.491 Q 243.733 798.667 244.203 798.986 L 244.203 798.986 L 244.203 798.986 Q 244.773 799.388 244.773 799.824 L 244.773 799.824 L 244.773 799.824 Q 244.773 800.042 244.638 800.193 L 244.638 800.193 L 244.638 800.193 Q 244.504 800.343 244.32 800.343 L 244.32 800.343 L 244.32 800.343 Q 244.119 800.343 243.716 800.058 L 243.716 800.058 L 243.716 800.058 Q 243.247 799.757 242.828 799.589 L 242.828 799.589 L 242.828 799.589 Q 242.409 799.421 241.789 799.421 L 241.789 799.421 L 241.789 799.421 Q 241.001 799.421 240.523 799.773 L 240.523 799.773 L 240.523 799.773 Q 240.045 800.126 240.045 800.712 L 240.045 800.712 L 240.045 800.712 Q 240.045 801.081 240.221 801.307 L 240.221 801.307 L 240.221 801.307 Q 240.397 801.534 240.808 801.71 L 240.808 801.71 L 240.808 801.71 Q 241.219 801.886 241.99 802.053 L 241.99 802.053 L 241.99 802.053 Q 243.13 802.305 243.758 802.607 L 243.758 802.607 L 243.758 802.607 Q 244.387 802.908 244.655 803.344 L 244.655 803.344 L 244.655 803.344 Q 244.923 803.78 244.923 804.451 L 244.923 804.451 L 244.923 804.451 Q 244.923 805.507 244.035 806.152 L 244.035 806.152 L 244.035 806.152 Q 243.146 806.798 241.688 806.798 L 241.688 806.798 L 241.688 806.798 Z  M 169.6 794.778 L 169.6 794.778 Q 169.919 794.778 170.103 794.962 L 170.103 794.962 L 170.103 794.962 Q 170.287 795.146 170.287 795.431 L 170.287 795.431 L 170.287 806.094 L 170.287 806.094 Q 170.287 806.396 170.103 806.58 L 170.103 806.58 L 170.103 806.58 Q 169.919 806.764 169.6 806.764 L 169.6 806.764 L 169.6 806.764 Q 169.282 806.764 169.106 806.58 L 169.106 806.58 L 169.106 806.58 Q 168.929 806.396 168.929 806.094 L 168.929 806.094 L 168.929 805.188 L 168.929 805.188 Q 168.561 805.96 167.848 806.379 L 167.848 806.379 L 167.848 806.379 Q 167.136 806.798 166.18 806.798 L 166.18 806.798 L 166.18 806.798 Q 165.107 806.798 164.286 806.261 L 164.286 806.261 L 164.286 806.261 Q 163.464 805.725 163.012 804.761 L 163.012 804.761 L 163.012 804.761 Q 162.559 803.797 162.559 802.523 L 162.559 802.523 L 162.559 802.523 Q 162.559 801.266 163.012 800.31 L 163.012 800.31 L 163.012 800.31 Q 163.464 799.354 164.286 798.835 L 164.286 798.835 L 164.286 798.835 Q 165.107 798.315 166.18 798.315 L 166.18 798.315 L 166.18 798.315 Q 167.136 798.315 167.848 798.734 L 167.848 798.734 L 167.848 798.734 Q 168.561 799.153 168.929 799.924 L 168.929 799.924 L 168.929 795.431 L 168.929 795.431 Q 168.929 795.13 169.106 794.954 L 169.106 794.954 L 169.106 794.954 Q 169.282 794.778 169.6 794.778 L 169.6 794.778 L 169.6 794.778 Z  M 166.448 805.675 L 166.448 805.675 Q 167.639 805.675 168.284 804.862 L 168.284 804.862 L 168.284 804.862 Q 168.929 804.048 168.929 802.556 L 168.929 802.556 L 168.929 802.556 Q 168.929 801.064 168.284 800.26 L 168.284 800.26 L 168.284 800.26 Q 167.639 799.455 166.448 799.455 L 166.448 799.455 L 166.448 799.455 Q 165.258 799.455 164.596 800.26 L 164.596 800.26 L 164.596 800.26 Q 163.934 801.064 163.934 802.523 L 163.934 802.523 L 163.934 802.523 Q 163.934 804.015 164.596 804.845 L 164.596 804.845 L 164.596 804.845 Q 165.258 805.675 166.448 805.675 L 166.448 805.675 L 166.448 805.675 Z  M 179.122 804.786 L 179.122 804.786 Q 179.307 804.786 179.441 804.937 L 179.441 804.937 L 179.441 804.937 Q 179.575 805.088 179.575 805.323 L 179.575 805.323 L 179.575 805.323 Q 179.575 805.742 178.988 806.094 L 178.988 806.094 L 178.988 806.094 Q 178.385 806.446 177.714 806.622 L 177.714 806.622 L 177.714 806.622 Q 177.044 806.798 176.406 806.798 L 176.406 806.798 L 176.406 806.798 Q 174.512 806.798 173.414 805.675 L 173.414 805.675 L 173.414 805.675 Q 172.316 804.551 172.316 802.573 L 172.316 802.573 L 172.316 802.573 Q 172.316 801.316 172.802 800.352 L 172.802 800.352 L 172.802 800.352 Q 173.288 799.388 174.168 798.851 L 174.168 798.851 L 174.168 798.851 Q 175.049 798.315 176.172 798.315 L 176.172 798.315 L 176.172 798.315 Q 177.764 798.315 178.703 799.354 L 178.703 799.354 L 178.703 799.354 Q 179.642 800.394 179.642 802.171 L 179.642 802.171 L 179.642 802.171 Q 179.642 802.506 179.508 802.657 L 179.508 802.657 L 179.508 802.657 Q 179.374 802.808 179.072 802.808 L 179.072 802.808 L 173.674 802.808 L 173.674 802.808 Q 173.825 805.691 176.406 805.691 L 176.406 805.691 L 176.406 805.691 Q 177.06 805.691 177.53 805.515 L 177.53 805.515 L 177.53 805.515 Q 177.999 805.339 178.536 805.038 L 178.536 805.038 L 178.536 805.038 Q 178.971 804.786 179.122 804.786 L 179.122 804.786 L 179.122 804.786 Z  M 176.189 799.371 L 176.189 799.371 Q 175.116 799.371 174.47 800.042 L 174.47 800.042 L 174.47 800.042 Q 173.825 800.712 173.707 801.936 L 173.707 801.936 L 178.452 801.936 L 178.452 801.936 Q 178.418 800.696 177.831 800.033 L 177.831 800.033 L 177.831 800.033 Q 177.245 799.371 176.189 799.371 L 176.189 799.371 L 176.189 799.371 Z  M 229.383 788.928 L 229.383 788.928 Q 229.064 788.928 228.88 788.735 L 228.88 788.735 L 228.88 788.735 Q 228.695 788.543 228.695 788.224 L 228.695 788.224 L 228.695 777.696 L 228.695 777.696 Q 228.695 777.394 228.888 777.21 L 228.888 777.21 L 228.888 777.21 Q 229.081 777.025 229.399 777.025 L 229.399 777.025 L 235.502 777.025 L 235.502 777.025 Q 235.804 777.025 235.971 777.176 L 235.971 777.176 L 235.971 777.176 Q 236.139 777.327 236.139 777.612 L 236.139 777.612 L 236.139 777.612 Q 236.139 777.88 235.971 778.031 L 235.971 778.031 L 235.971 778.031 Q 235.804 778.182 235.502 778.182 L 235.502 778.182 L 230.053 778.182 L 230.053 782.256 L 235.166 782.256 L 235.166 782.256 Q 235.468 782.256 235.636 782.407 L 235.636 782.407 L 235.636 782.407 Q 235.804 782.558 235.804 782.843 L 235.804 782.843 L 235.804 782.843 Q 235.804 783.111 235.636 783.262 L 235.636 783.262 L 235.636 783.262 Q 235.468 783.413 235.166 783.413 L 235.166 783.413 L 230.053 783.413 L 230.053 788.224 L 230.053 788.224 Q 230.053 788.543 229.877 788.735 L 229.877 788.735 L 229.877 788.735 Q 229.701 788.928 229.383 788.928 L 229.383 788.928 L 229.383 788.928 Z  M 244.152 786.95 L 244.152 786.95 Q 244.337 786.95 244.471 787.101 L 244.471 787.101 L 244.471 787.101 Q 244.605 787.252 244.605 787.486 L 244.605 787.486 L 244.605 787.486 Q 244.605 787.905 244.018 788.258 L 244.018 788.258 L 244.018 788.258 Q 243.415 788.61 242.744 788.786 L 242.744 788.786 L 242.744 788.786 Q 242.074 788.962 241.436 788.962 L 241.436 788.962 L 241.436 788.962 Q 239.542 788.962 238.444 787.838 L 238.444 787.838 L 238.444 787.838 Q 237.346 786.715 237.346 784.737 L 237.346 784.737 L 237.346 784.737 Q 237.346 783.48 237.832 782.516 L 237.832 782.516 L 237.832 782.516 Q 238.318 781.552 239.198 781.015 L 239.198 781.015 L 239.198 781.015 Q 240.079 780.479 241.202 780.479 L 241.202 780.479 L 241.202 780.479 Q 242.794 780.479 243.733 781.518 L 243.733 781.518 L 243.733 781.518 Q 244.672 782.558 244.672 784.335 L 244.672 784.335 L 244.672 784.335 Q 244.672 784.67 244.538 784.821 L 244.538 784.821 L 244.538 784.821 Q 244.404 784.972 244.102 784.972 L 244.102 784.972 L 238.704 784.972 L 238.704 784.972 Q 238.855 787.855 241.436 787.855 L 241.436 787.855 L 241.436 787.855 Q 242.09 787.855 242.56 787.679 L 242.56 787.679 L 242.56 787.679 Q 243.029 787.503 243.566 787.201 L 243.566 787.201 L 243.566 787.201 Q 244.001 786.95 244.152 786.95 L 244.152 786.95 L 244.152 786.95 Z  M 241.219 781.535 L 241.219 781.535 Q 240.146 781.535 239.5 782.206 L 239.5 782.206 L 239.5 782.206 Q 238.855 782.876 238.737 784.1 L 238.737 784.1 L 243.482 784.1 L 243.482 784.1 Q 243.448 782.859 242.861 782.197 L 242.861 782.197 L 242.861 782.197 Q 242.275 781.535 241.219 781.535 L 241.219 781.535 L 241.219 781.535 Z  M 253.222 776.941 L 253.222 776.941 Q 253.541 776.941 253.725 777.126 L 253.725 777.126 L 253.725 777.126 Q 253.909 777.31 253.909 777.595 L 253.909 777.595 L 253.909 788.258 L 253.909 788.258 Q 253.909 788.559 253.725 788.744 L 253.725 788.744 L 253.725 788.744 Q 253.541 788.928 253.222 788.928 L 253.222 788.928 L 253.222 788.928 Q 252.903 788.928 252.727 788.744 L 252.727 788.744 L 252.727 788.744 Q 252.551 788.559 252.551 788.258 L 252.551 788.258 L 252.551 787.352 L 252.551 787.352 Q 252.183 788.123 251.47 788.543 L 251.47 788.543 L 251.47 788.543 Q 250.758 788.962 249.802 788.962 L 249.802 788.962 L 249.802 788.962 Q 248.729 788.962 247.908 788.425 L 247.908 788.425 L 247.908 788.425 Q 247.086 787.889 246.633 786.925 L 246.633 786.925 L 246.633 786.925 Q 246.181 785.961 246.181 784.687 L 246.181 784.687 L 246.181 784.687 Q 246.181 783.429 246.633 782.474 L 246.633 782.474 L 246.633 782.474 Q 247.086 781.518 247.908 780.998 L 247.908 780.998 L 247.908 780.998 Q 248.729 780.479 249.802 780.479 L 249.802 780.479 L 249.802 780.479 Q 250.758 780.479 251.47 780.898 L 251.47 780.898 L 251.47 780.898 Q 252.183 781.317 252.551 782.088 L 252.551 782.088 L 252.551 777.595 L 252.551 777.595 Q 252.551 777.293 252.727 777.117 L 252.727 777.117 L 252.727 777.117 Q 252.903 776.941 253.222 776.941 L 253.222 776.941 L 253.222 776.941 Z  M 250.07 787.838 L 250.07 787.838 Q 251.261 787.838 251.906 787.025 L 251.906 787.025 L 251.906 787.025 Q 252.551 786.212 252.551 784.72 L 252.551 784.72 L 252.551 784.72 Q 252.551 783.228 251.906 782.423 L 251.906 782.423 L 251.906 782.423 Q 251.261 781.619 250.07 781.619 L 250.07 781.619 L 250.07 781.619 Q 248.88 781.619 248.218 782.423 L 248.218 782.423 L 248.218 782.423 Q 247.556 783.228 247.556 784.687 L 247.556 784.687 L 247.556 784.687 Q 247.556 786.179 248.218 787.009 L 248.218 787.009 L 248.218 787.009 Q 248.88 787.838 250.07 787.838 L 250.07 787.838 L 250.07 787.838 Z  M 262.744 786.95 L 262.744 786.95 Q 262.929 786.95 263.063 787.101 L 263.063 787.101 L 263.063 787.101 Q 263.197 787.252 263.197 787.486 L 263.197 787.486 L 263.197 787.486 Q 263.197 787.905 262.61 788.258 L 262.61 788.258 L 262.61 788.258 Q 262.007 788.61 261.336 788.786 L 261.336 788.786 L 261.336 788.786 Q 260.665 788.962 260.028 788.962 L 260.028 788.962 L 260.028 788.962 Q 258.134 788.962 257.036 787.838 L 257.036 787.838 L 257.036 787.838 Q 255.938 786.715 255.938 784.737 L 255.938 784.737 L 255.938 784.737 Q 255.938 783.48 256.424 782.516 L 256.424 782.516 L 256.424 782.516 Q 256.91 781.552 257.79 781.015 L 257.79 781.015 L 257.79 781.015 Q 258.67 780.479 259.794 780.479 L 259.794 780.479 L 259.794 780.479 Q 261.386 780.479 262.325 781.518 L 262.325 781.518 L 262.325 781.518 Q 263.264 782.558 263.264 784.335 L 263.264 784.335 L 263.264 784.335 Q 263.264 784.67 263.13 784.821 L 263.13 784.821 L 263.13 784.821 Q 262.996 784.972 262.694 784.972 L 262.694 784.972 L 257.296 784.972 L 257.296 784.972 Q 257.447 787.855 260.028 787.855 L 260.028 787.855 L 260.028 787.855 Q 260.682 787.855 261.152 787.679 L 261.152 787.679 L 261.152 787.679 Q 261.621 787.503 262.158 787.201 L 262.158 787.201 L 262.158 787.201 Q 262.593 786.95 262.744 786.95 L 262.744 786.95 L 262.744 786.95 Z  M 259.81 781.535 L 259.81 781.535 Q 258.738 781.535 258.092 782.206 L 258.092 782.206 L 258.092 782.206 Q 257.447 782.876 257.329 784.1 L 257.329 784.1 L 262.074 784.1 L 262.074 784.1 Q 262.04 782.859 261.453 782.197 L 261.453 782.197 L 261.453 782.197 Q 260.867 781.535 259.81 781.535 L 259.81 781.535 L 259.81 781.535 Z  M 269.299 780.512 L 269.299 780.512 Q 270.003 780.462 270.003 781.082 L 270.003 781.082 L 270.003 781.082 Q 270.003 781.351 269.852 781.51 L 269.852 781.51 L 269.852 781.51 Q 269.702 781.669 269.333 781.703 L 269.333 781.703 L 268.83 781.753 L 268.83 781.753 Q 267.707 781.853 267.162 782.549 L 267.162 782.549 L 267.162 782.549 Q 266.617 783.245 266.617 784.184 L 266.617 784.184 L 266.617 788.258 L 266.617 788.258 Q 266.617 788.593 266.432 788.76 L 266.432 788.76 L 266.432 788.76 Q 266.248 788.928 265.946 788.928 L 265.946 788.928 L 265.946 788.928 Q 265.645 788.928 265.452 788.752 L 265.452 788.752 L 265.452 788.752 Q 265.259 788.576 265.259 788.258 L 265.259 788.258 L 265.259 781.183 L 265.259 781.183 Q 265.259 780.864 265.46 780.688 L 265.46 780.688 L 265.46 780.688 Q 265.661 780.512 265.946 780.512 L 265.946 780.512 L 265.946 780.512 Q 266.215 780.512 266.399 780.688 L 266.399 780.688 L 266.399 780.688 Q 266.583 780.864 266.583 781.166 L 266.583 781.166 L 266.583 782.105 L 266.583 782.105 Q 266.935 781.367 267.581 780.982 L 267.581 780.982 L 267.581 780.982 Q 268.226 780.596 269.065 780.529 L 269.065 780.529 L 269.299 780.512 L 269.299 780.512 Z  M 274.513 780.479 L 274.513 780.479 Q 277.581 780.479 277.581 783.698 L 277.581 783.698 L 277.581 788.258 L 277.581 788.258 Q 277.581 788.559 277.405 788.744 L 277.405 788.744 L 277.405 788.744 Q 277.229 788.928 276.927 788.928 L 276.927 788.928 L 276.927 788.928 Q 276.625 788.928 276.441 788.744 L 276.441 788.744 L 276.441 788.744 Q 276.257 788.559 276.257 788.258 L 276.257 788.258 L 276.257 787.453 L 276.257 787.453 Q 275.938 788.174 275.284 788.568 L 275.284 788.568 L 275.284 788.568 Q 274.63 788.962 273.775 788.962 L 273.775 788.962 L 273.775 788.962 Q 272.987 788.962 272.325 788.643 L 272.325 788.643 L 272.325 788.643 Q 271.663 788.325 271.277 787.755 L 271.277 787.755 L 271.277 787.755 Q 270.892 787.185 270.892 786.497 L 270.892 786.497 L 270.892 786.497 Q 270.892 785.575 271.361 785.064 L 271.361 785.064 L 271.361 785.064 Q 271.831 784.553 272.904 784.326 L 272.904 784.326 L 272.904 784.326 Q 273.977 784.1 275.888 784.1 L 275.888 784.1 L 276.257 784.1 L 276.257 783.547 L 276.257 783.547 Q 276.257 782.541 275.846 782.071 L 275.846 782.071 L 275.846 782.071 Q 275.435 781.602 274.513 781.602 L 274.513 781.602 L 274.513 781.602 Q 273.373 781.602 272.2 782.222 L 272.2 782.222 L 272.2 782.222 Q 271.747 782.507 271.562 782.507 L 271.562 782.507 L 271.562 782.507 Q 271.361 782.507 271.227 782.356 L 271.227 782.356 L 271.227 782.356 Q 271.093 782.206 271.093 781.971 L 271.093 781.971 L 271.093 781.971 Q 271.093 781.736 271.236 781.56 L 271.236 781.56 L 271.236 781.56 Q 271.378 781.384 271.697 781.2 L 271.697 781.2 L 271.697 781.2 Q 272.283 780.864 273.029 780.672 L 273.029 780.672 L 273.029 780.672 Q 273.775 780.479 274.513 780.479 L 274.513 780.479 L 274.513 780.479 Z  M 273.96 787.889 L 273.96 787.889 Q 274.966 787.889 275.611 787.21 L 275.611 787.21 L 275.611 787.21 Q 276.257 786.531 276.257 785.458 L 276.257 785.458 L 276.257 784.972 L 275.955 784.972 L 275.955 784.972 Q 274.48 784.972 273.708 785.097 L 273.708 785.097 L 273.708 785.097 Q 272.937 785.223 272.61 785.517 L 272.61 785.517 L 272.61 785.517 Q 272.283 785.81 272.283 786.38 L 272.283 786.38 L 272.283 786.38 Q 272.283 787.034 272.761 787.461 L 272.761 787.461 L 272.761 787.461 Q 273.239 787.889 273.96 787.889 L 273.96 787.889 L 273.96 787.889 Z  M 280.749 788.928 L 280.749 788.928 Q 280.448 788.928 280.255 788.752 L 280.255 788.752 L 280.255 788.752 Q 280.062 788.576 280.062 788.258 L 280.062 788.258 L 280.062 777.612 L 280.062 777.612 Q 280.062 777.293 280.255 777.117 L 280.255 777.117 L 280.255 777.117 Q 280.448 776.941 280.749 776.941 L 280.749 776.941 L 280.749 776.941 Q 281.034 776.941 281.227 777.117 L 281.227 777.117 L 281.227 777.117 Q 281.42 777.293 281.42 777.612 L 281.42 777.612 L 281.42 788.258 L 281.42 788.258 Q 281.42 788.576 281.227 788.752 L 281.227 788.752 L 281.227 788.752 Q 281.034 788.928 280.749 788.928 L 280.749 788.928 L 280.749 788.928 Z  M 130.891 788.978 L 130.891 788.978 Q 128.577 788.978 127.387 787.771 L 127.387 787.771 L 127.387 787.771 Q 126.196 786.564 126.196 784.217 L 126.196 784.217 L 126.196 777.646 L 126.196 777.646 Q 126.196 777.327 126.381 777.134 L 126.381 777.134 L 126.381 777.134 Q 126.565 776.941 126.884 776.941 L 126.884 776.941 L 126.884 776.941 Q 127.186 776.941 127.37 777.134 L 127.37 777.134 L 127.37 777.134 Q 127.554 777.327 127.554 777.646 L 127.554 777.646 L 127.554 784.335 L 127.554 784.335 Q 127.554 786.061 128.401 786.933 L 128.401 786.933 L 128.401 786.933 Q 129.248 787.805 130.891 787.805 L 130.891 787.805 L 130.891 787.805 Q 132.533 787.805 133.372 786.933 L 133.372 786.933 L 133.372 786.933 Q 134.21 786.061 134.21 784.335 L 134.21 784.335 L 134.21 777.646 L 134.21 777.646 Q 134.21 777.327 134.403 777.134 L 134.403 777.134 L 134.403 777.134 Q 134.596 776.941 134.897 776.941 L 134.897 776.941 L 134.897 776.941 Q 135.216 776.941 135.4 777.134 L 135.4 777.134 L 135.4 777.134 Q 135.585 777.327 135.585 777.646 L 135.585 777.646 L 135.585 784.217 L 135.585 784.217 Q 135.585 786.548 134.386 787.763 L 134.386 787.763 L 134.386 787.763 Q 133.187 788.978 130.891 788.978 L 130.891 788.978 L 130.891 788.978 Z  M 142.324 780.479 L 142.324 780.479 Q 145.258 780.479 145.258 783.714 L 145.258 783.714 L 145.258 788.258 L 145.258 788.258 Q 145.258 788.576 145.082 788.752 L 145.082 788.752 L 145.082 788.752 Q 144.906 788.928 144.587 788.928 L 144.587 788.928 L 144.587 788.928 Q 144.269 788.928 144.084 788.752 L 144.084 788.752 L 144.084 788.752 Q 143.9 788.576 143.9 788.258 L 143.9 788.258 L 143.9 783.798 L 143.9 783.798 Q 143.9 782.658 143.456 782.138 L 143.456 782.138 L 143.456 782.138 Q 143.011 781.619 142.039 781.619 L 142.039 781.619 L 142.039 781.619 Q 140.916 781.619 140.245 782.306 L 140.245 782.306 L 140.245 782.306 Q 139.575 782.993 139.575 784.167 L 139.575 784.167 L 139.575 788.258 L 139.575 788.258 Q 139.575 788.576 139.399 788.752 L 139.399 788.752 L 139.399 788.752 Q 139.223 788.928 138.904 788.928 L 138.904 788.928 L 138.904 788.928 Q 138.586 788.928 138.401 788.752 L 138.401 788.752 L 138.401 788.752 Q 138.217 788.576 138.217 788.258 L 138.217 788.258 L 138.217 781.183 L 138.217 781.183 Q 138.217 780.881 138.401 780.697 L 138.401 780.697 L 138.401 780.697 Q 138.586 780.512 138.904 780.512 L 138.904 780.512 L 138.904 780.512 Q 139.206 780.512 139.382 780.697 L 139.382 780.697 L 139.382 780.697 Q 139.558 780.881 139.558 781.166 L 139.558 781.166 L 139.558 782.021 L 139.558 782.021 Q 139.96 781.267 140.681 780.873 L 140.681 780.873 L 140.681 780.873 Q 141.402 780.479 142.324 780.479 L 142.324 780.479 L 142.324 780.479 Z  M 148.426 788.928 L 148.426 788.928 Q 148.125 788.928 147.932 788.752 L 147.932 788.752 L 147.932 788.752 Q 147.739 788.576 147.739 788.258 L 147.739 788.258 L 147.739 781.183 L 147.739 781.183 Q 147.739 780.864 147.932 780.688 L 147.932 780.688 L 147.932 780.688 Q 148.125 780.512 148.426 780.512 L 148.426 780.512 L 148.426 780.512 Q 148.728 780.512 148.913 780.688 L 148.913 780.688 L 148.913 780.688 Q 149.097 780.864 149.097 781.183 L 149.097 781.183 L 149.097 788.258 L 149.097 788.258 Q 149.097 788.593 148.913 788.76 L 148.913 788.76 L 148.913 788.76 Q 148.728 788.928 148.426 788.928 L 148.426 788.928 L 148.426 788.928 Z  M 148.426 778.752 L 148.426 778.752 Q 148.024 778.752 147.773 778.517 L 147.773 778.517 L 147.773 778.517 Q 147.521 778.283 147.521 777.897 L 147.521 777.897 L 147.521 777.897 Q 147.521 777.528 147.773 777.293 L 147.773 777.293 L 147.773 777.293 Q 148.024 777.059 148.426 777.059 L 148.426 777.059 L 148.426 777.059 Q 148.829 777.059 149.08 777.293 L 149.08 777.293 L 149.08 777.293 Q 149.332 777.528 149.332 777.897 L 149.332 777.897 L 149.332 777.897 Q 149.332 778.283 149.08 778.517 L 149.08 778.517 L 149.08 778.517 Q 148.829 778.752 148.426 778.752 L 148.426 778.752 L 148.426 778.752 Z  M 157.513 780.931 L 157.513 780.931 Q 157.697 780.529 158.1 780.529 L 158.1 780.529 L 158.1 780.529 Q 158.351 780.529 158.552 780.697 L 158.552 780.697 L 158.552 780.697 Q 158.753 780.864 158.753 781.116 L 158.753 781.116 L 158.753 781.116 Q 158.753 781.267 158.686 781.384 L 158.686 781.384 L 155.417 788.425 L 155.417 788.425 Q 155.317 788.643 155.115 788.769 L 155.115 788.769 L 155.115 788.769 Q 154.914 788.895 154.68 788.895 L 154.68 788.895 L 154.68 788.895 Q 154.462 788.895 154.26 788.769 L 154.26 788.769 L 154.26 788.769 Q 154.059 788.643 153.942 788.425 L 153.942 788.425 L 150.69 781.384 L 150.69 781.384 Q 150.623 781.267 150.623 781.133 L 150.623 781.133 L 150.623 781.133 Q 150.623 780.881 150.849 780.697 L 150.849 780.697 L 150.849 780.697 Q 151.075 780.512 151.343 780.512 L 151.343 780.512 L 151.343 780.512 Q 151.511 780.512 151.67 780.613 L 151.67 780.613 L 151.67 780.613 Q 151.83 780.713 151.913 780.898 L 151.913 780.898 L 154.713 787.185 L 157.513 780.931 L 157.513 780.931 Z  M 166.566 786.95 L 166.566 786.95 Q 166.75 786.95 166.884 787.101 L 166.884 787.101 L 166.884 787.101 Q 167.018 787.252 167.018 787.486 L 167.018 787.486 L 167.018 787.486 Q 167.018 787.905 166.432 788.258 L 166.432 788.258 L 166.432 788.258 Q 165.828 788.61 165.157 788.786 L 165.157 788.786 L 165.157 788.786 Q 164.487 788.962 163.85 788.962 L 163.85 788.962 L 163.85 788.962 Q 161.955 788.962 160.857 787.838 L 160.857 787.838 L 160.857 787.838 Q 159.759 786.715 159.759 784.737 L 159.759 784.737 L 159.759 784.737 Q 159.759 783.48 160.245 782.516 L 160.245 782.516 L 160.245 782.516 Q 160.732 781.552 161.612 781.015 L 161.612 781.015 L 161.612 781.015 Q 162.492 780.479 163.615 780.479 L 163.615 780.479 L 163.615 780.479 Q 165.208 780.479 166.147 781.518 L 166.147 781.518 L 166.147 781.518 Q 167.085 782.558 167.085 784.335 L 167.085 784.335 L 167.085 784.335 Q 167.085 784.67 166.951 784.821 L 166.951 784.821 L 166.951 784.821 Q 166.817 784.972 166.515 784.972 L 166.515 784.972 L 161.117 784.972 L 161.117 784.972 Q 161.268 787.855 163.85 787.855 L 163.85 787.855 L 163.85 787.855 Q 164.504 787.855 164.973 787.679 L 164.973 787.679 L 164.973 787.679 Q 165.442 787.503 165.979 787.201 L 165.979 787.201 L 165.979 787.201 Q 166.415 786.95 166.566 786.95 L 166.566 786.95 L 166.566 786.95 Z  M 163.632 781.535 L 163.632 781.535 Q 162.559 781.535 161.913 782.206 L 161.913 782.206 L 161.913 782.206 Q 161.268 782.876 161.151 784.1 L 161.151 784.1 L 165.895 784.1 L 165.895 784.1 Q 165.862 782.859 165.275 782.197 L 165.275 782.197 L 165.275 782.197 Q 164.688 781.535 163.632 781.535 L 163.632 781.535 L 163.632 781.535 Z  M 173.121 780.512 L 173.121 780.512 Q 173.825 780.462 173.825 781.082 L 173.825 781.082 L 173.825 781.082 Q 173.825 781.351 173.674 781.51 L 173.674 781.51 L 173.674 781.51 Q 173.523 781.669 173.154 781.703 L 173.154 781.703 L 172.651 781.753 L 172.651 781.753 Q 171.528 781.853 170.983 782.549 L 170.983 782.549 L 170.983 782.549 Q 170.438 783.245 170.438 784.184 L 170.438 784.184 L 170.438 788.258 L 170.438 788.258 Q 170.438 788.593 170.254 788.76 L 170.254 788.76 L 170.254 788.76 Q 170.069 788.928 169.768 788.928 L 169.768 788.928 L 169.768 788.928 Q 169.466 788.928 169.273 788.752 L 169.273 788.752 L 169.273 788.752 Q 169.08 788.576 169.08 788.258 L 169.08 788.258 L 169.08 781.183 L 169.08 781.183 Q 169.08 780.864 169.282 780.688 L 169.282 780.688 L 169.282 780.688 Q 169.483 780.512 169.768 780.512 L 169.768 780.512 L 169.768 780.512 Q 170.036 780.512 170.22 780.688 L 170.22 780.688 L 170.22 780.688 Q 170.405 780.864 170.405 781.166 L 170.405 781.166 L 170.405 782.105 L 170.405 782.105 Q 170.757 781.367 171.402 780.982 L 171.402 780.982 L 171.402 780.982 Q 172.048 780.596 172.886 780.529 L 172.886 780.529 L 173.121 780.512 L 173.121 780.512 Z  M 177.748 788.962 L 177.748 788.962 Q 176.976 788.962 176.281 788.777 L 176.281 788.777 L 176.281 788.777 Q 175.585 788.593 175.049 788.258 L 175.049 788.258 L 175.049 788.258 Q 174.747 788.056 174.621 787.88 L 174.621 787.88 L 174.621 787.88 Q 174.495 787.704 174.495 787.453 L 174.495 787.453 L 174.495 787.453 Q 174.495 787.235 174.621 787.092 L 174.621 787.092 L 174.621 787.092 Q 174.747 786.95 174.948 786.95 L 174.948 786.95 L 174.948 786.95 Q 175.149 786.95 175.535 787.201 L 175.535 787.201 L 175.535 787.201 Q 176.038 787.503 176.532 787.679 L 176.532 787.679 L 176.532 787.679 Q 177.027 787.855 177.764 787.855 L 177.764 787.855 L 177.764 787.855 Q 178.67 787.855 179.173 787.537 L 179.173 787.537 L 179.173 787.537 Q 179.676 787.218 179.676 786.615 L 179.676 786.615 L 179.676 786.615 Q 179.676 786.246 179.491 786.019 L 179.491 786.019 L 179.491 786.019 Q 179.307 785.793 178.854 785.617 L 178.854 785.617 L 178.854 785.617 Q 178.401 785.441 177.53 785.257 L 177.53 785.257 L 177.53 785.257 Q 176.054 784.938 175.417 784.402 L 175.417 784.402 L 175.417 784.402 Q 174.78 783.865 174.78 782.943 L 174.78 782.943 L 174.78 782.943 Q 174.78 782.222 175.183 781.669 L 175.183 781.669 L 175.183 781.669 Q 175.585 781.116 176.298 780.797 L 176.298 780.797 L 176.298 780.797 Q 177.01 780.479 177.915 780.479 L 177.915 780.479 L 177.915 780.479 Q 178.569 780.479 179.181 780.655 L 179.181 780.655 L 179.181 780.655 Q 179.793 780.831 180.262 781.149 L 180.262 781.149 L 180.262 781.149 Q 180.832 781.552 180.832 781.988 L 180.832 781.988 L 180.832 781.988 Q 180.832 782.206 180.698 782.356 L 180.698 782.356 L 180.698 782.356 Q 180.564 782.507 180.38 782.507 L 180.38 782.507 L 180.38 782.507 Q 180.179 782.507 179.776 782.222 L 179.776 782.222 L 179.776 782.222 Q 179.307 781.921 178.888 781.753 L 178.888 781.753 L 178.888 781.753 Q 178.469 781.585 177.848 781.585 L 177.848 781.585 L 177.848 781.585 Q 177.06 781.585 176.583 781.937 L 176.583 781.937 L 176.583 781.937 Q 176.105 782.289 176.105 782.876 L 176.105 782.876 L 176.105 782.876 Q 176.105 783.245 176.281 783.471 L 176.281 783.471 L 176.281 783.471 Q 176.457 783.698 176.868 783.874 L 176.868 783.874 L 176.868 783.874 Q 177.278 784.05 178.049 784.217 L 178.049 784.217 L 178.049 784.217 Q 179.189 784.469 179.818 784.771 L 179.818 784.771 L 179.818 784.771 Q 180.447 785.072 180.715 785.508 L 180.715 785.508 L 180.715 785.508 Q 180.983 785.944 180.983 786.615 L 180.983 786.615 L 180.983 786.615 Q 180.983 787.671 180.095 788.316 L 180.095 788.316 L 180.095 788.316 Q 179.206 788.962 177.748 788.962 L 177.748 788.962 L 177.748 788.962 Z  M 183.733 788.928 L 183.733 788.928 Q 183.431 788.928 183.238 788.752 L 183.238 788.752 L 183.238 788.752 Q 183.045 788.576 183.045 788.258 L 183.045 788.258 L 183.045 781.183 L 183.045 781.183 Q 183.045 780.864 183.238 780.688 L 183.238 780.688 L 183.238 780.688 Q 183.431 780.512 183.733 780.512 L 183.733 780.512 L 183.733 780.512 Q 184.034 780.512 184.219 780.688 L 184.219 780.688 L 184.219 780.688 Q 184.403 780.864 184.403 781.183 L 184.403 781.183 L 184.403 788.258 L 184.403 788.258 Q 184.403 788.593 184.219 788.76 L 184.219 788.76 L 184.219 788.76 Q 184.034 788.928 183.733 788.928 L 183.733 788.928 L 183.733 788.928 Z  M 183.733 778.752 L 183.733 778.752 Q 183.33 778.752 183.079 778.517 L 183.079 778.517 L 183.079 778.517 Q 182.827 778.283 182.827 777.897 L 182.827 777.897 L 182.827 777.897 Q 182.827 777.528 183.079 777.293 L 183.079 777.293 L 183.079 777.293 Q 183.33 777.059 183.733 777.059 L 183.733 777.059 L 183.733 777.059 Q 184.135 777.059 184.386 777.293 L 184.386 777.293 L 184.386 777.293 Q 184.638 777.528 184.638 777.897 L 184.638 777.897 L 184.638 777.897 Q 184.638 778.283 184.386 778.517 L 184.386 778.517 L 184.386 778.517 Q 184.135 778.752 183.733 778.752 L 183.733 778.752 L 183.733 778.752 Z  M 193.49 776.941 L 193.49 776.941 Q 193.808 776.941 193.993 777.126 L 193.993 777.126 L 193.993 777.126 Q 194.177 777.31 194.177 777.595 L 194.177 777.595 L 194.177 788.258 L 194.177 788.258 Q 194.177 788.559 193.993 788.744 L 193.993 788.744 L 193.993 788.744 Q 193.808 788.928 193.49 788.928 L 193.49 788.928 L 193.49 788.928 Q 193.171 788.928 192.995 788.744 L 192.995 788.744 L 192.995 788.744 Q 192.819 788.559 192.819 788.258 L 192.819 788.258 L 192.819 787.352 L 192.819 787.352 Q 192.45 788.123 191.738 788.543 L 191.738 788.543 L 191.738 788.543 Q 191.025 788.962 190.07 788.962 L 190.07 788.962 L 190.07 788.962 Q 188.997 788.962 188.175 788.425 L 188.175 788.425 L 188.175 788.425 Q 187.354 787.889 186.901 786.925 L 186.901 786.925 L 186.901 786.925 Q 186.449 785.961 186.449 784.687 L 186.449 784.687 L 186.449 784.687 Q 186.449 783.429 186.901 782.474 L 186.901 782.474 L 186.901 782.474 Q 187.354 781.518 188.175 780.998 L 188.175 780.998 L 188.175 780.998 Q 188.997 780.479 190.07 780.479 L 190.07 780.479 L 190.07 780.479 Q 191.025 780.479 191.738 780.898 L 191.738 780.898 L 191.738 780.898 Q 192.45 781.317 192.819 782.088 L 192.819 782.088 L 192.819 777.595 L 192.819 777.595 Q 192.819 777.293 192.995 777.117 L 192.995 777.117 L 192.995 777.117 Q 193.171 776.941 193.49 776.941 L 193.49 776.941 L 193.49 776.941 Z  M 190.338 787.838 L 190.338 787.838 Q 191.528 787.838 192.174 787.025 L 192.174 787.025 L 192.174 787.025 Q 192.819 786.212 192.819 784.72 L 192.819 784.72 L 192.819 784.72 Q 192.819 783.228 192.174 782.423 L 192.174 782.423 L 192.174 782.423 Q 191.528 781.619 190.338 781.619 L 190.338 781.619 L 190.338 781.619 Q 189.148 781.619 188.485 782.423 L 188.485 782.423 L 188.485 782.423 Q 187.823 783.228 187.823 784.687 L 187.823 784.687 L 187.823 784.687 Q 187.823 786.179 188.485 787.009 L 188.485 787.009 L 188.485 787.009 Q 189.148 787.838 190.338 787.838 L 190.338 787.838 L 190.338 787.838 Z  M 200.028 780.479 L 200.028 780.479 Q 203.096 780.479 203.096 783.698 L 203.096 783.698 L 203.096 788.258 L 203.096 788.258 Q 203.096 788.559 202.92 788.744 L 202.92 788.744 L 202.92 788.744 Q 202.744 788.928 202.442 788.928 L 202.442 788.928 L 202.442 788.928 Q 202.14 788.928 201.956 788.744 L 201.956 788.744 L 201.956 788.744 Q 201.771 788.559 201.771 788.258 L 201.771 788.258 L 201.771 787.453 L 201.771 787.453 Q 201.453 788.174 200.799 788.568 L 200.799 788.568 L 200.799 788.568 Q 200.145 788.962 199.29 788.962 L 199.29 788.962 L 199.29 788.962 Q 198.502 788.962 197.84 788.643 L 197.84 788.643 L 197.84 788.643 Q 197.178 788.325 196.792 787.755 L 196.792 787.755 L 196.792 787.755 Q 196.407 787.185 196.407 786.497 L 196.407 786.497 L 196.407 786.497 Q 196.407 785.575 196.876 785.064 L 196.876 785.064 L 196.876 785.064 Q 197.346 784.553 198.418 784.326 L 198.418 784.326 L 198.418 784.326 Q 199.491 784.1 201.403 784.1 L 201.403 784.1 L 201.771 784.1 L 201.771 783.547 L 201.771 783.547 Q 201.771 782.541 201.361 782.071 L 201.361 782.071 L 201.361 782.071 Q 200.95 781.602 200.028 781.602 L 200.028 781.602 L 200.028 781.602 Q 198.888 781.602 197.714 782.222 L 197.714 782.222 L 197.714 782.222 Q 197.262 782.507 197.077 782.507 L 197.077 782.507 L 197.077 782.507 Q 196.876 782.507 196.742 782.356 L 196.742 782.356 L 196.742 782.356 Q 196.608 782.206 196.608 781.971 L 196.608 781.971 L 196.608 781.971 Q 196.608 781.736 196.75 781.56 L 196.75 781.56 L 196.75 781.56 Q 196.893 781.384 197.211 781.2 L 197.211 781.2 L 197.211 781.2 Q 197.798 780.864 198.544 780.672 L 198.544 780.672 L 198.544 780.672 Q 199.29 780.479 200.028 780.479 L 200.028 780.479 L 200.028 780.479 Z  M 199.475 787.889 L 199.475 787.889 Q 200.48 787.889 201.126 787.21 L 201.126 787.21 L 201.126 787.21 Q 201.771 786.531 201.771 785.458 L 201.771 785.458 L 201.771 784.972 L 201.47 784.972 L 201.47 784.972 Q 199.994 784.972 199.223 785.097 L 199.223 785.097 L 199.223 785.097 Q 198.452 785.223 198.125 785.517 L 198.125 785.517 L 198.125 785.517 Q 197.798 785.81 197.798 786.38 L 197.798 786.38 L 197.798 786.38 Q 197.798 787.034 198.276 787.461 L 198.276 787.461 L 198.276 787.461 Q 198.754 787.889 199.475 787.889 L 199.475 787.889 L 199.475 787.889 Z  M 212.132 776.941 L 212.132 776.941 Q 212.45 776.941 212.635 777.126 L 212.635 777.126 L 212.635 777.126 Q 212.819 777.31 212.819 777.595 L 212.819 777.595 L 212.819 788.258 L 212.819 788.258 Q 212.819 788.559 212.635 788.744 L 212.635 788.744 L 212.635 788.744 Q 212.45 788.928 212.132 788.928 L 212.132 788.928 L 212.132 788.928 Q 211.813 788.928 211.637 788.744 L 211.637 788.744 L 211.637 788.744 Q 211.461 788.559 211.461 788.258 L 211.461 788.258 L 211.461 787.352 L 211.461 787.352 Q 211.092 788.123 210.38 788.543 L 210.38 788.543 L 210.38 788.543 Q 209.668 788.962 208.712 788.962 L 208.712 788.962 L 208.712 788.962 Q 207.639 788.962 206.818 788.425 L 206.818 788.425 L 206.818 788.425 Q 205.996 787.889 205.543 786.925 L 205.543 786.925 L 205.543 786.925 Q 205.091 785.961 205.091 784.687 L 205.091 784.687 L 205.091 784.687 Q 205.091 783.429 205.543 782.474 L 205.543 782.474 L 205.543 782.474 Q 205.996 781.518 206.818 780.998 L 206.818 780.998 L 206.818 780.998 Q 207.639 780.479 208.712 780.479 L 208.712 780.479 L 208.712 780.479 Q 209.668 780.479 210.38 780.898 L 210.38 780.898 L 210.38 780.898 Q 211.092 781.317 211.461 782.088 L 211.461 782.088 L 211.461 777.595 L 211.461 777.595 Q 211.461 777.293 211.637 777.117 L 211.637 777.117 L 211.637 777.117 Q 211.813 776.941 212.132 776.941 L 212.132 776.941 L 212.132 776.941 Z  M 208.98 787.838 L 208.98 787.838 Q 210.17 787.838 210.816 787.025 L 210.816 787.025 L 210.816 787.025 Q 211.461 786.212 211.461 784.72 L 211.461 784.72 L 211.461 784.72 Q 211.461 783.228 210.816 782.423 L 210.816 782.423 L 210.816 782.423 Q 210.17 781.619 208.98 781.619 L 208.98 781.619 L 208.98 781.619 Q 207.79 781.619 207.128 782.423 L 207.128 782.423 L 207.128 782.423 Q 206.465 783.228 206.465 784.687 L 206.465 784.687 L 206.465 784.687 Q 206.465 786.179 207.128 787.009 L 207.128 787.009 L 207.128 787.009 Q 207.79 787.838 208.98 787.838 L 208.98 787.838 L 208.98 787.838 Z  M 221.654 786.95 L 221.654 786.95 Q 221.839 786.95 221.973 787.101 L 221.973 787.101 L 221.973 787.101 Q 222.107 787.252 222.107 787.486 L 222.107 787.486 L 222.107 787.486 Q 222.107 787.905 221.52 788.258 L 221.52 788.258 L 221.52 788.258 Q 220.917 788.61 220.246 788.786 L 220.246 788.786 L 220.246 788.786 Q 219.575 788.962 218.938 788.962 L 218.938 788.962 L 218.938 788.962 Q 217.044 788.962 215.946 787.838 L 215.946 787.838 L 215.946 787.838 Q 214.848 786.715 214.848 784.737 L 214.848 784.737 L 214.848 784.737 Q 214.848 783.48 215.334 782.516 L 215.334 782.516 L 215.334 782.516 Q 215.82 781.552 216.7 781.015 L 216.7 781.015 L 216.7 781.015 Q 217.58 780.479 218.704 780.479 L 218.704 780.479 L 218.704 780.479 Q 220.296 780.479 221.235 781.518 L 221.235 781.518 L 221.235 781.518 Q 222.174 782.558 222.174 784.335 L 222.174 784.335 L 222.174 784.335 Q 222.174 784.67 222.04 784.821 L 222.04 784.821 L 222.04 784.821 Q 221.906 784.972 221.604 784.972 L 221.604 784.972 L 216.206 784.972 L 216.206 784.972 Q 216.357 787.855 218.938 787.855 L 218.938 787.855 L 218.938 787.855 Q 219.592 787.855 220.062 787.679 L 220.062 787.679 L 220.062 787.679 Q 220.531 787.503 221.067 787.201 L 221.067 787.201 L 221.067 787.201 Q 221.503 786.95 221.654 786.95 L 221.654 786.95 L 221.654 786.95 Z  M 218.72 781.535 L 218.72 781.535 Q 217.647 781.535 217.002 782.206 L 217.002 782.206 L 217.002 782.206 Q 216.357 782.876 216.239 784.1 L 216.239 784.1 L 220.984 784.1 L 220.984 784.1 Q 220.95 782.859 220.363 782.197 L 220.363 782.197 L 220.363 782.197 Q 219.777 781.535 218.72 781.535 L 218.72 781.535 L 218.72 781.535 Z " fill-rule="evenodd" fill="rgb(245,245,245)"/><path d=" M 148.708 767.972 L 148.708 767.972 Q 141.218 767.972 134.377 765.725 L 134.377 765.725 L 134.377 765.725 Q 127.536 763.478 123.442 759.683 L 123.442 759.683 L 123.442 759.683 Q 121.944 758.285 121.944 756.188 L 121.944 756.188 L 121.944 756.188 Q 121.944 754.79 122.743 753.741 L 122.743 753.741 L 122.743 753.741 Q 123.542 752.693 124.64 752.693 L 124.64 752.693 L 124.64 752.693 Q 125.939 752.693 127.437 753.791 L 127.437 753.791 L 127.437 753.791 Q 136.724 760.982 148.608 760.982 L 148.608 760.982 L 148.608 760.982 Q 157.196 760.982 161.79 757.686 L 161.79 757.686 L 161.79 757.686 Q 166.384 754.391 166.384 748.299 L 166.384 748.299 L 166.384 748.299 Q 166.384 744.803 164.187 742.656 L 164.187 742.656 L 164.187 742.656 Q 161.99 740.509 158.395 739.211 L 158.395 739.211 L 158.395 739.211 Q 154.8 737.913 148.708 736.515 L 148.708 736.515 L 148.708 736.515 Q 140.519 734.617 135.276 732.52 L 135.276 732.52 L 135.276 732.52 Q 130.033 730.423 126.787 726.528 L 126.787 726.528 L 126.787 726.528 Q 123.542 722.633 123.542 716.342 L 123.542 716.342 L 123.542 716.342 Q 123.542 710.35 126.787 705.706 L 126.787 705.706 L 126.787 705.706 Q 130.033 701.062 135.875 698.516 L 135.875 698.516 L 135.875 698.516 Q 141.717 695.969 149.207 695.969 L 149.207 695.969 L 149.207 695.969 Q 156.198 695.969 162.24 698.116 L 162.24 698.116 L 162.24 698.116 Q 168.282 700.263 172.376 704.258 L 172.376 704.258 L 172.376 704.258 Q 173.974 705.856 173.974 707.753 L 173.974 707.753 L 173.974 707.753 Q 173.974 709.151 173.175 710.2 L 173.175 710.2 L 173.175 710.2 Q 172.376 711.249 171.278 711.249 L 171.278 711.249 L 171.278 711.249 Q 170.179 711.249 168.381 710.15 L 168.381 710.15 L 168.381 710.15 Q 163.488 706.155 159.294 704.558 L 159.294 704.558 L 159.294 704.558 Q 155.099 702.96 149.207 702.96 L 149.207 702.96 L 149.207 702.96 Q 140.918 702.96 136.325 706.405 L 136.325 706.405 L 136.325 706.405 Q 131.731 709.851 131.731 716.042 L 131.731 716.042 L 131.731 716.042 Q 131.731 721.335 135.775 723.982 L 135.775 723.982 L 135.775 723.982 Q 139.82 726.628 148.209 728.625 L 148.209 728.625 L 148.209 728.625 Q 157.296 730.822 162.489 732.67 L 162.489 732.67 L 162.489 732.67 Q 167.682 734.517 171.128 738.212 L 171.128 738.212 L 171.128 738.212 Q 174.573 741.907 174.573 748.099 L 174.573 748.099 L 174.573 748.099 Q 174.573 753.991 171.327 758.485 L 171.327 758.485 L 171.327 758.485 Q 168.082 762.979 162.19 765.476 L 162.19 765.476 L 162.19 765.476 Q 156.298 767.972 148.708 767.972 L 148.708 767.972 L 148.708 767.972 Z  M 190.751 767.673 L 190.751 767.673 Q 188.954 767.673 187.805 766.624 L 187.805 766.624 L 187.805 766.624 Q 186.657 765.576 186.657 763.678 L 186.657 763.678 L 186.657 721.535 L 186.657 721.535 Q 186.657 719.637 187.805 718.589 L 187.805 718.589 L 187.805 718.589 Q 188.954 717.54 190.751 717.54 L 190.751 717.54 L 190.751 717.54 Q 192.549 717.54 193.647 718.589 L 193.647 718.589 L 193.647 718.589 Q 194.746 719.637 194.746 721.535 L 194.746 721.535 L 194.746 763.678 L 194.746 763.678 Q 194.746 765.675 193.647 766.674 L 193.647 766.674 L 193.647 766.674 Q 192.549 767.673 190.751 767.673 L 190.751 767.673 L 190.751 767.673 Z  M 190.751 707.054 L 190.751 707.054 Q 188.355 707.054 186.857 705.656 L 186.857 705.656 L 186.857 705.656 Q 185.359 704.258 185.359 701.961 L 185.359 701.961 L 185.359 701.961 Q 185.359 699.764 186.857 698.366 L 186.857 698.366 L 186.857 698.366 Q 188.355 696.968 190.751 696.968 L 190.751 696.968 L 190.751 696.968 Q 193.148 696.968 194.646 698.366 L 194.646 698.366 L 194.646 698.366 Q 196.144 699.764 196.144 701.961 L 196.144 701.961 L 196.144 701.961 Q 196.144 704.258 194.646 705.656 L 194.646 705.656 L 194.646 705.656 Q 193.148 707.054 190.751 707.054 L 190.751 707.054 L 190.751 707.054 Z  M 250.97 731.022 L 250.97 731.022 Q 257.062 732.62 260.408 737.014 L 260.408 737.014 L 260.408 737.014 Q 263.753 741.408 263.753 747.999 L 263.753 747.999 L 263.753 747.999 Q 263.753 757.287 257.661 762.23 L 257.661 762.23 L 257.661 762.23 Q 251.57 767.173 240.385 767.173 L 240.385 767.173 L 215.218 767.173 L 215.218 767.173 Q 213.321 767.173 212.173 766.075 L 212.173 766.075 L 212.173 766.075 Q 211.024 764.976 211.024 763.179 L 211.024 763.179 L 211.024 700.763 L 211.024 700.763 Q 211.024 698.965 212.173 697.867 L 212.173 697.867 L 212.173 697.867 Q 213.321 696.768 215.218 696.768 L 215.218 696.768 L 239.286 696.768 L 239.286 696.768 Q 250.171 696.768 256.163 701.562 L 256.163 701.562 L 256.163 701.562 Q 262.155 706.355 262.155 715.143 L 262.155 715.143 L 262.155 715.143 Q 262.155 720.836 259.209 724.93 L 259.209 724.93 L 259.209 724.93 Q 256.263 729.025 250.97 731.022 L 250.97 731.022 L 250.97 731.022 Z  M 219.113 703.559 L 219.113 728.026 L 238.088 728.026 L 238.088 728.026 Q 245.977 728.026 250.022 724.83 L 250.022 724.83 L 250.022 724.83 Q 254.066 721.635 254.066 715.543 L 254.066 715.543 L 254.066 715.543 Q 254.066 703.559 238.088 703.559 L 238.088 703.559 L 219.113 703.559 L 219.113 703.559 Z  M 239.586 760.383 L 239.586 760.383 Q 247.874 760.383 251.819 757.337 L 251.819 757.337 L 251.819 757.337 Q 255.764 754.291 255.764 747.799 L 255.764 747.799 L 255.764 747.799 Q 255.764 734.817 239.586 734.817 L 239.586 734.817 L 219.113 734.817 L 219.113 760.383 L 239.586 760.383 L 239.586 760.383 Z  M 281.23 767.673 L 281.23 767.673 Q 279.432 767.673 278.284 766.624 L 278.284 766.624 L 278.284 766.624 Q 277.135 765.576 277.135 763.678 L 277.135 763.678 L 277.135 721.535 L 277.135 721.535 Q 277.135 719.637 278.284 718.589 L 278.284 718.589 L 278.284 718.589 Q 279.432 717.54 281.23 717.54 L 281.23 717.54 L 281.23 717.54 Q 283.027 717.54 284.126 718.589 L 284.126 718.589 L 284.126 718.589 Q 285.224 719.637 285.224 721.535 L 285.224 721.535 L 285.224 763.678 L 285.224 763.678 Q 285.224 765.675 284.126 766.674 L 284.126 766.674 L 284.126 766.674 Q 283.027 767.673 281.23 767.673 L 281.23 767.673 L 281.23 767.673 Z  M 281.23 707.054 L 281.23 707.054 Q 278.833 707.054 277.335 705.656 L 277.335 705.656 L 277.335 705.656 Q 275.837 704.258 275.837 701.961 L 275.837 701.961 L 275.837 701.961 Q 275.837 699.764 277.335 698.366 L 277.335 698.366 L 277.335 698.366 Q 278.833 696.968 281.23 696.968 L 281.23 696.968 L 281.23 696.968 Q 283.626 696.968 285.124 698.366 L 285.124 698.366 L 285.124 698.366 Q 286.622 699.764 286.622 701.961 L 286.622 701.961 L 286.622 701.961 Q 286.622 704.258 285.124 705.656 L 285.124 705.656 L 285.124 705.656 Q 283.626 707.054 281.23 707.054 L 281.23 707.054 L 281.23 707.054 Z " fill-rule="evenodd" fill="rgb(245,245,245)"/></g></g></svg>