<?xml version="1.0" standalone="no"?><!-- Generator: Gravit.io --><svg xmlns="http://www.w3.org/2000/svg" xmlns:xlink="http://www.w3.org/1999/xlink" style="isolation:isolate" viewBox="115.274 562.657 132.69 210.066" width="132.69" height="210.066"><g><g><g><radialGradient id="_rgradient_7" fx="0.4976635514018688" fy="0.4900702336056586" cx="0.5" cy="0.5" r="0.5" gradientTransform="matrix(103.618,-5.494,5.24,83.448,89.33,565.239)" gradientUnits="userSpaceOnUse"><stop offset="0%" stop-opacity="1" style="stop-color:rgb(255,255,255)"/><stop offset="100%" stop-opacity="1" style="stop-color:rgb(164,164,164)"/></radialGradient><circle vector-effect="non-scaling-stroke" cx="173.0565298365325" cy="597.7823899141199" r="35.12502452712985" fill="url(#_rgradient_7)"/><linearGradient id="_lgradient_14" x1="0.0022624434389139914" y1="0.6926359261960697" x2="0.9253393665158373" y2="0.2909551477302543" gradientTransform="matrix(128.662,0,0,113.051,119.302,564.792)" gradientUnits="userSpaceOnUse"><stop offset="0%" stop-opacity="1" style="stop-color:rgb(191,120,20)"/><stop offset="49.56521739130435%" stop-opacity="1" style="stop-color:rgb(253,191,0)"/><stop offset="100%" stop-opacity="1" style="stop-color:rgb(212,161,0)"/></linearGradient><path d=" M 119.302 589.438 Q 147.315 610.312 166.264 607.097 C 187.999 603.41 205.659 580.317 210.704 564.792 L 247.964 632.519 Q 242.724 666.092 216.72 675.213 Q 190.716 684.334 152.68 661.822 L 119.302 589.438 Z " fill="url(#_lgradient_14)"/><linearGradient id="_lgradient_15" x1="0.20154690618762464" y1="0.6984131693214242" x2="0.8809880239520955" y2="0.3572791793312508" gradientTransform="matrix(129.633,0,0,102.928,117.167,574.883)" gradientUnits="userSpaceOnUse"><stop offset="2.1739130434782608%" stop-opacity="1" style="stop-color:rgb(194,127,38)"/><stop offset="44.13296109479239%" stop-opacity="1" style="stop-color:rgb(219,189,148)"/><stop offset="58.78278853482464%" stop-opacity="1" style="stop-color:rgb(238,236,233)"/><stop offset="74.91628914713415%" stop-opacity="1" style="stop-color:rgb(246,217,131)"/><stop offset="100%" stop-opacity="1" style="stop-color:rgb(255,195,15)"/></linearGradient><path d=" M 117.167 597.006 C 118.914 602.44 152.68 614.278 175.191 611.561 C 196.388 609.002 207.987 594.289 211.092 574.883 L 246.8 635.43 Q 242.724 666.092 216.72 675.213 Q 190.716 684.334 151.904 661.434 L 117.167 597.006 Z " fill="url(#_lgradient_15)"/></g></g><g><g><path d=" M 174.258 767.844 L 174.258 767.844 Q 174.307 767.942 174.307 768.052 L 174.307 768.052 L 174.307 768.052 Q 174.307 768.235 174.167 768.357 L 174.167 768.357 L 174.167 768.357 Q 174.027 768.479 173.831 768.479 L 173.831 768.479 L 173.831 768.479 Q 173.526 768.479 173.404 768.186 L 173.404 768.186 L 172.538 766.21 L 167.94 766.21 L 167.061 768.186 L 167.061 768.186 Q 166.939 768.479 166.634 768.479 L 166.634 768.479 L 166.634 768.479 Q 166.439 768.479 166.293 768.351 L 166.293 768.351 L 166.293 768.351 Q 166.147 768.223 166.147 768.04 L 166.147 768.04 L 166.147 768.04 Q 166.147 767.942 166.195 767.844 L 166.195 767.844 L 169.684 760.086 L 169.684 760.086 Q 169.757 759.916 169.904 759.83 L 169.904 759.83 L 169.904 759.83 Q 170.05 759.745 170.221 759.745 L 170.221 759.745 L 170.221 759.745 Q 170.404 759.745 170.55 759.836 L 170.55 759.836 L 170.55 759.836 Q 170.696 759.928 170.77 760.086 L 170.77 760.086 L 174.258 767.844 L 174.258 767.844 Z  M 170.233 761.001 L 168.306 765.38 L 172.172 765.38 L 170.233 761.001 L 170.233 761.001 Z  M 176.076 768.479 L 176.076 768.479 Q 175.856 768.479 175.716 768.351 L 175.716 768.351 L 175.716 768.351 Q 175.576 768.223 175.576 767.991 L 175.576 767.991 L 175.576 760.245 L 175.576 760.245 Q 175.576 760.013 175.716 759.885 L 175.716 759.885 L 175.716 759.885 Q 175.856 759.757 176.076 759.757 L 176.076 759.757 L 176.076 759.757 Q 176.283 759.757 176.423 759.885 L 176.423 759.885 L 176.423 759.885 Q 176.564 760.013 176.564 760.245 L 176.564 760.245 L 176.564 767.991 L 176.564 767.991 Q 176.564 768.223 176.423 768.351 L 176.423 768.351 L 176.423 768.351 Q 176.283 768.479 176.076 768.479 L 176.076 768.479 L 176.076 768.479 Z  M 180.833 762.331 L 180.833 762.331 Q 183.065 762.331 183.065 764.673 L 183.065 764.673 L 183.065 767.991 L 183.065 767.991 Q 183.065 768.21 182.937 768.345 L 182.937 768.345 L 182.937 768.345 Q 182.809 768.479 182.59 768.479 L 182.59 768.479 L 182.59 768.479 Q 182.37 768.479 182.236 768.345 L 182.236 768.345 L 182.236 768.345 Q 182.102 768.21 182.102 767.991 L 182.102 767.991 L 182.102 767.405 L 182.102 767.405 Q 181.87 767.93 181.394 768.217 L 181.394 768.217 L 181.394 768.217 Q 180.918 768.503 180.296 768.503 L 180.296 768.503 L 180.296 768.503 Q 179.723 768.503 179.241 768.271 L 179.241 768.271 L 179.241 768.271 Q 178.759 768.04 178.479 767.625 L 178.479 767.625 L 178.479 767.625 Q 178.198 767.21 178.198 766.71 L 178.198 766.71 L 178.198 766.71 Q 178.198 766.039 178.54 765.667 L 178.54 765.667 L 178.54 765.667 Q 178.881 765.295 179.662 765.13 L 179.662 765.13 L 179.662 765.13 Q 180.443 764.966 181.833 764.966 L 181.833 764.966 L 182.102 764.966 L 182.102 764.563 L 182.102 764.563 Q 182.102 763.831 181.803 763.49 L 181.803 763.49 L 181.803 763.49 Q 181.504 763.148 180.833 763.148 L 180.833 763.148 L 180.833 763.148 Q 180.004 763.148 179.15 763.6 L 179.15 763.6 L 179.15 763.6 Q 178.82 763.807 178.686 763.807 L 178.686 763.807 L 178.686 763.807 Q 178.54 763.807 178.442 763.697 L 178.442 763.697 L 178.442 763.697 Q 178.345 763.587 178.345 763.417 L 178.345 763.417 L 178.345 763.417 Q 178.345 763.246 178.448 763.118 L 178.448 763.118 L 178.448 763.118 Q 178.552 762.99 178.784 762.855 L 178.784 762.855 L 178.784 762.855 Q 179.211 762.611 179.754 762.471 L 179.754 762.471 L 179.754 762.471 Q 180.296 762.331 180.833 762.331 L 180.833 762.331 L 180.833 762.331 Z  M 180.431 767.723 L 180.431 767.723 Q 181.162 767.723 181.632 767.228 L 181.632 767.228 L 181.632 767.228 Q 182.102 766.734 182.102 765.954 L 182.102 765.954 L 182.102 765.6 L 181.882 765.6 L 181.882 765.6 Q 180.809 765.6 180.248 765.692 L 180.248 765.692 L 180.248 765.692 Q 179.686 765.783 179.449 765.996 L 179.449 765.996 L 179.449 765.996 Q 179.211 766.21 179.211 766.625 L 179.211 766.625 L 179.211 766.625 Q 179.211 767.1 179.558 767.411 L 179.558 767.411 L 179.558 767.411 Q 179.906 767.723 180.431 767.723 L 180.431 767.723 L 180.431 767.723 Z  M 189.689 762.355 L 189.689 762.355 Q 189.921 762.355 190.055 762.49 L 190.055 762.49 L 190.055 762.49 Q 190.189 762.624 190.189 762.843 L 190.189 762.843 L 190.189 768.015 L 190.189 768.015 Q 190.189 769.345 189.506 770.022 L 189.506 770.022 L 189.506 770.022 Q 188.823 770.699 187.481 770.699 L 187.481 770.699 L 187.481 770.699 Q 186.176 770.699 185.31 770.187 L 185.31 770.187 L 185.31 770.187 Q 184.871 769.943 184.871 769.625 L 184.871 769.625 L 184.871 769.625 Q 184.871 769.455 184.962 769.345 L 184.962 769.345 L 184.962 769.345 Q 185.054 769.235 185.2 769.235 L 185.2 769.235 L 185.2 769.235 Q 185.322 769.235 185.639 769.406 L 185.639 769.406 L 185.639 769.406 Q 186.066 769.625 186.481 769.76 L 186.481 769.76 L 186.481 769.76 Q 186.896 769.894 187.469 769.894 L 187.469 769.894 L 187.469 769.894 Q 188.335 769.894 188.774 769.436 L 188.774 769.436 L 188.774 769.436 Q 189.213 768.979 189.213 768.101 L 189.213 768.101 L 189.213 767.052 L 189.213 767.052 Q 188.957 767.625 188.426 767.93 L 188.426 767.93 L 188.426 767.93 Q 187.896 768.235 187.176 768.235 L 187.176 768.235 L 187.176 768.235 Q 186.395 768.235 185.792 767.869 L 185.792 767.869 L 185.792 767.869 Q 185.188 767.503 184.852 766.832 L 184.852 766.832 L 184.852 766.832 Q 184.517 766.161 184.517 765.283 L 184.517 765.283 L 184.517 765.283 Q 184.517 764.405 184.852 763.734 L 184.852 763.734 L 184.852 763.734 Q 185.188 763.063 185.792 762.697 L 185.792 762.697 L 185.792 762.697 Q 186.395 762.331 187.176 762.331 L 187.176 762.331 L 187.176 762.331 Q 187.884 762.331 188.408 762.636 L 188.408 762.636 L 188.408 762.636 Q 188.933 762.941 189.201 763.502 L 189.201 763.502 L 189.201 762.843 L 189.201 762.843 Q 189.201 762.624 189.329 762.49 L 189.329 762.49 L 189.329 762.49 Q 189.457 762.355 189.689 762.355 L 189.689 762.355 L 189.689 762.355 Z  M 187.371 767.418 L 187.371 767.418 Q 188.225 767.418 188.713 766.85 L 188.713 766.85 L 188.713 766.85 Q 189.201 766.283 189.201 765.283 L 189.201 765.283 L 189.201 765.283 Q 189.201 764.295 188.719 763.728 L 188.719 763.728 L 188.719 763.728 Q 188.237 763.16 187.371 763.16 L 187.371 763.16 L 187.371 763.16 Q 186.505 763.16 186.011 763.728 L 186.011 763.728 L 186.011 763.728 Q 185.517 764.295 185.517 765.283 L 185.517 765.283 L 185.517 765.283 Q 185.517 766.283 186.011 766.85 L 186.011 766.85 L 186.011 766.85 Q 186.505 767.418 187.371 767.418 L 187.371 767.418 L 187.371 767.418 Z  M 194.483 768.503 L 194.483 768.503 Q 193.641 768.503 193.001 768.125 L 193.001 768.125 L 193.001 768.125 Q 192.36 767.747 192.013 767.046 L 192.013 767.046 L 192.013 767.046 Q 191.665 766.344 191.665 765.417 L 191.665 765.417 L 191.665 765.417 Q 191.665 764.49 192.013 763.789 L 192.013 763.789 L 192.013 763.789 Q 192.36 763.087 193.001 762.709 L 193.001 762.709 L 193.001 762.709 Q 193.641 762.331 194.483 762.331 L 194.483 762.331 L 194.483 762.331 Q 195.324 762.331 195.971 762.709 L 195.971 762.709 L 195.971 762.709 Q 196.617 763.087 196.965 763.789 L 196.965 763.789 L 196.965 763.789 Q 197.313 764.49 197.313 765.417 L 197.313 765.417 L 197.313 765.417 Q 197.313 766.344 196.965 767.046 L 196.965 767.046 L 196.965 767.046 Q 196.617 767.747 195.971 768.125 L 195.971 768.125 L 195.971 768.125 Q 195.324 768.503 194.483 768.503 L 194.483 768.503 L 194.483 768.503 Z  M 194.483 767.686 L 194.483 767.686 Q 195.361 767.686 195.831 767.107 L 195.831 767.107 L 195.831 767.107 Q 196.3 766.527 196.3 765.417 L 196.3 765.417 L 196.3 765.417 Q 196.3 764.331 195.825 763.74 L 195.825 763.74 L 195.825 763.74 Q 195.349 763.148 194.483 763.148 L 194.483 763.148 L 194.483 763.148 Q 193.617 763.148 193.141 763.74 L 193.141 763.74 L 193.141 763.74 Q 192.665 764.331 192.665 765.417 L 192.665 765.417 L 192.665 765.417 Q 192.665 766.515 193.135 767.1 L 193.135 767.1 L 193.135 767.1 Q 193.605 767.686 194.483 767.686 L 194.483 767.686 L 194.483 767.686 Z  M 201.216 762.331 L 201.216 762.331 Q 203.448 762.331 203.448 764.673 L 203.448 764.673 L 203.448 767.991 L 203.448 767.991 Q 203.448 768.21 203.32 768.345 L 203.32 768.345 L 203.32 768.345 Q 203.192 768.479 202.973 768.479 L 202.973 768.479 L 202.973 768.479 Q 202.753 768.479 202.619 768.345 L 202.619 768.345 L 202.619 768.345 Q 202.485 768.21 202.485 767.991 L 202.485 767.991 L 202.485 767.405 L 202.485 767.405 Q 202.253 767.93 201.777 768.217 L 201.777 768.217 L 201.777 768.217 Q 201.302 768.503 200.679 768.503 L 200.679 768.503 L 200.679 768.503 Q 200.106 768.503 199.624 768.271 L 199.624 768.271 L 199.624 768.271 Q 199.142 768.04 198.862 767.625 L 198.862 767.625 L 198.862 767.625 Q 198.581 767.21 198.581 766.71 L 198.581 766.71 L 198.581 766.71 Q 198.581 766.039 198.923 765.667 L 198.923 765.667 L 198.923 765.667 Q 199.264 765.295 200.045 765.13 L 200.045 765.13 L 200.045 765.13 Q 200.826 764.966 202.216 764.966 L 202.216 764.966 L 202.485 764.966 L 202.485 764.563 L 202.485 764.563 Q 202.485 763.831 202.186 763.49 L 202.186 763.49 L 202.186 763.49 Q 201.887 763.148 201.216 763.148 L 201.216 763.148 L 201.216 763.148 Q 200.387 763.148 199.533 763.6 L 199.533 763.6 L 199.533 763.6 Q 199.203 763.807 199.069 763.807 L 199.069 763.807 L 199.069 763.807 Q 198.923 763.807 198.825 763.697 L 198.825 763.697 L 198.825 763.697 Q 198.728 763.587 198.728 763.417 L 198.728 763.417 L 198.728 763.417 Q 198.728 763.246 198.831 763.118 L 198.831 763.118 L 198.831 763.118 Q 198.935 762.99 199.167 762.855 L 199.167 762.855 L 199.167 762.855 Q 199.594 762.611 200.137 762.471 L 200.137 762.471 L 200.137 762.471 Q 200.679 762.331 201.216 762.331 L 201.216 762.331 L 201.216 762.331 Z  M 200.814 767.723 L 200.814 767.723 Q 201.546 767.723 202.015 767.228 L 202.015 767.228 L 202.015 767.228 Q 202.485 766.734 202.485 765.954 L 202.485 765.954 L 202.485 765.6 L 202.265 765.6 L 202.265 765.6 Q 201.192 765.6 200.631 765.692 L 200.631 765.692 L 200.631 765.692 Q 200.07 765.783 199.832 765.996 L 199.832 765.996 L 199.832 765.996 Q 199.594 766.21 199.594 766.625 L 199.594 766.625 L 199.594 766.625 Q 199.594 767.1 199.941 767.411 L 199.941 767.411 L 199.941 767.411 Q 200.289 767.723 200.814 767.723 L 200.814 767.723 L 200.814 767.723 Z  M 207.254 768.503 L 207.254 768.503 Q 206.693 768.503 206.187 768.369 L 206.187 768.369 L 206.187 768.369 Q 205.681 768.235 205.29 767.991 L 205.29 767.991 L 205.29 767.991 Q 205.071 767.844 204.979 767.716 L 204.979 767.716 L 204.979 767.716 Q 204.888 767.588 204.888 767.405 L 204.888 767.405 L 204.888 767.405 Q 204.888 767.247 204.979 767.143 L 204.979 767.143 L 204.979 767.143 Q 205.071 767.039 205.217 767.039 L 205.217 767.039 L 205.217 767.039 Q 205.364 767.039 205.644 767.222 L 205.644 767.222 L 205.644 767.222 Q 206.01 767.442 206.37 767.57 L 206.37 767.57 L 206.37 767.57 Q 206.73 767.698 207.266 767.698 L 207.266 767.698 L 207.266 767.698 Q 207.925 767.698 208.291 767.466 L 208.291 767.466 L 208.291 767.466 Q 208.657 767.235 208.657 766.795 L 208.657 766.795 L 208.657 766.795 Q 208.657 766.527 208.523 766.362 L 208.523 766.362 L 208.523 766.362 Q 208.389 766.198 208.059 766.07 L 208.059 766.07 L 208.059 766.07 Q 207.73 765.942 207.096 765.807 L 207.096 765.807 L 207.096 765.807 Q 206.022 765.576 205.559 765.185 L 205.559 765.185 L 205.559 765.185 Q 205.095 764.795 205.095 764.124 L 205.095 764.124 L 205.095 764.124 Q 205.095 763.6 205.388 763.197 L 205.388 763.197 L 205.388 763.197 Q 205.681 762.794 206.199 762.563 L 206.199 762.563 L 206.199 762.563 Q 206.718 762.331 207.376 762.331 L 207.376 762.331 L 207.376 762.331 Q 207.852 762.331 208.297 762.459 L 208.297 762.459 L 208.297 762.459 Q 208.742 762.587 209.084 762.819 L 209.084 762.819 L 209.084 762.819 Q 209.499 763.112 209.499 763.429 L 209.499 763.429 L 209.499 763.429 Q 209.499 763.587 209.401 763.697 L 209.401 763.697 L 209.401 763.697 Q 209.304 763.807 209.169 763.807 L 209.169 763.807 L 209.169 763.807 Q 209.023 763.807 208.73 763.6 L 208.73 763.6 L 208.73 763.6 Q 208.389 763.38 208.084 763.258 L 208.084 763.258 L 208.084 763.258 Q 207.779 763.136 207.327 763.136 L 207.327 763.136 L 207.327 763.136 Q 206.754 763.136 206.406 763.392 L 206.406 763.392 L 206.406 763.392 Q 206.059 763.648 206.059 764.075 L 206.059 764.075 L 206.059 764.075 Q 206.059 764.344 206.187 764.508 L 206.187 764.508 L 206.187 764.508 Q 206.315 764.673 206.614 764.801 L 206.614 764.801 L 206.614 764.801 Q 206.913 764.929 207.474 765.051 L 207.474 765.051 L 207.474 765.051 Q 208.303 765.234 208.761 765.454 L 208.761 765.454 L 208.761 765.454 Q 209.218 765.673 209.413 765.99 L 209.413 765.99 L 209.413 765.99 Q 209.608 766.308 209.608 766.795 L 209.608 766.795 L 209.608 766.795 Q 209.608 767.564 208.962 768.034 L 208.962 768.034 L 208.962 768.034 Q 208.315 768.503 207.254 768.503 L 207.254 768.503 L 207.254 768.503 Z  M 154.802 759.757 L 154.802 759.757 Q 155.034 759.757 155.168 759.891 L 155.168 759.891 L 155.168 759.891 Q 155.302 760.025 155.302 760.233 L 155.302 760.233 L 155.302 767.991 L 155.302 767.991 Q 155.302 768.21 155.168 768.345 L 155.168 768.345 L 155.168 768.345 Q 155.034 768.479 154.802 768.479 L 154.802 768.479 L 154.802 768.479 Q 154.571 768.479 154.442 768.345 L 154.442 768.345 L 154.442 768.345 Q 154.314 768.21 154.314 767.991 L 154.314 767.991 L 154.314 767.332 L 154.314 767.332 Q 154.046 767.893 153.528 768.198 L 153.528 768.198 L 153.528 768.198 Q 153.009 768.503 152.314 768.503 L 152.314 768.503 L 152.314 768.503 Q 151.533 768.503 150.935 768.113 L 150.935 768.113 L 150.935 768.113 Q 150.338 767.723 150.008 767.021 L 150.008 767.021 L 150.008 767.021 Q 149.679 766.32 149.679 765.393 L 149.679 765.393 L 149.679 765.393 Q 149.679 764.478 150.008 763.783 L 150.008 763.783 L 150.008 763.783 Q 150.338 763.087 150.935 762.709 L 150.935 762.709 L 150.935 762.709 Q 151.533 762.331 152.314 762.331 L 152.314 762.331 L 152.314 762.331 Q 153.009 762.331 153.528 762.636 L 153.528 762.636 L 153.528 762.636 Q 154.046 762.941 154.314 763.502 L 154.314 763.502 L 154.314 760.233 L 154.314 760.233 Q 154.314 760.013 154.442 759.885 L 154.442 759.885 L 154.442 759.885 Q 154.571 759.757 154.802 759.757 L 154.802 759.757 L 154.802 759.757 Z  M 152.509 767.686 L 152.509 767.686 Q 153.375 767.686 153.845 767.094 L 153.845 767.094 L 153.845 767.094 Q 154.314 766.503 154.314 765.417 L 154.314 765.417 L 154.314 765.417 Q 154.314 764.331 153.845 763.746 L 153.845 763.746 L 153.845 763.746 Q 153.375 763.16 152.509 763.16 L 152.509 763.16 L 152.509 763.16 Q 151.643 763.16 151.161 763.746 L 151.161 763.746 L 151.161 763.746 Q 150.679 764.331 150.679 765.393 L 150.679 765.393 L 150.679 765.393 Q 150.679 766.478 151.161 767.082 L 151.161 767.082 L 151.161 767.082 Q 151.643 767.686 152.509 767.686 L 152.509 767.686 L 152.509 767.686 Z  M 161.731 767.039 L 161.731 767.039 Q 161.865 767.039 161.963 767.149 L 161.963 767.149 L 161.963 767.149 Q 162.06 767.259 162.06 767.43 L 162.06 767.43 L 162.06 767.43 Q 162.06 767.735 161.633 767.991 L 161.633 767.991 L 161.633 767.991 Q 161.194 768.247 160.706 768.375 L 160.706 768.375 L 160.706 768.375 Q 160.218 768.503 159.755 768.503 L 159.755 768.503 L 159.755 768.503 Q 158.376 768.503 157.577 767.686 L 157.577 767.686 L 157.577 767.686 Q 156.778 766.869 156.778 765.429 L 156.778 765.429 L 156.778 765.429 Q 156.778 764.514 157.132 763.813 L 157.132 763.813 L 157.132 763.813 Q 157.486 763.112 158.126 762.721 L 158.126 762.721 L 158.126 762.721 Q 158.767 762.331 159.584 762.331 L 159.584 762.331 L 159.584 762.331 Q 160.743 762.331 161.426 763.087 L 161.426 763.087 L 161.426 763.087 Q 162.109 763.844 162.109 765.137 L 162.109 765.137 L 162.109 765.137 Q 162.109 765.38 162.011 765.49 L 162.011 765.49 L 162.011 765.49 Q 161.914 765.6 161.694 765.6 L 161.694 765.6 L 157.766 765.6 L 157.766 765.6 Q 157.876 767.698 159.755 767.698 L 159.755 767.698 L 159.755 767.698 Q 160.23 767.698 160.572 767.57 L 160.572 767.57 L 160.572 767.57 Q 160.914 767.442 161.304 767.222 L 161.304 767.222 L 161.304 767.222 Q 161.621 767.039 161.731 767.039 L 161.731 767.039 L 161.731 767.039 Z  M 159.596 763.099 L 159.596 763.099 Q 158.815 763.099 158.346 763.587 L 158.346 763.587 L 158.346 763.587 Q 157.876 764.075 157.791 764.966 L 157.791 764.966 L 161.243 764.966 L 161.243 764.966 Q 161.218 764.063 160.792 763.581 L 160.792 763.581 L 160.792 763.581 Q 160.365 763.099 159.596 763.099 L 159.596 763.099 L 159.596 763.099 Z  M 198.301 755.501 L 198.301 755.501 Q 198.069 755.501 197.935 755.361 L 197.935 755.361 L 197.935 755.361 Q 197.801 755.22 197.801 754.989 L 197.801 754.989 L 197.801 747.328 L 197.801 747.328 Q 197.801 747.109 197.941 746.974 L 197.941 746.974 L 197.941 746.974 Q 198.081 746.84 198.313 746.84 L 198.313 746.84 L 202.753 746.84 L 202.753 746.84 Q 202.973 746.84 203.095 746.95 L 203.095 746.95 L 203.095 746.95 Q 203.217 747.06 203.217 747.267 L 203.217 747.267 L 203.217 747.267 Q 203.217 747.462 203.095 747.572 L 203.095 747.572 L 203.095 747.572 Q 202.973 747.682 202.753 747.682 L 202.753 747.682 L 198.789 747.682 L 198.789 750.646 L 202.509 750.646 L 202.509 750.646 Q 202.729 750.646 202.851 750.756 L 202.851 750.756 L 202.851 750.756 Q 202.973 750.866 202.973 751.073 L 202.973 751.073 L 202.973 751.073 Q 202.973 751.268 202.851 751.378 L 202.851 751.378 L 202.851 751.378 Q 202.729 751.488 202.509 751.488 L 202.509 751.488 L 198.789 751.488 L 198.789 754.989 L 198.789 754.989 Q 198.789 755.22 198.661 755.361 L 198.661 755.361 L 198.661 755.361 Q 198.533 755.501 198.301 755.501 L 198.301 755.501 L 198.301 755.501 Z  M 209.047 754.062 L 209.047 754.062 Q 209.182 754.062 209.279 754.171 L 209.279 754.171 L 209.279 754.171 Q 209.377 754.281 209.377 754.452 L 209.377 754.452 L 209.377 754.452 Q 209.377 754.757 208.95 755.013 L 208.95 755.013 L 208.95 755.013 Q 208.511 755.269 208.023 755.397 L 208.023 755.397 L 208.023 755.397 Q 207.535 755.525 207.071 755.525 L 207.071 755.525 L 207.071 755.525 Q 205.693 755.525 204.894 754.708 L 204.894 754.708 L 204.894 754.708 Q 204.095 753.891 204.095 752.451 L 204.095 752.451 L 204.095 752.451 Q 204.095 751.537 204.449 750.835 L 204.449 750.835 L 204.449 750.835 Q 204.802 750.134 205.443 749.743 L 205.443 749.743 L 205.443 749.743 Q 206.083 749.353 206.901 749.353 L 206.901 749.353 L 206.901 749.353 Q 208.059 749.353 208.742 750.109 L 208.742 750.109 L 208.742 750.109 Q 209.426 750.866 209.426 752.159 L 209.426 752.159 L 209.426 752.159 Q 209.426 752.403 209.328 752.512 L 209.328 752.512 L 209.328 752.512 Q 209.23 752.622 209.011 752.622 L 209.011 752.622 L 205.083 752.622 L 205.083 752.622 Q 205.193 754.72 207.071 754.72 L 207.071 754.72 L 207.071 754.72 Q 207.547 754.72 207.889 754.592 L 207.889 754.592 L 207.889 754.592 Q 208.23 754.464 208.62 754.245 L 208.62 754.245 L 208.62 754.245 Q 208.938 754.062 209.047 754.062 L 209.047 754.062 L 209.047 754.062 Z  M 206.913 750.122 L 206.913 750.122 Q 206.132 750.122 205.662 750.61 L 205.662 750.61 L 205.662 750.61 Q 205.193 751.097 205.107 751.988 L 205.107 751.988 L 208.559 751.988 L 208.559 751.988 Q 208.535 751.085 208.108 750.603 L 208.108 750.603 L 208.108 750.603 Q 207.681 750.122 206.913 750.122 L 206.913 750.122 L 206.913 750.122 Z  M 215.647 746.779 L 215.647 746.779 Q 215.878 746.779 216.013 746.913 L 216.013 746.913 L 216.013 746.913 Q 216.147 747.048 216.147 747.255 L 216.147 747.255 L 216.147 755.013 L 216.147 755.013 Q 216.147 755.233 216.013 755.367 L 216.013 755.367 L 216.013 755.367 Q 215.878 755.501 215.647 755.501 L 215.647 755.501 L 215.647 755.501 Q 215.415 755.501 215.287 755.367 L 215.287 755.367 L 215.287 755.367 Q 215.159 755.233 215.159 755.013 L 215.159 755.013 L 215.159 754.354 L 215.159 754.354 Q 214.89 754.915 214.372 755.22 L 214.372 755.22 L 214.372 755.22 Q 213.853 755.525 213.158 755.525 L 213.158 755.525 L 213.158 755.525 Q 212.377 755.525 211.78 755.135 L 211.78 755.135 L 211.78 755.135 Q 211.182 754.745 210.853 754.043 L 210.853 754.043 L 210.853 754.043 Q 210.523 753.342 210.523 752.415 L 210.523 752.415 L 210.523 752.415 Q 210.523 751.5 210.853 750.805 L 210.853 750.805 L 210.853 750.805 Q 211.182 750.109 211.78 749.731 L 211.78 749.731 L 211.78 749.731 Q 212.377 749.353 213.158 749.353 L 213.158 749.353 L 213.158 749.353 Q 213.853 749.353 214.372 749.658 L 214.372 749.658 L 214.372 749.658 Q 214.89 749.963 215.159 750.524 L 215.159 750.524 L 215.159 747.255 L 215.159 747.255 Q 215.159 747.035 215.287 746.907 L 215.287 746.907 L 215.287 746.907 Q 215.415 746.779 215.647 746.779 L 215.647 746.779 L 215.647 746.779 Z  M 213.353 754.708 L 213.353 754.708 Q 214.219 754.708 214.689 754.116 L 214.689 754.116 L 214.689 754.116 Q 215.159 753.525 215.159 752.439 L 215.159 752.439 L 215.159 752.439 Q 215.159 751.354 214.689 750.768 L 214.689 750.768 L 214.689 750.768 Q 214.219 750.183 213.353 750.183 L 213.353 750.183 L 213.353 750.183 Q 212.487 750.183 212.005 750.768 L 212.005 750.768 L 212.005 750.768 Q 211.524 751.354 211.524 752.415 L 211.524 752.415 L 211.524 752.415 Q 211.524 753.5 212.005 754.104 L 212.005 754.104 L 212.005 754.104 Q 212.487 754.708 213.353 754.708 L 213.353 754.708 L 213.353 754.708 Z  M 222.575 754.062 L 222.575 754.062 Q 222.709 754.062 222.807 754.171 L 222.807 754.171 L 222.807 754.171 Q 222.904 754.281 222.904 754.452 L 222.904 754.452 L 222.904 754.452 Q 222.904 754.757 222.478 755.013 L 222.478 755.013 L 222.478 755.013 Q 222.038 755.269 221.55 755.397 L 221.55 755.397 L 221.55 755.397 Q 221.063 755.525 220.599 755.525 L 220.599 755.525 L 220.599 755.525 Q 219.221 755.525 218.422 754.708 L 218.422 754.708 L 218.422 754.708 Q 217.623 753.891 217.623 752.451 L 217.623 752.451 L 217.623 752.451 Q 217.623 751.537 217.976 750.835 L 217.976 750.835 L 217.976 750.835 Q 218.33 750.134 218.971 749.743 L 218.971 749.743 L 218.971 749.743 Q 219.611 749.353 220.428 749.353 L 220.428 749.353 L 220.428 749.353 Q 221.587 749.353 222.27 750.109 L 222.27 750.109 L 222.27 750.109 Q 222.953 750.866 222.953 752.159 L 222.953 752.159 L 222.953 752.159 Q 222.953 752.403 222.856 752.512 L 222.856 752.512 L 222.856 752.512 Q 222.758 752.622 222.539 752.622 L 222.539 752.622 L 218.611 752.622 L 218.611 752.622 Q 218.72 754.72 220.599 754.72 L 220.599 754.72 L 220.599 754.72 Q 221.075 754.72 221.416 754.592 L 221.416 754.592 L 221.416 754.592 Q 221.758 754.464 222.148 754.245 L 222.148 754.245 L 222.148 754.245 Q 222.465 754.062 222.575 754.062 L 222.575 754.062 L 222.575 754.062 Z  M 220.44 750.122 L 220.44 750.122 Q 219.66 750.122 219.19 750.61 L 219.19 750.61 L 219.19 750.61 Q 218.72 751.097 218.635 751.988 L 218.635 751.988 L 222.087 751.988 L 222.087 751.988 Q 222.063 751.085 221.636 750.603 L 221.636 750.603 L 221.636 750.603 Q 221.209 750.122 220.44 750.122 L 220.44 750.122 L 220.44 750.122 Z  M 227.345 749.377 L 227.345 749.377 Q 227.857 749.341 227.857 749.792 L 227.857 749.792 L 227.857 749.792 Q 227.857 749.987 227.747 750.103 L 227.747 750.103 L 227.747 750.103 Q 227.637 750.219 227.369 750.244 L 227.369 750.244 L 227.003 750.28 L 227.003 750.28 Q 226.186 750.353 225.789 750.86 L 225.789 750.86 L 225.789 750.86 Q 225.393 751.366 225.393 752.049 L 225.393 752.049 L 225.393 755.013 L 225.393 755.013 Q 225.393 755.257 225.259 755.379 L 225.259 755.379 L 225.259 755.379 Q 225.125 755.501 224.905 755.501 L 224.905 755.501 L 224.905 755.501 Q 224.685 755.501 224.545 755.373 L 224.545 755.373 L 224.545 755.373 Q 224.405 755.245 224.405 755.013 L 224.405 755.013 L 224.405 749.865 L 224.405 749.865 Q 224.405 749.634 224.551 749.506 L 224.551 749.506 L 224.551 749.506 Q 224.698 749.377 224.905 749.377 L 224.905 749.377 L 224.905 749.377 Q 225.1 749.377 225.234 749.506 L 225.234 749.506 L 225.234 749.506 Q 225.368 749.634 225.368 749.853 L 225.368 749.853 L 225.368 750.536 L 225.368 750.536 Q 225.625 750 226.094 749.719 L 226.094 749.719 L 226.094 749.719 Q 226.564 749.438 227.174 749.39 L 227.174 749.39 L 227.345 749.377 L 227.345 749.377 Z  M 231.138 749.353 L 231.138 749.353 Q 233.37 749.353 233.37 751.695 L 233.37 751.695 L 233.37 755.013 L 233.37 755.013 Q 233.37 755.233 233.242 755.367 L 233.242 755.367 L 233.242 755.367 Q 233.114 755.501 232.895 755.501 L 232.895 755.501 L 232.895 755.501 Q 232.675 755.501 232.541 755.367 L 232.541 755.367 L 232.541 755.367 Q 232.407 755.233 232.407 755.013 L 232.407 755.013 L 232.407 754.428 L 232.407 754.428 Q 232.175 754.952 231.699 755.239 L 231.699 755.239 L 231.699 755.239 Q 231.224 755.525 230.601 755.525 L 230.601 755.525 L 230.601 755.525 Q 230.028 755.525 229.546 755.294 L 229.546 755.294 L 229.546 755.294 Q 229.065 755.062 228.784 754.647 L 228.784 754.647 L 228.784 754.647 Q 228.503 754.232 228.503 753.732 L 228.503 753.732 L 228.503 753.732 Q 228.503 753.061 228.845 752.689 L 228.845 752.689 L 228.845 752.689 Q 229.186 752.317 229.967 752.153 L 229.967 752.153 L 229.967 752.153 Q 230.748 751.988 232.138 751.988 L 232.138 751.988 L 232.407 751.988 L 232.407 751.585 L 232.407 751.585 Q 232.407 750.853 232.108 750.512 L 232.108 750.512 L 232.108 750.512 Q 231.809 750.17 231.138 750.17 L 231.138 750.17 L 231.138 750.17 Q 230.309 750.17 229.455 750.622 L 229.455 750.622 L 229.455 750.622 Q 229.126 750.829 228.991 750.829 L 228.991 750.829 L 228.991 750.829 Q 228.845 750.829 228.747 750.719 L 228.747 750.719 L 228.747 750.719 Q 228.65 750.61 228.65 750.439 L 228.65 750.439 L 228.65 750.439 Q 228.65 750.268 228.753 750.14 L 228.753 750.14 L 228.753 750.14 Q 228.857 750.012 229.089 749.878 L 229.089 749.878 L 229.089 749.878 Q 229.516 749.634 230.059 749.493 L 230.059 749.493 L 230.059 749.493 Q 230.601 749.353 231.138 749.353 L 231.138 749.353 L 231.138 749.353 Z  M 230.736 754.745 L 230.736 754.745 Q 231.468 754.745 231.937 754.251 L 231.937 754.251 L 231.937 754.251 Q 232.407 753.757 232.407 752.976 L 232.407 752.976 L 232.407 752.622 L 232.187 752.622 L 232.187 752.622 Q 231.114 752.622 230.553 752.714 L 230.553 752.714 L 230.553 752.714 Q 229.992 752.805 229.754 753.019 L 229.754 753.019 L 229.754 753.019 Q 229.516 753.232 229.516 753.647 L 229.516 753.647 L 229.516 753.647 Q 229.516 754.123 229.863 754.434 L 229.863 754.434 L 229.863 754.434 Q 230.211 754.745 230.736 754.745 L 230.736 754.745 L 230.736 754.745 Z  M 235.676 755.501 L 235.676 755.501 Q 235.456 755.501 235.316 755.373 L 235.316 755.373 L 235.316 755.373 Q 235.176 755.245 235.176 755.013 L 235.176 755.013 L 235.176 747.267 L 235.176 747.267 Q 235.176 747.035 235.316 746.907 L 235.316 746.907 L 235.316 746.907 Q 235.456 746.779 235.676 746.779 L 235.676 746.779 L 235.676 746.779 Q 235.883 746.779 236.024 746.907 L 236.024 746.907 L 236.024 746.907 Q 236.164 747.035 236.164 747.267 L 236.164 747.267 L 236.164 755.013 L 236.164 755.013 Q 236.164 755.245 236.024 755.373 L 236.024 755.373 L 236.024 755.373 Q 235.883 755.501 235.676 755.501 L 235.676 755.501 L 235.676 755.501 Z  M 126.637 755.538 L 126.637 755.538 Q 124.953 755.538 124.087 754.659 L 124.087 754.659 L 124.087 754.659 Q 123.221 753.781 123.221 752.073 L 123.221 752.073 L 123.221 747.292 L 123.221 747.292 Q 123.221 747.06 123.355 746.92 L 123.355 746.92 L 123.355 746.92 Q 123.49 746.779 123.721 746.779 L 123.721 746.779 L 123.721 746.779 Q 123.941 746.779 124.075 746.92 L 124.075 746.92 L 124.075 746.92 Q 124.209 747.06 124.209 747.292 L 124.209 747.292 L 124.209 752.159 L 124.209 752.159 Q 124.209 753.415 124.825 754.049 L 124.825 754.049 L 124.825 754.049 Q 125.441 754.684 126.637 754.684 L 126.637 754.684 L 126.637 754.684 Q 127.832 754.684 128.442 754.049 L 128.442 754.049 L 128.442 754.049 Q 129.052 753.415 129.052 752.159 L 129.052 752.159 L 129.052 747.292 L 129.052 747.292 Q 129.052 747.06 129.192 746.92 L 129.192 746.92 L 129.192 746.92 Q 129.333 746.779 129.552 746.779 L 129.552 746.779 L 129.552 746.779 Q 129.784 746.779 129.918 746.92 L 129.918 746.92 L 129.918 746.92 Q 130.052 747.06 130.052 747.292 L 130.052 747.292 L 130.052 752.073 L 130.052 752.073 Q 130.052 753.769 129.18 754.653 L 129.18 754.653 L 129.18 754.653 Q 128.308 755.538 126.637 755.538 L 126.637 755.538 L 126.637 755.538 Z  M 134.956 749.353 L 134.956 749.353 Q 137.091 749.353 137.091 751.707 L 137.091 751.707 L 137.091 755.013 L 137.091 755.013 Q 137.091 755.245 136.963 755.373 L 136.963 755.373 L 136.963 755.373 Q 136.834 755.501 136.603 755.501 L 136.603 755.501 L 136.603 755.501 Q 136.371 755.501 136.237 755.373 L 136.237 755.373 L 136.237 755.373 Q 136.103 755.245 136.103 755.013 L 136.103 755.013 L 136.103 751.768 L 136.103 751.768 Q 136.103 750.939 135.779 750.561 L 135.779 750.561 L 135.779 750.561 Q 135.456 750.183 134.749 750.183 L 134.749 750.183 L 134.749 750.183 Q 133.931 750.183 133.443 750.683 L 133.443 750.683 L 133.443 750.683 Q 132.955 751.183 132.955 752.037 L 132.955 752.037 L 132.955 755.013 L 132.955 755.013 Q 132.955 755.245 132.827 755.373 L 132.827 755.373 L 132.827 755.373 Q 132.699 755.501 132.467 755.501 L 132.467 755.501 L 132.467 755.501 Q 132.236 755.501 132.102 755.373 L 132.102 755.373 L 132.102 755.373 Q 131.967 755.245 131.967 755.013 L 131.967 755.013 L 131.967 749.865 L 131.967 749.865 Q 131.967 749.646 132.102 749.512 L 132.102 749.512 L 132.102 749.512 Q 132.236 749.377 132.467 749.377 L 132.467 749.377 L 132.467 749.377 Q 132.687 749.377 132.815 749.512 L 132.815 749.512 L 132.815 749.512 Q 132.943 749.646 132.943 749.853 L 132.943 749.853 L 132.943 750.475 L 132.943 750.475 Q 133.236 749.926 133.76 749.64 L 133.76 749.64 L 133.76 749.64 Q 134.285 749.353 134.956 749.353 L 134.956 749.353 L 134.956 749.353 Z  M 139.396 755.501 L 139.396 755.501 Q 139.176 755.501 139.036 755.373 L 139.036 755.373 L 139.036 755.373 Q 138.896 755.245 138.896 755.013 L 138.896 755.013 L 138.896 749.865 L 138.896 749.865 Q 138.896 749.634 139.036 749.506 L 139.036 749.506 L 139.036 749.506 Q 139.176 749.377 139.396 749.377 L 139.396 749.377 L 139.396 749.377 Q 139.616 749.377 139.75 749.506 L 139.75 749.506 L 139.75 749.506 Q 139.884 749.634 139.884 749.865 L 139.884 749.865 L 139.884 755.013 L 139.884 755.013 Q 139.884 755.257 139.75 755.379 L 139.75 755.379 L 139.75 755.379 Q 139.616 755.501 139.396 755.501 L 139.396 755.501 L 139.396 755.501 Z  M 139.396 748.097 L 139.396 748.097 Q 139.103 748.097 138.92 747.926 L 138.92 747.926 L 138.92 747.926 Q 138.737 747.755 138.737 747.475 L 138.737 747.475 L 138.737 747.475 Q 138.737 747.206 138.92 747.035 L 138.92 747.035 L 138.92 747.035 Q 139.103 746.865 139.396 746.865 L 139.396 746.865 L 139.396 746.865 Q 139.689 746.865 139.872 747.035 L 139.872 747.035 L 139.872 747.035 Q 140.055 747.206 140.055 747.475 L 140.055 747.475 L 140.055 747.475 Q 140.055 747.755 139.872 747.926 L 139.872 747.926 L 139.872 747.926 Q 139.689 748.097 139.396 748.097 L 139.396 748.097 L 139.396 748.097 Z  M 146.007 749.682 L 146.007 749.682 Q 146.142 749.39 146.434 749.39 L 146.434 749.39 L 146.434 749.39 Q 146.617 749.39 146.764 749.512 L 146.764 749.512 L 146.764 749.512 Q 146.91 749.634 146.91 749.817 L 146.91 749.817 L 146.91 749.817 Q 146.91 749.926 146.861 750.012 L 146.861 750.012 L 144.483 755.135 L 144.483 755.135 Q 144.409 755.294 144.263 755.385 L 144.263 755.385 L 144.263 755.385 Q 144.117 755.477 143.946 755.477 L 143.946 755.477 L 143.946 755.477 Q 143.787 755.477 143.641 755.385 L 143.641 755.385 L 143.641 755.385 Q 143.495 755.294 143.409 755.135 L 143.409 755.135 L 141.043 750.012 L 141.043 750.012 Q 140.994 749.926 140.994 749.829 L 140.994 749.829 L 140.994 749.829 Q 140.994 749.646 141.159 749.512 L 141.159 749.512 L 141.159 749.512 Q 141.323 749.377 141.519 749.377 L 141.519 749.377 L 141.519 749.377 Q 141.64 749.377 141.756 749.451 L 141.756 749.451 L 141.756 749.451 Q 141.872 749.524 141.933 749.658 L 141.933 749.658 L 143.97 754.232 L 146.007 749.682 L 146.007 749.682 Z  M 152.594 754.062 L 152.594 754.062 Q 152.729 754.062 152.826 754.171 L 152.826 754.171 L 152.826 754.171 Q 152.924 754.281 152.924 754.452 L 152.924 754.452 L 152.924 754.452 Q 152.924 754.757 152.497 755.013 L 152.497 755.013 L 152.497 755.013 Q 152.058 755.269 151.57 755.397 L 151.57 755.397 L 151.57 755.397 Q 151.082 755.525 150.618 755.525 L 150.618 755.525 L 150.618 755.525 Q 149.24 755.525 148.441 754.708 L 148.441 754.708 L 148.441 754.708 Q 147.642 753.891 147.642 752.451 L 147.642 752.451 L 147.642 752.451 Q 147.642 751.537 147.996 750.835 L 147.996 750.835 L 147.996 750.835 Q 148.349 750.134 148.99 749.743 L 148.99 749.743 L 148.99 749.743 Q 149.63 749.353 150.448 749.353 L 150.448 749.353 L 150.448 749.353 Q 151.606 749.353 152.289 750.109 L 152.289 750.109 L 152.289 750.109 Q 152.973 750.866 152.973 752.159 L 152.973 752.159 L 152.973 752.159 Q 152.973 752.403 152.875 752.512 L 152.875 752.512 L 152.875 752.512 Q 152.777 752.622 152.558 752.622 L 152.558 752.622 L 148.63 752.622 L 148.63 752.622 Q 148.74 754.72 150.618 754.72 L 150.618 754.72 L 150.618 754.72 Q 151.094 754.72 151.436 754.592 L 151.436 754.592 L 151.436 754.592 Q 151.777 754.464 152.167 754.245 L 152.167 754.245 L 152.167 754.245 Q 152.485 754.062 152.594 754.062 L 152.594 754.062 L 152.594 754.062 Z  M 150.46 750.122 L 150.46 750.122 Q 149.679 750.122 149.209 750.61 L 149.209 750.61 L 149.209 750.61 Q 148.74 751.097 148.654 751.988 L 148.654 751.988 L 152.106 751.988 L 152.106 751.988 Q 152.082 751.085 151.655 750.603 L 151.655 750.603 L 151.655 750.603 Q 151.228 750.122 150.46 750.122 L 150.46 750.122 L 150.46 750.122 Z  M 157.364 749.377 L 157.364 749.377 Q 157.876 749.341 157.876 749.792 L 157.876 749.792 L 157.876 749.792 Q 157.876 749.987 157.766 750.103 L 157.766 750.103 L 157.766 750.103 Q 157.657 750.219 157.388 750.244 L 157.388 750.244 L 157.022 750.28 L 157.022 750.28 Q 156.205 750.353 155.809 750.86 L 155.809 750.86 L 155.809 750.86 Q 155.412 751.366 155.412 752.049 L 155.412 752.049 L 155.412 755.013 L 155.412 755.013 Q 155.412 755.257 155.278 755.379 L 155.278 755.379 L 155.278 755.379 Q 155.144 755.501 154.924 755.501 L 154.924 755.501 L 154.924 755.501 Q 154.705 755.501 154.564 755.373 L 154.564 755.373 L 154.564 755.373 Q 154.424 755.245 154.424 755.013 L 154.424 755.013 L 154.424 749.865 L 154.424 749.865 Q 154.424 749.634 154.571 749.506 L 154.571 749.506 L 154.571 749.506 Q 154.717 749.377 154.924 749.377 L 154.924 749.377 L 154.924 749.377 Q 155.119 749.377 155.254 749.506 L 155.254 749.506 L 155.254 749.506 Q 155.388 749.634 155.388 749.853 L 155.388 749.853 L 155.388 750.536 L 155.388 750.536 Q 155.644 750 156.114 749.719 L 156.114 749.719 L 156.114 749.719 Q 156.583 749.438 157.193 749.39 L 157.193 749.39 L 157.364 749.377 L 157.364 749.377 Z  M 160.731 755.525 L 160.731 755.525 Q 160.169 755.525 159.663 755.391 L 159.663 755.391 L 159.663 755.391 Q 159.157 755.257 158.767 755.013 L 158.767 755.013 L 158.767 755.013 Q 158.547 754.867 158.456 754.739 L 158.456 754.739 L 158.456 754.739 Q 158.364 754.61 158.364 754.428 L 158.364 754.428 L 158.364 754.428 Q 158.364 754.269 158.456 754.165 L 158.456 754.165 L 158.456 754.165 Q 158.547 754.062 158.693 754.062 L 158.693 754.062 L 158.693 754.062 Q 158.84 754.062 159.12 754.245 L 159.12 754.245 L 159.12 754.245 Q 159.486 754.464 159.846 754.592 L 159.846 754.592 L 159.846 754.592 Q 160.206 754.72 160.743 754.72 L 160.743 754.72 L 160.743 754.72 Q 161.401 754.72 161.767 754.489 L 161.767 754.489 L 161.767 754.489 Q 162.133 754.257 162.133 753.818 L 162.133 753.818 L 162.133 753.818 Q 162.133 753.549 161.999 753.385 L 161.999 753.385 L 161.999 753.385 Q 161.865 753.22 161.536 753.092 L 161.536 753.092 L 161.536 753.092 Q 161.206 752.964 160.572 752.83 L 160.572 752.83 L 160.572 752.83 Q 159.499 752.598 159.035 752.207 L 159.035 752.207 L 159.035 752.207 Q 158.571 751.817 158.571 751.146 L 158.571 751.146 L 158.571 751.146 Q 158.571 750.622 158.864 750.219 L 158.864 750.219 L 158.864 750.219 Q 159.157 749.817 159.675 749.585 L 159.675 749.585 L 159.675 749.585 Q 160.194 749.353 160.853 749.353 L 160.853 749.353 L 160.853 749.353 Q 161.328 749.353 161.774 749.481 L 161.774 749.481 L 161.774 749.481 Q 162.219 749.609 162.56 749.841 L 162.56 749.841 L 162.56 749.841 Q 162.975 750.134 162.975 750.451 L 162.975 750.451 L 162.975 750.451 Q 162.975 750.61 162.877 750.719 L 162.877 750.719 L 162.877 750.719 Q 162.78 750.829 162.646 750.829 L 162.646 750.829 L 162.646 750.829 Q 162.499 750.829 162.207 750.622 L 162.207 750.622 L 162.207 750.622 Q 161.865 750.402 161.56 750.28 L 161.56 750.28 L 161.56 750.28 Q 161.255 750.158 160.804 750.158 L 160.804 750.158 L 160.804 750.158 Q 160.23 750.158 159.883 750.414 L 159.883 750.414 L 159.883 750.414 Q 159.535 750.67 159.535 751.097 L 159.535 751.097 L 159.535 751.097 Q 159.535 751.366 159.663 751.53 L 159.663 751.53 L 159.663 751.53 Q 159.791 751.695 160.09 751.823 L 160.09 751.823 L 160.09 751.823 Q 160.389 751.951 160.95 752.073 L 160.95 752.073 L 160.95 752.073 Q 161.78 752.256 162.237 752.476 L 162.237 752.476 L 162.237 752.476 Q 162.694 752.695 162.89 753.013 L 162.89 753.013 L 162.89 753.013 Q 163.085 753.33 163.085 753.818 L 163.085 753.818 L 163.085 753.818 Q 163.085 754.586 162.438 755.056 L 162.438 755.056 L 162.438 755.056 Q 161.792 755.525 160.731 755.525 L 160.731 755.525 L 160.731 755.525 Z  M 165.085 755.501 L 165.085 755.501 Q 164.866 755.501 164.725 755.373 L 164.725 755.373 L 164.725 755.373 Q 164.585 755.245 164.585 755.013 L 164.585 755.013 L 164.585 749.865 L 164.585 749.865 Q 164.585 749.634 164.725 749.506 L 164.725 749.506 L 164.725 749.506 Q 164.866 749.377 165.085 749.377 L 165.085 749.377 L 165.085 749.377 Q 165.305 749.377 165.439 749.506 L 165.439 749.506 L 165.439 749.506 Q 165.573 749.634 165.573 749.865 L 165.573 749.865 L 165.573 755.013 L 165.573 755.013 Q 165.573 755.257 165.439 755.379 L 165.439 755.379 L 165.439 755.379 Q 165.305 755.501 165.085 755.501 L 165.085 755.501 L 165.085 755.501 Z  M 165.085 748.097 L 165.085 748.097 Q 164.793 748.097 164.61 747.926 L 164.61 747.926 L 164.61 747.926 Q 164.427 747.755 164.427 747.475 L 164.427 747.475 L 164.427 747.475 Q 164.427 747.206 164.61 747.035 L 164.61 747.035 L 164.61 747.035 Q 164.793 746.865 165.085 746.865 L 165.085 746.865 L 165.085 746.865 Q 165.378 746.865 165.561 747.035 L 165.561 747.035 L 165.561 747.035 Q 165.744 747.206 165.744 747.475 L 165.744 747.475 L 165.744 747.475 Q 165.744 747.755 165.561 747.926 L 165.561 747.926 L 165.561 747.926 Q 165.378 748.097 165.085 748.097 L 165.085 748.097 L 165.085 748.097 Z  M 172.185 746.779 L 172.185 746.779 Q 172.416 746.779 172.551 746.913 L 172.551 746.913 L 172.551 746.913 Q 172.685 747.048 172.685 747.255 L 172.685 747.255 L 172.685 755.013 L 172.685 755.013 Q 172.685 755.233 172.551 755.367 L 172.551 755.367 L 172.551 755.367 Q 172.416 755.501 172.185 755.501 L 172.185 755.501 L 172.185 755.501 Q 171.953 755.501 171.825 755.367 L 171.825 755.367 L 171.825 755.367 Q 171.697 755.233 171.697 755.013 L 171.697 755.013 L 171.697 754.354 L 171.697 754.354 Q 171.428 754.915 170.91 755.22 L 170.91 755.22 L 170.91 755.22 Q 170.391 755.525 169.696 755.525 L 169.696 755.525 L 169.696 755.525 Q 168.916 755.525 168.318 755.135 L 168.318 755.135 L 168.318 755.135 Q 167.72 754.745 167.391 754.043 L 167.391 754.043 L 167.391 754.043 Q 167.061 753.342 167.061 752.415 L 167.061 752.415 L 167.061 752.415 Q 167.061 751.5 167.391 750.805 L 167.391 750.805 L 167.391 750.805 Q 167.72 750.109 168.318 749.731 L 168.318 749.731 L 168.318 749.731 Q 168.916 749.353 169.696 749.353 L 169.696 749.353 L 169.696 749.353 Q 170.391 749.353 170.91 749.658 L 170.91 749.658 L 170.91 749.658 Q 171.428 749.963 171.697 750.524 L 171.697 750.524 L 171.697 747.255 L 171.697 747.255 Q 171.697 747.035 171.825 746.907 L 171.825 746.907 L 171.825 746.907 Q 171.953 746.779 172.185 746.779 L 172.185 746.779 L 172.185 746.779 Z  M 169.891 754.708 L 169.891 754.708 Q 170.757 754.708 171.227 754.116 L 171.227 754.116 L 171.227 754.116 Q 171.697 753.525 171.697 752.439 L 171.697 752.439 L 171.697 752.439 Q 171.697 751.354 171.227 750.768 L 171.227 750.768 L 171.227 750.768 Q 170.757 750.183 169.891 750.183 L 169.891 750.183 L 169.891 750.183 Q 169.025 750.183 168.543 750.768 L 168.543 750.768 L 168.543 750.768 Q 168.062 751.354 168.062 752.415 L 168.062 752.415 L 168.062 752.415 Q 168.062 753.5 168.543 754.104 L 168.543 754.104 L 168.543 754.104 Q 169.025 754.708 169.891 754.708 L 169.891 754.708 L 169.891 754.708 Z  M 176.942 749.353 L 176.942 749.353 Q 179.174 749.353 179.174 751.695 L 179.174 751.695 L 179.174 755.013 L 179.174 755.013 Q 179.174 755.233 179.046 755.367 L 179.046 755.367 L 179.046 755.367 Q 178.918 755.501 178.698 755.501 L 178.698 755.501 L 178.698 755.501 Q 178.479 755.501 178.345 755.367 L 178.345 755.367 L 178.345 755.367 Q 178.21 755.233 178.21 755.013 L 178.21 755.013 L 178.21 754.428 L 178.21 754.428 Q 177.979 754.952 177.503 755.239 L 177.503 755.239 L 177.503 755.239 Q 177.027 755.525 176.405 755.525 L 176.405 755.525 L 176.405 755.525 Q 175.832 755.525 175.35 755.294 L 175.35 755.294 L 175.35 755.294 Q 174.868 755.062 174.588 754.647 L 174.588 754.647 L 174.588 754.647 Q 174.307 754.232 174.307 753.732 L 174.307 753.732 L 174.307 753.732 Q 174.307 753.061 174.649 752.689 L 174.649 752.689 L 174.649 752.689 Q 174.99 752.317 175.771 752.153 L 175.771 752.153 L 175.771 752.153 Q 176.552 751.988 177.942 751.988 L 177.942 751.988 L 178.21 751.988 L 178.21 751.585 L 178.21 751.585 Q 178.21 750.853 177.912 750.512 L 177.912 750.512 L 177.912 750.512 Q 177.613 750.17 176.942 750.17 L 176.942 750.17 L 176.942 750.17 Q 176.112 750.17 175.259 750.622 L 175.259 750.622 L 175.259 750.622 Q 174.929 750.829 174.795 750.829 L 174.795 750.829 L 174.795 750.829 Q 174.649 750.829 174.551 750.719 L 174.551 750.719 L 174.551 750.719 Q 174.453 750.61 174.453 750.439 L 174.453 750.439 L 174.453 750.439 Q 174.453 750.268 174.557 750.14 L 174.557 750.14 L 174.557 750.14 Q 174.661 750.012 174.893 749.878 L 174.893 749.878 L 174.893 749.878 Q 175.32 749.634 175.862 749.493 L 175.862 749.493 L 175.862 749.493 Q 176.405 749.353 176.942 749.353 L 176.942 749.353 L 176.942 749.353 Z  M 176.539 754.745 L 176.539 754.745 Q 177.271 754.745 177.741 754.251 L 177.741 754.251 L 177.741 754.251 Q 178.21 753.757 178.21 752.976 L 178.21 752.976 L 178.21 752.622 L 177.991 752.622 L 177.991 752.622 Q 176.917 752.622 176.356 752.714 L 176.356 752.714 L 176.356 752.714 Q 175.795 752.805 175.557 753.019 L 175.557 753.019 L 175.557 753.019 Q 175.32 753.232 175.32 753.647 L 175.32 753.647 L 175.32 753.647 Q 175.32 754.123 175.667 754.434 L 175.667 754.434 L 175.667 754.434 Q 176.015 754.745 176.539 754.745 L 176.539 754.745 L 176.539 754.745 Z  M 185.749 746.779 L 185.749 746.779 Q 185.981 746.779 186.115 746.913 L 186.115 746.913 L 186.115 746.913 Q 186.249 747.048 186.249 747.255 L 186.249 747.255 L 186.249 755.013 L 186.249 755.013 Q 186.249 755.233 186.115 755.367 L 186.115 755.367 L 186.115 755.367 Q 185.981 755.501 185.749 755.501 L 185.749 755.501 L 185.749 755.501 Q 185.517 755.501 185.389 755.367 L 185.389 755.367 L 185.389 755.367 Q 185.261 755.233 185.261 755.013 L 185.261 755.013 L 185.261 754.354 L 185.261 754.354 Q 184.993 754.915 184.474 755.22 L 184.474 755.22 L 184.474 755.22 Q 183.956 755.525 183.261 755.525 L 183.261 755.525 L 183.261 755.525 Q 182.48 755.525 181.882 755.135 L 181.882 755.135 L 181.882 755.135 Q 181.284 754.745 180.955 754.043 L 180.955 754.043 L 180.955 754.043 Q 180.626 753.342 180.626 752.415 L 180.626 752.415 L 180.626 752.415 Q 180.626 751.5 180.955 750.805 L 180.955 750.805 L 180.955 750.805 Q 181.284 750.109 181.882 749.731 L 181.882 749.731 L 181.882 749.731 Q 182.48 749.353 183.261 749.353 L 183.261 749.353 L 183.261 749.353 Q 183.956 749.353 184.474 749.658 L 184.474 749.658 L 184.474 749.658 Q 184.993 749.963 185.261 750.524 L 185.261 750.524 L 185.261 747.255 L 185.261 747.255 Q 185.261 747.035 185.389 746.907 L 185.389 746.907 L 185.389 746.907 Q 185.517 746.779 185.749 746.779 L 185.749 746.779 L 185.749 746.779 Z  M 183.456 754.708 L 183.456 754.708 Q 184.322 754.708 184.791 754.116 L 184.791 754.116 L 184.791 754.116 Q 185.261 753.525 185.261 752.439 L 185.261 752.439 L 185.261 752.439 Q 185.261 751.354 184.791 750.768 L 184.791 750.768 L 184.791 750.768 Q 184.322 750.183 183.456 750.183 L 183.456 750.183 L 183.456 750.183 Q 182.59 750.183 182.108 750.768 L 182.108 750.768 L 182.108 750.768 Q 181.626 751.354 181.626 752.415 L 181.626 752.415 L 181.626 752.415 Q 181.626 753.5 182.108 754.104 L 182.108 754.104 L 182.108 754.104 Q 182.59 754.708 183.456 754.708 L 183.456 754.708 L 183.456 754.708 Z  M 192.677 754.062 L 192.677 754.062 Q 192.812 754.062 192.909 754.171 L 192.909 754.171 L 192.909 754.171 Q 193.007 754.281 193.007 754.452 L 193.007 754.452 L 193.007 754.452 Q 193.007 754.757 192.58 755.013 L 192.58 755.013 L 192.58 755.013 Q 192.141 755.269 191.653 755.397 L 191.653 755.397 L 191.653 755.397 Q 191.165 755.525 190.701 755.525 L 190.701 755.525 L 190.701 755.525 Q 189.323 755.525 188.524 754.708 L 188.524 754.708 L 188.524 754.708 Q 187.725 753.891 187.725 752.451 L 187.725 752.451 L 187.725 752.451 Q 187.725 751.537 188.079 750.835 L 188.079 750.835 L 188.079 750.835 Q 188.433 750.134 189.073 749.743 L 189.073 749.743 L 189.073 749.743 Q 189.713 749.353 190.531 749.353 L 190.531 749.353 L 190.531 749.353 Q 191.689 749.353 192.373 750.109 L 192.373 750.109 L 192.373 750.109 Q 193.056 750.866 193.056 752.159 L 193.056 752.159 L 193.056 752.159 Q 193.056 752.403 192.958 752.512 L 192.958 752.512 L 192.958 752.512 Q 192.86 752.622 192.641 752.622 L 192.641 752.622 L 188.713 752.622 L 188.713 752.622 Q 188.823 754.72 190.701 754.72 L 190.701 754.72 L 190.701 754.72 Q 191.177 754.72 191.519 754.592 L 191.519 754.592 L 191.519 754.592 Q 191.86 754.464 192.251 754.245 L 192.251 754.245 L 192.251 754.245 Q 192.568 754.062 192.677 754.062 L 192.677 754.062 L 192.677 754.062 Z  M 190.543 750.122 L 190.543 750.122 Q 189.762 750.122 189.292 750.61 L 189.292 750.61 L 189.292 750.61 Q 188.823 751.097 188.737 751.988 L 188.737 751.988 L 192.19 751.988 L 192.19 751.988 Q 192.165 751.085 191.738 750.603 L 191.738 750.603 L 191.738 750.603 Q 191.311 750.122 190.543 750.122 L 190.543 750.122 L 190.543 750.122 Z " fill-rule="evenodd" fill="rgb(102,100,100)"/><path d=" M 139.601 740.253 L 139.601 740.253 Q 134.151 740.253 129.174 738.618 L 129.174 738.618 L 129.174 738.618 Q 124.196 736.983 121.217 734.222 L 121.217 734.222 L 121.217 734.222 Q 120.127 733.205 120.127 731.679 L 120.127 731.679 L 120.127 731.679 Q 120.127 730.662 120.708 729.899 L 120.708 729.899 L 120.708 729.899 Q 121.29 729.136 122.089 729.136 L 122.089 729.136 L 122.089 729.136 Q 123.034 729.136 124.124 729.935 L 124.124 729.935 L 124.124 729.935 Q 130.881 735.167 139.528 735.167 L 139.528 735.167 L 139.528 735.167 Q 145.777 735.167 149.12 732.769 L 149.12 732.769 L 149.12 732.769 Q 152.462 730.371 152.462 725.939 L 152.462 725.939 L 152.462 725.939 Q 152.462 723.395 150.864 721.833 L 150.864 721.833 L 150.864 721.833 Q 149.265 720.271 146.649 719.326 L 146.649 719.326 L 146.649 719.326 Q 144.033 718.382 139.601 717.364 L 139.601 717.364 L 139.601 717.364 Q 133.643 715.984 129.828 714.458 L 129.828 714.458 L 129.828 714.458 Q 126.013 712.932 123.651 710.098 L 123.651 710.098 L 123.651 710.098 Q 121.29 707.264 121.29 702.686 L 121.29 702.686 L 121.29 702.686 Q 121.29 698.326 123.651 694.948 L 123.651 694.948 L 123.651 694.948 Q 126.013 691.569 130.264 689.716 L 130.264 689.716 L 130.264 689.716 Q 134.514 687.863 139.964 687.863 L 139.964 687.863 L 139.964 687.863 Q 145.051 687.863 149.447 689.425 L 149.447 689.425 L 149.447 689.425 Q 153.843 690.987 156.822 693.894 L 156.822 693.894 L 156.822 693.894 Q 157.985 695.057 157.985 696.437 L 157.985 696.437 L 157.985 696.437 Q 157.985 697.455 157.403 698.217 L 157.403 698.217 L 157.403 698.217 Q 156.822 698.98 156.023 698.98 L 156.023 698.98 L 156.023 698.98 Q 155.224 698.98 153.916 698.181 L 153.916 698.181 L 153.916 698.181 Q 150.355 695.275 147.303 694.112 L 147.303 694.112 L 147.303 694.112 Q 144.251 692.949 139.964 692.949 L 139.964 692.949 L 139.964 692.949 Q 133.933 692.949 130.591 695.456 L 130.591 695.456 L 130.591 695.456 Q 127.248 697.963 127.248 702.468 L 127.248 702.468 L 127.248 702.468 Q 127.248 706.319 130.191 708.245 L 130.191 708.245 L 130.191 708.245 Q 133.134 710.171 139.238 711.624 L 139.238 711.624 L 139.238 711.624 Q 145.85 713.222 149.628 714.567 L 149.628 714.567 L 149.628 714.567 Q 153.407 715.911 155.914 718.6 L 155.914 718.6 L 155.914 718.6 Q 158.421 721.288 158.421 725.793 L 158.421 725.793 L 158.421 725.793 Q 158.421 730.08 156.059 733.35 L 156.059 733.35 L 156.059 733.35 Q 153.698 736.62 149.41 738.437 L 149.41 738.437 L 149.41 738.437 Q 145.123 740.253 139.601 740.253 L 139.601 740.253 L 139.601 740.253 Z  M 170.192 740.035 L 170.192 740.035 Q 168.884 740.035 168.049 739.272 L 168.049 739.272 L 168.049 739.272 Q 167.213 738.509 167.213 737.129 L 167.213 737.129 L 167.213 706.465 L 167.213 706.465 Q 167.213 705.084 168.049 704.321 L 168.049 704.321 L 168.049 704.321 Q 168.884 703.558 170.192 703.558 L 170.192 703.558 L 170.192 703.558 Q 171.5 703.558 172.299 704.321 L 172.299 704.321 L 172.299 704.321 Q 173.099 705.084 173.099 706.465 L 173.099 706.465 L 173.099 737.129 L 173.099 737.129 Q 173.099 738.582 172.299 739.309 L 172.299 739.309 L 172.299 739.309 Q 171.5 740.035 170.192 740.035 L 170.192 740.035 L 170.192 740.035 Z  M 170.192 695.929 L 170.192 695.929 Q 168.448 695.929 167.358 694.911 L 167.358 694.911 L 167.358 694.911 Q 166.268 693.894 166.268 692.223 L 166.268 692.223 L 166.268 692.223 Q 166.268 690.624 167.358 689.607 L 167.358 689.607 L 167.358 689.607 Q 168.448 688.59 170.192 688.59 L 170.192 688.59 L 170.192 688.59 Q 171.936 688.59 173.026 689.607 L 173.026 689.607 L 173.026 689.607 Q 174.116 690.624 174.116 692.223 L 174.116 692.223 L 174.116 692.223 Q 174.116 693.894 173.026 694.911 L 173.026 694.911 L 173.026 694.911 Q 171.936 695.929 170.192 695.929 L 170.192 695.929 L 170.192 695.929 Z  M 214.008 713.368 L 214.008 713.368 Q 218.441 714.53 220.875 717.728 L 220.875 717.728 L 220.875 717.728 Q 223.309 720.925 223.309 725.721 L 223.309 725.721 L 223.309 725.721 Q 223.309 732.478 218.877 736.075 L 218.877 736.075 L 218.877 736.075 Q 214.444 739.672 206.306 739.672 L 206.306 739.672 L 187.995 739.672 L 187.995 739.672 Q 186.614 739.672 185.778 738.873 L 185.778 738.873 L 185.778 738.873 Q 184.943 738.073 184.943 736.765 L 184.943 736.765 L 184.943 691.351 L 184.943 691.351 Q 184.943 690.043 185.778 689.244 L 185.778 689.244 L 185.778 689.244 Q 186.614 688.444 187.995 688.444 L 187.995 688.444 L 205.507 688.444 L 205.507 688.444 Q 213.427 688.444 217.787 691.932 L 217.787 691.932 L 217.787 691.932 Q 222.147 695.42 222.147 701.814 L 222.147 701.814 L 222.147 701.814 Q 222.147 705.956 220.003 708.935 L 220.003 708.935 L 220.003 708.935 Q 217.859 711.915 214.008 713.368 L 214.008 713.368 L 214.008 713.368 Z  M 190.829 693.385 L 190.829 711.188 L 204.635 711.188 L 204.635 711.188 Q 210.375 711.188 213.318 708.863 L 213.318 708.863 L 213.318 708.863 Q 216.261 706.537 216.261 702.105 L 216.261 702.105 L 216.261 702.105 Q 216.261 693.385 204.635 693.385 L 204.635 693.385 L 190.829 693.385 L 190.829 693.385 Z  M 205.725 734.731 L 205.725 734.731 Q 211.756 734.731 214.626 732.515 L 214.626 732.515 L 214.626 732.515 Q 217.496 730.298 217.496 725.575 L 217.496 725.575 L 217.496 725.575 Q 217.496 716.129 205.725 716.129 L 205.725 716.129 L 190.829 716.129 L 190.829 734.731 L 205.725 734.731 L 205.725 734.731 Z  M 236.025 740.035 L 236.025 740.035 Q 234.717 740.035 233.882 739.272 L 233.882 739.272 L 233.882 739.272 Q 233.046 738.509 233.046 737.129 L 233.046 737.129 L 233.046 706.465 L 233.046 706.465 Q 233.046 705.084 233.882 704.321 L 233.882 704.321 L 233.882 704.321 Q 234.717 703.558 236.025 703.558 L 236.025 703.558 L 236.025 703.558 Q 237.333 703.558 238.132 704.321 L 238.132 704.321 L 238.132 704.321 Q 238.932 705.084 238.932 706.465 L 238.932 706.465 L 238.932 737.129 L 238.932 737.129 Q 238.932 738.582 238.132 739.309 L 238.132 739.309 L 238.132 739.309 Q 237.333 740.035 236.025 740.035 L 236.025 740.035 L 236.025 740.035 Z  M 236.025 695.929 L 236.025 695.929 Q 234.281 695.929 233.191 694.911 L 233.191 694.911 L 233.191 694.911 Q 232.101 693.894 232.101 692.223 L 232.101 692.223 L 232.101 692.223 Q 232.101 690.624 233.191 689.607 L 233.191 689.607 L 233.191 689.607 Q 234.281 688.59 236.025 688.59 L 236.025 688.59 L 236.025 688.59 Q 237.769 688.59 238.859 689.607 L 238.859 689.607 L 238.859 689.607 Q 239.949 690.624 239.949 692.223 L 239.949 692.223 L 239.949 692.223 Q 239.949 693.894 238.859 694.911 L 238.859 694.911 L 238.859 694.911 Q 237.769 695.929 236.025 695.929 L 236.025 695.929 L 236.025 695.929 Z " fill-rule="evenodd" fill="rgb(62,58,58)"/></g></g></g></svg>